<svg width="91" height="90" viewBox="0 0 91 90" fill="none" xmlns="http://www.w3.org/2000/svg">
<g style="mix-blend-mode:darken">
<path d="M78.8532 25.4113C84.1497 34.5851 86.798 39.172 86.9541 44.197C86.9669 44.611 86.9669 45.0252 86.9541 45.4392C86.798 50.4642 84.1497 55.0511 78.8532 64.2249C73.5567 73.3987 70.9085 77.9856 66.6347 80.6333C66.2827 80.8515 65.9239 81.0586 65.559 81.2544C61.1291 83.6317 55.8326 83.6317 45.2396 83.6317C34.6466 83.6317 29.3501 83.6317 24.9203 81.2544C24.5553 81.0586 24.1966 80.8515 23.8445 80.6333C19.5708 77.9856 16.9225 73.3987 11.626 64.2249C6.32953 55.0511 3.68128 50.4642 3.52516 45.4392C3.5123 45.0252 3.5123 44.611 3.52516 44.197C3.68129 39.172 6.32953 34.5851 11.626 25.4113C16.9225 16.2375 19.5708 11.6506 23.8445 9.00287C24.1966 8.78476 24.5553 8.57763 24.9203 8.38179C29.3501 6.00449 34.6466 6.00449 45.2396 6.00449C55.8326 6.00449 61.1291 6.00449 65.559 8.38179C65.9239 8.57763 66.2827 8.78476 66.6347 9.00287C70.9085 11.6506 73.5567 16.2375 78.8532 25.4113Z" fill="url(#paint0_linear_84_9)"/>
</g>
<path d="M31.2 39V56M58.4 39V56M29.5 66.5H39.7M60.1 66.5C56.1167 66.5 49.9 66.5 49.9 66.5M29.5 75.7C33.4833 75.7 35.7167 75.7 39.7 75.7M49.9 75.7C53.8833 75.7 56.1167 75.7 60.1 75.7M24.4 47.5H65.2C66.1017 47.5 66.9665 47.8582 67.6042 48.4958C68.2418 49.1335 68.6 49.9983 68.6 50.9V84.9C68.6 85.8017 68.2418 86.6665 67.6042 87.3042C66.9665 87.9418 66.1017 88.3 65.2 88.3H24.4C23.4983 88.3 22.6335 87.9418 21.9958 87.3042C21.3582 86.6665 21 85.8017 21 84.9V50.9C21 49.9983 21.3582 49.1335 21.9958 48.4958C22.6335 47.8582 23.4983 47.5 24.4 47.5Z" stroke="#0C2C73" stroke-width="3"/>
<defs>
<linearGradient id="paint0_linear_84_9" x1="71" y1="3.82679e-07" x2="0.421507" y2="44.8181" gradientUnits="userSpaceOnUse">
<stop stop-color="#B1FAFF"/>
<stop offset="1" stop-color="#B1FAFF" stop-opacity="0"/>
</linearGradient>
</defs>
</svg>
