<svg width="91" height="90" viewBox="0 0 91 90" fill="none" xmlns="http://www.w3.org/2000/svg">
<g style="mix-blend-mode:darken">
<path d="M79.3404 25.4113C84.6369 34.5851 87.2851 39.172 87.4413 44.197C87.4541 44.611 87.4541 45.0252 87.4413 45.4392C87.2851 50.4642 84.6369 55.0511 79.3404 64.2249C74.0439 73.3987 71.3956 77.9856 67.1219 80.6333C66.7698 80.8515 66.4111 81.0586 66.0462 81.2544C61.6163 83.6317 56.3198 83.6317 45.7268 83.6317C35.1338 83.6317 29.8373 83.6317 25.4074 81.2544C25.0425 81.0586 24.6838 80.8515 24.3317 80.6333C20.058 77.9856 17.4097 73.3987 12.1132 64.2249C6.81671 55.0511 4.16847 50.4642 4.01234 45.4392C3.99948 45.0252 3.99948 44.611 4.01234 44.197C4.16847 39.172 6.81671 34.5851 12.1132 25.4113C17.4097 16.2375 20.058 11.6506 24.3317 9.00287C24.6838 8.78476 25.0425 8.57763 25.4074 8.38179C29.8373 6.00449 35.1338 6.00449 45.7268 6.00449C56.3198 6.00449 61.6163 6.00449 66.0462 8.38179C66.4111 8.57763 66.7698 8.78476 67.1219 9.00287C71.3956 11.6506 74.0439 16.2375 79.3404 25.4113Z" fill="url(#paint0_linear_84_21)"/>
</g>
<path fill-rule="evenodd" clip-rule="evenodd" d="M45.7753 49.8771C46.1378 49.8771 46.4854 50.0211 46.7417 50.2774C46.998 50.5337 47.142 50.8813 47.142 51.2437V52.9767L48.6426 52.1102C48.7981 52.0191 48.9701 51.9596 49.1486 51.9351C49.3272 51.9107 49.5088 51.9219 49.6831 51.9679C49.8573 52.014 50.0208 52.0941 50.1639 52.2036C50.3071 52.3131 50.4272 52.4498 50.5173 52.6059C50.6074 52.7619 50.6658 52.9343 50.689 53.1131C50.7123 53.2918 50.6999 53.4733 50.6527 53.6473C50.6055 53.8212 50.5243 53.9841 50.4139 54.1266C50.3034 54.269 50.1659 54.3882 50.0092 54.4773L48.5087 55.3437L50.0092 56.2102C50.1659 56.2993 50.3034 56.4185 50.4139 56.5609C50.5243 56.7034 50.6055 56.8663 50.6527 57.0402C50.6999 57.2141 50.7123 57.3957 50.689 57.5744C50.6658 57.7532 50.6074 57.9255 50.5173 58.0816C50.4272 58.2377 50.3071 58.3744 50.1639 58.4839C50.0208 58.5934 49.8573 58.6735 49.6831 58.7195C49.5088 58.7656 49.3272 58.7768 49.1486 58.7523C48.9701 58.7279 48.7981 58.6684 48.6426 58.5773L47.142 57.7108V59.4437C47.142 59.8062 46.998 60.1538 46.7417 60.4101C46.4854 60.6664 46.1378 60.8104 45.7753 60.8104C45.4129 60.8104 45.0652 60.6664 44.8089 60.4101C44.5526 60.1538 44.4087 59.8062 44.4087 59.4437V57.7108L42.9081 58.5773C42.7526 58.6684 42.5806 58.7279 42.402 58.7523C42.2234 58.7768 42.0418 58.7656 41.8675 58.7195C41.6933 58.6735 41.5299 58.5934 41.3867 58.4839C41.2435 58.3744 41.1234 58.2377 41.0333 58.0816C40.9432 57.9255 40.8848 57.7532 40.8616 57.5744C40.8384 57.3957 40.8507 57.2141 40.8979 57.0402C40.9452 56.8663 41.0263 56.7034 41.1368 56.5609C41.2472 56.4185 41.3847 56.2993 41.5414 56.2102L43.042 55.3437L41.5414 54.4773C41.23 54.2948 41.0035 53.9965 40.9113 53.6476C40.8191 53.2987 40.8686 52.9275 41.049 52.6149C41.2295 52.3024 41.5262 52.0739 41.8745 51.9794C42.2228 51.8848 42.5943 51.9318 42.9081 52.1102L44.4087 52.9767V51.2437C44.4087 50.8813 44.5526 50.5337 44.8089 50.2774C45.0652 50.0211 45.4129 49.8771 45.7753 49.8771ZM37.5753 66.8541C37.5753 66.4916 37.7193 66.144 37.9756 65.8877C38.2319 65.6314 38.5795 65.4874 38.942 65.4874H52.6087C52.9711 65.4874 53.3187 65.6314 53.575 65.8877C53.8313 66.144 53.9753 66.4916 53.9753 66.8541C53.9753 67.2166 53.8313 67.5642 53.575 67.8205C53.3187 68.0768 52.9711 68.2208 52.6087 68.2208H38.942C38.5795 68.2208 38.2319 68.0768 37.9756 67.8205C37.7193 67.5642 37.5753 67.2166 37.5753 66.8541ZM37.5753 74.2645C37.5753 73.902 37.7193 73.5544 37.9756 73.2981C38.2319 73.0418 38.5795 72.8978 38.942 72.8978H52.6087C52.9711 72.8978 53.3187 73.0418 53.575 73.2981C53.8313 73.5544 53.9753 73.902 53.9753 74.2645C53.9753 74.6269 53.8313 74.9746 53.575 75.2309C53.3187 75.4872 52.9711 75.6311 52.6087 75.6311H38.942C38.5795 75.6311 38.2319 75.4872 37.9756 75.2309C37.7193 74.9746 37.5753 74.6269 37.5753 74.2645Z" fill="#0C2C73"/>
<path d="M32.1086 37H59.442C60.8918 37 62.2823 37.576 63.3075 38.6011C64.3327 39.6263 64.9086 41.0168 64.9086 42.4667V83.0415C64.9086 84.4913 64.3327 85.8818 63.3075 86.907C62.2823 87.9322 60.8918 88.5081 59.442 88.5081H32.1086C30.6588 88.5081 29.2683 87.9322 28.2431 86.907C27.2179 85.8818 26.642 84.4913 26.642 83.0415V80.3081H29.3753V83.0415C29.3753 83.7664 29.6633 84.4616 30.1759 84.9742C30.6885 85.4868 31.3837 85.7748 32.1086 85.7748H59.442C60.1669 85.7748 60.8621 85.4868 61.3747 84.9742C61.8873 84.4616 62.1753 83.7664 62.1753 83.0415V42.4667C62.1753 41.7417 61.8873 41.0465 61.3747 40.5339C60.8621 40.0213 60.1669 39.7333 59.442 39.7333H32.1086C31.3837 39.7333 30.6885 40.0213 30.1759 40.5339C29.6633 41.0465 29.3753 41.7417 29.3753 42.4667V45.2H26.642V42.4667C26.642 41.0168 27.2179 39.6263 28.2431 38.6011C29.2683 37.576 30.6588 37 32.1086 37Z" fill="#0C2C73"/>
<path d="M26.642 52.6104V51.2437C26.642 50.8813 26.786 50.5337 27.0423 50.2774C27.2986 50.0211 27.6462 49.8771 28.0087 49.8771C28.3712 49.8771 28.7188 50.0211 28.9751 50.2774C29.2314 50.5337 29.3754 50.8813 29.3754 51.2437V52.6104H30.742C31.1045 52.6104 31.4521 52.7544 31.7084 53.0107C31.9647 53.267 32.1087 53.6146 32.1087 53.9771C32.1087 54.3395 31.9647 54.6872 31.7084 54.9435C31.4521 55.1998 31.1045 55.3437 30.742 55.3437H25.2754C24.9129 55.3437 24.5653 55.1998 24.309 54.9435C24.0527 54.6872 23.9087 54.3395 23.9087 53.9771C23.9087 53.6146 24.0527 53.267 24.309 53.0107C24.5653 52.7544 24.9129 52.6104 25.2754 52.6104H26.642ZM26.642 62.7541V61.3874C26.642 61.025 26.786 60.6774 27.0423 60.4211C27.2986 60.1648 27.6462 60.0208 28.0087 60.0208C28.3712 60.0208 28.7188 60.1648 28.9751 60.4211C29.2314 60.6774 29.3754 61.025 29.3754 61.3874V62.7541H30.742C31.1045 62.7541 31.4521 62.8981 31.7084 63.1544C31.9647 63.4107 32.1087 63.7583 32.1087 64.1208C32.1087 64.4832 31.9647 64.8309 31.7084 65.0872C31.4521 65.3435 31.1045 65.4874 30.742 65.4874H25.2754C24.9129 65.4874 24.5653 65.3435 24.309 65.0872C24.0527 64.8309 23.9087 64.4832 23.9087 64.1208C23.9087 63.7583 24.0527 63.4107 24.309 63.1544C24.5653 62.8981 24.9129 62.7541 25.2754 62.7541H26.642ZM26.642 72.8978V71.5311C26.642 71.1687 26.786 70.8211 27.0423 70.5648C27.2986 70.3085 27.6462 70.1645 28.0087 70.1645C28.3712 70.1645 28.7188 70.3085 28.9751 70.5648C29.2314 70.8211 29.3754 71.1687 29.3754 71.5311V72.8978H30.742C31.1045 72.8978 31.4521 73.0418 31.7084 73.2981C31.9647 73.5544 32.1087 73.902 32.1087 74.2645C32.1087 74.6269 31.9647 74.9746 31.7084 75.2309C31.4521 75.4872 31.1045 75.6311 30.742 75.6311H25.2754C24.9129 75.6311 24.5653 75.4872 24.309 75.2309C24.0527 74.9746 23.9087 74.6269 23.9087 74.2645C23.9087 73.902 24.0527 73.5544 24.309 73.2981C24.5653 73.0418 24.9129 72.8978 25.2754 72.8978H26.642Z" fill="#0C2C73"/>
<defs>
<linearGradient id="paint0_linear_84_21" x1="58.4087" y1="-5.13351e-07" x2="0.908686" y2="44.8181" gradientUnits="userSpaceOnUse">
<stop stop-color="#D0E6FF"/>
<stop offset="1" stop-color="#D0E6FF" stop-opacity="0"/>
</linearGradient>
</defs>
</svg>
