<svg width="90" height="90" viewBox="0 0 90 90" fill="none" xmlns="http://www.w3.org/2000/svg">
<path d="M38.6087 62.3999H41.2087V64.9999H38.6087V62.3999ZM45.1087 62.3999H47.7087V64.9999H45.1087V62.3999ZM51.6087 62.3999H54.2087V64.9999H51.6087V62.3999Z" fill="#0C2C73"/>
<path d="M38.6087 70.3999H41.2087V72.9999H38.6087V70.3999ZM45.1087 70.3999H47.7087V72.9999H45.1087V70.3999ZM51.6087 70.3999H54.2087V72.9999H51.6087V70.3999Z" fill="#0C2C73"/>
<path d="M61.3587 85.4V44.85H55.5087V39H37.3087V44.85H31.4587V85.4H26.9087V88H65.9087V85.4H61.3587ZM39.9087 41.6H52.9087V54.6H39.9087V41.6ZM58.7587 85.4H47.7087V80.2H45.1087V85.4H34.0587V47.45H37.3087V57.2H55.5087V47.45H58.7587V85.4Z" fill="#0C2C73"/>
<g style="mix-blend-mode:darken">
<path d="M78.7042 25.4113C84.0007 34.5851 86.6489 39.172 86.805 44.197C86.8179 44.611 86.8179 45.0252 86.805 45.4392C86.6489 50.4642 84.0007 55.0511 78.7042 64.2249C73.4077 73.3987 70.7594 77.9856 66.4857 80.6333C66.1336 80.8515 65.7749 81.0586 65.4099 81.2544C60.9801 83.6317 55.6836 83.6317 45.0906 83.6317C34.4976 83.6317 29.2011 83.6317 24.7712 81.2544C24.4063 81.0586 24.0475 80.8515 23.6955 80.6333C19.4217 77.9856 16.7735 73.3987 11.477 64.2249C6.18048 55.0511 3.53224 50.4642 3.37611 45.4392C3.36325 45.0252 3.36325 44.611 3.37611 44.197C3.53224 39.172 6.18048 34.5851 11.477 25.4113C16.7735 16.2375 19.4217 11.6506 23.6955 9.00287C24.0475 8.78476 24.4063 8.57763 24.7712 8.38179C29.2011 6.00449 34.4976 6.00449 45.0906 6.00449C55.6836 6.00449 60.9801 6.00449 65.4099 8.38179C65.7749 8.57763 66.1336 8.78476 66.4857 9.00287C70.7594 11.6506 73.4077 16.2375 78.7042 25.4113Z" fill="url(#paint0_linear_84_20)"/>
</g>
<path d="M47.7087 44.2H45.1087V46.8H42.5087V49.4H45.1087V52H47.7087V49.4H50.3087V46.8H47.7087V44.2Z" fill="#0C2C73"/>
<defs>
<linearGradient id="paint0_linear_84_20" x1="58.5" y1="5.92711e-07" x2="0.272461" y2="44.8181" gradientUnits="userSpaceOnUse">
<stop stop-color="#E4DBFF"/>
<stop offset="1" stop-color="#E4DBFF" stop-opacity="0"/>
</linearGradient>
</defs>
</svg>
