<svg width="90" height="90" viewBox="0 0 90 90" fill="none" xmlns="http://www.w3.org/2000/svg">
<g style="mix-blend-mode:darken">
<path d="M78.4317 25.4113C83.7282 34.5851 86.3764 39.172 86.5326 44.197C86.5454 44.611 86.5454 45.0252 86.5326 45.4392C86.3764 50.4642 83.7282 55.0511 78.4317 64.2249C73.1352 73.3987 70.4869 77.9856 66.2132 80.6333C65.8612 80.8515 65.5024 81.0586 65.1375 81.2544C60.7076 83.6317 55.4111 83.6317 44.8181 83.6317C34.2251 83.6317 28.9286 83.6317 24.4987 81.2544C24.1338 81.0586 23.7751 80.8515 23.423 80.6333C19.1493 77.9856 16.501 73.3987 11.2045 64.2249C5.90802 55.0511 3.25978 50.4642 3.10365 45.4392C3.09079 45.0252 3.09079 44.611 3.10365 44.197C3.25978 39.172 5.90802 34.5851 11.2045 25.4113C16.501 16.2375 19.1493 11.6506 23.423 9.00287C23.7751 8.78476 24.1338 8.57763 24.4988 8.38179C28.9286 6.00449 34.2251 6.00449 44.8181 6.00449C55.4111 6.00449 60.7076 6.00449 65.1375 8.38179C65.5024 8.57763 65.8612 8.78476 66.2132 9.00287C70.487 11.6506 73.1352 16.2375 78.4317 25.4113Z" fill="url(#paint0_linear_84_19)"/>
</g>
<path fill-rule="evenodd" clip-rule="evenodd" d="M35.1307 43.7768L35.2055 43.4501C35.3484 42.843 35.5825 41.9501 36.0657 41.0709C36.5585 40.1753 37.322 39.2674 38.5198 38.6699C39.7135 38.0751 41.2094 37.8532 43.0591 38.0982C45.1008 38.3704 49.2018 39.0455 52.8251 40.8885C56.4688 42.7423 59.8825 45.9314 59.8825 51.2424C59.8825 53.9864 58.8208 56.9305 57.7918 58.8497C57.2977 59.7725 56.7111 60.6545 56.1231 61.1296C55.9883 61.2384 55.7964 61.3746 55.5582 61.4698C54.9048 63.6171 53.6042 65.5101 51.8342 66.8901C50.0641 68.2701 47.911 69.0697 45.6693 69.1797C43.4275 69.2896 41.2065 68.7045 39.31 67.5042C37.4134 66.304 35.9338 64.5473 35.0735 62.4743L35.0408 62.4798L34.5576 61.8931L35.6084 61.0275L34.5576 61.8931L34.5563 61.8904L34.5535 61.8877L34.5467 61.8782L34.5236 61.8509C34.4071 61.706 34.295 61.5575 34.1874 61.4059C33.8935 60.9982 33.6165 60.5786 33.3571 60.1482C32.7174 59.0893 31.9457 57.5811 31.4516 55.8212C30.9588 54.0613 30.7329 51.9979 31.2501 49.8691C31.7537 47.7975 32.942 45.7585 35.0939 43.9374L35.1307 43.7768ZM37.4173 60.9785C38.0076 62.6761 39.1412 64.1317 40.6426 65.1199C42.1439 66.1081 43.9291 66.5736 45.7218 66.4445C47.5145 66.3153 49.2146 65.5987 50.5588 64.4056C51.903 63.2124 52.8163 61.6094 53.1572 59.8447L53.311 59.8964C53.3056 59.8194 53.3029 59.7422 53.3028 59.665C53.3028 57.4124 52.9898 55.8403 52.6985 54.8603C52.6416 54.6695 52.5785 54.4807 52.5093 54.2941L52.4535 54.2968H52.3991C51.3813 54.3188 50.3638 54.2413 49.3611 54.0654C47.024 53.6707 43.8595 52.6852 40.1327 50.4026C40.0511 50.585 39.9694 50.7906 39.8877 51.0192C39.621 51.7746 39.4018 52.6716 39.2126 53.6189C39.0452 54.4533 38.9077 55.2931 38.7771 56.0798L38.7267 56.3902C38.5865 57.2341 38.4463 58.063 38.283 58.6632C37.9972 59.7058 37.7059 60.4463 37.4173 60.9771V60.9785ZM35.5118 58.4427C34.897 57.3875 34.4143 56.2606 34.0744 55.0876C33.6675 53.6366 33.5177 52.0659 33.8961 50.5129C34.2636 49.0021 35.1524 47.4136 36.9804 45.9083C37.3098 45.685 37.4595 45.3856 37.5003 45.3053V45.3039C37.5718 45.1568 37.6292 45.0032 37.6718 44.8452C37.7154 44.6901 37.763 44.4777 37.808 44.2872L37.8556 44.0735C37.9849 43.5249 38.1523 42.9274 38.4518 42.3816C38.743 41.8535 39.1418 41.4016 39.7353 41.1063C40.3315 40.8082 41.2543 40.604 42.6998 40.7973C44.6775 41.06 48.3974 41.6902 51.5906 43.3153C54.762 44.9283 57.1602 47.3701 57.1602 51.2424C57.1602 53.0255 56.5613 55.0536 55.84 56.6529C55.7038 55.6103 55.5078 54.7582 55.3064 54.0831C55.166 53.6006 54.9909 53.1289 54.7824 52.6716C54.7038 52.5022 54.6175 52.3364 54.5238 52.1748L54.5006 52.1381L54.4925 52.1244L54.4884 52.1176L54.4857 52.1136L53.3423 52.8486L54.4857 52.1136L53.982 51.3323L53.081 51.5133L53.0619 51.5174L52.9299 51.5351C52.7273 51.5577 52.5239 51.5713 52.3201 51.5759C51.4809 51.5921 50.6421 51.5265 49.8157 51.3799C47.6202 51.0097 44.3944 50.0011 40.4757 47.3919L39.523 46.7562L38.7349 47.5865C38.0856 48.2698 37.6446 49.2021 37.322 50.11C36.9927 51.0424 36.7436 52.0836 36.5435 53.0827C36.3776 53.9329 36.2269 54.786 36.0916 55.6416L36.0399 55.9464C35.8942 56.8325 35.7758 57.509 35.656 57.9473C35.6114 58.1134 35.5633 58.2786 35.5118 58.4427ZM54.4053 59.0171L54.4108 59.0144L54.4053 59.0171ZM54.4108 59.0144L54.4053 59.0171L54.4094 59.0144H54.4108Z" fill="#0C2C73"/>
<path fill-rule="evenodd" clip-rule="evenodd" d="M36.8525 70.3579C36.564 69.7836 36.2087 69.0744 35.6085 69.2119C28.253 70.8861 20.6362 75.7194 20.6362 80.8589V88.2498H69.6362V80.8589C69.6362 76.811 64.9104 72.9522 59.3095 70.6778L59.3027 70.6642C59.2965 70.6519 59.2901 70.6396 59.2836 70.6274L59.2387 70.6492C57.751 70.0503 56.2021 69.5603 54.664 69.2119C53.9794 69.0554 53.2716 69.9972 52.9626 70.5866H36.9696C36.9315 70.5158 36.8933 70.4369 36.8525 70.3579ZM55.2125 72.1546C55.8073 72.3193 56.3994 72.5044 56.9833 72.7086C56.9997 73.1741 56.9643 73.724 56.8881 74.2847C56.8105 74.8654 56.6867 75.4388 56.5178 75.9997H54.664C54.4113 75.9999 54.1636 76.0704 53.9487 76.2033C53.7338 76.3362 53.5601 76.5264 53.4472 76.7524L52.0861 79.4747C51.9914 79.6635 51.942 79.8718 51.9418 80.0831V82.8053C51.9418 83.1663 52.0852 83.5125 52.3404 83.7678C52.5957 84.023 52.9419 84.1664 53.3029 84.1664H56.0251V81.4442H54.664V80.4043L55.5052 78.722H59.2673L60.1085 80.4043V81.4442H58.7473V84.1664H61.4696C61.8306 84.1664 62.1768 84.023 62.432 83.7678C62.6873 83.5125 62.8307 83.1663 62.8307 82.8053V80.0831C62.8305 79.8718 62.7811 79.6635 62.6864 79.4747L61.3253 76.7524C61.2123 76.5264 61.0387 76.3362 60.8237 76.2033C60.6088 76.0704 60.3612 75.9999 60.1085 75.9997H59.3381C59.5062 75.2794 59.6191 74.5473 59.6756 73.8097C61.0027 74.4372 62.2359 75.1572 63.3043 75.9358C65.9204 77.8441 66.914 79.6298 66.914 80.8589V85.5275H23.3585V80.8589C23.3585 79.6298 24.3521 77.8441 26.9681 75.9358C28.283 74.9762 29.8523 74.1078 31.5346 73.3891C31.5814 74.4738 31.7554 75.5492 32.0532 76.5932L32.0641 76.6313C31.2504 77.1461 30.6448 77.9319 30.3542 78.8499C30.0636 79.7679 30.1068 80.759 30.4761 81.6482C30.8455 82.5375 31.5171 83.2676 32.3726 83.7097C33.228 84.1517 34.2121 84.2773 35.1511 84.0641C36.0901 83.851 36.9235 83.3128 37.5043 82.5448C38.085 81.7768 38.3756 80.8282 38.3248 79.8666C38.274 78.9051 37.8851 77.9924 37.2266 77.2899C36.5682 76.5873 35.6827 76.14 34.7265 76.027C34.5525 75.4575 34.4251 74.8748 34.3453 74.2847C34.2696 73.757 34.2381 73.2239 34.2514 72.6909C34.2554 72.5891 34.2622 72.4874 34.2718 72.386C34.4352 72.3356 34.5985 72.2866 34.7618 72.2404L35.3267 73.3102H54.6055L55.2125 72.156V72.1546ZM34.2473 81.466C34.9796 81.466 35.6085 80.8671 35.6085 80.0844C35.6085 79.3032 34.9796 78.7029 34.2473 78.7029C33.5151 78.7029 32.8862 79.3018 32.8862 80.0844C32.8862 80.8657 33.5151 81.466 34.2473 81.466Z" fill="#0C2C73"/>
<defs>
<linearGradient id="paint0_linear_84_19" x1="55.5" y1="1.1244e-06" x2="-5.88166e-07" y2="44.8181" gradientUnits="userSpaceOnUse">
<stop stop-color="#FFE794"/>
<stop offset="1" stop-color="#FFE794" stop-opacity="0"/>
</linearGradient>
</defs>
</svg>
