<svg width="91" height="90" viewBox="0 0 91 90" fill="none" xmlns="http://www.w3.org/2000/svg">
<g style="mix-blend-mode:darken">
<path d="M79.0679 25.4113C84.3644 34.5851 87.0127 39.172 87.1688 44.197C87.1817 44.611 87.1817 45.0252 87.1688 45.4392C87.0127 50.4642 84.3644 55.0511 79.0679 64.2249C73.7714 73.3987 71.1232 77.9856 66.8494 80.6333C66.4974 80.8515 66.1386 81.0586 65.7737 81.2544C61.3438 83.6317 56.0473 83.6317 45.4543 83.6317C34.8613 83.6317 29.5648 83.6317 25.135 81.2544C24.7701 81.0586 24.4113 80.8515 24.0592 80.6333C19.7855 77.9856 17.1373 73.3987 11.8408 64.2249C6.54425 55.0511 3.89601 50.4642 3.73988 45.4392C3.72702 45.0252 3.72702 44.611 3.73988 44.197C3.89601 39.172 6.54425 34.5851 11.8408 25.4113C17.1373 16.2375 19.7855 11.6506 24.0592 9.00287C24.4113 8.78476 24.7701 8.57763 25.135 8.38179C29.5648 6.00449 34.8613 6.00449 45.4543 6.00449C56.0473 6.00449 61.3438 6.00449 65.7737 8.38179C66.1386 8.57763 66.4974 8.78476 66.8494 9.00287C71.1232 11.6506 73.7714 16.2375 79.0679 25.4113Z" fill="url(#paint0_linear_84_11)"/>
</g>
<path fill-rule="evenodd" clip-rule="evenodd" d="M40.2725 37C39.2116 37 38.1942 37.4214 37.444 38.1715C36.6939 38.9217 36.2725 39.939 36.2725 40.9999H32.2725C31.2116 40.9999 30.1942 41.4213 29.444 42.1714C28.6939 42.9215 28.2725 43.9389 28.2725 44.9998V82.332C28.2725 83.3928 28.6939 84.4102 29.444 85.1603C30.1942 85.9105 31.2116 86.3319 32.2725 86.3319H48.2725V83.6653H32.2725C31.9188 83.6653 31.5797 83.5248 31.3297 83.2748C31.0796 83.0247 30.9391 82.6856 30.9391 82.332V44.9998C30.9391 44.6462 31.0796 44.307 31.3297 44.057C31.5797 43.8069 31.9188 43.6665 32.2725 43.6665H36.2725C36.2725 44.7273 36.6939 45.7447 37.444 46.4948C38.1942 47.2449 39.2116 47.6664 40.2725 47.6664H50.9391C52 47.6664 53.0174 47.2449 53.7676 46.4948C54.5177 45.7447 54.9391 44.7273 54.9391 43.6665H58.9391C59.2928 43.6665 59.6319 43.8069 59.8819 44.057C60.132 44.307 60.2725 44.6462 60.2725 44.9998V64.9992H62.9391V44.9998C62.9391 43.9389 62.5177 42.9215 61.7676 42.1714C61.0174 41.4213 60 40.9999 58.9391 40.9999H54.9391C54.9391 39.939 54.5177 38.9217 53.7676 38.1715C53.0174 37.4214 52 37 50.9391 37H40.2725ZM38.9391 40.9999C38.9391 40.6463 39.0796 40.3071 39.3297 40.0571C39.5797 39.8071 39.9188 39.6666 40.2725 39.6666H50.9391C51.2928 39.6666 51.6319 39.8071 51.8819 40.0571C52.132 40.3071 52.2725 40.6463 52.2725 40.9999V43.6665C52.2725 44.0201 52.132 44.3592 51.8819 44.6093C51.6319 44.8593 51.2928 44.9998 50.9391 44.9998H40.2725C39.9188 44.9998 39.5797 44.8593 39.3297 44.6093C39.0796 44.3592 38.9391 44.0201 38.9391 43.6665V40.9999ZM44.2725 56.9994V52.9995H46.9391V56.9994H50.9391V59.666H46.9391V63.6659H44.2725V59.666H40.2725V56.9994H44.2725ZM49.6058 68.9991C49.6058 68.6454 49.7463 68.3063 49.9963 68.0563C50.2464 67.8062 50.5855 67.6658 50.9391 67.6658H66.9391C67.2928 67.6658 67.6319 67.8062 67.8819 68.0563C68.132 68.3063 68.2725 68.6454 68.2725 68.9991V78.0508C68.2724 79.5872 67.893 81.0998 67.168 82.4544C66.443 83.809 65.3948 84.9636 64.1165 85.8159L59.6791 88.7758C59.46 88.922 59.2025 89 58.9391 89C58.6757 89 58.4182 88.922 58.1991 88.7758L53.7618 85.8159C52.4836 84.9638 51.4355 83.8093 50.7105 82.455C49.9855 81.1006 49.6061 79.5883 49.6058 78.0521V68.9991ZM52.2725 70.3324V78.0508C52.2726 79.1483 52.5437 80.2288 53.0617 81.1963C53.5797 82.1639 54.3285 82.9886 55.2418 83.5973L58.9391 86.0652L62.6365 83.5986C63.5497 82.99 64.2986 82.1652 64.8166 81.1977C65.3346 80.2301 65.6057 79.1496 65.6058 78.0521V70.3324H52.2725ZM58.5485 80.608L63.8818 75.2749L61.9965 73.3896L57.6058 77.7801L55.8818 76.0562L53.9965 77.9415L56.6631 80.608C56.9132 80.858 57.2522 80.9984 57.6058 80.9984C57.9593 80.9984 58.2984 80.858 58.5485 80.608Z" fill="#0C2C73"/>
<defs>
<linearGradient id="paint0_linear_84_11" x1="60.5" y1="-2.61788e-07" x2="0.636228" y2="44.8181" gradientUnits="userSpaceOnUse">
<stop stop-color="#FFD9BD"/>
<stop offset="1" stop-color="#FFD9BD" stop-opacity="0"/>
</linearGradient>
</defs>
</svg>
