<svg width="152" height="211" viewBox="0 0 152 211" fill="none" xmlns="http://www.w3.org/2000/svg">
<g style="mix-blend-mode:darken">
<path d="M109.613 86.4114C114.909 95.5852 117.558 100.172 117.714 105.197C117.727 105.611 117.727 106.025 117.714 106.439C117.558 111.464 114.909 116.051 109.613 125.225C104.316 134.399 101.668 138.986 97.3944 141.633C97.0423 141.852 96.6835 142.059 96.3186 142.255C91.8888 144.632 86.5923 144.632 75.9993 144.632C65.4063 144.632 60.1098 144.632 55.6799 142.255C55.315 142.059 54.9562 141.852 54.6042 141.633C50.3304 138.986 47.6822 134.399 42.3857 125.225C37.0892 116.051 34.4409 111.464 34.2848 106.439C34.2719 106.025 34.2719 105.611 34.2848 105.197C34.4409 100.172 37.0892 95.5852 42.3857 86.4114C47.6822 77.2376 50.3304 72.6507 54.6042 70.003C54.9562 69.7849 55.315 69.5778 55.6799 69.3819C60.1098 67.0046 65.4063 67.0046 75.9993 67.0046C86.5923 67.0046 91.8888 67.0046 96.3186 69.3819C96.6835 69.5778 97.0423 69.7849 97.3944 70.003C101.668 72.6507 104.316 77.2376 109.613 86.4114Z" fill="url(#paint0_linear_84_23)"/>
</g>
<path d="M92.6716 133.399L99.6222 138.713M92.6716 133.399C91.1979 135.38 89.3174 137.019 87.138 138.224C84.9587 139.428 82.5235 140.174 79.9725 140.418M92.6716 133.399L79.9725 140.418M92.6716 133.399C94.1511 131.423 95.1955 129.144 95.7447 126.694C96.2938 124.243 96.3369 121.668 95.8715 119.118M92.6716 133.399L95.8715 119.118M99.6222 138.713L102.834 134.41M99.6222 138.713L96.4103 143.016M79.9725 140.418C77.4226 140.668 74.8059 140.412 72.2728 139.665C69.7396 138.917 67.34 137.692 65.2118 136.061M79.9725 140.418L65.2118 136.061M79.9725 140.418L81.7853 150.421M95.8715 119.118C94.9692 114.15 92.1738 109.363 87.6953 105.94M95.8715 119.118L87.6953 105.94M95.8715 119.118L105.875 118.149M65.2118 136.061L60.3939 142.515M65.2118 136.061C63.0795 134.435 61.2594 132.433 59.8563 130.172C58.4531 127.91 57.4945 125.433 57.0355 122.882M65.2118 136.061L57.0355 122.882M60.3939 142.515L65.0276 146.058M60.3939 142.515L55.7601 138.972M57.0355 122.882C56.1371 117.914 57.1311 112.76 60.2354 108.601M57.0355 122.882L60.2354 108.601M57.0355 122.882L47.0323 123.851M60.2354 108.601C63.2169 104.606 67.785 102.082 72.9347 101.583M60.2354 108.601L53.2848 103.287M60.2354 108.601L72.9347 101.583M72.9347 101.583C78.0844 101.084 83.394 102.651 87.6953 105.94M72.9347 101.583L87.6953 105.94M87.6953 105.94L92.5132 99.485M53.2848 103.287L56.4968 98.9838M53.2848 103.287L50.0729 107.59M92.5132 99.485L97.1469 103.028M92.5132 99.485L87.8794 95.9423M105.875 118.149L104.808 112.264M105.875 118.149L106.941 124.033M71.1217 91.5788L77.006 91.0085M71.1217 91.5788L65.2375 92.1491M71.1217 91.5788L72.899 101.386M47.0323 123.851L48.0986 129.736M47.0323 123.851L45.9659 117.967M81.7853 150.421L75.901 150.992M81.7853 150.421L87.6695 149.851M77.8753 128.846L77.8776 128.848" stroke="#0C2C73" stroke-width="2.8" stroke-linecap="round" stroke-linejoin="round"/>
<path d="M73.2349 118.343C75.1543 119.811 77.7887 119.555 79.1191 117.773C80.4496 115.99 79.9721 113.356 78.0528 111.889C76.1335 110.421 73.499 110.676 72.1686 112.459C70.8382 114.241 71.3156 116.876 73.2349 118.343Z" stroke="#0C2C73" stroke-width="2.8" stroke-linecap="round" stroke-linejoin="round"/>
<defs>
<linearGradient id="paint0_linear_84_23" x1="76.1812" y1="61.0001" x2="31.1812" y2="105.818" gradientUnits="userSpaceOnUse">
<stop stop-color="#FFD0F5"/>
<stop offset="1" stop-color="#FFD0F5" stop-opacity="0"/>
</linearGradient>
</defs>
</svg>
