<svg width="91" height="90" viewBox="0 0 91 90" fill="none" xmlns="http://www.w3.org/2000/svg">
<g style="mix-blend-mode:darken">
<path d="M79.3404 25.4113C84.6369 34.5851 87.2851 39.172 87.4413 44.197C87.4541 44.611 87.4541 45.0252 87.4413 45.4392C87.2851 50.4642 84.6369 55.0511 79.3404 64.2249C74.0439 73.3987 71.3956 77.9856 67.1219 80.6333C66.7698 80.8515 66.4111 81.0586 66.0462 81.2544C61.6163 83.6317 56.3198 83.6317 45.7268 83.6317C35.1338 83.6317 29.8373 83.6317 25.4074 81.2544C25.0425 81.0586 24.6838 80.8515 24.3317 80.6333C20.058 77.9856 17.4097 73.3987 12.1132 64.2249C6.81671 55.0511 4.16847 50.4642 4.01234 45.4392C3.99948 45.0252 3.99948 44.611 4.01234 44.197C4.16847 39.172 6.81671 34.5851 12.1132 25.4113C17.4097 16.2375 20.058 11.6506 24.3317 9.00287C24.6838 8.78476 25.0425 8.57763 25.4074 8.38179C29.8373 6.00449 35.1338 6.00449 45.7268 6.00449C56.3198 6.00449 61.6163 6.00449 66.0462 8.38179C66.4111 8.57763 66.7698 8.78476 67.1219 9.00287C71.3956 11.6506 74.0439 16.2375 79.3404 25.4113Z" fill="url(#paint0_linear_84_13)"/>
</g>
<path d="M36.7836 38C35.2918 38 33.8611 38.5885 32.8062 39.6361C31.7513 40.6837 31.1586 42.1045 31.1586 43.586V62.0399C32.143 62.3444 33.0908 62.7913 33.9711 63.3806V43.586C33.9711 42.8453 34.2675 42.1349 34.7949 41.6111C35.3224 41.0873 36.0377 40.793 36.7836 40.793H48.0337V50.5686C48.0337 51.6797 48.4781 52.7454 49.2693 53.531C50.0605 54.3167 51.1335 54.7581 52.2524 54.7581H62.0962V81.1023C62.0962 81.8431 61.7999 82.5535 61.2724 83.0773C60.745 83.6011 60.0296 83.8953 59.2837 83.8953H43.6743L40.8618 86.6884H59.2837C60.7755 86.6884 62.2063 86.0998 63.2612 85.0522C64.3161 84.0047 64.9087 82.5838 64.9087 81.1023V53.1214C64.9077 52.0107 64.4626 50.9458 63.6712 50.1608L52.663 39.2261C51.8722 38.4412 50.7999 38.0002 49.6818 38H36.7836ZM61.514 51.9651H52.2524C51.8795 51.9651 51.5218 51.818 51.2581 51.5561C50.9943 51.2942 50.8462 50.939 50.8462 50.5686V41.3712L61.514 51.9651ZM24.2455 68.651C24.7287 68.1709 25.3024 67.7901 25.9339 67.5302C26.5653 67.2704 27.2421 67.1366 27.9257 67.1366C28.6092 67.1366 29.286 67.2704 29.9175 67.5302C30.5489 67.7901 31.1226 68.1709 31.6058 68.651L32.984 70.0196C33.2477 70.2814 33.6053 70.4285 33.9782 70.4285C34.3511 70.4285 34.7087 70.2814 34.9724 70.0196L36.3505 68.651C37.1035 67.9021 38.0698 67.4009 39.1188 67.2151C40.1679 67.0292 41.2492 67.1678 42.2164 67.6119C43.1836 68.0561 43.9902 68.7845 44.5271 69.6986C45.064 70.6127 45.3053 71.6685 45.2183 72.7232H48.0365C48.1221 71.1151 47.7145 69.5189 46.8675 68.1456C46.0206 66.7722 44.7741 65.6863 43.2926 65.0312C41.8112 64.3761 40.1645 64.1827 38.5701 64.4764C36.9756 64.7701 35.5084 65.5372 34.3621 66.6764L33.9796 67.0562L33.5943 66.6764C32.448 65.5372 30.9807 64.7701 29.3863 64.4764C27.7918 64.1827 26.1451 64.3761 24.6637 65.0312C23.1823 65.6863 21.9358 66.7722 21.0888 68.1456C20.2418 69.5189 19.8343 71.1151 19.9199 72.7232H22.738C22.6762 71.9765 22.7791 71.2253 23.0394 70.522C23.2998 69.8187 23.7114 69.1802 24.2455 68.651ZM29.4233 81.1023H25.4464L32.984 88.5876C33.114 88.7183 33.2688 88.822 33.4394 88.8928C33.6101 88.9636 33.7932 89 33.9782 89C34.1631 89 34.3462 88.9636 34.5169 88.8928C34.6876 88.822 34.8424 88.7183 34.9724 88.5876L42.5099 81.1023H38.533L33.9768 85.627L29.4261 81.1023H29.4233ZM31.018 70.7011C30.9014 70.4687 30.7218 70.2732 30.4995 70.1366C30.2772 69.9999 30.0209 69.9275 29.7594 69.9275C29.498 69.9275 29.2417 69.9999 29.0193 70.1366C28.797 70.2732 28.6175 70.4687 28.5008 70.7011L26.0764 75.5163H22.7211C22.3482 75.5163 21.9905 75.6634 21.7268 75.9253C21.463 76.1872 21.3149 76.5424 21.3149 76.9128C21.3149 77.2832 21.463 77.6384 21.7268 77.9003C21.9905 78.1622 22.3482 78.3093 22.7211 78.3093H26.9455C27.2069 78.3098 27.4633 78.2379 27.6859 78.1018C27.9085 77.9656 28.0884 77.7705 28.2055 77.5384L29.758 74.4493L32.7196 80.3314C32.8269 80.5442 32.9872 80.7261 33.1853 80.86C33.3833 80.994 33.6125 81.0754 33.8511 81.0967C34.0898 81.118 34.3299 81.0783 34.5488 80.9815C34.7677 80.8848 34.958 80.7341 35.1018 80.5437L38.3502 76.2452L40.0152 77.9015C40.2788 78.1626 40.6358 78.3092 41.008 78.3093H45.2212C45.5941 78.3093 45.9518 78.1622 46.2155 77.9003C46.4793 77.6384 46.6274 77.2832 46.6274 76.9128C46.6274 76.5424 46.4793 76.1872 46.2155 75.9253C45.9518 75.6634 45.5941 75.5163 45.2212 75.5163H41.593L39.1912 73.131C39.0486 72.9894 38.877 72.8799 38.6881 72.8099C38.4992 72.7399 38.2973 72.7111 38.0961 72.7254C37.895 72.7397 37.6993 72.7968 37.5224 72.8928C37.3454 72.9888 37.1913 73.1215 37.0705 73.2819L34.2186 77.0608L31.018 70.7011Z" fill="#0C2C73"/>
<defs>
<linearGradient id="paint0_linear_84_13" x1="59.9087" y1="-4.28959e-07" x2="0.908691" y2="44.8181" gradientUnits="userSpaceOnUse">
<stop stop-color="#FFD0D0"/>
<stop offset="1" stop-color="#FFD0D0" stop-opacity="0"/>
</linearGradient>
</defs>
</svg>
