<svg width="1038" height="668" viewBox="0 0 1038 668" fill="none" xmlns="http://www.w3.org/2000/svg">
<g style="mix-blend-mode:darken" opacity="0.3">
<path d="M796.995 189.655C845.436 206.189 869.657 214.457 885.673 232.782C901.689 251.106 906.64 276.216 916.542 326.434L917.465 331.12C927.367 381.338 932.318 406.448 924.456 429.481C916.594 452.513 897.324 469.356 858.785 503.04L855.189 506.183C816.649 539.867 797.379 556.709 773.501 561.417C749.623 566.125 725.402 557.858 676.961 541.323L672.441 539.781C624 523.246 599.779 514.979 583.763 496.654C567.747 478.329 562.796 453.22 552.895 403.002L551.971 398.316C542.07 348.097 537.119 322.988 544.981 299.955C552.842 276.922 572.112 260.08 610.652 226.396L614.248 223.253C652.788 189.569 672.058 172.727 695.936 168.019C719.813 163.311 744.034 171.578 792.475 188.112L796.995 189.655Z" fill="url(#paint0_linear_238_2)"/>
</g>
<g style="mix-blend-mode:darken" opacity="0.3">
<path d="M75.4729 119.44C87.9121 95.9503 94.1317 84.2057 104.058 76.4968C107.143 74.1006 110.461 72.0197 113.962 70.2853C125.223 64.7052 138.504 64.2192 165.066 63.2472C191.628 62.2752 204.909 61.7892 216.548 66.5313C220.166 68.0053 223.627 69.8381 226.88 72.0023C237.343 78.9651 244.404 90.2238 258.527 112.741C272.65 135.258 279.711 146.517 281.424 158.968C281.956 162.838 282.1 166.752 281.851 170.651C281.053 183.193 274.833 194.938 262.394 218.427C249.955 241.917 243.735 253.661 233.809 261.37C230.724 263.766 227.406 265.847 223.905 267.582C212.644 273.162 199.363 273.648 172.801 274.62C146.239 275.592 132.958 276.078 121.319 271.336C117.701 269.862 114.24 268.029 110.988 265.865C100.524 258.902 93.463 247.643 79.3403 225.126C65.2176 202.609 58.1562 191.35 56.4433 178.899C55.9109 175.029 55.7676 171.115 56.0158 167.216C56.8141 154.674 63.0337 142.929 75.4729 119.44Z" fill="url(#paint1_linear_238_2)"/>
</g>
<defs>
<linearGradient id="paint0_linear_238_2" x1="896.253" y1="223.535" x2="573.183" y2="505.901" gradientUnits="userSpaceOnUse">
<stop stop-color="#B0F797"/>
<stop offset="1" stop-color="#F7F397" stop-opacity="0"/>
</linearGradient>
<linearGradient id="paint1_linear_238_2" x1="104.048" y1="65.4801" x2="233.819" y2="272.387" gradientUnits="userSpaceOnUse">
<stop stop-color="#AAD6FF"/>
<stop offset="1" stop-color="#BEE0FF" stop-opacity="0"/>
</linearGradient>
</defs>
</svg>
