<svg width="209" height="261" viewBox="0 0 209 261" fill="none" xmlns="http://www.w3.org/2000/svg">
<path d="M73.3107 245.045C73.6692 244.625 73.6192 243.994 73.199 243.635L66.3524 237.794C65.9322 237.435 65.3011 237.485 64.9426 237.906C64.5841 238.326 64.6341 238.957 65.0543 239.315L71.1402 244.508L65.9477 250.594C65.5893 251.014 65.6393 251.645 66.0594 252.004C66.4796 252.362 67.1108 252.312 67.4692 251.892L73.3107 245.045ZM72.471 243.399C71.7775 243.454 71.0936 243.503 70.4192 243.545L70.5436 245.541C71.2294 245.498 71.9245 245.449 72.629 245.393L72.471 243.399ZM66.4854 243.721C65.1077 243.757 63.7733 243.765 62.4811 243.745L62.45 245.745C63.7715 245.765 65.1339 245.757 66.5384 245.72L66.4854 243.721ZM58.5665 243.592C57.2053 243.506 55.8965 243.385 54.6382 243.233L54.3978 245.219C55.6956 245.376 57.0423 245.5 58.4395 245.588L58.5665 243.592ZM50.7217 242.627C49.3833 242.371 48.111 242.075 46.902 241.74L46.3689 243.668C47.6326 244.017 48.9577 244.326 50.3464 244.591L50.7217 242.627ZM43.1992 240.526C41.9387 240.042 40.7607 239.509 39.6606 238.933L38.7329 240.705C39.9042 241.319 41.1527 241.882 42.4819 242.393L43.1992 240.526ZM36.3623 236.92C35.2814 236.153 34.2955 235.333 33.3977 234.467L32.009 235.906C32.98 236.843 34.0434 237.727 35.2051 238.551L36.3623 236.92ZM30.8545 231.593C30.077 230.56 29.3916 229.477 28.7907 228.352L27.0264 229.294C27.6741 230.507 28.4147 231.677 29.2565 232.796L30.8545 231.593ZM27.2228 224.824C26.7843 223.618 26.4225 222.375 26.1303 221.102L24.181 221.55C24.4903 222.897 24.8747 224.219 25.3433 225.507L27.2228 224.824ZM25.4625 217.261C25.3055 215.977 25.2073 214.672 25.1612 213.353L23.1624 213.423C23.2103 214.795 23.3127 216.158 23.4772 217.503L25.4625 217.261ZM25.1702 209.417C25.2189 208.109 25.3109 206.794 25.4397 205.479L23.4492 205.284C23.3169 206.636 23.222 207.991 23.1716 209.343L25.1702 209.417ZM25.9274 201.553C26.1232 200.241 26.3492 198.937 26.5988 197.645L24.6351 197.265C24.3806 198.583 24.1497 199.916 23.9494 201.258L25.9274 201.553ZM27.4251 193.756C27.7281 192.444 28.0493 191.153 28.3811 189.891L26.4469 189.383C26.1105 190.662 25.7844 191.973 25.4764 193.306L27.4251 193.756ZM29.4431 186.052C29.8239 184.737 30.2079 183.465 30.585 182.247L28.6744 181.656C28.2945 182.883 27.9068 184.166 27.5219 185.496L29.4431 186.052ZM31.7984 178.411C32.2395 177.038 32.6536 175.761 33.0162 174.611L31.1088 174.009C30.7483 175.153 30.3378 176.419 29.8942 177.8L31.7984 178.411ZM34.1595 170.675C34.3622 169.841 34.5002 169.088 34.5002 168.499L32.5002 168.499C32.5002 168.834 32.4134 169.39 32.2161 170.203L34.1595 170.675Z" fill="url(#paint0_linear_305_18)"/>
<g opacity="0.9" filter="url(#filter0_d_305_18)">
<rect x="17" y="11" width="159" height="159" fill="white"/>
</g>
<rect x="60" y="132" width="72" height="22" rx="4" fill="#6AD88F"/>
<path d="M77.94 139.11V146H78.88V143.42H80.69C82.15 143.42 82.74 142.35 82.74 141.27C82.74 140.19 82.15 139.11 80.69 139.11H77.94ZM80.68 139.98C81.48 139.98 81.81 140.64 81.81 141.27C81.81 141.91 81.47 142.55 80.63 142.55H78.88V139.98H80.68ZM84.6759 144.3C84.6759 143.06 85.0559 142.1 85.9559 142.1C86.1459 142.1 86.3959 142.14 86.6459 142.26L86.7859 141.41C86.6559 141.32 86.3059 141.23 85.9759 141.23C85.3659 141.23 84.9159 141.55 84.6759 142.38V141.33H83.7659V146H84.6759V144.3ZM89.724 146.1C91.054 146.1 92.174 145.13 92.174 143.65C92.174 142.17 91.054 141.23 89.724 141.23C88.394 141.23 87.284 142.17 87.284 143.65C87.284 145.13 88.394 146.1 89.724 146.1ZM89.724 145.22C88.874 145.22 88.184 144.61 88.184 143.65C88.184 142.71 88.874 142.12 89.724 142.12C90.554 142.12 91.264 142.71 91.264 143.65C91.264 144.61 90.554 145.22 89.724 145.22ZM93.075 143.65C93.075 145.13 94.215 146.1 95.545 146.1C96.265 146.1 96.915 145.82 97.355 145.34L96.655 144.76C96.375 145.05 95.975 145.22 95.545 145.22C94.705 145.22 93.975 144.58 93.975 143.65C93.975 142.71 94.705 142.12 95.545 142.12C95.975 142.12 96.375 142.28 96.655 142.56L97.345 141.98C96.905 141.5 96.265 141.23 95.545 141.23C94.215 141.23 93.075 142.17 93.075 143.65ZM98.985 143.3C99.095 142.51 99.695 142.05 100.465 142.05C101.225 142.05 101.775 142.51 101.885 143.3H98.985ZM102.785 143.65C102.785 142.17 101.795 141.23 100.465 141.23C99.135 141.23 98.075 142.17 98.075 143.65C98.075 145.13 99.135 146.1 100.465 146.1C101.375 146.1 102.215 145.69 102.615 144.86C102.365 144.75 102.075 144.67 101.835 144.56C101.565 145.03 101.055 145.28 100.495 145.28C99.695 145.28 99.095 144.8 98.985 144.01H102.775C102.785 143.9 102.785 143.76 102.785 143.65ZM104.542 143.3C104.652 142.51 105.252 142.05 106.022 142.05C106.782 142.05 107.332 142.51 107.442 143.3H104.542ZM108.342 143.65C108.342 142.17 107.352 141.23 106.022 141.23C104.692 141.23 103.632 142.17 103.632 143.65C103.632 145.13 104.692 146.1 106.022 146.1C106.932 146.1 107.772 145.69 108.172 144.86C107.922 144.75 107.632 144.67 107.392 144.56C107.122 145.03 106.612 145.28 106.052 145.28C105.252 145.28 104.652 144.8 104.542 144.01H108.332C108.342 143.9 108.342 143.76 108.342 143.65ZM113.188 146H114.098V138.79H113.188V142.03C112.878 141.5 112.228 141.23 111.538 141.23C110.258 141.23 109.188 142.17 109.188 143.66C109.188 145.14 110.268 146.1 111.548 146.1C112.198 146.1 112.878 145.8 113.188 145.28V146ZM113.178 143.65C113.178 144.64 112.458 145.21 111.628 145.21C110.788 145.21 110.118 144.57 110.118 143.65C110.118 142.73 110.788 142.12 111.628 142.12C112.388 142.12 113.178 142.65 113.178 143.65Z" fill="white"/>
<rect x="33" y="34.0015" width="122" height="22" rx="4" fill="white"/>
<rect x="33.3" y="34.3015" width="121.4" height="21.4" rx="3.7" stroke="#354662" stroke-opacity="0.22" stroke-width="0.6"/>
<path d="M48.85 48.0015V41.1115H48.19V46.8415L44.71 41.1115H44V48.0015H44.66V42.2315L48.17 48.0015H48.85ZM55.058 43.3315H54.388V44.1015C54.038 43.5115 53.308 43.2315 52.628 43.2315C51.298 43.2315 50.238 44.1715 50.238 45.6515C50.238 47.1315 51.298 48.1015 52.628 48.1015C53.308 48.1015 54.038 47.7915 54.388 47.2015V48.0015H55.058V43.3315ZM50.908 45.6515C50.908 44.5815 51.658 43.9015 52.628 43.9015C53.468 43.9015 54.388 44.4915 54.388 45.6515C54.388 46.8115 53.588 47.4315 52.628 47.4315C51.658 47.4315 50.908 46.6915 50.908 45.6515ZM60.7011 45.4515C60.7011 44.3115 61.5111 43.8915 62.2511 43.8915C62.9711 43.8915 63.3811 44.4115 63.3811 45.2815V48.0015H64.0511V45.2815C64.0611 44.0015 63.4011 43.2315 62.2511 43.2315C61.7811 43.2315 60.9511 43.3715 60.5211 44.2515C60.2511 43.6015 59.7011 43.2315 58.9011 43.2315C58.4711 43.2315 57.6411 43.4915 57.3511 44.1015V43.3315H56.6811V48.0015H57.3511V45.4515C57.3511 44.3115 58.1611 43.8915 58.9011 43.8915C59.6211 43.8915 60.0311 44.4115 60.0311 45.2815V48.0015H60.7011V45.4515ZM67.6469 48.1015C68.5969 48.1015 69.3869 47.6215 69.7769 46.7815C69.5669 46.7315 69.3069 46.6815 69.1069 46.6315C68.8169 47.1415 68.2869 47.4415 67.6469 47.4415C66.7869 47.4415 66.0769 46.8715 65.9669 45.9615H69.9269C69.9369 45.8715 69.9369 45.7615 69.9369 45.6515C69.9369 44.1715 68.9769 43.2315 67.6469 43.2315C66.3169 43.2315 65.2869 44.1715 65.2869 45.6515C65.2869 47.1315 66.3169 48.1015 67.6469 48.1015ZM65.9669 45.3415C66.0969 44.4515 66.7669 43.8915 67.6469 43.8915C68.5169 43.8915 69.1269 44.4515 69.2569 45.3415H65.9669Z" fill="#354662"/>
<rect x="33" y="66.0015" width="122" height="22" rx="4" fill="white"/>
<rect x="33.3" y="66.3015" width="121.4" height="21.4" rx="3.7" stroke="#354662" stroke-opacity="0.22" stroke-width="0.6"/>
<path d="M43.9 80.0015L44.59 78.1915H47.78L48.48 80.0015H49.19L46.54 73.1115H45.84L43.19 80.0015H43.9ZM47.55 77.5715H44.83L46.19 74.0315L47.55 77.5715ZM53.4388 78.9915C53.1088 79.2915 52.6988 79.4415 52.2288 79.4415C51.2588 79.4415 50.4488 78.7315 50.4488 77.6515C50.4488 76.5715 51.2588 75.8915 52.2288 75.8915C52.6988 75.8915 53.1188 76.0515 53.4388 76.3315L53.9088 75.8615C53.4688 75.4615 52.8788 75.2315 52.2288 75.2315C50.8988 75.2315 49.7888 76.1715 49.7888 77.6515C49.7888 79.1315 50.8988 80.1015 52.2288 80.1015C52.8788 80.1015 53.4788 79.8715 53.9188 79.4615L53.4388 78.9915ZM58.3314 78.9915C58.0014 79.2915 57.5914 79.4415 57.1214 79.4415C56.1514 79.4415 55.3414 78.7315 55.3414 77.6515C55.3414 76.5715 56.1514 75.8915 57.1214 75.8915C57.5914 75.8915 58.0114 76.0515 58.3314 76.3315L58.8014 75.8615C58.3614 75.4615 57.7714 75.2315 57.1214 75.2315C55.7914 75.2315 54.6814 76.1715 54.6814 77.6515C54.6814 79.1315 55.7914 80.1015 57.1214 80.1015C57.7714 80.1015 58.3714 79.8715 58.8114 79.4615L58.3314 78.9915ZM62.014 80.1015C63.344 80.1015 64.454 79.1315 64.454 77.6515C64.454 76.1715 63.344 75.2315 62.014 75.2315C60.684 75.2315 59.574 76.1715 59.574 77.6515C59.574 79.1315 60.684 80.1015 62.014 80.1015ZM62.014 79.4415C61.044 79.4415 60.234 78.7315 60.234 77.6515C60.234 76.5715 61.044 75.8915 62.014 75.8915C62.984 75.8915 63.794 76.5715 63.794 77.6515C63.794 78.7315 62.984 79.4415 62.014 79.4415ZM69.0434 77.8815C69.0434 79.0215 68.2334 79.4415 67.4934 79.4415C66.7734 79.4415 66.3634 78.9215 66.3634 78.0515V75.3315H65.6934V78.0515C65.6834 79.3315 66.3434 80.1015 67.4934 80.1015C68.0334 80.1015 68.7534 79.8415 69.0434 79.2315V80.0015H69.7134V75.3315H69.0434V77.8815ZM71.9995 77.4515C71.9995 76.3115 72.8095 75.8915 73.5495 75.8915C74.2695 75.8915 74.6795 76.4115 74.6795 77.2815V80.0015H75.3495V77.2815C75.3595 76.0015 74.6995 75.2315 73.5495 75.2315C73.0095 75.2315 72.2895 75.4915 71.9995 76.1015V75.3315H71.3295V80.0015H71.9995V77.4515ZM77.8857 80.0015V75.9315H78.8757V75.3315H77.8857V73.5815H77.2157V75.3315H76.3757V75.9315H77.2157V80.0015H77.8857ZM87.4828 80.0015V73.1115H86.8228V78.8415L83.3428 73.1115H82.6328V80.0015H83.2928V74.2315L86.8028 80.0015H87.4828ZM91.3109 80.1015C92.6409 80.1015 93.7509 79.1315 93.7509 77.6515C93.7509 76.1715 92.6409 75.2315 91.3109 75.2315C89.9809 75.2315 88.8709 76.1715 88.8709 77.6515C88.8709 79.1315 89.9809 80.1015 91.3109 80.1015ZM91.3109 79.4415C90.3409 79.4415 89.5309 78.7315 89.5309 77.6515C89.5309 76.5715 90.3409 75.8915 91.3109 75.8915C92.2809 75.8915 93.0909 76.5715 93.0909 77.6515C93.0909 78.7315 92.2809 79.4415 91.3109 79.4415ZM94.9602 79.5815C94.9602 79.8915 95.2002 80.1015 95.5102 80.1015C95.8202 80.1015 96.0602 79.8915 96.0602 79.5815C96.0602 79.2715 95.8202 79.0615 95.5102 79.0615C95.2002 79.0615 94.9602 79.2715 94.9602 79.5815Z" fill="#354662"/>
<rect x="33" y="98" width="40" height="21" rx="4" fill="white"/>
<rect x="33.3" y="98.3" width="39.4" height="20.4" rx="3.7" stroke="#354662" stroke-opacity="0.22" stroke-width="0.6"/>
<rect x="80" y="98" width="75" height="21" rx="4" fill="white"/>
<rect x="80.3" y="98.3" width="74.4" height="20.4" rx="3.7" stroke="#354662" stroke-opacity="0.22" stroke-width="0.6"/>
<path d="M48.88 110.601C48.37 111.121 47.68 111.441 46.88 111.441C45.29 111.441 44.2 110.161 44.2 108.571C44.2 106.971 45.29 105.691 46.88 105.691C47.68 105.691 48.36 106.011 48.87 106.521L49.33 106.061C48.7 105.421 47.85 105.031 46.88 105.031C44.93 105.031 43.54 106.621 43.54 108.571C43.54 110.531 44.93 112.101 46.88 112.101C47.85 112.101 48.71 111.711 49.34 111.071L48.88 110.601ZM50.6606 105.111H49.9806L52.0506 112.001H52.7406L54.8006 105.111H54.1206L52.3906 110.921L50.6606 105.111ZM56.1684 105.111H55.4884L57.5584 112.001H58.2484L60.3084 105.111H59.6284L57.8984 110.921L56.1684 105.111Z" fill="#354662"/>
<path d="M91.02 105.111H90.34L92.41 112.001H93.1L95.16 105.111H94.48L92.75 110.921L91.02 105.111ZM100.359 107.331H99.6888V108.101C99.3388 107.511 98.6088 107.231 97.9288 107.231C96.5988 107.231 95.5388 108.171 95.5388 109.651C95.5388 111.131 96.5988 112.101 97.9288 112.101C98.6088 112.101 99.3388 111.791 99.6888 111.201V112.001H100.359V107.331ZM96.2088 109.651C96.2088 108.581 96.9588 107.901 97.9288 107.901C98.7688 107.901 99.6888 108.491 99.6888 109.651C99.6888 110.811 98.8888 111.431 97.9288 111.431C96.9588 111.431 96.2088 110.691 96.2088 109.651ZM102.642 104.801H101.982V112.001H102.642V104.801ZM104.917 107.331H104.257V112.001H104.917V107.331ZM104.087 105.591C104.087 105.871 104.317 106.071 104.597 106.071C104.877 106.071 105.107 105.871 105.107 105.591C105.107 105.311 104.877 105.111 104.597 105.111C104.317 105.111 104.087 105.311 104.087 105.591ZM111.033 104.801H110.363V108.101C110.013 107.511 109.283 107.231 108.603 107.231C107.273 107.231 106.213 108.171 106.213 109.651C106.213 111.131 107.273 112.101 108.603 112.101C109.283 112.101 110.013 111.791 110.363 111.201V112.001H111.033V104.801ZM106.883 109.651C106.883 108.581 107.633 107.901 108.603 107.901C109.443 107.901 110.363 108.491 110.363 109.651C110.363 110.811 109.563 111.431 108.603 111.431C107.633 111.431 106.883 110.691 106.883 109.651ZM116.292 112.001V107.931H117.282V107.331H116.292V105.581H115.622V107.331H114.782V107.931H115.622V112.001H116.292ZM119.058 109.451C119.058 108.311 119.868 107.891 120.608 107.891C121.328 107.891 121.738 108.411 121.738 109.281V112.001H122.408V109.281C122.418 108.001 121.758 107.231 120.608 107.231C120.068 107.231 119.348 107.491 119.058 108.101V104.801H118.388V112.001H119.058V109.451ZM126.734 107.411C126.644 107.331 126.294 107.231 125.974 107.231C125.294 107.231 124.864 107.591 124.634 108.391V107.331H123.964V112.001H124.634V110.261C124.634 109.021 125.024 107.901 125.974 107.901C126.144 107.901 126.424 107.951 126.654 108.061L126.734 107.411ZM131.024 109.881C131.024 111.021 130.214 111.441 129.474 111.441C128.754 111.441 128.344 110.921 128.344 110.051V107.331H127.674V110.051C127.664 111.331 128.324 112.101 129.474 112.101C130.014 112.101 130.734 111.841 131.024 111.231V112.001H131.694V107.331H131.024V109.881Z" fill="#354662"/>
<defs>
<filter id="filter0_d_305_18" x="0" y="0" width="209" height="209" filterUnits="userSpaceOnUse" color-interpolation-filters="sRGB">
<feFlood flood-opacity="0" result="BackgroundImageFix"/>
<feColorMatrix in="SourceAlpha" type="matrix" values="0 0 0 0 0 0 0 0 0 0 0 0 0 0 0 0 0 0 127 0" result="hardAlpha"/>
<feOffset dx="8" dy="14"/>
<feGaussianBlur stdDeviation="12.5"/>
<feComposite in2="hardAlpha" operator="out"/>
<feColorMatrix type="matrix" values="0 0 0 0 0.141176 0 0 0 0 0.254902 0 0 0 0 0.505882 0 0 0 0.05 0"/>
<feBlend mode="normal" in2="BackgroundImageFix" result="effect1_dropShadow_305_18"/>
<feBlend mode="normal" in="SourceGraphic" in2="effect1_dropShadow_305_18" result="shape"/>
</filter>
<linearGradient id="paint0_linear_305_18" x1="54.5" y1="246" x2="37.1489" y2="167.967" gradientUnits="userSpaceOnUse">
<stop stop-color="#020B1B"/>
<stop offset="1" stop-color="#020B1B" stop-opacity="0"/>
</linearGradient>
</defs>
</svg>
