<svg width="253" height="220" viewBox="0 0 253 220" fill="none" xmlns="http://www.w3.org/2000/svg">
<path d="M243.204 212.606C243.539 213.045 244.166 213.13 244.606 212.796L251.767 207.345C252.206 207.01 252.292 206.383 251.957 205.943C251.623 205.504 250.995 205.419 250.556 205.753L244.19 210.599L239.345 204.233C239.01 203.794 238.383 203.708 237.943 204.043C237.504 204.377 237.419 205.005 237.753 205.444L243.204 212.606ZM173.276 120.974C173.963 121.133 174.644 121.291 175.319 121.448L175.774 119.501C175.097 119.343 174.414 119.184 173.724 119.026L173.276 120.974ZM179.3 122.39C180.657 122.716 181.989 123.041 183.296 123.365L183.777 121.424C182.466 121.099 181.129 120.773 179.767 120.446L179.3 122.39ZM187.232 124.357C188.595 124.707 189.929 125.056 191.234 125.405L191.75 123.473C190.438 123.122 189.098 122.772 187.729 122.42L187.232 124.357ZM195.156 126.476C196.502 126.851 197.815 127.227 199.097 127.603L199.66 125.684C198.37 125.305 197.048 124.927 195.694 124.549L195.156 126.476ZM203.029 128.789C204.358 129.202 205.649 129.615 206.903 130.029L207.531 128.13C206.264 127.712 204.962 127.295 203.622 126.879L203.029 128.789ZM210.746 131.344C212.074 131.816 213.357 132.289 214.596 132.766L215.314 130.9C214.058 130.416 212.758 129.936 211.414 129.459L210.746 131.344ZM218.381 134.291C219.672 134.837 220.91 135.387 222.095 135.944L222.945 134.133C221.734 133.565 220.473 133.004 219.159 132.449L218.381 134.291ZM225.722 137.752C226.959 138.409 228.128 139.074 229.234 139.75L230.278 138.044C229.135 137.345 227.929 136.66 226.66 135.986L225.722 137.752ZM232.587 141.973C233.711 142.783 234.753 143.61 235.72 144.456L237.037 142.951C236.02 142.061 234.928 141.195 233.757 140.351L232.587 141.973ZM238.571 147.242C239.486 148.247 240.312 149.28 241.056 150.346L242.696 149.202C241.902 148.063 241.022 146.962 240.05 145.895L238.571 147.242ZM243.095 153.741C243.694 154.913 244.214 156.126 244.662 157.385L246.546 156.715C246.07 155.376 245.516 154.083 244.876 152.83L243.095 153.741ZM245.773 161.212C246.067 162.484 246.302 163.802 246.484 165.169L248.467 164.905C248.277 163.481 248.031 162.101 247.722 160.762L245.773 161.212ZM246.862 169.169C246.939 170.473 246.978 171.819 246.982 173.209L248.982 173.203C248.978 171.78 248.938 170.397 248.859 169.051L246.862 169.169ZM246.904 177.269C246.852 178.587 246.775 179.942 246.676 181.336L248.671 181.477C248.771 180.065 248.849 178.689 248.902 177.348L246.904 177.269ZM246.339 185.403C246.215 186.726 246.075 188.081 245.921 189.47L247.909 189.689C248.064 188.291 248.205 186.925 248.33 185.59L246.339 185.403ZM245.446 193.537C245.284 194.864 245.112 196.221 244.932 197.608L246.915 197.865C247.096 196.475 247.269 195.113 247.431 193.779L245.446 193.537ZM244.392 201.688C244.214 203.015 244.031 204.368 243.843 205.748L245.824 206.018C246.012 204.638 246.196 203.283 246.375 201.954L244.392 201.688ZM243.29 209.801C243.197 210.483 243.103 211.171 243.009 211.866L244.991 212.134C245.085 211.44 245.179 210.752 245.272 210.071L243.29 209.801Z" fill="url(#paint0_linear_305_20)"/>
<g opacity="0.9" filter="url(#filter0_d_305_20)">
<rect x="17" y="11" width="159" height="170" fill="white"/>
</g>
<rect x="33" y="37" width="122" height="22" rx="4" fill="white"/>
<rect x="33.3" y="37.3" width="121.4" height="21.4" rx="3.7" stroke="#354662" stroke-opacity="0.22" stroke-width="0.6"/>
<path d="M46.85 51V44.11H46.19V49.84L42.71 44.11H42V51H42.66V45.23L46.17 51H46.85ZM53.058 46.33H52.388V47.1C52.038 46.51 51.308 46.23 50.628 46.23C49.298 46.23 48.238 47.17 48.238 48.65C48.238 50.13 49.298 51.1 50.628 51.1C51.308 51.1 52.038 50.79 52.388 50.2V51H53.058V46.33ZM48.908 48.65C48.908 47.58 49.658 46.9 50.628 46.9C51.468 46.9 52.388 47.49 52.388 48.65C52.388 49.81 51.588 50.43 50.628 50.43C49.658 50.43 48.908 49.69 48.908 48.65ZM58.7011 48.45C58.7011 47.31 59.5111 46.89 60.2511 46.89C60.9711 46.89 61.3811 47.41 61.3811 48.28V51H62.0511V48.28C62.0611 47 61.4011 46.23 60.2511 46.23C59.7811 46.23 58.9511 46.37 58.5211 47.25C58.2511 46.6 57.7011 46.23 56.9011 46.23C56.4711 46.23 55.6411 46.49 55.3511 47.1V46.33H54.6811V51H55.3511V48.45C55.3511 47.31 56.1611 46.89 56.9011 46.89C57.6211 46.89 58.0311 47.41 58.0311 48.28V51H58.7011V48.45ZM65.6469 51.1C66.5969 51.1 67.3869 50.62 67.7769 49.78C67.5669 49.73 67.3069 49.68 67.1069 49.63C66.8169 50.14 66.2869 50.44 65.6469 50.44C64.7869 50.44 64.0769 49.87 63.9669 48.96H67.9269C67.9369 48.87 67.9369 48.76 67.9369 48.65C67.9369 47.17 66.9769 46.23 65.6469 46.23C64.3169 46.23 63.2869 47.17 63.2869 48.65C63.2869 50.13 64.3169 51.1 65.6469 51.1ZM63.9669 48.34C64.0969 47.45 64.7669 46.89 65.6469 46.89C66.5169 46.89 67.1269 47.45 67.2569 48.34H63.9669Z" fill="#354662"/>
<rect x="33" y="69" width="122" height="22" rx="4" fill="white"/>
<rect x="33.3" y="69.3" width="121.4" height="21.4" rx="3.7" stroke="#354662" stroke-opacity="0.22" stroke-width="0.6"/>
<path d="M41.9 83L42.59 81.19H45.78L46.48 83H47.19L44.54 76.11H43.84L41.19 83H41.9ZM45.55 80.57H42.83L44.19 77.03L45.55 80.57ZM48.4588 80.68C48.4588 79.64 49.2088 78.9 50.1788 78.9C51.1388 78.9 51.9388 79.52 51.9388 80.68C51.9388 81.84 51.0188 82.43 50.1788 82.43C49.2088 82.43 48.4588 81.75 48.4588 80.68ZM48.0988 84.17C48.5688 84.97 49.3388 85.33 50.1088 85.33C51.5788 85.33 52.6088 84.54 52.6088 82.26V78.33H51.9388V79.13C51.5888 78.54 50.8588 78.23 50.1788 78.23C48.8488 78.23 47.7888 79.2 47.7888 80.68C47.7888 82.16 48.8488 83.1 50.1788 83.1C50.8588 83.1 51.6288 82.75 51.9388 82.15C51.9388 84.06 51.1988 84.67 50.1088 84.67C49.5488 84.67 49.0188 84.41 48.6688 83.84L48.0988 84.17ZM56.2621 83.1C57.2121 83.1 58.0021 82.62 58.3921 81.78C58.1821 81.73 57.9221 81.68 57.7221 81.63C57.4321 82.14 56.9021 82.44 56.2621 82.44C55.4021 82.44 54.6921 81.87 54.5821 80.96H58.5421C58.5521 80.87 58.5521 80.76 58.5521 80.65C58.5521 79.17 57.5921 78.23 56.2621 78.23C54.9321 78.23 53.9021 79.17 53.9021 80.65C53.9021 82.13 54.9321 83.1 56.2621 83.1ZM54.5821 80.34C54.7121 79.45 55.3821 78.89 56.2621 78.89C57.1321 78.89 57.7421 79.45 57.8721 80.34H54.5821Z" fill="#354662"/>
<rect x="33" y="101" width="122" height="50" rx="4" fill="white"/>
<rect x="33.3" y="101.3" width="121.4" height="49.4" rx="3.7" stroke="#354662" stroke-opacity="0.22" stroke-width="0.6"/>
<path d="M46.88 113.6C46.37 114.12 45.68 114.44 44.88 114.44C43.29 114.44 42.2 113.16 42.2 111.57C42.2 109.97 43.29 108.69 44.88 108.69C45.68 108.69 46.36 109.01 46.87 109.52L47.33 109.06C46.7 108.42 45.85 108.03 44.88 108.03C42.93 108.03 41.54 109.62 41.54 111.57C41.54 113.53 42.93 115.1 44.88 115.1C45.85 115.1 46.71 114.71 47.34 114.07L46.88 113.6ZM50.5706 115.1C51.9006 115.1 53.0106 114.13 53.0106 112.65C53.0106 111.17 51.9006 110.23 50.5706 110.23C49.2406 110.23 48.1306 111.17 48.1306 112.65C48.1306 114.13 49.2406 115.1 50.5706 115.1ZM50.5706 114.44C49.6006 114.44 48.7906 113.73 48.7906 112.65C48.7906 111.57 49.6006 110.89 50.5706 110.89C51.5406 110.89 52.3506 111.57 52.3506 112.65C52.3506 113.73 51.5406 114.44 50.5706 114.44ZM54.98 112.45C54.98 111.31 55.79 110.89 56.53 110.89C57.25 110.89 57.66 111.41 57.66 112.28V115H58.33V112.28C58.34 111 57.68 110.23 56.53 110.23C55.99 110.23 55.27 110.49 54.98 111.1V110.33H54.31V115H54.98V112.45ZM63.2162 113.99C62.8862 114.29 62.4762 114.44 62.0062 114.44C61.0362 114.44 60.2262 113.73 60.2262 112.65C60.2262 111.57 61.0362 110.89 62.0062 110.89C62.4762 110.89 62.8962 111.05 63.2162 111.33L63.6862 110.86C63.2462 110.46 62.6562 110.23 62.0062 110.23C60.6762 110.23 59.5662 111.17 59.5662 112.65C59.5662 114.13 60.6762 115.1 62.0062 115.1C62.6562 115.1 63.2562 114.87 63.6962 114.46L63.2162 113.99ZM66.8188 115.1C67.7688 115.1 68.5588 114.62 68.9488 113.78C68.7388 113.73 68.4788 113.68 68.2788 113.63C67.9888 114.14 67.4588 114.44 66.8188 114.44C65.9588 114.44 65.2488 113.87 65.1388 112.96H69.0988C69.1087 112.87 69.1087 112.76 69.1087 112.65C69.1087 111.17 68.1488 110.23 66.8188 110.23C65.4888 110.23 64.4588 111.17 64.4588 112.65C64.4588 114.13 65.4888 115.1 66.8188 115.1ZM65.1388 112.34C65.2688 111.45 65.9388 110.89 66.8188 110.89C67.6888 110.89 68.2988 111.45 68.4288 112.34H65.1388ZM73.1152 110.41C73.0252 110.33 72.6752 110.23 72.3552 110.23C71.6752 110.23 71.2452 110.59 71.0152 111.39V110.33H70.3452V115H71.0152V113.26C71.0152 112.02 71.4052 110.9 72.3552 110.9C72.5252 110.9 72.8052 110.95 73.0352 111.06L73.1152 110.41ZM74.7847 112.45C74.7847 111.31 75.5947 110.89 76.3347 110.89C77.0547 110.89 77.4647 111.41 77.4647 112.28V115H78.1347V112.28C78.1447 111 77.4847 110.23 76.3347 110.23C75.7947 110.23 75.0747 110.49 74.7847 111.1V110.33H74.1147V115H74.7847V112.45ZM79.3209 113.66C79.3509 114.58 80.1709 115.1 80.9509 115.1C81.9209 115.1 82.6609 114.54 82.6609 113.73C82.6609 113.09 82.3609 112.58 81.4809 112.37L80.8409 112.22C80.5209 112.14 80.0409 111.97 80.1509 111.44C80.2009 111.11 80.5709 110.87 81.0209 110.87C81.4209 110.87 81.7609 111.08 81.8409 111.44H82.4909C82.3609 110.59 81.7509 110.23 81.0209 110.23C80.2609 110.23 79.6109 110.67 79.5009 111.34C79.3709 112.43 80.1109 112.73 80.6809 112.86L81.3309 113.01C81.8209 113.13 82.0009 113.42 82.0009 113.73C82.0009 114.17 81.6109 114.47 81.0109 114.47C80.2209 114.47 79.9909 114.02 79.9109 113.66H79.3209Z" fill="#354662"/>
<defs>
<filter id="filter0_d_305_20" x="0" y="0" width="209" height="220" filterUnits="userSpaceOnUse" color-interpolation-filters="sRGB">
<feFlood flood-opacity="0" result="BackgroundImageFix"/>
<feColorMatrix in="SourceAlpha" type="matrix" values="0 0 0 0 0 0 0 0 0 0 0 0 0 0 0 0 0 0 127 0" result="hardAlpha"/>
<feOffset dx="8" dy="14"/>
<feGaussianBlur stdDeviation="12.5"/>
<feComposite in2="hardAlpha" operator="out"/>
<feColorMatrix type="matrix" values="0 0 0 0 0.141176 0 0 0 0 0.254902 0 0 0 0 0.505882 0 0 0 0.05 0"/>
<feBlend mode="normal" in2="BackgroundImageFix" result="effect1_dropShadow_305_20"/>
<feBlend mode="normal" in="SourceGraphic" in2="effect1_dropShadow_305_20" result="shape"/>
</filter>
<linearGradient id="paint0_linear_305_20" x1="244.5" y1="206.5" x2="176.165" y2="119.87" gradientUnits="userSpaceOnUse">
<stop stop-color="#020B1B"/>
<stop offset="1" stop-color="#020B1B" stop-opacity="0"/>
</linearGradient>
</defs>
</svg>
