<svg width="198" height="280" viewBox="0 0 198 280" fill="none" xmlns="http://www.w3.org/2000/svg">
<path d="M87.358 247.394C86.9345 247.039 86.8786 246.409 87.2332 245.985L93.0103 239.084C93.3649 238.661 93.9955 238.605 94.419 238.959C94.8425 239.314 94.8984 239.944 94.5439 240.368L89.4086 246.502L95.5429 251.637C95.9664 251.992 96.0223 252.623 95.6677 253.046C95.3132 253.47 94.6825 253.526 94.2591 253.171L87.358 247.394ZM190.518 187.359C190.318 188.027 190.12 188.687 189.923 189.339L188.009 188.761C188.205 188.111 188.403 187.453 188.601 186.787L190.518 187.359ZM188.725 193.241C188.308 194.574 187.893 195.871 187.479 197.134L185.578 196.51C185.99 195.258 186.401 193.97 186.816 192.644L188.725 193.241ZM186.165 201.01C185.7 202.333 185.232 203.616 184.758 204.859L182.889 204.145C183.357 202.921 183.818 201.656 184.277 200.348L186.165 201.01ZM183.226 208.665C182.675 209.961 182.11 211.21 181.527 212.414L179.727 211.542C180.295 210.37 180.846 209.151 181.385 207.882L183.226 208.665ZM179.609 216.088C178.915 217.315 178.193 218.491 177.435 219.618L175.776 218.502C176.502 217.421 177.198 216.29 177.867 215.104L179.609 216.088ZM174.958 222.963C174.075 224.045 173.145 225.076 172.16 226.058L170.748 224.641C171.683 223.709 172.567 222.729 173.409 221.698L174.958 222.963ZM169.053 228.846C167.989 229.705 166.869 230.521 165.686 231.296L164.59 229.623C165.719 228.883 166.786 228.107 167.797 227.29L169.053 228.846ZM162.101 233.42C160.917 234.055 159.677 234.658 158.376 235.235L157.566 233.406C158.824 232.849 160.019 232.267 161.157 231.657L162.101 233.42ZM154.555 236.784C153.307 237.248 152.009 237.691 150.657 238.118L150.056 236.21C151.378 235.793 152.645 235.36 153.858 234.91L154.555 236.784ZM146.711 239.272C145.43 239.619 144.104 239.954 142.732 240.279L142.272 238.332C143.624 238.013 144.929 237.683 146.187 237.341L146.711 239.272ZM138.73 241.166C137.429 241.437 136.089 241.701 134.709 241.957L134.344 239.99C135.711 239.737 137.037 239.476 138.322 239.208L138.73 241.166ZM130.667 242.668C129.351 242.888 128.001 243.103 126.616 243.313L126.316 241.336C127.692 241.127 129.032 240.914 130.337 240.696L130.667 242.668ZM122.6 243.897C121.283 244.08 119.937 244.26 118.559 244.438L118.303 242.454C119.675 242.278 121.015 242.098 122.324 241.916L122.6 243.897ZM114.481 244.945C113.163 245.103 111.817 245.259 110.444 245.414L110.22 243.427C111.589 243.272 112.929 243.117 114.243 242.959L114.481 244.945ZM106.401 245.857C105.059 246 103.692 246.142 102.3 246.283L102.098 244.293C103.487 244.152 104.851 244.011 106.189 243.868L106.401 245.857ZM98.2868 246.68C96.95 246.81 95.5907 246.939 94.2086 247.067L94.023 245.076C95.4029 244.947 96.7597 244.819 98.0939 244.689L98.2868 246.68ZM90.1606 247.438C89.4752 247.5 88.7844 247.561 88.0882 247.623L87.9116 245.631C88.6069 245.569 89.2968 245.508 89.9812 245.446L90.1606 247.438Z" fill="url(#paint0_linear_305_19)"/>
<g opacity="0.9" filter="url(#filter0_d_305_19)">
<rect x="17" y="11" width="141" height="170" fill="white"/>
</g>
<path opacity="0.5" d="M44.704 36.88C44.296 37.296 43.744 37.552 43.104 37.552C41.832 37.552 40.96 36.528 40.96 35.256C40.96 33.976 41.832 32.952 43.104 32.952C43.744 32.952 44.288 33.208 44.696 33.616L45.064 33.248C44.56 32.736 43.88 32.424 43.104 32.424C41.544 32.424 40.432 33.696 40.432 35.256C40.432 36.824 41.544 38.08 43.104 38.08C43.88 38.08 44.568 37.768 45.072 37.256L44.704 36.88ZM47.6565 38.08C48.7205 38.08 49.6085 37.304 49.6085 36.12C49.6085 34.936 48.7205 34.184 47.6565 34.184C46.5925 34.184 45.7045 34.936 45.7045 36.12C45.7045 37.304 46.5925 38.08 47.6565 38.08ZM47.6565 37.552C46.8805 37.552 46.2325 36.984 46.2325 36.12C46.2325 35.256 46.8805 34.712 47.6565 34.712C48.4325 34.712 49.0805 35.256 49.0805 36.12C49.0805 36.984 48.4325 37.552 47.6565 37.552ZM51.184 35.96C51.184 35.048 51.832 34.712 52.424 34.712C53 34.712 53.328 35.128 53.328 35.824V38H53.864V35.824C53.872 34.8 53.344 34.184 52.424 34.184C51.992 34.184 51.416 34.392 51.184 34.88V34.264H50.648V38H51.184V35.96ZM54.8129 36.928C54.8369 37.664 55.4929 38.08 56.1169 38.08C56.8929 38.08 57.4849 37.632 57.4849 36.984C57.4849 36.472 57.2449 36.064 56.5409 35.896L56.0289 35.776C55.7729 35.712 55.3889 35.576 55.4769 35.152C55.5169 34.888 55.8129 34.696 56.1729 34.696C56.4929 34.696 56.7649 34.864 56.8289 35.152H57.3489C57.2449 34.472 56.7569 34.184 56.1729 34.184C55.5649 34.184 55.0449 34.536 54.9569 35.072C54.8529 35.944 55.4449 36.184 55.9009 36.288L56.4209 36.408C56.8129 36.504 56.9569 36.736 56.9569 36.984C56.9569 37.336 56.6449 37.576 56.1649 37.576C55.5329 37.576 55.3489 37.216 55.2849 36.928H54.8129ZM61.1316 36.304C61.1316 37.216 60.4836 37.552 59.8916 37.552C59.3156 37.552 58.9876 37.136 58.9876 36.44V34.264H58.4516V36.44C58.4436 37.464 58.9716 38.08 59.8916 38.08C60.3236 38.08 60.8996 37.872 61.1316 37.384V38H61.6676V34.264H61.1316V36.304ZM63.4965 35.96C63.4965 35.048 64.1445 34.712 64.7365 34.712C65.3125 34.712 65.6405 35.128 65.6405 35.824V38H66.1765V35.824C66.1845 34.8 65.6565 34.184 64.7365 34.184C64.3045 34.184 63.7285 34.392 63.4965 34.88V34.264H62.9605V38H63.4965V35.96ZM68.2054 38V34.744H68.9974V34.264H68.2054V32.864H67.6694V34.264H66.9974V34.744H67.6694V38H68.2054ZM73.4121 34.264H72.8761V34.88C72.5961 34.408 72.0121 34.184 71.4681 34.184C70.4041 34.184 69.5561 34.936 69.5561 36.12C69.5561 37.304 70.4041 38.08 71.4681 38.08C72.0121 38.08 72.5961 37.832 72.8761 37.36V38H73.4121V34.264ZM70.0921 36.12C70.0921 35.264 70.6921 34.72 71.4681 34.72C72.1401 34.72 72.8761 35.192 72.8761 36.12C72.8761 37.048 72.2361 37.544 71.4681 37.544C70.6921 37.544 70.0921 36.952 70.0921 36.12ZM75.2465 35.96C75.2465 35.048 75.8945 34.712 76.4865 34.712C77.0625 34.712 77.3905 35.128 77.3905 35.824V38H77.9265V35.824C77.9345 34.8 77.4065 34.184 76.4865 34.184C76.0545 34.184 75.4785 34.392 75.2465 34.88V34.264H74.7105V38H75.2465V35.96ZM79.9554 38V34.744H80.7474V34.264H79.9554V32.864H79.4194V34.264H78.7474V34.744H79.4194V38H79.9554ZM87.6331 38V32.488H87.1051V37.072L84.3211 32.488H83.7531V38H84.2811V33.384L87.0891 38H87.6331ZM92.5996 34.264H92.0636V34.88C91.7836 34.408 91.1996 34.184 90.6556 34.184C89.5916 34.184 88.7436 34.936 88.7436 36.12C88.7436 37.304 89.5916 38.08 90.6556 38.08C91.1996 38.08 91.7836 37.832 92.0636 37.36V38H92.5996V34.264ZM89.2796 36.12C89.2796 35.264 89.8796 34.72 90.6556 34.72C91.3276 34.72 92.0636 35.192 92.0636 36.12C92.0636 37.048 91.4236 37.544 90.6556 37.544C89.8796 37.544 89.2796 36.952 89.2796 36.12ZM97.114 35.96C97.114 35.048 97.762 34.712 98.354 34.712C98.93 34.712 99.258 35.128 99.258 35.824V38H99.794V35.824C99.802 34.8 99.274 34.184 98.354 34.184C97.978 34.184 97.314 34.296 96.97 35C96.754 34.48 96.314 34.184 95.674 34.184C95.33 34.184 94.666 34.392 94.434 34.88V34.264H93.898V38H94.434V35.96C94.434 35.048 95.082 34.712 95.674 34.712C96.25 34.712 96.578 35.128 96.578 35.824V38H97.114V35.96ZM102.671 38.08C103.431 38.08 104.063 37.696 104.375 37.024C104.207 36.984 103.999 36.944 103.839 36.904C103.607 37.312 103.183 37.552 102.671 37.552C101.983 37.552 101.415 37.096 101.327 36.368H104.495C104.503 36.296 104.503 36.208 104.503 36.12C104.503 34.936 103.735 34.184 102.671 34.184C101.607 34.184 100.783 34.936 100.783 36.12C100.783 37.304 101.607 38.08 102.671 38.08ZM101.327 35.872C101.431 35.16 101.967 34.712 102.671 34.712C103.367 34.712 103.855 35.16 103.959 35.872H101.327Z" fill="#354662"/>
<path opacity="0.5" d="M44.704 73.88C44.296 74.296 43.744 74.552 43.104 74.552C41.832 74.552 40.96 73.528 40.96 72.256C40.96 70.976 41.832 69.952 43.104 69.952C43.744 69.952 44.288 70.208 44.696 70.616L45.064 70.248C44.56 69.736 43.88 69.424 43.104 69.424C41.544 69.424 40.432 70.696 40.432 72.256C40.432 73.824 41.544 75.08 43.104 75.08C43.88 75.08 44.568 74.768 45.072 74.256L44.704 73.88ZM47.6565 75.08C48.7205 75.08 49.6085 74.304 49.6085 73.12C49.6085 71.936 48.7205 71.184 47.6565 71.184C46.5925 71.184 45.7045 71.936 45.7045 73.12C45.7045 74.304 46.5925 75.08 47.6565 75.08ZM47.6565 74.552C46.8805 74.552 46.2325 73.984 46.2325 73.12C46.2325 72.256 46.8805 71.712 47.6565 71.712C48.4325 71.712 49.0805 72.256 49.0805 73.12C49.0805 73.984 48.4325 74.552 47.6565 74.552ZM51.184 72.96C51.184 72.048 51.832 71.712 52.424 71.712C53 71.712 53.328 72.128 53.328 72.824V75H53.864V72.824C53.872 71.8 53.344 71.184 52.424 71.184C51.992 71.184 51.416 71.392 51.184 71.88V71.264H50.648V75H51.184V72.96ZM54.8129 73.928C54.8369 74.664 55.4929 75.08 56.1169 75.08C56.8929 75.08 57.4849 74.632 57.4849 73.984C57.4849 73.472 57.2449 73.064 56.5409 72.896L56.0289 72.776C55.7729 72.712 55.3889 72.576 55.4769 72.152C55.5169 71.888 55.8129 71.696 56.1729 71.696C56.4929 71.696 56.7649 71.864 56.8289 72.152H57.3489C57.2449 71.472 56.7569 71.184 56.1729 71.184C55.5649 71.184 55.0449 71.536 54.9569 72.072C54.8529 72.944 55.4449 73.184 55.9009 73.288L56.4209 73.408C56.8129 73.504 56.9569 73.736 56.9569 73.984C56.9569 74.336 56.6449 74.576 56.1649 74.576C55.5329 74.576 55.3489 74.216 55.2849 73.928H54.8129ZM61.1316 73.304C61.1316 74.216 60.4836 74.552 59.8916 74.552C59.3156 74.552 58.9876 74.136 58.9876 73.44V71.264H58.4516V73.44C58.4436 74.464 58.9716 75.08 59.8916 75.08C60.3236 75.08 60.8996 74.872 61.1316 74.384V75H61.6676V71.264H61.1316V73.304ZM63.4885 69.24H62.9605V75H63.4885V69.24ZM65.5648 75V71.744H66.3568V71.264H65.5648V69.864H65.0288V71.264H64.3568V71.744H65.0288V75H65.5648ZM67.7697 71.264H67.2418V75H67.7697V71.264ZM67.1058 69.872C67.1058 70.096 67.2898 70.256 67.5138 70.256C67.7378 70.256 67.9218 70.096 67.9218 69.872C67.9218 69.648 67.7378 69.488 67.5138 69.488C67.2898 69.488 67.1058 69.648 67.1058 69.872ZM69.5981 72.96C69.5981 72.048 70.2461 71.712 70.8381 71.712C71.4141 71.712 71.7421 72.128 71.7421 72.824V75H72.2781V72.824C72.2861 71.8 71.7581 71.184 70.8381 71.184C70.4061 71.184 69.8301 71.392 69.5981 71.88V71.264H69.0621V75H69.5981V72.96ZM73.803 73.144C73.803 72.312 74.403 71.72 75.179 71.72C75.947 71.72 76.587 72.216 76.587 73.144C76.587 74.072 75.851 74.544 75.179 74.544C74.403 74.544 73.803 74 73.803 73.144ZM73.515 75.936C73.891 76.576 74.507 76.864 75.123 76.864C76.299 76.864 77.123 76.232 77.123 74.408V71.264H76.587V71.904C76.307 71.432 75.723 71.184 75.179 71.184C74.115 71.184 73.267 71.96 73.267 73.144C73.267 74.328 74.115 75.08 75.179 75.08C75.723 75.08 76.339 74.8 76.587 74.32C76.587 75.848 75.995 76.336 75.123 76.336C74.675 76.336 74.251 76.128 73.971 75.672L73.515 75.936ZM82.4218 69.24H82.0218C81.0298 69.24 80.7178 69.936 80.7178 70.832V71.264H79.9898V71.744H80.7178V75H81.2538V71.744H82.1738V71.264H81.2538V70.832C81.2538 70.336 81.3018 69.744 82.0218 69.744H82.4218V69.24ZM84.6643 75.08C85.7283 75.08 86.6163 74.304 86.6163 73.12C86.6163 71.936 85.7283 71.184 84.6643 71.184C83.6003 71.184 82.7123 71.936 82.7123 73.12C82.7123 74.304 83.6003 75.08 84.6643 75.08ZM84.6643 74.552C83.8883 74.552 83.2403 73.984 83.2403 73.12C83.2403 72.256 83.8883 71.712 84.6643 71.712C85.4403 71.712 86.0883 72.256 86.0883 73.12C86.0883 73.984 85.4403 74.552 84.6643 74.552ZM89.8718 71.328C89.7998 71.264 89.5198 71.184 89.2638 71.184C88.7198 71.184 88.3758 71.472 88.1918 72.112V71.264H87.6558V75H88.1918V73.608C88.1918 72.616 88.5038 71.72 89.2638 71.72C89.3998 71.72 89.6238 71.76 89.8078 71.848L89.8718 71.328Z" fill="#354662"/>
<path opacity="0.8" d="M40.4 85.4C40.4 86.296 41.2 87.08 42.344 87.08C43.392 87.08 44.136 86.464 44.224 85.6C44.312 84.8 43.856 84.184 42.736 83.888L42.032 83.704C41.376 83.536 41.296 83.2 41.296 82.984C41.296 82.536 41.736 82.224 42.248 82.224C42.824 82.224 43.208 82.544 43.208 83.056H44.056C44.056 82.048 43.288 81.424 42.264 81.424C41.296 81.424 40.448 82.056 40.448 83C40.448 83.488 40.632 84.16 41.816 84.48L42.512 84.656C43.024 84.776 43.416 85.04 43.384 85.552C43.328 85.96 42.992 86.304 42.344 86.304C41.68 86.304 41.272 85.848 41.248 85.4H40.4ZM45.9467 83.264H45.1307V87H45.9467V83.264ZM44.9867 81.752C44.9867 82.048 45.2427 82.272 45.5387 82.272C45.8507 82.272 46.0827 82.048 46.0827 81.752C46.0827 81.456 45.8507 81.232 45.5387 81.232C45.2427 81.232 44.9867 81.456 44.9867 81.752ZM51.3554 83.992C51.8354 83.992 52.1474 84.336 52.1474 84.92V87H52.9714V84.848C52.9714 83.784 52.4594 83.184 51.5314 83.184C51.1954 83.184 50.6194 83.28 50.2754 83.928C50.0594 83.448 49.6994 83.184 49.0994 83.184C48.7954 83.184 48.1794 83.312 47.9234 83.824V83.264H47.0994V87H47.9234V84.992C47.9234 84.256 48.3874 83.992 48.8674 83.992C49.3154 83.992 49.6194 84.328 49.6274 84.904V87H50.4514V84.992C50.4514 84.384 50.8114 83.992 51.3554 83.992ZM54.8998 83.264H54.0838V87H54.8998V83.264ZM53.9398 81.752C53.9398 82.048 54.1958 82.272 54.4918 82.272C54.8038 82.272 55.0358 82.048 55.0358 81.752C55.0358 81.456 54.8038 81.232 54.4918 81.232C54.1958 81.232 53.9398 81.456 53.9398 81.752ZM56.0526 87H56.8766V81.232H56.0526V87ZM58.8451 83.264H58.0291V87H58.8451V83.264ZM57.8851 81.752C57.8851 82.048 58.1411 82.272 58.4371 82.272C58.7491 82.272 58.9811 82.048 58.9811 81.752C58.9811 81.456 58.7491 81.232 58.4371 81.232C58.1411 81.232 57.8851 81.456 57.8851 81.752ZM62.8619 85.152C62.8619 85.896 62.2779 86.288 61.7259 86.288C61.1019 86.288 60.6139 85.84 60.6139 85.152C60.6139 84.456 61.1019 83.984 61.7259 83.984C62.3339 83.984 62.8619 84.424 62.8619 85.152ZM62.8699 83.816C62.6459 83.408 62.1339 83.184 61.6219 83.184C60.6139 83.184 59.7659 83.96 59.7659 85.136C59.7659 86.328 60.6139 87.08 61.6219 87.08C62.1339 87.08 62.6459 86.88 62.8699 86.464V88.816H63.6939V83.264H62.8699V83.816ZM67.3694 85.272C67.3694 86.016 66.8894 86.28 66.4094 86.28C65.9614 86.28 65.6334 85.96 65.6334 85.344V83.264H64.8094V85.44C64.8014 86.504 65.3374 87.08 66.2574 87.08C66.6494 87.08 67.1534 86.88 67.3694 86.456V87H68.1934V83.264H67.3694V85.272ZM72.8936 85.12C72.8936 83.936 72.0776 83.184 71.0216 83.184C69.9656 83.184 69.1016 83.936 69.1016 85.12C69.1016 86.304 69.9656 87.08 71.0216 87.08C71.7176 87.08 72.4296 86.784 72.7496 86.12L72.0776 85.824C71.8856 86.168 71.4776 86.36 71.0616 86.36C70.4536 86.36 70.0056 86 69.9176 85.424H72.8856C72.8936 85.336 72.8936 85.208 72.8936 85.12ZM69.9176 84.824C70.0056 84.248 70.4456 83.904 71.0216 83.904C71.5896 83.904 71.9976 84.24 72.0856 84.824H69.9176ZM77.1708 85.504C77.4508 85.568 77.6908 85.696 77.6908 85.944C77.6908 86.224 77.4028 86.392 77.0268 86.392C76.5868 86.392 76.3308 86.176 76.2908 85.856H75.5308C75.5548 86.648 76.2588 87.08 76.9628 87.08C77.8188 87.08 78.4508 86.672 78.4508 85.952C78.4508 85.584 78.2748 85.056 77.4748 84.864L76.8988 84.72C76.6988 84.664 76.4988 84.584 76.4428 84.432C76.4028 84.312 76.4108 84.2 76.4748 84.096C76.5628 83.968 76.7868 83.888 77.0028 83.888C77.2588 83.888 77.5148 84.008 77.5468 84.288H78.3308C78.2908 83.488 77.6268 83.184 76.9708 83.184C76.2908 83.184 75.6748 83.616 75.6348 84.168C75.5788 84.776 75.8668 85.168 76.6668 85.384L77.1708 85.504ZM81.8694 85.272C81.8694 86.016 81.3894 86.28 80.9094 86.28C80.4614 86.28 80.1334 85.96 80.1334 85.344V83.264H79.3094V85.44C79.3014 86.504 79.8374 87.08 80.7574 87.08C81.1494 87.08 81.6534 86.88 81.8694 86.456V87H82.6934V83.264H81.8694V85.272ZM84.6656 84.992C84.6656 84.256 85.1376 83.992 85.6256 83.992C86.1056 83.992 86.4096 84.32 86.4096 84.92V87H87.2336V84.824C87.2336 83.76 86.7136 83.184 85.8096 83.184C85.4016 83.184 84.8816 83.4 84.6656 83.824V83.264H83.8416V87H84.6656V84.992ZM89.4694 81.848H88.6454V83.264H87.9734V83.944H88.6454V87H89.4694V83.944H90.2614V83.264H89.4694V81.848ZM93.7279 83.264H92.9119V87H93.7279V83.264ZM92.7679 81.752C92.7679 82.048 93.0239 82.272 93.3199 82.272C93.6319 82.272 93.8639 82.048 93.8639 81.752C93.8639 81.456 93.6319 81.232 93.3199 81.232C93.0239 81.232 92.7679 81.456 92.7679 81.752ZM95.7047 84.992C95.7047 84.256 96.1767 83.992 96.6647 83.992C97.1447 83.992 97.4487 84.32 97.4487 84.92V87H98.2727V84.824C98.2727 83.76 97.7527 83.184 96.8487 83.184C96.4407 83.184 95.9207 83.4 95.7047 83.824V83.264H94.8807V87H95.7047V84.992ZM101.18 85.12C101.18 86.304 102.1 87.08 103.172 87.08C103.78 87.08 104.308 86.84 104.66 86.424L104.012 85.92C103.812 86.152 103.5 86.288 103.172 86.288C102.548 86.288 101.996 85.816 101.996 85.12C101.996 84.424 102.548 83.984 103.172 83.984C103.5 83.984 103.812 84.112 104.012 84.344L104.652 83.832C104.3 83.416 103.772 83.184 103.172 83.184C102.1 83.184 101.18 83.936 101.18 85.12ZM108.049 85.272C108.049 86.016 107.569 86.28 107.089 86.28C106.641 86.28 106.313 85.96 106.313 85.344V83.264H105.489V85.44C105.481 86.504 106.017 87.08 106.937 87.08C107.329 87.08 107.833 86.88 108.049 86.456V87H108.873V83.264H108.049V85.272ZM110.021 87H110.845V81.232H110.021V87ZM112.822 83.264H111.998V88.816H112.822V86.464C113.054 86.88 113.558 87.08 114.07 87.08C115.078 87.08 115.926 86.328 115.926 85.136C115.926 83.96 115.078 83.184 114.07 83.184C113.558 83.184 113.054 83.408 112.822 83.816V83.264ZM112.83 85.152C112.83 84.424 113.358 83.984 113.966 83.984C114.582 83.984 115.086 84.456 115.086 85.152C115.086 85.84 114.582 86.288 113.966 86.288C113.39 86.288 112.83 85.896 112.83 85.152ZM119.761 87H120.577V83.264H119.761V83.792C119.505 83.368 118.953 83.184 118.505 83.184C117.505 83.184 116.609 83.936 116.609 85.128C116.609 86.32 117.505 87.08 118.505 87.08C118.985 87.08 119.505 86.872 119.761 86.464V87ZM117.457 85.12C117.457 84.432 117.985 83.984 118.601 83.984C119.161 83.984 119.753 84.392 119.753 85.12C119.753 85.856 119.209 86.28 118.601 86.28C117.985 86.28 117.457 85.808 117.457 85.12ZM126.628 85.152C126.628 85.896 126.044 86.288 125.492 86.288C124.868 86.288 124.38 85.84 124.38 85.152C124.38 84.456 124.868 83.984 125.492 83.984C126.1 83.984 126.628 84.424 126.628 85.152ZM126.636 83.816C126.412 83.408 125.9 83.184 125.388 83.184C124.38 83.184 123.532 83.96 123.532 85.136C123.532 86.328 124.38 87.08 125.388 87.08C125.9 87.08 126.412 86.88 126.636 86.464V88.816H127.46V83.264H126.636V83.816ZM131.135 85.272C131.135 86.016 130.655 86.28 130.175 86.28C129.727 86.28 129.399 85.96 129.399 85.344V83.264H128.575V85.44C128.567 86.504 129.103 87.08 130.023 87.08C130.415 87.08 130.919 86.88 131.135 86.456V87H131.959V83.264H131.135V85.272ZM133.923 83.264H133.107V87H133.923V83.264ZM132.963 81.752C132.963 82.048 133.219 82.272 133.515 82.272C133.827 82.272 134.059 82.048 134.059 81.752C134.059 81.456 133.827 81.232 133.515 81.232C133.219 81.232 132.963 81.456 132.963 81.752ZM42.28 98.28C41.664 98.28 41.152 97.824 41.152 97.12C41.152 96.44 41.664 95.992 42.28 95.992C42.904 95.992 43.416 96.44 43.416 97.12C43.416 97.824 42.904 98.28 42.28 98.28ZM42.28 99.08C43.344 99.08 44.24 98.304 44.24 97.12C44.24 95.936 43.344 95.184 42.28 95.184C41.224 95.184 40.336 95.936 40.336 97.12C40.336 98.304 41.224 99.08 42.28 99.08ZM51.2821 95.944V99H52.0981V95.264H49.2901V94.92C49.2901 94.44 49.4101 94.024 49.9541 94.024H50.3621V93.232H49.9541C48.9301 93.232 48.4581 93.896 48.4581 94.92V95.264H46.3221V94.92C46.3221 94.44 46.4421 94.024 46.9861 94.024H47.3941V93.232H46.9861C45.9621 93.232 45.4901 93.896 45.4901 94.92V95.264H44.7781V95.944H45.4901V99H46.3221V95.944H48.4581V99H49.2901V95.944H51.2821ZM51.1381 93.752C51.1381 94.048 51.3941 94.272 51.6901 94.272C52.0021 94.272 52.2341 94.048 52.2341 93.752C52.2341 93.456 52.0021 93.232 51.6901 93.232C51.3941 93.232 51.1381 93.456 51.1381 93.752ZM53.0001 97.12C53.0001 98.304 53.9201 99.08 54.9921 99.08C55.6001 99.08 56.1281 98.84 56.4801 98.424L55.8321 97.92C55.6321 98.152 55.3201 98.288 54.9921 98.288C54.3681 98.288 53.8161 97.816 53.8161 97.12C53.8161 96.424 54.3681 95.984 54.9921 95.984C55.3201 95.984 55.6321 96.112 55.8321 96.344L56.4721 95.832C56.1201 95.416 55.5921 95.184 54.9921 95.184C53.9201 95.184 53.0001 95.936 53.0001 97.12ZM58.1654 95.264H57.3494V99H58.1654V95.264ZM57.2054 93.752C57.2054 94.048 57.4614 94.272 57.7574 94.272C58.0694 94.272 58.3014 94.048 58.3014 93.752C58.3014 93.456 58.0694 93.232 57.7574 93.232C57.4614 93.232 57.2054 93.456 57.2054 93.752ZM62.2302 99H63.0462V95.264H62.2302V95.792C61.9742 95.368 61.4222 95.184 60.9742 95.184C59.9742 95.184 59.0782 95.936 59.0782 97.128C59.0782 98.32 59.9742 99.08 60.9742 99.08C61.4542 99.08 61.9742 98.872 62.2302 98.464V99ZM59.9262 97.12C59.9262 96.432 60.4542 95.984 61.0702 95.984C61.6302 95.984 62.2222 96.392 62.2222 97.12C62.2222 97.856 61.6782 98.28 61.0702 98.28C60.4542 98.28 59.9262 97.808 59.9262 97.12ZM69.1283 99H69.9443V93.232H69.1283V95.8C68.8963 95.392 68.4003 95.184 67.8643 95.184C66.8563 95.184 66.0003 95.936 66.0003 97.136C66.0003 98.312 66.8563 99.08 67.8643 99.08C68.3763 99.08 68.8963 98.864 69.1283 98.456V99ZM69.1123 97.12C69.1123 97.848 68.5763 98.28 67.9683 98.28C67.3523 98.28 66.8483 97.808 66.8483 97.12C66.8483 96.432 67.3523 95.984 67.9683 95.984C68.5203 95.984 69.1123 96.392 69.1123 97.12ZM74.6514 97.12C74.6514 95.936 73.8354 95.184 72.7794 95.184C71.7234 95.184 70.8594 95.936 70.8594 97.12C70.8594 98.304 71.7234 99.08 72.7794 99.08C73.4754 99.08 74.1874 98.784 74.5074 98.12L73.8354 97.824C73.6434 98.168 73.2354 98.36 72.8194 98.36C72.2114 98.36 71.7634 98 71.6754 97.424H74.6434C74.6514 97.336 74.6514 97.208 74.6514 97.12ZM71.6754 96.824C71.7634 96.248 72.2034 95.904 72.7794 95.904C73.3474 95.904 73.7554 96.24 73.8434 96.824H71.6754ZM76.8973 97.504C77.1773 97.568 77.4173 97.696 77.4173 97.944C77.4173 98.224 77.1293 98.392 76.7533 98.392C76.3133 98.392 76.0573 98.176 76.0173 97.856H75.2573C75.2813 98.648 75.9853 99.08 76.6893 99.08C77.5453 99.08 78.1773 98.672 78.1773 97.952C78.1773 97.584 78.0013 97.056 77.2013 96.864L76.6253 96.72C76.4253 96.664 76.2253 96.584 76.1693 96.432C76.1293 96.312 76.1373 96.2 76.2013 96.096C76.2893 95.968 76.5133 95.888 76.7293 95.888C76.9853 95.888 77.2413 96.008 77.2733 96.288H78.0573C78.0173 95.488 77.3533 95.184 76.6973 95.184C76.0173 95.184 75.4013 95.616 75.3613 96.168C75.3053 96.776 75.5933 97.168 76.3933 97.384L76.8973 97.504ZM82.628 97.12C82.628 95.936 81.812 95.184 80.756 95.184C79.7 95.184 78.836 95.936 78.836 97.12C78.836 98.304 79.7 99.08 80.756 99.08C81.452 99.08 82.164 98.784 82.484 98.12L81.812 97.824C81.62 98.168 81.212 98.36 80.796 98.36C80.188 98.36 79.74 98 79.652 97.424H82.62C82.628 97.336 82.628 97.208 82.628 97.12ZM79.652 96.824C79.74 96.248 80.18 95.904 80.756 95.904C81.324 95.904 81.732 96.24 81.82 96.824H79.652ZM84.3219 97.656C84.3219 96.664 84.6179 95.96 85.3219 95.96C85.4819 95.96 85.6579 95.984 85.8739 96.088L86.0099 95.328C85.8899 95.24 85.6099 95.184 85.3459 95.184C84.8739 95.184 84.5139 95.448 84.3219 96.12V95.264H83.4979V99H84.3219V97.656ZM89.2132 97.272C89.2132 98.016 88.7332 98.28 88.2532 98.28C87.8052 98.28 87.4772 97.96 87.4772 97.344V95.264H86.6532V97.44C86.6452 98.504 87.1812 99.08 88.1012 99.08C88.4932 99.08 88.9972 98.88 89.2132 98.456V99H90.0372V95.264H89.2132V97.272ZM92.0094 96.992C92.0094 96.256 92.4814 95.992 92.9694 95.992C93.4494 95.992 93.7534 96.32 93.7534 96.92V99H94.5774V96.824C94.5774 95.76 94.0574 95.184 93.1534 95.184C92.7454 95.184 92.2254 95.4 92.0094 95.824V95.264H91.1854V99H92.0094V96.992ZM96.8132 93.848H95.9892V95.264H95.3172V95.944H95.9892V99H96.8132V95.944H97.6052V95.264H96.8132V93.848ZM104.512 95.992C104.992 95.992 105.304 96.336 105.304 96.92V99H106.128V96.848C106.128 95.784 105.616 95.184 104.688 95.184C104.352 95.184 103.776 95.28 103.432 95.928C103.216 95.448 102.856 95.184 102.256 95.184C101.952 95.184 101.336 95.312 101.08 95.824V95.264H100.256V99H101.08V96.992C101.08 96.256 101.544 95.992 102.024 95.992C102.472 95.992 102.776 96.328 102.784 96.904V99H103.608V96.992C103.608 96.384 103.968 95.992 104.512 95.992ZM108.944 98.28C108.328 98.28 107.816 97.824 107.816 97.12C107.816 96.44 108.328 95.992 108.944 95.992C109.568 95.992 110.08 96.44 110.08 97.12C110.08 97.824 109.568 98.28 108.944 98.28ZM108.944 99.08C110.008 99.08 110.904 98.304 110.904 97.12C110.904 95.936 110.008 95.184 108.944 95.184C107.888 95.184 107 95.936 107 97.12C107 98.304 107.888 99.08 108.944 99.08ZM111.818 99H112.642V93.232H111.818V99ZM113.795 99H114.619V93.232H113.795V99ZM116.587 95.264H115.771V99H116.587V95.264ZM115.627 93.752C115.627 94.048 115.883 94.272 116.179 94.272C116.491 94.272 116.723 94.048 116.723 93.752C116.723 93.456 116.491 93.232 116.179 93.232C115.883 93.232 115.627 93.456 115.627 93.752ZM118.86 93.848H118.036V95.264H117.364V95.944H118.036V99H118.86V95.944H119.652V95.264H118.86V93.848ZM121.244 95.264H120.428V99H121.244V95.264ZM120.284 93.752C120.284 94.048 120.54 94.272 120.836 94.272C121.148 94.272 121.38 94.048 121.38 93.752C121.38 93.456 121.148 93.232 120.836 93.232C120.54 93.232 120.284 93.456 120.284 93.752ZM125.308 99H126.124V95.264H125.308V95.792C125.052 95.368 124.5 95.184 124.052 95.184C123.052 95.184 122.156 95.936 122.156 97.128C122.156 98.32 123.052 99.08 124.052 99.08C124.532 99.08 125.052 98.872 125.308 98.464V99ZM123.004 97.12C123.004 96.432 123.532 95.984 124.148 95.984C124.708 95.984 125.3 96.392 125.3 97.12C125.3 97.856 124.756 98.28 124.148 98.28C123.532 98.28 123.004 97.808 123.004 97.12ZM43.488 111H44.304V107.264H43.488V107.792C43.232 107.368 42.68 107.184 42.232 107.184C41.232 107.184 40.336 107.936 40.336 109.128C40.336 110.32 41.232 111.08 42.232 111.08C42.712 111.08 43.232 110.872 43.488 110.464V111ZM41.184 109.12C41.184 108.432 41.712 107.984 42.328 107.984C42.888 107.984 43.48 108.392 43.48 109.12C43.48 109.856 42.936 110.28 42.328 110.28C41.712 110.28 41.184 109.808 41.184 109.12ZM46.2828 108.992C46.2828 108.256 46.7548 107.992 47.2428 107.992C47.7228 107.992 48.0268 108.32 48.0268 108.92V111H48.8508V108.824C48.8508 107.76 48.3308 107.184 47.4268 107.184C47.0188 107.184 46.4988 107.4 46.2828 107.824V107.264H45.4588V111H46.2828V108.992ZM50.7826 107.264H49.9666V111H50.7826V107.264ZM49.8226 105.752C49.8226 106.048 50.0786 106.272 50.3746 106.272C50.6866 106.272 50.9186 106.048 50.9186 105.752C50.9186 105.456 50.6866 105.232 50.3746 105.232C50.0786 105.232 49.8226 105.456 49.8226 105.752ZM56.1914 107.992C56.6714 107.992 56.9834 108.336 56.9834 108.92V111H57.8074V108.848C57.8074 107.784 57.2954 107.184 56.3674 107.184C56.0314 107.184 55.4554 107.28 55.1114 107.928C54.8954 107.448 54.5354 107.184 53.9354 107.184C53.6314 107.184 53.0154 107.312 52.7594 107.824V107.264H51.9354V111H52.7594V108.992C52.7594 108.256 53.2234 107.992 53.7034 107.992C54.1514 107.992 54.4554 108.328 54.4634 108.904V111H55.2874V108.992C55.2874 108.384 55.6474 107.992 56.1914 107.992ZM59.7358 107.264H58.9198V111H59.7358V107.264ZM58.7758 105.752C58.7758 106.048 59.0318 106.272 59.3278 106.272C59.6398 106.272 59.8718 106.048 59.8718 105.752C59.8718 105.456 59.6398 105.232 59.3278 105.232C59.0318 105.232 58.7758 105.456 58.7758 105.752ZM60.9605 112.024C61.3285 111.744 61.7605 111.056 61.8245 109.992H60.9605C60.9845 110.76 60.7205 111.384 60.4005 111.832L60.9605 112.024ZM65.8061 107.264H64.9901V111H65.8061V107.264ZM64.8461 105.752C64.8461 106.048 65.1021 106.272 65.3981 106.272C65.7101 106.272 65.9421 106.048 65.9421 105.752C65.9421 105.456 65.7101 105.232 65.3981 105.232C65.1021 105.232 64.8461 105.456 64.8461 105.752ZM69.8548 111H70.6708V105.232H69.8548V107.8C69.6228 107.392 69.1268 107.184 68.5908 107.184C67.5828 107.184 66.7268 107.936 66.7268 109.136C66.7268 110.312 67.5828 111.08 68.5908 111.08C69.1028 111.08 69.6228 110.864 69.8548 110.456V111ZM69.8388 109.12C69.8388 109.848 69.3028 110.28 68.6948 110.28C68.0788 110.28 67.5748 109.808 67.5748 109.12C67.5748 108.432 68.0788 107.984 68.6948 107.984C69.2468 107.984 69.8388 108.392 69.8388 109.12ZM77.4093 109.12C77.4093 107.936 76.5933 107.184 75.5373 107.184C74.4813 107.184 73.6173 107.936 73.6173 109.12C73.6173 110.304 74.4813 111.08 75.5373 111.08C76.2333 111.08 76.9453 110.784 77.2653 110.12L76.5933 109.824C76.4013 110.168 75.9933 110.36 75.5773 110.36C74.9693 110.36 74.5213 110 74.4333 109.424H77.4013C77.4093 109.336 77.4093 109.208 77.4093 109.12ZM74.4333 108.824C74.5213 108.248 74.9613 107.904 75.5373 107.904C76.1053 107.904 76.5133 108.24 76.6013 108.824H74.4333ZM79.6551 109.504C79.9351 109.568 80.1751 109.696 80.1751 109.944C80.1751 110.224 79.8871 110.392 79.5111 110.392C79.0711 110.392 78.8151 110.176 78.7751 109.856H78.0151C78.0391 110.648 78.7431 111.08 79.4471 111.08C80.3031 111.08 80.9351 110.672 80.9351 109.952C80.9351 109.584 80.7591 109.056 79.9591 108.864L79.3831 108.72C79.1831 108.664 78.9831 108.584 78.9271 108.432C78.8871 108.312 78.8951 108.2 78.9591 108.096C79.0471 107.968 79.2711 107.888 79.4871 107.888C79.7431 107.888 79.9991 108.008 80.0311 108.288H80.8151C80.7751 107.488 80.1111 107.184 79.4551 107.184C78.7751 107.184 78.1591 107.616 78.1191 108.168C78.0631 108.776 78.3511 109.168 79.1511 109.384L79.6551 109.504ZM82.9538 105.848H82.1298V107.264H81.4578V107.944H82.1298V111H82.9538V107.944H83.7458V107.264H82.9538V105.848ZM86.3963 111H87.2203V105.232H86.3963V111ZM91.2849 111H92.1009V107.264H91.2849V107.792C91.0289 107.368 90.4769 107.184 90.0289 107.184C89.0289 107.184 88.1329 107.936 88.1329 109.128C88.1329 110.32 89.0289 111.08 90.0289 111.08C90.5089 111.08 91.0289 110.872 91.2849 110.464V111ZM88.9809 109.12C88.9809 108.432 89.5089 107.984 90.1249 107.984C90.6849 107.984 91.2769 108.392 91.2769 109.12C91.2769 109.856 90.7329 110.28 90.1249 110.28C89.5089 110.28 88.9809 109.808 88.9809 109.12ZM94.0877 109.12C94.0877 108.392 94.6717 107.984 95.2317 107.984C95.8557 107.984 96.3597 108.432 96.3597 109.12C96.3597 109.808 95.8557 110.28 95.2317 110.28C94.6237 110.28 94.0877 109.848 94.0877 109.12ZM94.0797 111V110.456C94.3117 110.864 94.8157 111.08 95.3277 111.08C96.3277 111.08 97.1997 110.312 97.1997 109.136C97.1997 107.936 96.3517 107.184 95.3357 107.184C94.7997 107.184 94.3117 107.392 94.0797 107.8V105.232H93.2557V111H94.0797ZM99.8269 110.28C99.2109 110.28 98.6989 109.824 98.6989 109.12C98.6989 108.44 99.2109 107.992 99.8269 107.992C100.451 107.992 100.963 108.44 100.963 109.12C100.963 109.824 100.451 110.28 99.8269 110.28ZM99.8269 111.08C100.891 111.08 101.787 110.304 101.787 109.12C101.787 107.936 100.891 107.184 99.8269 107.184C98.7709 107.184 97.8829 107.936 97.8829 109.12C97.8829 110.304 98.7709 111.08 99.8269 111.08ZM103.525 109.656C103.525 108.664 103.821 107.96 104.525 107.96C104.685 107.96 104.861 107.984 105.077 108.088L105.213 107.328C105.093 107.24 104.813 107.184 104.549 107.184C104.077 107.184 103.717 107.448 103.525 108.12V107.264H102.701V111H103.525V109.656ZM108.416 109.272C108.416 110.016 107.936 110.28 107.456 110.28C107.008 110.28 106.68 109.96 106.68 109.344V107.264H105.856V109.44C105.848 110.504 106.384 111.08 107.304 111.08C107.696 111.08 108.2 110.88 108.416 110.456V111H109.24V107.264H108.416V109.272ZM114.645 107.992C115.125 107.992 115.437 108.336 115.437 108.92V111H116.261V108.848C116.261 107.784 115.749 107.184 114.821 107.184C114.485 107.184 113.909 107.28 113.565 107.928C113.349 107.448 112.989 107.184 112.389 107.184C112.085 107.184 111.469 107.312 111.213 107.824V107.264H110.389V111H111.213V108.992C111.213 108.256 111.677 107.992 112.157 107.992C112.605 107.992 112.909 108.328 112.917 108.904V111H113.741V108.992C113.741 108.384 114.101 107.992 114.645 107.992ZM122.956 109.12C122.956 107.936 122.14 107.184 121.084 107.184C120.028 107.184 119.164 107.936 119.164 109.12C119.164 110.304 120.028 111.08 121.084 111.08C121.78 111.08 122.492 110.784 122.812 110.12L122.14 109.824C121.948 110.168 121.54 110.36 121.124 110.36C120.516 110.36 120.068 110 119.98 109.424H122.948C122.956 109.336 122.956 109.208 122.956 109.12ZM119.98 108.824C120.068 108.248 120.508 107.904 121.084 107.904C121.652 107.904 122.06 108.24 122.148 108.824H119.98ZM124.946 105.848H124.122V107.264H123.45V107.944H124.122V111H124.946V107.944H125.738V107.264H124.946V105.848ZM43.472 123H44.288V117.232H43.472V119.8C43.24 119.392 42.744 119.184 42.208 119.184C41.2 119.184 40.344 119.936 40.344 121.136C40.344 122.312 41.2 123.08 42.208 123.08C42.72 123.08 43.24 122.864 43.472 122.456V123ZM43.456 121.12C43.456 121.848 42.92 122.28 42.312 122.28C41.696 122.28 41.192 121.808 41.192 121.12C41.192 120.432 41.696 119.984 42.312 119.984C42.864 119.984 43.456 120.392 43.456 121.12ZM47.1472 122.28C46.5312 122.28 46.0192 121.824 46.0192 121.12C46.0192 120.44 46.5312 119.992 47.1472 119.992C47.7712 119.992 48.2832 120.44 48.2832 121.12C48.2832 121.824 47.7712 122.28 47.1472 122.28ZM47.1472 123.08C48.2112 123.08 49.1072 122.304 49.1072 121.12C49.1072 119.936 48.2112 119.184 47.1472 119.184C46.0912 119.184 45.2032 119.936 45.2032 121.12C45.2032 122.304 46.0912 123.08 47.1472 123.08ZM50.0213 123H50.8453V117.232H50.0213V123ZM53.7019 122.28C53.0859 122.28 52.5739 121.824 52.5739 121.12C52.5739 120.44 53.0859 119.992 53.7019 119.992C54.3259 119.992 54.8379 120.44 54.8379 121.12C54.8379 121.824 54.3259 122.28 53.7019 122.28ZM53.7019 123.08C54.7659 123.08 55.6619 122.304 55.6619 121.12C55.6619 119.936 54.7659 119.184 53.7019 119.184C52.6459 119.184 51.7579 119.936 51.7579 121.12C51.7579 122.304 52.6459 123.08 53.7019 123.08ZM57.4 121.656C57.4 120.664 57.696 119.96 58.4 119.96C58.56 119.96 58.736 119.984 58.952 120.088L59.088 119.328C58.968 119.24 58.688 119.184 58.424 119.184C57.952 119.184 57.592 119.448 57.4 120.12V119.264H56.576V123H57.4V121.656ZM62.2913 121.272C62.2913 122.016 61.8113 122.28 61.3313 122.28C60.8833 122.28 60.5553 121.96 60.5553 121.344V119.264H59.7313V121.44C59.7233 122.504 60.2593 123.08 61.1793 123.08C61.5713 123.08 62.0753 122.88 62.2913 122.456V123H63.1153V119.264H62.2913V121.272ZM68.5195 119.992C68.9995 119.992 69.3115 120.336 69.3115 120.92V123H70.1355V120.848C70.1355 119.784 69.6235 119.184 68.6955 119.184C68.3595 119.184 67.7835 119.28 67.4395 119.928C67.2235 119.448 66.8635 119.184 66.2635 119.184C65.9595 119.184 65.3435 119.312 65.0875 119.824V119.264H64.2635V123H65.0875V120.992C65.0875 120.256 65.5515 119.992 66.0315 119.992C66.4795 119.992 66.7835 120.328 66.7915 120.904V123H67.6155V120.992C67.6155 120.384 67.9755 119.992 68.5195 119.992ZM75.4098 117.232H75.0018C73.9778 117.232 73.5058 117.896 73.5058 118.92V119.264H72.7938V119.944H73.5058V123H74.3378V119.944H75.1778V119.264H74.3378V118.92C74.3378 118.44 74.4578 118.024 75.0018 118.024H75.4098V117.232ZM78.4632 121.272C78.4632 122.016 77.9832 122.28 77.5032 122.28C77.0552 122.28 76.7272 121.96 76.7272 121.344V119.264H75.9032V121.44C75.8952 122.504 76.4312 123.08 77.3512 123.08C77.7432 123.08 78.2472 122.88 78.4632 122.456V123H79.2872V119.264H78.4632V121.272ZM83.3394 121.136C83.3394 121.872 82.7474 122.288 82.1874 122.288C81.5634 122.288 81.0514 121.84 81.0514 121.136C81.0514 120.456 81.5634 119.984 82.1874 119.984C82.8034 119.984 83.3394 120.392 83.3394 121.136ZM81.0594 123.472C80.9074 123.536 80.5314 123.752 80.3794 123.816C80.7314 124.488 81.3794 124.864 82.1074 124.864C83.3634 124.864 84.1634 124.168 84.1634 122.448V119.264H83.3554V119.816C83.1234 119.408 82.6034 119.184 82.0914 119.184C81.0834 119.184 80.2034 119.96 80.2034 121.144C80.2034 122.328 81.0834 123.08 82.0914 123.08C82.5954 123.08 83.1474 122.856 83.3554 122.432V122.624C83.3554 123.672 82.8674 124.096 82.1074 124.096C81.6994 124.096 81.2594 123.864 81.0594 123.472ZM88.2302 123H89.0462V119.264H88.2302V119.792C87.9742 119.368 87.4222 119.184 86.9742 119.184C85.9742 119.184 85.0782 119.936 85.0782 121.128C85.0782 122.32 85.9742 123.08 86.9742 123.08C87.4542 123.08 87.9742 122.872 88.2302 122.464V123ZM85.9262 121.12C85.9262 120.432 86.4542 119.984 87.0702 119.984C87.6302 119.984 88.2222 120.392 88.2222 121.12C88.2222 121.856 87.6782 122.28 87.0702 122.28C86.4542 122.28 85.9262 121.808 85.9262 121.12ZM90.129 122.544C90.129 122.856 90.377 123.08 90.689 123.08C91.001 123.08 91.257 122.856 91.257 122.544C91.257 122.232 91.001 122 90.689 122C90.377 122 90.129 122.232 90.129 122.544Z" fill="#354662"/>
<path opacity="0.8" d="M44.63 50.02L42.29 45.11H41.35L40.51 52H41.57L42.16 47.08L44.19 51.23H45.09L47.11 47.08L47.7 52H48.76L47.92 45.11H46.97L44.63 50.02ZM53.5592 52H54.5792V47.33H53.5592V47.99C53.2392 47.46 52.5492 47.23 51.9892 47.23C50.7392 47.23 49.6192 48.17 49.6192 49.66C49.6192 51.15 50.7392 52.1 51.9892 52.1C52.5892 52.1 53.2392 51.84 53.5592 51.33V52ZM50.6792 49.65C50.6792 48.79 51.3392 48.23 52.1092 48.23C52.8092 48.23 53.5492 48.74 53.5492 49.65C53.5492 50.57 52.8692 51.1 52.1092 51.1C51.3392 51.1 50.6792 50.51 50.6792 49.65ZM57.4227 45.56H56.3927V47.33H55.5527V48.18H56.3927V52H57.4227V48.18H58.4127V47.33H57.4227V45.56ZM60.4121 49.49C60.4121 48.57 61.1221 48.24 61.7121 48.24C62.3021 48.24 62.7521 48.67 62.7521 49.4V52H63.7821V49.34C63.7821 48.01 63.0921 47.23 61.8921 47.23C61.4021 47.23 60.6821 47.47 60.4121 48.04V44.79H59.3821V52H60.4121V49.49ZM69.6034 49.65C69.6034 48.17 68.5834 47.23 67.2634 47.23C65.9434 47.23 64.8634 48.17 64.8634 49.65C64.8634 51.13 65.9434 52.1 67.2634 52.1C68.1334 52.1 69.0234 51.73 69.4234 50.9L68.5834 50.53C68.3434 50.96 67.8334 51.2 67.3134 51.2C66.5534 51.2 65.9934 50.75 65.8834 50.03H69.5934C69.6034 49.92 69.6034 49.76 69.6034 49.65ZM65.8834 49.28C65.9934 48.56 66.5434 48.13 67.2634 48.13C67.9734 48.13 68.4834 48.55 68.5934 49.28H65.8834ZM77.5423 47.33H76.4423L75.3523 50.48L74.2723 47.33H73.3123L72.2323 50.48L71.1523 47.33H70.0523L71.8123 52H72.6523L73.7923 48.69L74.9823 52H75.8323L77.5423 47.33ZM86.0995 50.24L84.9195 46.05H84.0895L82.9095 50.24L81.2695 45.11H80.1295L82.4595 52H83.3495L84.4995 47.87L85.6595 52H86.5495L88.8795 45.11H87.7395L86.0995 50.24ZM92.8854 52H93.9054V47.33H92.8854V47.99C92.5654 47.46 91.8754 47.23 91.3154 47.23C90.0654 47.23 88.9454 48.17 88.9454 49.66C88.9454 51.15 90.0654 52.1 91.3154 52.1C91.9154 52.1 92.5654 51.84 92.8854 51.33V52ZM90.0054 49.65C90.0054 48.79 90.6654 48.23 91.4354 48.23C92.1354 48.23 92.8754 48.74 92.8754 49.65C92.8754 50.57 92.1954 51.1 91.4354 51.1C90.6654 51.1 90.0054 50.51 90.0054 49.65ZM99.5689 47.33H98.4689L97.1589 50.53L95.8589 47.33H94.7589L96.6089 51.78L95.5989 54.28H96.6789L99.5689 47.33ZM104.76 49.65C104.76 48.17 103.74 47.23 102.42 47.23C101.1 47.23 100.02 48.17 100.02 49.65C100.02 51.13 101.1 52.1 102.42 52.1C103.29 52.1 104.18 51.73 104.58 50.9L103.74 50.53C103.5 50.96 102.99 51.2 102.47 51.2C101.71 51.2 101.15 50.75 101.04 50.03H104.75C104.76 49.92 104.76 49.76 104.76 49.65ZM101.04 49.28C101.15 48.56 101.7 48.13 102.42 48.13C103.13 48.13 103.64 48.55 103.75 49.28H101.04Z" fill="#354662"/>
<rect x="40" y="137" width="72" height="22" rx="4" fill="#6AD88F"/>
<path d="M57.94 144.11V151H58.88V148.42H60.69C62.15 148.42 62.74 147.35 62.74 146.27C62.74 145.19 62.15 144.11 60.69 144.11H57.94ZM60.68 144.98C61.48 144.98 61.81 145.64 61.81 146.27C61.81 146.91 61.47 147.55 60.63 147.55H58.88V144.98H60.68ZM64.6759 149.3C64.6759 148.06 65.0559 147.1 65.9559 147.1C66.1459 147.1 66.3959 147.14 66.6459 147.26L66.7859 146.41C66.6559 146.32 66.3059 146.23 65.9759 146.23C65.3659 146.23 64.9159 146.55 64.6759 147.38V146.33H63.7659V151H64.6759V149.3ZM69.724 151.1C71.054 151.1 72.174 150.13 72.174 148.65C72.174 147.17 71.054 146.23 69.724 146.23C68.394 146.23 67.284 147.17 67.284 148.65C67.284 150.13 68.394 151.1 69.724 151.1ZM69.724 150.22C68.874 150.22 68.184 149.61 68.184 148.65C68.184 147.71 68.874 147.12 69.724 147.12C70.554 147.12 71.264 147.71 71.264 148.65C71.264 149.61 70.554 150.22 69.724 150.22ZM73.075 148.65C73.075 150.13 74.215 151.1 75.545 151.1C76.265 151.1 76.915 150.82 77.355 150.34L76.655 149.76C76.375 150.05 75.975 150.22 75.545 150.22C74.705 150.22 73.975 149.58 73.975 148.65C73.975 147.71 74.705 147.12 75.545 147.12C75.975 147.12 76.375 147.28 76.655 147.56L77.345 146.98C76.905 146.5 76.265 146.23 75.545 146.23C74.215 146.23 73.075 147.17 73.075 148.65ZM78.985 148.3C79.095 147.51 79.695 147.05 80.465 147.05C81.225 147.05 81.775 147.51 81.885 148.3H78.985ZM82.785 148.65C82.785 147.17 81.795 146.23 80.465 146.23C79.135 146.23 78.075 147.17 78.075 148.65C78.075 150.13 79.135 151.1 80.465 151.1C81.375 151.1 82.215 150.69 82.615 149.86C82.365 149.75 82.075 149.67 81.835 149.56C81.565 150.03 81.055 150.28 80.495 150.28C79.695 150.28 79.095 149.8 78.985 149.01H82.775C82.785 148.9 82.785 148.76 82.785 148.65ZM84.5416 148.3C84.6516 147.51 85.2516 147.05 86.0216 147.05C86.7816 147.05 87.3316 147.51 87.4416 148.3H84.5416ZM88.3416 148.65C88.3416 147.17 87.3516 146.23 86.0216 146.23C84.6916 146.23 83.6316 147.17 83.6316 148.65C83.6316 150.13 84.6916 151.1 86.0216 151.1C86.9316 151.1 87.7716 150.69 88.1716 149.86C87.9216 149.75 87.6316 149.67 87.3916 149.56C87.1216 150.03 86.6116 150.28 86.0516 150.28C85.2516 150.28 84.6516 149.8 84.5416 149.01H88.3316C88.3416 148.9 88.3416 148.76 88.3416 148.65ZM93.1883 151H94.0983V143.79H93.1883V147.03C92.8783 146.5 92.2283 146.23 91.5383 146.23C90.2583 146.23 89.1883 147.17 89.1883 148.66C89.1883 150.14 90.2683 151.1 91.5483 151.1C92.1983 151.1 92.8783 150.8 93.1883 150.28V151ZM93.1783 148.65C93.1783 149.64 92.4583 150.21 91.6283 150.21C90.7883 150.21 90.1183 149.57 90.1183 148.65C90.1183 147.73 90.7883 147.12 91.6283 147.12C92.3883 147.12 93.1783 147.65 93.1783 148.65Z" fill="white"/>
<defs>
<filter id="filter0_d_305_19" x="0" y="0" width="191" height="220" filterUnits="userSpaceOnUse" color-interpolation-filters="sRGB">
<feFlood flood-opacity="0" result="BackgroundImageFix"/>
<feColorMatrix in="SourceAlpha" type="matrix" values="0 0 0 0 0 0 0 0 0 0 0 0 0 0 0 0 0 0 127 0" result="hardAlpha"/>
<feOffset dx="8" dy="14"/>
<feGaussianBlur stdDeviation="12.5"/>
<feComposite in2="hardAlpha" operator="out"/>
<feColorMatrix type="matrix" values="0 0 0 0 0.141176 0 0 0 0 0.254902 0 0 0 0 0.505882 0 0 0 0.05 0"/>
<feBlend mode="normal" in2="BackgroundImageFix" result="effect1_dropShadow_305_19"/>
<feBlend mode="normal" in="SourceGraphic" in2="effect1_dropShadow_305_19" result="shape"/>
</filter>
<linearGradient id="paint0_linear_305_19" x1="88.1215" y1="250.851" x2="182.653" y2="182.935" gradientUnits="userSpaceOnUse">
<stop stop-color="#020B1B"/>
<stop offset="1" stop-color="#020B1B" stop-opacity="0"/>
</linearGradient>
</defs>
</svg>
