<svg width="201" height="225" viewBox="0 0 201 225" fill="none" xmlns="http://www.w3.org/2000/svg">
<g opacity="0.9" filter="url(#filter0_d_1_254)">
<rect x="17" y="11" width="151" height="175" fill="white"/>
</g>
<path opacity="0.5" d="M45.704 34.8829C45.296 35.2989 44.744 35.5549 44.104 35.5549C42.832 35.5549 41.96 34.5309 41.96 33.2589C41.96 31.9789 42.832 30.9549 44.104 30.9549C44.744 30.9549 45.288 31.2109 45.696 31.6189L46.064 31.2509C45.56 30.7389 44.88 30.4269 44.104 30.4269C42.544 30.4269 41.432 31.6989 41.432 33.2589C41.432 34.8269 42.544 36.0829 44.104 36.0829C44.88 36.0829 45.568 35.7709 46.072 35.2589L45.704 34.8829ZM48.6565 36.0829C49.7205 36.0829 50.6085 35.3069 50.6085 34.1229C50.6085 32.9389 49.7205 32.1869 48.6565 32.1869C47.5925 32.1869 46.7045 32.9389 46.7045 34.1229C46.7045 35.3069 47.5925 36.0829 48.6565 36.0829ZM48.6565 35.5549C47.8805 35.5549 47.2325 34.9869 47.2325 34.1229C47.2325 33.2589 47.8805 32.7149 48.6565 32.7149C49.4325 32.7149 50.0805 33.2589 50.0805 34.1229C50.0805 34.9869 49.4325 35.5549 48.6565 35.5549ZM52.184 33.9629C52.184 33.0509 52.832 32.7149 53.424 32.7149C54 32.7149 54.328 33.1309 54.328 33.8269V36.0029H54.864V33.8269C54.872 32.8029 54.344 32.1869 53.424 32.1869C52.992 32.1869 52.416 32.3949 52.184 32.8829V32.2669H51.648V36.0029H52.184V33.9629ZM55.8129 34.9309C55.8369 35.6669 56.4929 36.0829 57.1169 36.0829C57.8929 36.0829 58.4849 35.6349 58.4849 34.9869C58.4849 34.4749 58.2449 34.0669 57.5409 33.8989L57.0289 33.7789C56.7729 33.7149 56.3889 33.5789 56.4769 33.1549C56.5169 32.8909 56.8129 32.6989 57.1729 32.6989C57.4929 32.6989 57.7649 32.8669 57.8289 33.1549H58.3489C58.2449 32.4749 57.7569 32.1869 57.1729 32.1869C56.5649 32.1869 56.0449 32.5389 55.9569 33.0749C55.8529 33.9469 56.4449 34.1869 56.9009 34.2909L57.4209 34.4109C57.8129 34.5069 57.9569 34.7389 57.9569 34.9869C57.9569 35.3389 57.6449 35.5789 57.1649 35.5789C56.5329 35.5789 56.3489 35.2189 56.2849 34.9309H55.8129ZM62.1316 34.3069C62.1316 35.2189 61.4836 35.5549 60.8916 35.5549C60.3156 35.5549 59.9876 35.1389 59.9876 34.4429V32.2669H59.4516V34.4429C59.4436 35.4669 59.9716 36.0829 60.8916 36.0829C61.3236 36.0829 61.8996 35.8749 62.1316 35.3869V36.0029H62.6676V32.2669H62.1316V34.3069ZM64.4885 30.2429H63.9605V36.0029H64.4885V30.2429ZM66.5648 36.0029V32.7469H67.3568V32.2669H66.5648V30.8669H66.0288V32.2669H65.3568V32.7469H66.0288V36.0029H66.5648ZM71.7714 32.2669H71.2354V32.8829C70.9554 32.4109 70.3714 32.1869 69.8274 32.1869C68.7634 32.1869 67.9154 32.9389 67.9154 34.1229C67.9154 35.3069 68.7634 36.0829 69.8274 36.0829C70.3714 36.0829 70.9554 35.8349 71.2354 35.3629V36.0029H71.7714V32.2669ZM68.4514 34.1229C68.4514 33.2669 69.0514 32.7229 69.8274 32.7229C70.4994 32.7229 71.2354 33.1949 71.2354 34.1229C71.2354 35.0509 70.5954 35.5469 69.8274 35.5469C69.0514 35.5469 68.4514 34.9549 68.4514 34.1229ZM73.8539 36.0029V32.7469H74.6459V32.2669H73.8539V30.8669H73.3179V32.2669H72.6459V32.7469H73.3179V36.0029H73.8539ZM76.0588 32.2669H75.5308V36.0029H76.0588V32.2669ZM75.3948 30.8749C75.3948 31.0989 75.5788 31.2589 75.8028 31.2589C76.0268 31.2589 76.2108 31.0989 76.2108 30.8749C76.2108 30.6509 76.0268 30.4909 75.8028 30.4909C75.5788 30.4909 75.3948 30.6509 75.3948 30.8749ZM79.0471 36.0829C80.1111 36.0829 80.9991 35.3069 80.9991 34.1229C80.9991 32.9389 80.1111 32.1869 79.0471 32.1869C77.9831 32.1869 77.0951 32.9389 77.0951 34.1229C77.0951 35.3069 77.9831 36.0829 79.0471 36.0829ZM79.0471 35.5549C78.2711 35.5549 77.6231 34.9869 77.6231 34.1229C77.6231 33.2589 78.2711 32.7149 79.0471 32.7149C79.8231 32.7149 80.4711 33.2589 80.4711 34.1229C80.4711 34.9869 79.8231 35.5549 79.0471 35.5549ZM82.5746 33.9629C82.5746 33.0509 83.2226 32.7149 83.8146 32.7149C84.3906 32.7149 84.7186 33.1309 84.7186 33.8269V36.0029H85.2546V33.8269C85.2626 32.8029 84.7346 32.1869 83.8146 32.1869C83.3826 32.1869 82.8066 32.3949 82.5746 32.8829V32.2669H82.0386V36.0029H82.5746V33.9629ZM90.2486 32.6029C89.7446 32.6029 89.4086 32.2429 89.4086 31.7709C89.4086 31.2989 89.7766 30.9549 90.2886 30.9549C90.6486 30.9549 90.9446 31.1309 91.0966 31.3949L91.5446 31.1149C91.2966 30.7069 90.8406 30.4269 90.2886 30.4269C89.4886 30.4269 88.8806 31.0269 88.8806 31.7709C88.8806 32.1949 89.0646 32.5549 89.3606 32.8029C88.7926 33.1149 88.4326 33.6829 88.4326 34.3229C88.4326 35.3069 89.1686 36.0829 90.2246 36.0829C90.8406 36.0829 91.4246 35.7869 91.6806 35.3389C91.8326 35.7869 92.2806 36.0829 92.8966 36.0829V35.5789C92.1366 35.5789 92.0166 35.0029 92.0166 34.3229V33.0829H92.7526V32.6109H92.0166V31.8989H91.4966V32.6029H90.2486ZM91.4966 33.0829V34.3789C91.4726 35.0429 90.9606 35.5549 90.2246 35.5549C89.4646 35.5549 88.9606 35.0029 88.9606 34.3229C88.9606 33.6589 89.5046 33.0829 90.2326 33.0829H91.4966ZM95.6461 30.4909V31.0189H97.4141V36.0029H97.9421V31.0189H99.7101V30.4909H95.6461ZM101.989 32.3309C101.917 32.2669 101.637 32.1869 101.381 32.1869C100.837 32.1869 100.493 32.4749 100.309 33.1149V32.2669H99.773V36.0029H100.309V34.6109C100.309 33.6189 100.621 32.7229 101.381 32.7229C101.517 32.7229 101.741 32.7629 101.925 32.8509L101.989 32.3309ZM104.311 36.0829C105.071 36.0829 105.703 35.6989 106.015 35.0269C105.847 34.9869 105.639 34.9469 105.479 34.9069C105.247 35.3149 104.823 35.5549 104.311 35.5549C103.623 35.5549 103.055 35.0989 102.967 34.3709H106.135C106.143 34.2989 106.143 34.2109 106.143 34.1229C106.143 32.9389 105.375 32.1869 104.311 32.1869C103.247 32.1869 102.423 32.9389 102.423 34.1229C102.423 35.3069 103.247 36.0829 104.311 36.0829ZM102.967 33.8749C103.071 33.1629 103.607 32.7149 104.311 32.7149C105.007 32.7149 105.495 33.1629 105.599 33.8749H102.967ZM110.732 32.2669H110.196V32.8829C109.916 32.4109 109.332 32.1869 108.788 32.1869C107.724 32.1869 106.876 32.9389 106.876 34.1229C106.876 35.3069 107.724 36.0829 108.788 36.0829C109.332 36.0829 109.916 35.8349 110.196 35.3629V36.0029H110.732V32.2669ZM107.412 34.1229C107.412 33.2669 108.012 32.7229 108.788 32.7229C109.46 32.7229 110.196 33.1949 110.196 34.1229C110.196 35.0509 109.556 35.5469 108.788 35.5469C108.012 35.5469 107.412 34.9549 107.412 34.1229ZM112.815 36.0029V32.7469H113.607V32.2669H112.815V30.8669H112.279V32.2669H111.607V32.7469H112.279V36.0029H112.815ZM117.708 33.9629C117.708 33.0509 118.356 32.7149 118.948 32.7149C119.524 32.7149 119.852 33.1309 119.852 33.8269V36.0029H120.388V33.8269C120.396 32.8029 119.868 32.1869 118.948 32.1869C118.572 32.1869 117.908 32.2989 117.564 33.0029C117.348 32.4829 116.908 32.1869 116.268 32.1869C115.924 32.1869 115.26 32.3949 115.028 32.8829V32.2669H114.492V36.0029H115.028V33.9629C115.028 33.0509 115.676 32.7149 116.268 32.7149C116.844 32.7149 117.172 33.1309 117.172 33.8269V36.0029H117.708V33.9629ZM123.264 36.0829C124.024 36.0829 124.656 35.6989 124.968 35.0269C124.8 34.9869 124.592 34.9469 124.432 34.9069C124.2 35.3149 123.776 35.5549 123.264 35.5549C122.576 35.5549 122.008 35.0989 121.92 34.3709H125.088C125.096 34.2989 125.096 34.2109 125.096 34.1229C125.096 32.9389 124.328 32.1869 123.264 32.1869C122.2 32.1869 121.376 32.9389 121.376 34.1229C121.376 35.3069 122.2 36.0829 123.264 36.0829ZM121.92 33.8749C122.024 33.1629 122.56 32.7149 123.264 32.7149C123.96 32.7149 124.448 33.1629 124.552 33.8749H121.92ZM126.622 33.9629C126.622 33.0509 127.27 32.7149 127.862 32.7149C128.438 32.7149 128.766 33.1309 128.766 33.8269V36.0029H129.302V33.8269C129.31 32.8029 128.782 32.1869 127.862 32.1869C127.43 32.1869 126.854 32.3949 126.622 32.8829V32.2669H126.086V36.0029H126.622V33.9629ZM131.33 36.0029V32.7469H132.122V32.2669H131.33V30.8669H130.794V32.2669H130.122V32.7469H130.794V36.0029H131.33Z" fill="#354662"/>
<path opacity="0.8" d="M42.7843 51.088C42.7843 51.76 43.3363 52.256 44.0003 52.256C44.6643 52.256 45.2163 51.76 45.2163 51.088C45.2163 50.424 44.6643 49.928 44.0003 49.928C43.3363 49.928 42.7843 50.424 42.7843 51.088ZM50.4 51.4C50.4 52.296 51.2 53.08 52.344 53.08C53.392 53.08 54.136 52.464 54.224 51.6C54.312 50.8 53.856 50.184 52.736 49.888L52.032 49.704C51.376 49.536 51.296 49.2 51.296 48.984C51.296 48.536 51.736 48.224 52.248 48.224C52.824 48.224 53.208 48.544 53.208 49.056H54.056C54.056 48.048 53.288 47.424 52.264 47.424C51.296 47.424 50.448 48.056 50.448 49C50.448 49.488 50.632 50.16 51.816 50.48L52.512 50.656C53.024 50.776 53.416 51.04 53.384 51.552C53.328 51.96 52.992 52.304 52.344 52.304C51.68 52.304 51.272 51.848 51.248 51.4H50.4ZM55.9467 49.264H55.1307V53H55.9467V49.264ZM54.9867 47.752C54.9867 48.048 55.2427 48.272 55.5387 48.272C55.8507 48.272 56.0827 48.048 56.0827 47.752C56.0827 47.456 55.8507 47.232 55.5387 47.232C55.2427 47.232 54.9867 47.456 54.9867 47.752ZM61.3554 49.992C61.8354 49.992 62.1474 50.336 62.1474 50.92V53H62.9714V50.848C62.9714 49.784 62.4594 49.184 61.5314 49.184C61.1954 49.184 60.6194 49.28 60.2754 49.928C60.0594 49.448 59.6994 49.184 59.0994 49.184C58.7954 49.184 58.1794 49.312 57.9234 49.824V49.264H57.0994V53H57.9234V50.992C57.9234 50.256 58.3874 49.992 58.8674 49.992C59.3154 49.992 59.6194 50.328 59.6274 50.904V53H60.4514V50.992C60.4514 50.384 60.8114 49.992 61.3554 49.992ZM64.8998 49.264H64.0838V53H64.8998V49.264ZM63.9398 47.752C63.9398 48.048 64.1958 48.272 64.4918 48.272C64.8038 48.272 65.0358 48.048 65.0358 47.752C65.0358 47.456 64.8038 47.232 64.4918 47.232C64.1958 47.232 63.9398 47.456 63.9398 47.752ZM66.0526 53H66.8766V47.232H66.0526V53ZM68.8451 49.264H68.0291V53H68.8451V49.264ZM67.8851 47.752C67.8851 48.048 68.1411 48.272 68.4371 48.272C68.7491 48.272 68.9811 48.048 68.9811 47.752C68.9811 47.456 68.7491 47.232 68.4371 47.232C68.1411 47.232 67.8851 47.456 67.8851 47.752ZM72.8619 51.152C72.8619 51.896 72.2779 52.288 71.7259 52.288C71.1019 52.288 70.6139 51.84 70.6139 51.152C70.6139 50.456 71.1019 49.984 71.7259 49.984C72.3339 49.984 72.8619 50.424 72.8619 51.152ZM72.8699 49.816C72.6459 49.408 72.1339 49.184 71.6219 49.184C70.6139 49.184 69.7659 49.96 69.7659 51.136C69.7659 52.328 70.6139 53.08 71.6219 53.08C72.1339 53.08 72.6459 52.88 72.8699 52.464V54.816H73.6939V49.264H72.8699V49.816ZM77.3694 51.272C77.3694 52.016 76.8894 52.28 76.4094 52.28C75.9614 52.28 75.6334 51.96 75.6334 51.344V49.264H74.8094V51.44C74.8014 52.504 75.3374 53.08 76.2574 53.08C76.6494 53.08 77.1534 52.88 77.3694 52.456V53H78.1934V49.264H77.3694V51.272ZM82.8936 51.12C82.8936 49.936 82.0776 49.184 81.0216 49.184C79.9656 49.184 79.1016 49.936 79.1016 51.12C79.1016 52.304 79.9656 53.08 81.0216 53.08C81.7176 53.08 82.4296 52.784 82.7496 52.12L82.0776 51.824C81.8856 52.168 81.4776 52.36 81.0616 52.36C80.4536 52.36 80.0056 52 79.9176 51.424H82.8856C82.8936 51.336 82.8936 51.208 82.8936 51.12ZM79.9176 50.824C80.0056 50.248 80.4456 49.904 81.0216 49.904C81.5896 49.904 81.9976 50.24 82.0856 50.824H79.9176ZM87.1708 51.504C87.4508 51.568 87.6908 51.696 87.6908 51.944C87.6908 52.224 87.4028 52.392 87.0268 52.392C86.5868 52.392 86.3308 52.176 86.2908 51.856H85.5308C85.5548 52.648 86.2588 53.08 86.9628 53.08C87.8188 53.08 88.4508 52.672 88.4508 51.952C88.4508 51.584 88.2748 51.056 87.4748 50.864L86.8988 50.72C86.6988 50.664 86.4988 50.584 86.4428 50.432C86.4028 50.312 86.4108 50.2 86.4748 50.096C86.5628 49.968 86.7868 49.888 87.0028 49.888C87.2588 49.888 87.5148 50.008 87.5468 50.288H88.3308C88.2908 49.488 87.6268 49.184 86.9708 49.184C86.2908 49.184 85.6748 49.616 85.6348 50.168C85.5788 50.776 85.8668 51.168 86.6668 51.384L87.1708 51.504ZM91.8694 51.272C91.8694 52.016 91.3894 52.28 90.9094 52.28C90.4614 52.28 90.1334 51.96 90.1334 51.344V49.264H89.3094V51.44C89.3014 52.504 89.8374 53.08 90.7574 53.08C91.1494 53.08 91.6534 52.88 91.8694 52.456V53H92.6934V49.264H91.8694V51.272ZM94.6656 50.992C94.6656 50.256 95.1376 49.992 95.6256 49.992C96.1056 49.992 96.4096 50.32 96.4096 50.92V53H97.2336V50.824C97.2336 49.76 96.7136 49.184 95.8096 49.184C95.4016 49.184 94.8816 49.4 94.6656 49.824V49.264H93.8416V53H94.6656V50.992ZM99.4694 47.848H98.6454V49.264H97.9734V49.944H98.6454V53H99.4694V49.944H100.261V49.264H99.4694V47.848ZM103.728 49.264H102.912V53H103.728V49.264ZM102.768 47.752C102.768 48.048 103.024 48.272 103.32 48.272C103.632 48.272 103.864 48.048 103.864 47.752C103.864 47.456 103.632 47.232 103.32 47.232C103.024 47.232 102.768 47.456 102.768 47.752ZM105.705 50.992C105.705 50.256 106.177 49.992 106.665 49.992C107.145 49.992 107.449 50.32 107.449 50.92V53H108.273V50.824C108.273 49.76 107.753 49.184 106.849 49.184C106.441 49.184 105.921 49.4 105.705 49.824V49.264H104.881V53H105.705V50.992ZM111.18 51.12C111.18 52.304 112.1 53.08 113.172 53.08C113.78 53.08 114.308 52.84 114.66 52.424L114.012 51.92C113.812 52.152 113.5 52.288 113.172 52.288C112.548 52.288 111.996 51.816 111.996 51.12C111.996 50.424 112.548 49.984 113.172 49.984C113.5 49.984 113.812 50.112 114.012 50.344L114.652 49.832C114.3 49.416 113.772 49.184 113.172 49.184C112.1 49.184 111.18 49.936 111.18 51.12ZM118.049 51.272C118.049 52.016 117.569 52.28 117.089 52.28C116.641 52.28 116.313 51.96 116.313 51.344V49.264H115.489V51.44C115.481 52.504 116.017 53.08 116.937 53.08C117.329 53.08 117.833 52.88 118.049 52.456V53H118.873V49.264H118.049V51.272ZM120.021 53H120.845V47.232H120.021V53ZM122.822 49.264H121.998V54.816H122.822V52.464C123.054 52.88 123.558 53.08 124.07 53.08C125.078 53.08 125.926 52.328 125.926 51.136C125.926 49.96 125.078 49.184 124.07 49.184C123.558 49.184 123.054 49.408 122.822 49.816V49.264ZM122.83 51.152C122.83 50.424 123.358 49.984 123.966 49.984C124.582 49.984 125.086 50.456 125.086 51.152C125.086 51.84 124.582 52.288 123.966 52.288C123.39 52.288 122.83 51.896 122.83 51.152ZM129.761 53H130.577V49.264H129.761V49.792C129.505 49.368 128.953 49.184 128.505 49.184C127.505 49.184 126.609 49.936 126.609 51.128C126.609 52.32 127.505 53.08 128.505 53.08C128.985 53.08 129.505 52.872 129.761 52.464V53ZM127.457 51.12C127.457 50.432 127.985 49.984 128.601 49.984C129.161 49.984 129.753 50.392 129.753 51.12C129.753 51.856 129.209 52.28 128.601 52.28C127.985 52.28 127.457 51.808 127.457 51.12ZM42.7843 64.088C42.7843 64.76 43.3363 65.256 44.0003 65.256C44.6643 65.256 45.2163 64.76 45.2163 64.088C45.2163 63.424 44.6643 62.928 44.0003 62.928C43.3363 62.928 42.7843 63.424 42.7843 64.088ZM54.696 65.632C55.472 65.12 55.976 64.256 55.976 63.256C55.976 61.696 54.744 60.424 53.168 60.424C51.6 60.424 50.376 61.696 50.376 63.256C50.376 64.824 51.6 66.08 53.168 66.08C53.472 66.08 53.752 66.04 54.008 65.952L54.616 66.928L55.256 66.536L54.696 65.632ZM53.648 63.952L53.016 64.344L53.544 65.208C53.352 65.24 53.16 65.248 52.976 65.224C51.968 65.136 51.224 64.304 51.224 63.256C51.224 62.144 52.072 61.24 53.168 61.24C54.28 61.24 55.12 62.144 55.12 63.256C55.12 63.96 54.792 64.568 54.248 64.92L53.648 63.952ZM59.4476 64.272C59.4476 65.016 58.9676 65.28 58.4876 65.28C58.0396 65.28 57.7116 64.96 57.7116 64.344V62.264H56.8876V64.44C56.8796 65.504 57.4156 66.08 58.3356 66.08C58.7276 66.08 59.2316 65.88 59.4476 65.456V66H60.2716V62.264H59.4476V64.272ZM62.2358 62.264H61.4198V66H62.2358V62.264ZM61.2758 60.752C61.2758 61.048 61.5318 61.272 61.8278 61.272C62.1398 61.272 62.3718 61.048 62.3718 60.752C62.3718 60.456 62.1398 60.232 61.8278 60.232C61.5318 60.232 61.2758 60.456 61.2758 60.752ZM67.1238 65.28C66.5078 65.28 65.9958 64.824 65.9958 64.12C65.9958 63.44 66.5078 62.992 67.1238 62.992C67.7478 62.992 68.2598 63.44 68.2598 64.12C68.2598 64.824 67.7478 65.28 67.1238 65.28ZM67.1238 66.08C68.1878 66.08 69.0838 65.304 69.0838 64.12C69.0838 62.936 68.1878 62.184 67.1238 62.184C66.0678 62.184 65.1798 62.936 65.1798 64.12C65.1798 65.304 66.0678 66.08 67.1238 66.08ZM76.1259 62.944V66H76.9419V62.264H74.1339V61.92C74.1339 61.44 74.2539 61.024 74.7979 61.024H75.2059V60.232H74.7979C73.7739 60.232 73.3019 60.896 73.3019 61.92V62.264H71.1659V61.92C71.1659 61.44 71.2859 61.024 71.8299 61.024H72.2379V60.232H71.8299C70.8059 60.232 70.3339 60.896 70.3339 61.92V62.264H69.6219V62.944H70.3339V66H71.1659V62.944H73.3019V66H74.1339V62.944H76.1259ZM75.9819 60.752C75.9819 61.048 76.2379 61.272 76.5339 61.272C76.8459 61.272 77.0779 61.048 77.0779 60.752C77.0779 60.456 76.8459 60.232 76.5339 60.232C76.2379 60.232 75.9819 60.456 75.9819 60.752ZM77.8438 64.12C77.8438 65.304 78.7638 66.08 79.8358 66.08C80.4438 66.08 80.9718 65.84 81.3238 65.424L80.6758 64.92C80.4758 65.152 80.1638 65.288 79.8358 65.288C79.2118 65.288 78.6598 64.816 78.6598 64.12C78.6598 63.424 79.2118 62.984 79.8358 62.984C80.1638 62.984 80.4758 63.112 80.6758 63.344L81.3158 62.832C80.9638 62.416 80.4358 62.184 79.8358 62.184C78.7638 62.184 77.8438 62.936 77.8438 64.12ZM83.0092 62.264H82.1932V66H83.0092V62.264ZM82.0492 60.752C82.0492 61.048 82.3052 61.272 82.6012 61.272C82.9132 61.272 83.1452 61.048 83.1452 60.752C83.1452 60.456 82.9132 60.232 82.6012 60.232C82.3052 60.232 82.0492 60.456 82.0492 60.752ZM87.0739 66H87.8899V62.264H87.0739V62.792C86.8179 62.368 86.2659 62.184 85.8179 62.184C84.8179 62.184 83.9219 62.936 83.9219 64.128C83.9219 65.32 84.8179 66.08 85.8179 66.08C86.2979 66.08 86.8179 65.872 87.0739 65.464V66ZM84.7699 64.12C84.7699 63.432 85.2979 62.984 85.9139 62.984C86.4739 62.984 87.0659 63.392 87.0659 64.12C87.0659 64.856 86.5219 65.28 85.9139 65.28C85.2979 65.28 84.7699 64.808 84.7699 64.12ZM42.7843 77.088C42.7843 77.76 43.3363 78.256 44.0003 78.256C44.6643 78.256 45.2163 77.76 45.2163 77.088C45.2163 76.424 44.6643 75.928 44.0003 75.928C43.3363 75.928 42.7843 76.424 42.7843 77.088ZM51.568 74.28H52.864C53.944 74.28 54.496 75.168 54.496 76.256C54.496 77.352 53.944 78.216 52.864 78.216H51.568V74.28ZM52.864 79C54.432 79 55.344 77.824 55.344 76.256C55.344 74.688 54.432 73.488 52.864 73.488H50.72V79H52.864ZM59.8389 77.12C59.8389 75.936 59.0229 75.184 57.9669 75.184C56.9109 75.184 56.0469 75.936 56.0469 77.12C56.0469 78.304 56.9109 79.08 57.9669 79.08C58.6629 79.08 59.3749 78.784 59.6949 78.12L59.0229 77.824C58.8309 78.168 58.4229 78.36 58.0069 78.36C57.3989 78.36 56.9509 78 56.8629 77.424H59.8309C59.8389 77.336 59.8389 77.208 59.8389 77.12ZM56.8629 76.824C56.9509 76.248 57.3909 75.904 57.9669 75.904C58.5349 75.904 58.9429 76.24 59.0309 76.824H56.8629ZM62.0848 77.504C62.3648 77.568 62.6048 77.696 62.6048 77.944C62.6048 78.224 62.3168 78.392 61.9408 78.392C61.5008 78.392 61.2448 78.176 61.2048 77.856H60.4448C60.4688 78.648 61.1728 79.08 61.8768 79.08C62.7328 79.08 63.3648 78.672 63.3648 77.952C63.3648 77.584 63.1888 77.056 62.3888 76.864L61.8128 76.72C61.6128 76.664 61.4128 76.584 61.3568 76.432C61.3168 76.312 61.3248 76.2 61.3888 76.096C61.4768 75.968 61.7008 75.888 61.9168 75.888C62.1728 75.888 62.4288 76.008 62.4608 76.288H63.2448C63.2048 75.488 62.5408 75.184 61.8848 75.184C61.2048 75.184 60.5888 75.616 60.5488 76.168C60.4928 76.776 60.7808 77.168 61.5808 77.384L62.0848 77.504ZM67.8155 77.12C67.8155 75.936 66.9995 75.184 65.9435 75.184C64.8875 75.184 64.0235 75.936 64.0235 77.12C64.0235 78.304 64.8875 79.08 65.9435 79.08C66.6395 79.08 67.3515 78.784 67.6715 78.12L66.9995 77.824C66.8075 78.168 66.3995 78.36 65.9835 78.36C65.3755 78.36 64.9275 78 64.8395 77.424H67.8075C67.8155 77.336 67.8155 77.208 67.8155 77.12ZM64.8395 76.824C64.9275 76.248 65.3675 75.904 65.9435 75.904C66.5115 75.904 66.9195 76.24 67.0075 76.824H64.8395ZM69.5094 77.656C69.5094 76.664 69.8054 75.96 70.5094 75.96C70.6694 75.96 70.8454 75.984 71.0614 76.088L71.1974 75.328C71.0774 75.24 70.7974 75.184 70.5334 75.184C70.0614 75.184 69.7014 75.448 69.5094 76.12V75.264H68.6854V79H69.5094V77.656ZM74.4007 77.272C74.4007 78.016 73.9207 78.28 73.4407 78.28C72.9927 78.28 72.6647 77.96 72.6647 77.344V75.264H71.8407V77.44C71.8327 78.504 72.3687 79.08 73.2887 79.08C73.6807 79.08 74.1847 78.88 74.4007 78.456V79H75.2247V75.264H74.4007V77.272ZM77.1969 76.992C77.1969 76.256 77.6689 75.992 78.1569 75.992C78.6369 75.992 78.9409 76.32 78.9409 76.92V79H79.7649V76.824C79.7649 75.76 79.2449 75.184 78.3409 75.184C77.9329 75.184 77.4129 75.4 77.1969 75.824V75.264H76.3729V79H77.1969V76.992ZM82.0007 73.848H81.1767V75.264H80.5047V75.944H81.1767V79H82.0007V75.944H82.7927V75.264H82.0007V73.848ZM89.6992 75.992C90.1792 75.992 90.4912 76.336 90.4912 76.92V79H91.3152V76.848C91.3152 75.784 90.8032 75.184 89.8752 75.184C89.5392 75.184 88.9632 75.28 88.6192 75.928C88.4032 75.448 88.0432 75.184 87.4432 75.184C87.1392 75.184 86.5232 75.312 86.2672 75.824V75.264H85.4432V79H86.2672V76.992C86.2672 76.256 86.7312 75.992 87.2112 75.992C87.6592 75.992 87.9632 76.328 87.9712 76.904V79H88.7952V76.992C88.7952 76.384 89.1552 75.992 89.6992 75.992ZM94.1316 78.28C93.5156 78.28 93.0036 77.824 93.0036 77.12C93.0036 76.44 93.5156 75.992 94.1316 75.992C94.7556 75.992 95.2676 76.44 95.2676 77.12C95.2676 77.824 94.7556 78.28 94.1316 78.28ZM94.1316 79.08C95.1956 79.08 96.0916 78.304 96.0916 77.12C96.0916 75.936 95.1956 75.184 94.1316 75.184C93.0756 75.184 92.1876 75.936 92.1876 77.12C92.1876 78.304 93.0756 79.08 94.1316 79.08ZM97.0057 79H97.8297V73.232H97.0057V79ZM98.9823 79H99.8063V73.232H98.9823V79ZM101.775 75.264H100.959V79H101.775V75.264ZM100.815 73.752C100.815 74.048 101.071 74.272 101.367 74.272C101.679 74.272 101.911 74.048 101.911 73.752C101.911 73.456 101.679 73.232 101.367 73.232C101.071 73.232 100.815 73.456 100.815 73.752ZM104.048 73.848H103.224V75.264H102.552V75.944H103.224V79H104.048V75.944H104.84V75.264H104.048V73.848ZM106.431 75.264H105.615V79H106.431V75.264ZM105.471 73.752C105.471 74.048 105.727 74.272 106.023 74.272C106.335 74.272 106.567 74.048 106.567 73.752C106.567 73.456 106.335 73.232 106.023 73.232C105.727 73.232 105.471 73.456 105.471 73.752ZM110.496 79H111.312V75.264H110.496V75.792C110.24 75.368 109.688 75.184 109.24 75.184C108.24 75.184 107.344 75.936 107.344 77.128C107.344 78.32 108.24 79.08 109.24 79.08C109.72 79.08 110.24 78.872 110.496 78.464V79ZM108.192 77.12C108.192 76.432 108.72 75.984 109.336 75.984C109.896 75.984 110.488 76.392 110.488 77.12C110.488 77.856 109.944 78.28 109.336 78.28C108.72 78.28 108.192 77.808 108.192 77.12Z" fill="#354662"/>
<path opacity="0.8" d="M43.7843 118.088C43.7843 118.76 44.3363 119.256 45.0003 119.256C45.6643 119.256 46.2163 118.76 46.2163 118.088C46.2163 117.424 45.6643 116.928 45.0003 116.928C44.3363 116.928 43.7843 117.424 43.7843 118.088ZM52.568 115.28H53.864C54.944 115.28 55.496 116.168 55.496 117.256C55.496 118.352 54.944 119.216 53.864 119.216H52.568V115.28ZM53.864 120C55.432 120 56.344 118.824 56.344 117.256C56.344 115.688 55.432 114.488 53.864 114.488H51.72V120H53.864ZM58.0951 116.264H57.2791V120H58.0951V116.264ZM57.1351 114.752C57.1351 115.048 57.3911 115.272 57.6871 115.272C57.9991 115.272 58.2311 115.048 58.2311 114.752C58.2311 114.456 57.9991 114.232 57.6871 114.232C57.3911 114.232 57.1351 114.456 57.1351 114.752ZM62.1519 118.136C62.1519 118.872 61.5599 119.288 60.9999 119.288C60.3759 119.288 59.8639 118.84 59.8639 118.136C59.8639 117.456 60.3759 116.984 60.9999 116.984C61.6159 116.984 62.1519 117.392 62.1519 118.136ZM59.8719 120.472C59.7199 120.536 59.3439 120.752 59.1919 120.816C59.5439 121.488 60.1919 121.864 60.9199 121.864C62.1759 121.864 62.9759 121.168 62.9759 119.448V116.264H62.1679V116.816C61.9359 116.408 61.4159 116.184 60.9039 116.184C59.8959 116.184 59.0159 116.96 59.0159 118.144C59.0159 119.328 59.8959 120.08 60.9039 120.08C61.4079 120.08 61.9599 119.856 62.1679 119.432V119.624C62.1679 120.672 61.6799 121.096 60.9199 121.096C60.5119 121.096 60.0719 120.864 59.8719 120.472ZM64.9547 117.992C64.9547 117.256 65.4267 116.992 65.9147 116.992C66.3947 116.992 66.6987 117.32 66.6987 117.92V120H67.5227V117.824C67.5227 116.76 67.0027 116.184 66.0987 116.184C65.6907 116.184 65.1707 116.4 64.9547 116.824V116.264H64.1307V120H64.9547V117.992ZM69.4545 116.264H68.6385V120H69.4545V116.264ZM68.4945 114.752C68.4945 115.048 68.7505 115.272 69.0465 115.272C69.3585 115.272 69.5905 115.048 69.5905 114.752C69.5905 114.456 69.3585 114.232 69.0465 114.232C68.7505 114.232 68.4945 114.456 68.4945 114.752ZM71.9833 118.504C72.2633 118.568 72.5033 118.696 72.5033 118.944C72.5033 119.224 72.2153 119.392 71.8393 119.392C71.3993 119.392 71.1433 119.176 71.1033 118.856H70.3433C70.3673 119.648 71.0713 120.08 71.7753 120.08C72.6313 120.08 73.2633 119.672 73.2633 118.952C73.2633 118.584 73.0873 118.056 72.2873 117.864L71.7113 117.72C71.5113 117.664 71.3113 117.584 71.2553 117.432C71.2153 117.312 71.2233 117.2 71.2873 117.096C71.3753 116.968 71.5993 116.888 71.8153 116.888C72.0713 116.888 72.3273 117.008 72.3593 117.288H73.1433C73.1033 116.488 72.4393 116.184 71.7833 116.184C71.1033 116.184 70.4873 116.616 70.4473 117.168C70.3913 117.776 70.6793 118.168 71.4793 118.384L71.9833 118.504ZM75.5379 118.504C75.8179 118.568 76.0579 118.696 76.0579 118.944C76.0579 119.224 75.7699 119.392 75.3939 119.392C74.9539 119.392 74.6979 119.176 74.6579 118.856H73.8979C73.9219 119.648 74.6259 120.08 75.3299 120.08C76.1859 120.08 76.8179 119.672 76.8179 118.952C76.8179 118.584 76.6419 118.056 75.8419 117.864L75.2659 117.72C75.0659 117.664 74.8659 117.584 74.8099 117.432C74.7699 117.312 74.7779 117.2 74.8419 117.096C74.9299 116.968 75.1539 116.888 75.3699 116.888C75.6259 116.888 75.8819 117.008 75.9139 117.288H76.6979C76.6579 116.488 75.9939 116.184 75.3379 116.184C74.6579 116.184 74.0419 116.616 74.0019 117.168C73.9459 117.776 74.2339 118.168 75.0339 118.384L75.5379 118.504ZM78.5326 116.264H77.7166V120H78.5326V116.264ZM77.5726 114.752C77.5726 115.048 77.8286 115.272 78.1246 115.272C78.4366 115.272 78.6686 115.048 78.6686 114.752C78.6686 114.456 78.4366 114.232 78.1246 114.232C77.8286 114.232 77.5726 114.456 77.5726 114.752ZM83.9414 116.992C84.4214 116.992 84.7334 117.336 84.7334 117.92V120H85.5574V117.848C85.5574 116.784 85.0454 116.184 84.1174 116.184C83.7814 116.184 83.2054 116.28 82.8614 116.928C82.6454 116.448 82.2854 116.184 81.6854 116.184C81.3814 116.184 80.7654 116.312 80.5094 116.824V116.264H79.6854V120H80.5094V117.992C80.5094 117.256 80.9734 116.992 81.4534 116.992C81.9014 116.992 82.2054 117.328 82.2134 117.904V120H83.0374V117.992C83.0374 117.384 83.3974 116.992 83.9414 116.992ZM88.3738 119.28C87.7578 119.28 87.2458 118.824 87.2458 118.12C87.2458 117.44 87.7578 116.992 88.3738 116.992C88.9978 116.992 89.5098 117.44 89.5098 118.12C89.5098 118.824 88.9978 119.28 88.3738 119.28ZM88.3738 120.08C89.4378 120.08 90.3338 119.304 90.3338 118.12C90.3338 116.936 89.4378 116.184 88.3738 116.184C87.3178 116.184 86.4298 116.936 86.4298 118.12C86.4298 119.304 87.3178 120.08 88.3738 120.08ZM92.6239 118.504C92.9039 118.568 93.1439 118.696 93.1439 118.944C93.1439 119.224 92.8559 119.392 92.4799 119.392C92.0399 119.392 91.7839 119.176 91.7439 118.856H90.9839C91.0079 119.648 91.7119 120.08 92.4159 120.08C93.2719 120.08 93.9039 119.672 93.9039 118.952C93.9039 118.584 93.7279 118.056 92.9279 117.864L92.3519 117.72C92.1519 117.664 91.9519 117.584 91.8959 117.432C91.8559 117.312 91.8639 117.2 91.9279 117.096C92.0159 116.968 92.2399 116.888 92.4559 116.888C92.7119 116.888 92.9679 117.008 92.9999 117.288H93.7839C93.7439 116.488 93.0799 116.184 92.4239 116.184C91.7439 116.184 91.1279 116.616 91.0879 117.168C91.0319 117.776 91.3199 118.168 92.1199 118.384L92.6239 118.504ZM99.7298 120H100.546V114.232H99.7298V116.8C99.4978 116.392 99.0018 116.184 98.4658 116.184C97.4578 116.184 96.6018 116.936 96.6018 118.136C96.6018 119.312 97.4578 120.08 98.4658 120.08C98.9778 120.08 99.4978 119.864 99.7298 119.456V120ZM99.7138 118.12C99.7138 118.848 99.1778 119.28 98.5698 119.28C97.9538 119.28 97.4498 118.808 97.4498 118.12C97.4498 117.432 97.9538 116.984 98.5698 116.984C99.1218 116.984 99.7138 117.392 99.7138 118.12ZM104.221 118.272C104.221 119.016 103.741 119.28 103.261 119.28C102.813 119.28 102.485 118.96 102.485 118.344V116.264H101.661V118.44C101.653 119.504 102.189 120.08 103.109 120.08C103.501 120.08 104.005 119.88 104.221 119.456V120H105.045V116.264H104.221V118.272ZM105.953 118.12C105.953 119.304 106.873 120.08 107.945 120.08C108.553 120.08 109.081 119.84 109.433 119.424L108.785 118.92C108.585 119.152 108.273 119.288 107.945 119.288C107.321 119.288 106.769 118.816 106.769 118.12C106.769 117.424 107.321 116.984 107.945 116.984C108.273 116.984 108.585 117.112 108.785 117.344L109.425 116.832C109.073 116.416 108.545 116.184 107.945 116.184C106.873 116.184 105.953 116.936 105.953 118.12ZM111.119 116.264H110.303V120H111.119V116.264ZM110.159 114.752C110.159 115.048 110.415 115.272 110.711 115.272C111.023 115.272 111.255 115.048 111.255 114.752C111.255 114.456 111.023 114.232 110.711 114.232C110.415 114.232 110.159 114.456 110.159 114.752ZM116.527 116.992C117.007 116.992 117.319 117.336 117.319 117.92V120H118.143V117.848C118.143 116.784 117.631 116.184 116.703 116.184C116.367 116.184 115.791 116.28 115.447 116.928C115.231 116.448 114.871 116.184 114.271 116.184C113.967 116.184 113.351 116.312 113.095 116.824V116.264H112.271V120H113.095V117.992C113.095 117.256 113.559 116.992 114.039 116.992C114.487 116.992 114.791 117.328 114.799 117.904V120H115.623V117.992C115.623 117.384 115.983 116.992 116.527 116.992ZM121.776 118.272C121.776 119.016 121.296 119.28 120.816 119.28C120.368 119.28 120.04 118.96 120.04 118.344V116.264H119.216V118.44C119.208 119.504 119.744 120.08 120.664 120.08C121.056 120.08 121.56 119.88 121.776 119.456V120H122.6V116.264H121.776V118.272ZM125.124 118.504C125.404 118.568 125.644 118.696 125.644 118.944C125.644 119.224 125.356 119.392 124.98 119.392C124.54 119.392 124.284 119.176 124.244 118.856H123.484C123.508 119.648 124.212 120.08 124.916 120.08C125.772 120.08 126.404 119.672 126.404 118.952C126.404 118.584 126.228 118.056 125.428 117.864L124.852 117.72C124.652 117.664 124.452 117.584 124.396 117.432C124.356 117.312 124.364 117.2 124.428 117.096C124.516 116.968 124.74 116.888 124.956 116.888C125.212 116.888 125.468 117.008 125.5 117.288H126.284C126.244 116.488 125.58 116.184 124.924 116.184C124.244 116.184 123.628 116.616 123.588 117.168C123.532 117.776 123.82 118.168 124.62 118.384L125.124 118.504Z" fill="#354662"/>
<path opacity="0.8" d="M42.7843 93.088C42.7843 93.76 43.3363 94.256 44.0003 94.256C44.6643 94.256 45.2163 93.76 45.2163 93.088C45.2163 92.424 44.6643 91.928 44.0003 91.928C43.3363 91.928 42.7843 92.424 42.7843 93.088ZM54.232 95H55.128L53.048 89.488H52.128L50.048 95H50.952L51.48 93.624H53.704L54.232 95ZM52.592 90.552L53.416 92.864H51.768L52.592 90.552ZM56.5797 92.992C56.5797 92.256 57.0517 91.992 57.5397 91.992C58.0197 91.992 58.3237 92.32 58.3237 92.92V95H59.1477V92.824C59.1477 91.76 58.6277 91.184 57.7237 91.184C57.3157 91.184 56.7957 91.4 56.5797 91.824V91.264H55.7557V95H56.5797V92.992ZM61.0795 91.264H60.2635V95H61.0795V91.264ZM60.1195 89.752C60.1195 90.048 60.3755 90.272 60.6715 90.272C60.9835 90.272 61.2155 90.048 61.2155 89.752C61.2155 89.456 60.9835 89.232 60.6715 89.232C60.3755 89.232 60.1195 89.456 60.1195 89.752ZM66.4883 91.992C66.9683 91.992 67.2803 92.336 67.2803 92.92V95H68.1043V92.848C68.1043 91.784 67.5923 91.184 66.6643 91.184C66.3283 91.184 65.7523 91.28 65.4083 91.928C65.1923 91.448 64.8323 91.184 64.2323 91.184C63.9283 91.184 63.3123 91.312 63.0563 91.824V91.264H62.2323V95H63.0563V92.992C63.0563 92.256 63.5203 91.992 64.0003 91.992C64.4483 91.992 64.7523 92.328 64.7603 92.904V95H65.5843V92.992C65.5843 92.384 65.9443 91.992 66.4883 91.992ZM70.0326 91.264H69.2166V95H70.0326V91.264ZM69.0726 89.752C69.0726 90.048 69.3286 90.272 69.6246 90.272C69.9366 90.272 70.1686 90.048 70.1686 89.752C70.1686 89.456 69.9366 89.232 69.6246 89.232C69.3286 89.232 69.0726 89.456 69.0726 89.752ZM71.2574 96.024C71.6254 95.744 72.0574 95.056 72.1214 93.992H71.2574C71.2814 94.76 71.0174 95.384 70.6974 95.832L71.2574 96.024ZM76.1029 91.264H75.2869V95H76.1029V91.264ZM75.1429 89.752C75.1429 90.048 75.3989 90.272 75.6949 90.272C76.0069 90.272 76.2389 90.048 76.2389 89.752C76.2389 89.456 76.0069 89.232 75.6949 89.232C75.3989 89.232 75.1429 89.456 75.1429 89.752ZM80.1517 95H80.9677V89.232H80.1517V91.8C79.9197 91.392 79.4237 91.184 78.8877 91.184C77.8797 91.184 77.0237 91.936 77.0237 93.136C77.0237 94.312 77.8797 95.08 78.8877 95.08C79.3997 95.08 79.9197 94.864 80.1517 94.456V95ZM80.1357 93.12C80.1357 93.848 79.5997 94.28 78.9917 94.28C78.3757 94.28 77.8717 93.808 77.8717 93.12C77.8717 92.432 78.3757 91.984 78.9917 91.984C79.5437 91.984 80.1357 92.392 80.1357 93.12ZM87.7061 93.12C87.7061 91.936 86.8901 91.184 85.8341 91.184C84.7781 91.184 83.9141 91.936 83.9141 93.12C83.9141 94.304 84.7781 95.08 85.8341 95.08C86.5301 95.08 87.2421 94.784 87.5621 94.12L86.8901 93.824C86.6981 94.168 86.2901 94.36 85.8741 94.36C85.2661 94.36 84.8181 94 84.7301 93.424H87.6981C87.7061 93.336 87.7061 93.208 87.7061 93.12ZM84.7301 92.824C84.8181 92.248 85.2581 91.904 85.8341 91.904C86.4021 91.904 86.8101 92.24 86.8981 92.824H84.7301ZM89.952 93.504C90.232 93.568 90.472 93.696 90.472 93.944C90.472 94.224 90.184 94.392 89.808 94.392C89.368 94.392 89.112 94.176 89.072 93.856H88.312C88.336 94.648 89.04 95.08 89.744 95.08C90.6 95.08 91.232 94.672 91.232 93.952C91.232 93.584 91.056 93.056 90.256 92.864L89.68 92.72C89.48 92.664 89.28 92.584 89.224 92.432C89.184 92.312 89.192 92.2 89.256 92.096C89.344 91.968 89.568 91.888 89.784 91.888C90.04 91.888 90.296 92.008 90.328 92.288H91.112C91.072 91.488 90.408 91.184 89.752 91.184C89.072 91.184 88.456 91.616 88.416 92.168C88.36 92.776 88.648 93.168 89.448 93.384L89.952 93.504ZM93.2507 89.848H92.4267V91.264H91.7547V91.944H92.4267V95H93.2507V91.944H94.0427V91.264H93.2507V89.848ZM96.6932 95H97.5172V89.232H96.6932V95ZM101.582 95H102.398V91.264H101.582V91.792C101.326 91.368 100.774 91.184 100.326 91.184C99.3258 91.184 98.4298 91.936 98.4298 93.128C98.4298 94.32 99.3258 95.08 100.326 95.08C100.806 95.08 101.326 94.872 101.582 94.464V95ZM99.2778 93.12C99.2778 92.432 99.8058 91.984 100.422 91.984C100.982 91.984 101.574 92.392 101.574 93.12C101.574 93.856 101.03 94.28 100.422 94.28C99.8058 94.28 99.2778 93.808 99.2778 93.12ZM104.385 93.12C104.385 92.392 104.969 91.984 105.529 91.984C106.153 91.984 106.657 92.432 106.657 93.12C106.657 93.808 106.153 94.28 105.529 94.28C104.921 94.28 104.385 93.848 104.385 93.12ZM104.377 95V94.456C104.609 94.864 105.113 95.08 105.625 95.08C106.625 95.08 107.497 94.312 107.497 93.136C107.497 91.936 106.649 91.184 105.633 91.184C105.097 91.184 104.609 91.392 104.377 91.8V89.232H103.553V95H104.377ZM110.124 94.28C109.508 94.28 108.996 93.824 108.996 93.12C108.996 92.44 109.508 91.992 110.124 91.992C110.748 91.992 111.26 92.44 111.26 93.12C111.26 93.824 110.748 94.28 110.124 94.28ZM110.124 95.08C111.188 95.08 112.084 94.304 112.084 93.12C112.084 91.936 111.188 91.184 110.124 91.184C109.068 91.184 108.18 91.936 108.18 93.12C108.18 94.304 109.068 95.08 110.124 95.08ZM113.822 93.656C113.822 92.664 114.118 91.96 114.822 91.96C114.982 91.96 115.158 91.984 115.374 92.088L115.51 91.328C115.39 91.24 115.11 91.184 114.846 91.184C114.374 91.184 114.014 91.448 113.822 92.12V91.264H112.998V95H113.822V93.656ZM118.713 93.272C118.713 94.016 118.233 94.28 117.753 94.28C117.305 94.28 116.977 93.96 116.977 93.344V91.264H116.153V93.44C116.145 94.504 116.681 95.08 117.601 95.08C117.993 95.08 118.497 94.88 118.713 94.456V95H119.537V91.264H118.713V93.272ZM124.941 91.992C125.421 91.992 125.733 92.336 125.733 92.92V95H126.557V92.848C126.557 91.784 126.045 91.184 125.117 91.184C124.781 91.184 124.205 91.28 123.861 91.928C123.645 91.448 123.285 91.184 122.685 91.184C122.381 91.184 121.765 91.312 121.509 91.824V91.264H120.685V95H121.509V92.992C121.509 92.256 121.973 91.992 122.453 91.992C122.901 91.992 123.205 92.328 123.213 92.904V95H124.037V92.992C124.037 92.384 124.397 91.992 124.941 91.992ZM54.128 103.12C54.128 101.936 53.312 101.184 52.256 101.184C51.2 101.184 50.336 101.936 50.336 103.12C50.336 104.304 51.2 105.08 52.256 105.08C52.952 105.08 53.664 104.784 53.984 104.12L53.312 103.824C53.12 104.168 52.712 104.36 52.296 104.36C51.688 104.36 51.24 104 51.152 103.424H54.12C54.128 103.336 54.128 103.208 54.128 103.12ZM51.152 102.824C51.24 102.248 51.68 101.904 52.256 101.904C52.824 101.904 53.232 102.24 53.32 102.824H51.152ZM56.1179 99.848H55.2939V101.264H54.6219V101.944H55.2939V105H56.1179V101.944H56.9099V101.264H56.1179V99.848ZM62.4564 105H63.2724V99.232H62.4564V101.8C62.2244 101.392 61.7284 101.184 61.1924 101.184C60.1844 101.184 59.3284 101.936 59.3284 103.136C59.3284 104.312 60.1844 105.08 61.1924 105.08C61.7044 105.08 62.2244 104.864 62.4564 104.456V105ZM62.4404 103.12C62.4404 103.848 61.9044 104.28 61.2964 104.28C60.6804 104.28 60.1764 103.808 60.1764 103.12C60.1764 102.432 60.6804 101.984 61.2964 101.984C61.8484 101.984 62.4404 102.392 62.4404 103.12ZM66.1316 104.28C65.5156 104.28 65.0036 103.824 65.0036 103.12C65.0036 102.44 65.5156 101.992 66.1316 101.992C66.7556 101.992 67.2676 102.44 67.2676 103.12C67.2676 103.824 66.7556 104.28 66.1316 104.28ZM66.1316 105.08C67.1956 105.08 68.0916 104.304 68.0916 103.12C68.0916 101.936 67.1956 101.184 66.1316 101.184C65.0756 101.184 64.1876 101.936 64.1876 103.12C64.1876 104.304 65.0756 105.08 66.1316 105.08ZM69.0057 105H69.8297V99.232H69.0057V105ZM72.6863 104.28C72.0703 104.28 71.5583 103.824 71.5583 103.12C71.5583 102.44 72.0703 101.992 72.6863 101.992C73.3103 101.992 73.8223 102.44 73.8223 103.12C73.8223 103.824 73.3103 104.28 72.6863 104.28ZM72.6863 105.08C73.7503 105.08 74.6463 104.304 74.6463 103.12C74.6463 101.936 73.7503 101.184 72.6863 101.184C71.6303 101.184 70.7423 101.936 70.7423 103.12C70.7423 104.304 71.6303 105.08 72.6863 105.08ZM76.3844 103.656C76.3844 102.664 76.6804 101.96 77.3844 101.96C77.5444 101.96 77.7204 101.984 77.9364 102.088L78.0724 101.328C77.9524 101.24 77.6724 101.184 77.4084 101.184C76.9364 101.184 76.5764 101.448 76.3844 102.12V101.264H75.5604V105H76.3844V103.656ZM81.2757 103.272C81.2757 104.016 80.7957 104.28 80.3157 104.28C79.8677 104.28 79.5397 103.96 79.5397 103.344V101.264H78.7157V103.44C78.7077 104.504 79.2437 105.08 80.1637 105.08C80.5557 105.08 81.0597 104.88 81.2757 104.456V105H82.0997V101.264H81.2757V103.272ZM87.5039 101.992C87.9839 101.992 88.2959 102.336 88.2959 102.92V105H89.1199V102.848C89.1199 101.784 88.6079 101.184 87.6799 101.184C87.3439 101.184 86.7679 101.28 86.4239 101.928C86.2079 101.448 85.8479 101.184 85.2479 101.184C84.9439 101.184 84.3279 101.312 84.0719 101.824V101.264H83.2479V105H84.0719V102.992C84.0719 102.256 84.5359 101.992 85.0159 101.992C85.4639 101.992 85.7679 102.328 85.7759 102.904V105H86.5999V102.992C86.5999 102.384 86.9599 101.992 87.5039 101.992ZM94.3941 99.232H93.9861C92.9621 99.232 92.4901 99.896 92.4901 100.92V101.264H91.7781V101.944H92.4901V105H93.3221V101.944H94.1621V101.264H93.3221V100.92C93.3221 100.44 93.4421 100.024 93.9861 100.024H94.3941V99.232ZM97.4476 103.272C97.4476 104.016 96.9676 104.28 96.4876 104.28C96.0396 104.28 95.7116 103.96 95.7116 103.344V101.264H94.8876V103.44C94.8796 104.504 95.4156 105.08 96.3356 105.08C96.7276 105.08 97.2316 104.88 97.4476 104.456V105H98.2716V101.264H97.4476V103.272ZM102.324 103.136C102.324 103.872 101.732 104.288 101.172 104.288C100.548 104.288 100.036 103.84 100.036 103.136C100.036 102.456 100.548 101.984 101.172 101.984C101.788 101.984 102.324 102.392 102.324 103.136ZM100.044 105.472C99.8918 105.536 99.5158 105.752 99.3638 105.816C99.7158 106.488 100.364 106.864 101.092 106.864C102.348 106.864 103.148 106.168 103.148 104.448V101.264H102.34V101.816C102.108 101.408 101.588 101.184 101.076 101.184C100.068 101.184 99.1878 101.96 99.1878 103.144C99.1878 104.328 100.068 105.08 101.076 105.08C101.58 105.08 102.132 104.856 102.34 104.432V104.624C102.34 105.672 101.852 106.096 101.092 106.096C100.684 106.096 100.244 105.864 100.044 105.472ZM107.215 105H108.031V101.264H107.215V101.792C106.959 101.368 106.407 101.184 105.959 101.184C104.959 101.184 104.063 101.936 104.063 103.128C104.063 104.32 104.959 105.08 105.959 105.08C106.439 105.08 106.959 104.872 107.215 104.464V105ZM104.911 103.12C104.911 102.432 105.439 101.984 106.055 101.984C106.615 101.984 107.207 102.392 107.207 103.12C107.207 103.856 106.663 104.28 106.055 104.28C105.439 104.28 104.911 103.808 104.911 103.12ZM109.113 104.544C109.113 104.856 109.361 105.08 109.673 105.08C109.985 105.08 110.241 104.856 110.241 104.544C110.241 104.232 109.985 104 109.673 104C109.361 104 109.113 104.232 109.113 104.544Z" fill="#354662"/>
<path opacity="0.8" d="M43.7843 135.088C43.7843 135.76 44.3363 136.256 45.0003 136.256C45.6643 136.256 46.2163 135.76 46.2163 135.088C46.2163 134.424 45.6643 133.928 45.0003 133.928C44.3363 133.928 43.7843 134.424 43.7843 135.088ZM55.232 137H56.128L54.048 131.488H53.128L51.048 137H51.952L52.48 135.624H54.704L55.232 137ZM53.592 132.552L54.416 134.864H52.768L53.592 132.552ZM57.5797 134.992C57.5797 134.256 58.0517 133.992 58.5397 133.992C59.0197 133.992 59.3237 134.32 59.3237 134.92V137H60.1477V134.824C60.1477 133.76 59.6277 133.184 58.7237 133.184C58.3157 133.184 57.7957 133.4 57.5797 133.824V133.264H56.7557V137H57.5797V134.992ZM62.0795 133.264H61.2635V137H62.0795V133.264ZM61.1195 131.752C61.1195 132.048 61.3755 132.272 61.6715 132.272C61.9835 132.272 62.2155 132.048 62.2155 131.752C62.2155 131.456 61.9835 131.232 61.6715 131.232C61.3755 131.232 61.1195 131.456 61.1195 131.752ZM67.4883 133.992C67.9683 133.992 68.2803 134.336 68.2803 134.92V137H69.1043V134.848C69.1043 133.784 68.5923 133.184 67.6643 133.184C67.3283 133.184 66.7523 133.28 66.4083 133.928C66.1923 133.448 65.8323 133.184 65.2323 133.184C64.9283 133.184 64.3123 133.312 64.0563 133.824V133.264H63.2323V137H64.0563V134.992C64.0563 134.256 64.5203 133.992 65.0003 133.992C65.4483 133.992 65.7523 134.328 65.7603 134.904V137H66.5843V134.992C66.5843 134.384 66.9443 133.992 67.4883 133.992ZM71.0326 133.264H70.2166V137H71.0326V133.264ZM70.0726 131.752C70.0726 132.048 70.3286 132.272 70.6246 132.272C70.9366 132.272 71.1686 132.048 71.1686 131.752C71.1686 131.456 70.9366 131.232 70.6246 131.232C70.3286 131.232 70.0726 131.456 70.0726 131.752ZM72.2574 138.024C72.6254 137.744 73.0574 137.056 73.1214 135.992H72.2574C72.2814 136.76 72.0174 137.384 71.6974 137.832L72.2574 138.024ZM77.1029 133.264H76.2869V137H77.1029V133.264ZM76.1429 131.752C76.1429 132.048 76.3989 132.272 76.6949 132.272C77.0069 132.272 77.2389 132.048 77.2389 131.752C77.2389 131.456 77.0069 131.232 76.6949 131.232C76.3989 131.232 76.1429 131.456 76.1429 131.752ZM81.1517 137H81.9677V131.232H81.1517V133.8C80.9197 133.392 80.4237 133.184 79.8877 133.184C78.8797 133.184 78.0237 133.936 78.0237 135.136C78.0237 136.312 78.8797 137.08 79.8877 137.08C80.3997 137.08 80.9197 136.864 81.1517 136.456V137ZM81.1357 135.12C81.1357 135.848 80.5997 136.28 79.9917 136.28C79.3757 136.28 78.8717 135.808 78.8717 135.12C78.8717 134.432 79.3757 133.984 79.9917 133.984C80.5437 133.984 81.1357 134.392 81.1357 135.12ZM88.7061 135.12C88.7061 133.936 87.8901 133.184 86.8341 133.184C85.7781 133.184 84.9141 133.936 84.9141 135.12C84.9141 136.304 85.7781 137.08 86.8341 137.08C87.5301 137.08 88.2421 136.784 88.5621 136.12L87.8901 135.824C87.6981 136.168 87.2901 136.36 86.8741 136.36C86.2661 136.36 85.8181 136 85.7301 135.424H88.6981C88.7061 135.336 88.7061 135.208 88.7061 135.12ZM85.7301 134.824C85.8181 134.248 86.2581 133.904 86.8341 133.904C87.4021 133.904 87.8101 134.24 87.8981 134.824H85.7301ZM90.952 135.504C91.232 135.568 91.472 135.696 91.472 135.944C91.472 136.224 91.184 136.392 90.808 136.392C90.368 136.392 90.112 136.176 90.072 135.856H89.312C89.336 136.648 90.04 137.08 90.744 137.08C91.6 137.08 92.232 136.672 92.232 135.952C92.232 135.584 92.056 135.056 91.256 134.864L90.68 134.72C90.48 134.664 90.28 134.584 90.224 134.432C90.184 134.312 90.192 134.2 90.256 134.096C90.344 133.968 90.568 133.888 90.784 133.888C91.04 133.888 91.296 134.008 91.328 134.288H92.112C92.072 133.488 91.408 133.184 90.752 133.184C90.072 133.184 89.456 133.616 89.416 134.168C89.36 134.776 89.648 135.168 90.448 135.384L90.952 135.504ZM94.2507 131.848H93.4267V133.264H92.7547V133.944H93.4267V137H94.2507V133.944H95.0427V133.264H94.2507V131.848ZM97.6932 137H98.5172V131.232H97.6932V137ZM102.582 137H103.398V133.264H102.582V133.792C102.326 133.368 101.774 133.184 101.326 133.184C100.326 133.184 99.4298 133.936 99.4298 135.128C99.4298 136.32 100.326 137.08 101.326 137.08C101.806 137.08 102.326 136.872 102.582 136.464V137ZM100.278 135.12C100.278 134.432 100.806 133.984 101.422 133.984C101.982 133.984 102.574 134.392 102.574 135.12C102.574 135.856 102.03 136.28 101.422 136.28C100.806 136.28 100.278 135.808 100.278 135.12ZM105.385 135.12C105.385 134.392 105.969 133.984 106.529 133.984C107.153 133.984 107.657 134.432 107.657 135.12C107.657 135.808 107.153 136.28 106.529 136.28C105.921 136.28 105.385 135.848 105.385 135.12ZM105.377 137V136.456C105.609 136.864 106.113 137.08 106.625 137.08C107.625 137.08 108.497 136.312 108.497 135.136C108.497 133.936 107.649 133.184 106.633 133.184C106.097 133.184 105.609 133.392 105.377 133.8V131.232H104.553V137H105.377ZM111.124 136.28C110.508 136.28 109.996 135.824 109.996 135.12C109.996 134.44 110.508 133.992 111.124 133.992C111.748 133.992 112.26 134.44 112.26 135.12C112.26 135.824 111.748 136.28 111.124 136.28ZM111.124 137.08C112.188 137.08 113.084 136.304 113.084 135.12C113.084 133.936 112.188 133.184 111.124 133.184C110.068 133.184 109.18 133.936 109.18 135.12C109.18 136.304 110.068 137.08 111.124 137.08ZM114.822 135.656C114.822 134.664 115.118 133.96 115.822 133.96C115.982 133.96 116.158 133.984 116.374 134.088L116.51 133.328C116.39 133.24 116.11 133.184 115.846 133.184C115.374 133.184 115.014 133.448 114.822 134.12V133.264H113.998V137H114.822V135.656ZM119.713 135.272C119.713 136.016 119.233 136.28 118.753 136.28C118.305 136.28 117.977 135.96 117.977 135.344V133.264H117.153V135.44C117.145 136.504 117.681 137.08 118.601 137.08C118.993 137.08 119.497 136.88 119.713 136.456V137H120.537V133.264H119.713V135.272ZM125.941 133.992C126.421 133.992 126.733 134.336 126.733 134.92V137H127.557V134.848C127.557 133.784 127.045 133.184 126.117 133.184C125.781 133.184 125.205 133.28 124.861 133.928C124.645 133.448 124.285 133.184 123.685 133.184C123.381 133.184 122.765 133.312 122.509 133.824V133.264H121.685V137H122.509V134.992C122.509 134.256 122.973 133.992 123.453 133.992C123.901 133.992 124.205 134.328 124.213 134.904V137H125.037V134.992C125.037 134.384 125.397 133.992 125.941 133.992ZM55.128 145.12C55.128 143.936 54.312 143.184 53.256 143.184C52.2 143.184 51.336 143.936 51.336 145.12C51.336 146.304 52.2 147.08 53.256 147.08C53.952 147.08 54.664 146.784 54.984 146.12L54.312 145.824C54.12 146.168 53.712 146.36 53.296 146.36C52.688 146.36 52.24 146 52.152 145.424H55.12C55.128 145.336 55.128 145.208 55.128 145.12ZM52.152 144.824C52.24 144.248 52.68 143.904 53.256 143.904C53.824 143.904 54.232 144.24 54.32 144.824H52.152ZM57.1179 141.848H56.2939V143.264H55.6219V143.944H56.2939V147H57.1179V143.944H57.9099V143.264H57.1179V141.848ZM63.4564 147H64.2724V141.232H63.4564V143.8C63.2244 143.392 62.7284 143.184 62.1924 143.184C61.1844 143.184 60.3284 143.936 60.3284 145.136C60.3284 146.312 61.1844 147.08 62.1924 147.08C62.7044 147.08 63.2244 146.864 63.4564 146.456V147ZM63.4404 145.12C63.4404 145.848 62.9044 146.28 62.2964 146.28C61.6804 146.28 61.1764 145.808 61.1764 145.12C61.1764 144.432 61.6804 143.984 62.2964 143.984C62.8484 143.984 63.4404 144.392 63.4404 145.12ZM67.1316 146.28C66.5156 146.28 66.0036 145.824 66.0036 145.12C66.0036 144.44 66.5156 143.992 67.1316 143.992C67.7556 143.992 68.2676 144.44 68.2676 145.12C68.2676 145.824 67.7556 146.28 67.1316 146.28ZM67.1316 147.08C68.1956 147.08 69.0916 146.304 69.0916 145.12C69.0916 143.936 68.1956 143.184 67.1316 143.184C66.0756 143.184 65.1876 143.936 65.1876 145.12C65.1876 146.304 66.0756 147.08 67.1316 147.08ZM70.0057 147H70.8297V141.232H70.0057V147ZM73.6863 146.28C73.0703 146.28 72.5583 145.824 72.5583 145.12C72.5583 144.44 73.0703 143.992 73.6863 143.992C74.3103 143.992 74.8223 144.44 74.8223 145.12C74.8223 145.824 74.3103 146.28 73.6863 146.28ZM73.6863 147.08C74.7503 147.08 75.6463 146.304 75.6463 145.12C75.6463 143.936 74.7503 143.184 73.6863 143.184C72.6303 143.184 71.7423 143.936 71.7423 145.12C71.7423 146.304 72.6303 147.08 73.6863 147.08ZM77.3844 145.656C77.3844 144.664 77.6804 143.96 78.3844 143.96C78.5444 143.96 78.7204 143.984 78.9364 144.088L79.0724 143.328C78.9524 143.24 78.6724 143.184 78.4084 143.184C77.9364 143.184 77.5764 143.448 77.3844 144.12V143.264H76.5604V147H77.3844V145.656ZM82.2757 145.272C82.2757 146.016 81.7957 146.28 81.3157 146.28C80.8677 146.28 80.5397 145.96 80.5397 145.344V143.264H79.7157V145.44C79.7077 146.504 80.2437 147.08 81.1637 147.08C81.5557 147.08 82.0597 146.88 82.2757 146.456V147H83.0997V143.264H82.2757V145.272ZM88.5039 143.992C88.9839 143.992 89.2959 144.336 89.2959 144.92V147H90.1199V144.848C90.1199 143.784 89.6079 143.184 88.6799 143.184C88.3439 143.184 87.7679 143.28 87.4239 143.928C87.2079 143.448 86.8479 143.184 86.2479 143.184C85.9439 143.184 85.3279 143.312 85.0719 143.824V143.264H84.2479V147H85.0719V144.992C85.0719 144.256 85.5359 143.992 86.0159 143.992C86.4639 143.992 86.7679 144.328 86.7759 144.904V147H87.5999V144.992C87.5999 144.384 87.9599 143.992 88.5039 143.992ZM95.3941 141.232H94.9861C93.9621 141.232 93.4901 141.896 93.4901 142.92V143.264H92.7781V143.944H93.4901V147H94.3221V143.944H95.1621V143.264H94.3221V142.92C94.3221 142.44 94.4421 142.024 94.9861 142.024H95.3941V141.232ZM98.4476 145.272C98.4476 146.016 97.9676 146.28 97.4876 146.28C97.0396 146.28 96.7116 145.96 96.7116 145.344V143.264H95.8876V145.44C95.8796 146.504 96.4156 147.08 97.3356 147.08C97.7276 147.08 98.2316 146.88 98.4476 146.456V147H99.2716V143.264H98.4476V145.272ZM103.324 145.136C103.324 145.872 102.732 146.288 102.172 146.288C101.548 146.288 101.036 145.84 101.036 145.136C101.036 144.456 101.548 143.984 102.172 143.984C102.788 143.984 103.324 144.392 103.324 145.136ZM101.044 147.472C100.892 147.536 100.516 147.752 100.364 147.816C100.716 148.488 101.364 148.864 102.092 148.864C103.348 148.864 104.148 148.168 104.148 146.448V143.264H103.34V143.816C103.108 143.408 102.588 143.184 102.076 143.184C101.068 143.184 100.188 143.96 100.188 145.144C100.188 146.328 101.068 147.08 102.076 147.08C102.58 147.08 103.132 146.856 103.34 146.432V146.624C103.34 147.672 102.852 148.096 102.092 148.096C101.684 148.096 101.244 147.864 101.044 147.472ZM108.215 147H109.031V143.264H108.215V143.792C107.959 143.368 107.407 143.184 106.959 143.184C105.959 143.184 105.063 143.936 105.063 145.128C105.063 146.32 105.959 147.08 106.959 147.08C107.439 147.08 107.959 146.872 108.215 146.464V147ZM105.911 145.12C105.911 144.432 106.439 143.984 107.055 143.984C107.615 143.984 108.207 144.392 108.207 145.12C108.207 145.856 107.663 146.28 107.055 146.28C106.439 146.28 105.911 145.808 105.911 145.12ZM110.113 146.544C110.113 146.856 110.361 147.08 110.673 147.08C110.985 147.08 111.241 146.856 111.241 146.544C111.241 146.232 110.985 146 110.673 146C110.361 146 110.113 146.232 110.113 146.544Z" fill="#354662"/>
<path opacity="0.8" d="M43.7843 160.088C43.7843 160.76 44.3363 161.256 45.0003 161.256C45.6643 161.256 46.2163 160.76 46.2163 160.088C46.2163 159.424 45.6643 158.928 45.0003 158.928C44.3363 158.928 43.7843 159.424 43.7843 160.088ZM55.36 157.944C55.36 157.04 54.768 156.488 53.832 156.488H51.72V162H54C55.048 162 55.656 161.256 55.656 160.384C55.656 159.856 55.288 159.216 54.648 159.064C55.184 158.848 55.36 158.376 55.36 157.944ZM52.576 158.752V157.264H53.744C54.2 157.264 54.48 157.528 54.48 157.976C54.48 158.392 54.248 158.752 53.8 158.752H52.576ZM53.936 159.48C54.464 159.48 54.768 159.968 54.768 160.376C54.768 160.8 54.472 161.224 53.96 161.224H52.576V159.48H53.936ZM56.6073 162H57.4313V156.232H56.6073V162ZM61.4958 162H62.3118V158.264H61.4958V158.792C61.2398 158.368 60.6878 158.184 60.2398 158.184C59.2398 158.184 58.3438 158.936 58.3438 160.128C58.3438 161.32 59.2398 162.08 60.2398 162.08C60.7198 162.08 61.2398 161.872 61.4958 161.464V162ZM59.1918 160.12C59.1918 159.432 59.7198 158.984 60.3358 158.984C60.8958 158.984 61.4878 159.392 61.4878 160.12C61.4878 160.856 60.9438 161.28 60.3358 161.28C59.7198 161.28 59.1918 160.808 59.1918 160.12ZM64.2906 159.992C64.2906 159.256 64.7626 158.992 65.2506 158.992C65.7306 158.992 66.0346 159.32 66.0346 159.92V162H66.8586V159.824C66.8586 158.76 66.3386 158.184 65.4346 158.184C65.0266 158.184 64.5066 158.4 64.2906 158.824V158.264H63.4666V162H64.2906V159.992ZM70.8704 162H71.6864V156.232H70.8704V158.8C70.6384 158.392 70.1424 158.184 69.6064 158.184C68.5984 158.184 67.7424 158.936 67.7424 160.136C67.7424 161.312 68.5984 162.08 69.6064 162.08C70.1184 162.08 70.6384 161.864 70.8704 161.456V162ZM70.8544 160.12C70.8544 160.848 70.3184 161.28 69.7104 161.28C69.0944 161.28 68.5904 160.808 68.5904 160.12C68.5904 159.432 69.0944 158.984 69.7104 158.984C70.2624 158.984 70.8544 159.392 70.8544 160.12ZM73.6576 158.264H72.8416V162H73.6576V158.264ZM72.6976 156.752C72.6976 157.048 72.9536 157.272 73.2496 157.272C73.5616 157.272 73.7936 157.048 73.7936 156.752C73.7936 156.456 73.5616 156.232 73.2496 156.232C72.9536 156.232 72.6976 156.456 72.6976 156.752ZM75.9304 156.848H75.1064V158.264H74.4344V158.944H75.1064V162H75.9304V158.944H76.7224V158.264H75.9304V156.848ZM78.3139 158.264H77.4979V162H78.3139V158.264ZM77.3539 156.752C77.3539 157.048 77.6099 157.272 77.9059 157.272C78.2179 157.272 78.4499 157.048 78.4499 156.752C78.4499 156.456 78.2179 156.232 77.9059 156.232C77.6099 156.232 77.3539 156.456 77.3539 156.752ZM80.2826 158.264H79.4666V162H80.2826V158.264ZM79.3226 156.752C79.3226 157.048 79.5786 157.272 79.8746 157.272C80.1866 157.272 80.4186 157.048 80.4186 156.752C80.4186 156.456 80.1866 156.232 79.8746 156.232C79.5786 156.232 79.3226 156.456 79.3226 156.752ZM82.8114 160.504C83.0914 160.568 83.3314 160.696 83.3314 160.944C83.3314 161.224 83.0434 161.392 82.6674 161.392C82.2274 161.392 81.9714 161.176 81.9314 160.856H81.1714C81.1954 161.648 81.8994 162.08 82.6034 162.08C83.4594 162.08 84.0914 161.672 84.0914 160.952C84.0914 160.584 83.9154 160.056 83.1154 159.864L82.5394 159.72C82.3394 159.664 82.1394 159.584 82.0834 159.432C82.0434 159.312 82.0514 159.2 82.1154 159.096C82.2034 158.968 82.4274 158.888 82.6434 158.888C82.8994 158.888 83.1554 159.008 83.1874 159.288H83.9714C83.9314 158.488 83.2674 158.184 82.6114 158.184C81.9314 158.184 81.3154 158.616 81.2754 159.168C81.2194 159.776 81.5074 160.168 82.3074 160.384L82.8114 160.504ZM89.8853 160.152C89.8853 160.896 89.3013 161.288 88.7493 161.288C88.1253 161.288 87.6373 160.84 87.6373 160.152C87.6373 159.456 88.1253 158.984 88.7493 158.984C89.3573 158.984 89.8853 159.424 89.8853 160.152ZM89.8933 158.816C89.6693 158.408 89.1573 158.184 88.6453 158.184C87.6373 158.184 86.7893 158.96 86.7893 160.136C86.7893 161.328 87.6373 162.08 88.6453 162.08C89.1573 162.08 89.6693 161.88 89.8933 161.464V163.816H90.7173V158.264H89.8933V158.816ZM94.3929 160.272C94.3929 161.016 93.9129 161.28 93.4329 161.28C92.9849 161.28 92.6569 160.96 92.6569 160.344V158.264H91.8329V160.44C91.8249 161.504 92.3609 162.08 93.2809 162.08C93.6729 162.08 94.1769 161.88 94.3929 161.456V162H95.2169V158.264H94.3929V160.272ZM97.1811 158.264H96.3651V162H97.1811V158.264ZM96.2211 156.752C96.2211 157.048 96.4771 157.272 96.7731 157.272C97.0851 157.272 97.3171 157.048 97.3171 156.752C97.3171 156.456 97.0851 156.232 96.7731 156.232C96.4771 156.232 96.2211 156.456 96.2211 156.752Z" fill="#354662"/>
<defs>
<filter id="filter0_d_1_254" x="0" y="0" width="201" height="225" filterUnits="userSpaceOnUse" color-interpolation-filters="sRGB">
<feFlood flood-opacity="0" result="BackgroundImageFix"/>
<feColorMatrix in="SourceAlpha" type="matrix" values="0 0 0 0 0 0 0 0 0 0 0 0 0 0 0 0 0 0 127 0" result="hardAlpha"/>
<feOffset dx="8" dy="14"/>
<feGaussianBlur stdDeviation="12.5"/>
<feComposite in2="hardAlpha" operator="out"/>
<feColorMatrix type="matrix" values="0 0 0 0 0.141176 0 0 0 0 0.254902 0 0 0 0 0.505882 0 0 0 0.05 0"/>
<feBlend mode="normal" in2="BackgroundImageFix" result="effect1_dropShadow_1_254"/>
<feBlend mode="normal" in="SourceGraphic" in2="effect1_dropShadow_1_254" result="shape"/>
</filter>
</defs>
</svg>
