<svg width="29" height="26" viewBox="0 0 29 26" fill="none" xmlns="http://www.w3.org/2000/svg">
<path d="M23.9693 0H12.3026C11.22 0.00117312 10.1821 0.437344 9.41654 1.21281C8.65102 1.98827 8.22044 3.03969 8.21928 4.13636V11.8182H19.4025L15.5613 7.92631C15.3517 7.70287 15.2366 7.40535 15.2405 7.09718C15.2444 6.789 15.367 6.49456 15.5821 6.27663C15.7972 6.0587 16.0879 5.93453 16.3921 5.93058C16.6964 5.92664 16.9901 6.04323 17.2106 6.25551L23.044 12.1646C23.2626 12.3862 23.3854 12.6867 23.3854 13C23.3854 13.3133 23.2626 13.6138 23.044 13.8354L17.2106 19.7445C16.9901 19.9568 16.6964 20.0734 16.3921 20.0694C16.0879 20.0655 15.7972 19.9413 15.5821 19.7234C15.367 19.5054 15.2444 19.211 15.2405 18.9028C15.2366 18.5947 15.3517 18.2971 15.5613 18.0737L19.4025 14.1818H8.21928V21.8636C8.21928 24.231 10.6831 26 12.8859 26H23.9693C25.0519 25.9988 26.0898 25.5627 26.8554 24.7872C27.6209 24.0117 28.0515 22.9603 28.0526 21.8636V4.13636C28.0515 3.03969 27.6209 1.98827 26.8554 1.21281C26.0898 0.437344 25.0519 0.00117312 23.9693 0V0ZM1.21928 11.8182C0.90986 11.8182 0.613114 11.9427 0.394321 12.1643C0.175529 12.386 0.0526123 12.6866 0.0526123 13C0.0526123 13.3134 0.175529 13.614 0.394321 13.8357C0.613114 14.0573 0.90986 14.1818 1.21928 14.1818H8.21928V11.8182H1.21928Z" fill="#316FD7"/>
</svg>
