<svg width="27" height="27" viewBox="0 0 27 27" fill="none" xmlns="http://www.w3.org/2000/svg">
<path d="M17.7906 19.1747L20.0884 16.876C20.3979 16.5703 20.7894 16.361 21.2155 16.2735C21.6416 16.1861 22.0839 16.2243 22.4887 16.3835L25.2891 17.502C25.6982 17.6681 26.049 17.9517 26.2973 18.3169C26.5455 18.6822 26.6802 19.1128 26.6842 19.5544V24.6855C26.6818 24.9859 26.6187 25.2828 26.4986 25.5582C26.3785 25.8336 26.204 26.0818 25.9855 26.2879C25.767 26.4941 25.509 26.6538 25.2271 26.7576C24.9453 26.8614 24.6454 26.907 24.3454 26.8918C4.72204 25.6706 0.762488 9.04611 0.0136609 2.68364C-0.0211001 2.3712 0.0106601 2.05494 0.106852 1.75566C0.203044 1.45638 0.361488 1.18086 0.57176 0.94724C0.782032 0.713618 1.03937 0.527183 1.32683 0.400199C1.6143 0.273216 1.92539 0.208562 2.23963 0.210491H7.19419C7.63632 0.2118 8.06794 0.345404 8.43355 0.594116C8.79916 0.842829 9.08202 1.19528 9.24577 1.60613L10.3639 4.40767C10.5283 4.81103 10.5702 5.25392 10.4845 5.68099C10.3987 6.10807 10.1891 6.5004 9.88176 6.80898L7.58399 9.10768C7.58399 9.10768 8.90726 18.0664 17.7906 19.1747Z" fill="#394F73"/>
</svg>
