<svg width="1920" height="748" viewBox="0 0 1920 748" fill="none" xmlns="http://www.w3.org/2000/svg">
<path opacity="0.8" d="M1986.5 460.426C2039.22 518.439 2065.59 547.446 2076.77 582.802C2079.91 592.733 2082.13 602.933 2083.39 613.272C2087.9 650.08 2075.96 687.414 2052.08 762.081C2028.2 836.749 2016.27 874.083 1991.24 901.445C1984.21 909.131 1976.48 916.151 1968.16 922.417C1938.54 944.724 1900.24 953.051 1823.63 969.706C1747.03 986.36 1708.73 994.688 1672.52 986.694C1662.35 984.448 1652.4 981.269 1642.82 977.196C1608.69 962.695 1582.33 933.688 1529.6 875.675C1476.88 817.662 1450.51 788.656 1439.33 753.299C1436.19 743.368 1433.97 733.168 1432.71 722.829C1428.2 686.021 1440.14 648.688 1464.02 574.02C1487.9 499.352 1499.84 462.019 1524.86 434.656C1531.89 426.97 1539.62 419.95 1547.94 413.684C1577.56 391.377 1615.86 383.05 1692.47 366.395C1769.07 349.741 1807.37 341.414 1843.58 349.408C1853.75 351.653 1863.7 354.833 1873.28 358.906C1907.41 373.406 1933.77 402.413 1986.5 460.426Z" fill="url(#paint0_linear_282_4)"/>
<g style="mix-blend-mode:darken" opacity="0.3">
<path d="M343.309 532.533C384.768 546.684 405.497 553.76 421.366 566.988C430.397 574.516 438.183 583.424 444.434 593.382C455.419 610.879 459.656 632.368 468.131 675.348C476.605 718.327 480.842 739.817 477.321 760.174C475.316 771.76 471.495 782.956 465.997 793.349C456.337 811.611 439.845 826.025 406.86 854.853C373.876 883.682 357.384 898.096 337.994 905.225C326.958 909.282 315.351 911.571 303.602 912.006C282.957 912.771 262.227 905.696 220.769 891.545C179.311 877.394 158.581 870.318 142.712 857.09C133.681 849.562 125.896 840.654 119.644 830.697C108.659 813.2 104.422 791.71 95.9476 748.73C87.4734 705.751 83.2363 684.261 86.7577 663.904C88.7618 652.319 92.5834 641.122 98.0811 630.729C107.741 612.468 124.234 598.053 157.218 569.225C190.202 540.396 206.694 525.982 226.085 518.853C237.12 514.796 248.727 512.507 260.476 512.072C281.122 511.307 301.851 518.383 343.309 532.533Z" fill="url(#paint1_linear_282_4)"/>
</g>
<g style="mix-blend-mode:overlay" opacity="0.5">
<path d="M182.016 265.867C228.929 316.881 252.385 342.388 262.742 373.477C266.021 383.32 268.29 393.471 269.514 403.773C273.382 436.313 263.021 469.38 242.297 535.515C221.574 601.65 211.213 634.717 189.467 659.231C182.582 666.992 174.926 674.032 166.616 680.244C140.37 699.864 106.552 707.424 38.9162 722.544C-28.7198 737.665 -62.5378 745.225 -94.64 738.65C-104.804 736.568 -114.729 733.458 -124.264 729.367C-154.378 716.447 -177.834 690.94 -224.747 639.926C-271.659 588.911 -295.116 563.404 -305.472 532.315C-308.751 522.472 -311.021 512.322 -312.245 502.019C-316.113 469.48 -305.752 436.412 -285.028 370.278C-264.305 304.143 -253.943 271.076 -232.198 246.562C-225.313 238.801 -217.657 231.76 -209.347 225.548C-183.101 205.929 -149.283 198.369 -81.647 183.248C-14.011 168.128 19.807 160.567 51.9091 167.143C62.0728 169.225 71.9985 172.335 81.5328 176.425C111.647 189.345 135.103 214.853 182.016 265.867Z" fill="url(#paint2_linear_282_4)"/>
</g>
<g style="mix-blend-mode:overlay" opacity="0.8">
<path d="M1942.33 146.474C1977.98 185.236 1995.8 204.616 2003.56 228.279C2005.89 235.356 2007.51 242.642 2008.43 250.034C2011.48 274.75 2003.61 299.876 1987.86 350.126C1972.11 400.377 1964.24 425.502 1947.63 444.057C1942.66 449.606 1937.17 454.659 1931.22 459.146C1911.34 474.147 1885.65 479.892 1834.26 491.38C1782.86 502.869 1757.17 508.614 1732.8 503.506C1725.51 501.978 1718.38 499.745 1711.52 496.84C1688.59 487.125 1670.77 467.744 1635.12 428.983C1599.48 390.221 1581.66 370.84 1573.89 347.177C1571.57 340.1 1569.94 332.814 1569.03 325.422C1565.98 300.706 1573.85 275.581 1589.6 225.33C1605.34 175.08 1613.22 149.955 1629.83 131.4C1634.79 125.851 1640.29 120.797 1646.24 116.311C1666.11 101.309 1691.81 95.5649 1743.2 84.0761C1794.59 72.5872 1820.29 66.8428 1844.66 71.951C1851.95 73.4788 1859.08 75.7112 1865.93 78.6167C1888.86 88.3315 1906.69 107.712 1942.33 146.474Z" fill="url(#paint3_linear_282_4)"/>
</g>
<g style="mix-blend-mode:darken" opacity="0.3">
<path d="M109.995 434.437C158.436 450.971 182.657 459.239 198.673 477.564C214.689 495.888 219.64 520.998 229.541 571.216L230.465 575.902C240.367 626.12 245.318 651.23 237.456 674.263C229.594 697.295 210.324 714.138 171.784 747.822L168.188 750.965C129.649 784.649 110.379 801.491 86.5008 806.199C62.6229 810.907 38.4022 802.64 -10.039 786.105L-14.5588 784.563C-63.0001 768.028 -87.2207 759.761 -103.237 741.436C-119.253 723.111 -124.204 698.002 -134.105 647.784L-135.029 643.098C-144.931 592.879 -149.881 567.77 -142.02 544.737C-134.158 521.704 -114.888 504.862 -76.3482 471.178L-72.7523 468.035C-34.2125 434.351 -14.9426 417.509 8.93535 412.801C32.8133 408.093 57.0339 416.36 105.475 432.894L109.995 434.437Z" fill="url(#paint4_linear_282_4)"/>
</g>
<path opacity="0.1" d="M404.979 671.04C404.782 671.667 404.583 672.299 404.383 672.936L403.429 672.636L403.128 673.595L402.826 674.555L403.78 674.854C403.58 675.491 403.381 676.123 403.184 676.75L402.23 676.45L401.633 678.347L402.587 678.647C402.387 679.284 402.188 679.915 401.991 680.541L401.037 680.241L400.801 680.992C400.68 681.376 400.559 681.759 400.439 682.139L401.393 682.44C401.193 683.076 400.994 683.706 400.797 684.33L399.843 684.029C399.641 684.668 399.441 685.302 399.242 685.93L400.195 686.232C399.995 686.865 399.796 687.493 399.599 688.116L398.645 687.813C398.442 688.454 398.24 689.089 398.04 689.718L398.993 690.021C398.791 690.656 398.591 691.285 398.392 691.908L397.439 691.604C397.235 692.242 397.033 692.874 396.832 693.501L397.784 693.806C397.58 694.443 397.377 695.074 397.176 695.699L396.224 695.392C396.02 696.026 395.817 696.653 395.615 697.275L396.567 697.583C396.359 698.222 396.154 698.855 395.949 699.482L394.999 699.171C394.792 699.805 394.586 700.433 394.382 701.054L395.332 701.366C395.123 702.002 394.916 702.631 394.71 703.253L393.76 702.939C393.55 703.575 393.34 704.204 393.132 704.827L394.08 705.144C393.869 705.777 393.658 706.404 393.449 707.023L392.501 706.703C392.287 707.336 392.075 707.962 391.863 708.581L392.81 708.904C392.592 709.54 392.376 710.168 392.161 710.789L391.216 710.462C390.998 711.093 390.78 711.716 390.564 712.333L391.507 712.664C391.286 713.294 391.066 713.916 390.847 714.531L389.905 714.195C389.68 714.826 389.455 715.45 389.232 716.065L390.172 716.406C389.943 717.037 389.715 717.66 389.487 718.276L388.549 717.929C388.318 718.555 388.087 719.173 387.856 719.783L388.792 720.137C388.555 720.762 388.32 721.38 388.084 721.99L387.151 721.63C386.911 722.251 386.671 722.865 386.432 723.47L387.361 723.838C387.114 724.462 386.867 725.078 386.62 725.687L385.694 725.31C385.442 725.928 385.191 726.538 384.939 727.14L385.861 727.526C385.603 728.144 385.344 728.754 385.084 729.356L384.166 728.96C383.902 729.571 383.637 730.174 383.372 730.768L384.285 731.176C384.013 731.787 383.739 732.39 383.464 732.985L382.556 732.566C382.277 733.169 381.997 733.763 381.716 734.35L382.617 734.783C382.328 735.386 382.037 735.981 381.744 736.568L380.849 736.121C380.553 736.714 380.255 737.299 379.955 737.877L380.842 738.338C380.534 738.931 380.223 739.516 379.909 740.093L379.03 739.616C378.715 740.197 378.396 740.77 378.074 741.336L378.944 741.831C378.615 742.41 378.282 742.983 377.945 743.549L377.086 743.037C376.748 743.604 376.408 744.163 376.062 744.717L376.911 745.246C376.559 745.81 376.202 746.368 375.841 746.921L375.004 746.373C374.644 746.923 374.28 747.467 373.91 748.005L374.734 748.571C374.358 749.118 373.977 749.66 373.591 750.197L372.779 749.612C372.588 749.878 372.395 750.142 372.2 750.406C372.012 750.661 371.822 750.916 371.631 751.17L372.431 751.771C372.046 752.283 371.657 752.793 371.264 753.299L370.474 752.686C370.085 753.188 369.691 753.687 369.293 754.183L370.074 754.809C369.672 755.309 369.267 755.806 368.859 756.299L368.089 755.661C367.683 756.151 367.274 756.637 366.86 757.119L367.62 757.77C367.203 758.257 366.783 758.74 366.358 759.22L365.609 758.558C365.188 759.034 364.763 759.507 364.334 759.976L365.073 760.651C364.641 761.124 364.205 761.594 363.765 762.06L363.038 761.374C362.601 761.836 362.162 762.295 361.718 762.751L362.435 763.448C361.988 763.908 361.537 764.363 361.083 764.815L360.377 764.106C359.927 764.554 359.472 764.999 359.015 765.44L359.708 766.16C359.247 766.605 358.782 767.046 358.313 767.483L357.631 766.752C357.166 767.185 356.698 767.615 356.226 768.041L356.897 768.783C356.421 769.213 355.942 769.639 355.459 770.061L354.801 769.308C354.323 769.726 353.841 770.141 353.356 770.552L354.002 771.315C353.513 771.729 353.021 772.139 352.525 772.546L351.891 771.772C351.399 772.175 350.905 772.574 350.406 772.969L351.028 773.752C350.526 774.151 350.021 774.545 349.512 774.935L348.903 774.142C348.399 774.529 347.892 774.912 347.381 775.29L347.977 776.093C347.463 776.475 346.945 776.853 346.424 777.227L345.841 776.415C345.325 776.785 344.805 777.152 344.283 777.514L344.853 778.336C344.327 778.701 343.797 779.062 343.264 779.419L342.708 778.588C342.18 778.942 341.649 779.291 341.115 779.637L341.659 780.476C341.121 780.825 340.58 781.168 340.036 781.508L339.506 780.66C339.237 780.828 338.967 780.996 338.696 781.162C338.417 781.333 338.137 781.503 337.856 781.671L338.369 782.529C337.801 782.869 337.229 783.202 336.652 783.53L336.158 782.66C335.59 782.983 335.017 783.299 334.439 783.611L334.913 784.491C334.332 784.804 333.745 785.112 333.153 785.415L332.698 784.524C332.117 784.821 331.531 785.113 330.937 785.4L331.373 786.3C330.781 786.587 330.182 786.87 329.576 787.149L329.158 786.24C328.567 786.512 327.968 786.781 327.362 787.046L327.763 787.962C327.161 788.225 326.552 788.485 325.935 788.742L325.551 787.818C324.95 788.068 324.341 788.315 323.725 788.56L324.094 789.489C323.484 789.731 322.866 789.97 322.241 790.207L321.887 789.272C321.278 789.502 320.662 789.73 320.037 789.957L320.377 790.897C319.761 791.12 319.137 791.341 318.504 791.561L318.177 790.616C317.561 790.83 316.938 791.042 316.307 791.252L316.623 792.201C316.001 792.408 315.371 792.615 314.733 792.819L314.427 791.867C313.806 792.067 313.177 792.265 312.54 792.463L312.836 793.418C312.209 793.613 311.574 793.806 310.931 793.999L310.644 793.041C310.02 793.228 309.388 793.415 308.749 793.601L309.028 794.561C308.4 794.744 307.764 794.926 307.121 795.108L306.849 794.146C306.221 794.324 305.585 794.501 304.942 794.678L305.207 795.642C304.575 795.817 303.934 795.991 303.286 796.165L303.027 795.199C302.394 795.369 301.754 795.54 301.106 795.71L301.36 796.677C300.729 796.843 300.09 797.009 299.444 797.176L299.194 796.208C298.561 796.371 297.922 796.534 297.274 796.698L297.519 797.667C296.882 797.829 296.238 797.99 295.586 798.152L295.345 797.182C294.71 797.34 294.069 797.498 293.42 797.657L293.658 798.629C293.022 798.784 292.38 798.941 291.731 799.098L291.496 798.126C290.858 798.28 290.213 798.435 289.561 798.59L289.794 799.563C289.156 799.715 288.511 799.868 287.86 800.022L287.63 799.049C286.994 799.199 286.352 799.351 285.702 799.502L285.93 800.476C285.288 800.626 284.64 800.777 283.986 800.929L283.76 799.955C283.123 800.103 282.481 800.251 281.832 800.401L282.056 801.375C281.416 801.522 280.771 801.671 280.119 801.82L279.896 800.845C279.254 800.992 278.607 801.139 277.954 801.288L278.175 802.263C277.538 802.408 276.894 802.554 276.245 802.701L276.024 801.726C275.38 801.872 274.73 802.018 274.074 802.166L274.294 803.142C273.657 803.285 273.015 803.43 272.366 803.576L272.147 802.6C271.504 802.744 270.856 802.89 270.201 803.036L270.42 804.012C269.781 804.155 269.136 804.3 268.486 804.445L268.268 803.469C267.626 803.613 266.978 803.757 266.325 803.903L266.543 804.879C265.902 805.022 265.256 805.166 264.605 805.311L264.387 804.335L262.447 804.768L262.664 805.744C262.023 805.886 261.376 806.03 260.724 806.176L260.507 805.199L259.525 805.418L258.544 805.637L258.761 806.613C258.109 806.758 257.463 806.902 256.821 807.044L256.604 806.068L254.663 806.5L254.88 807.476C254.229 807.621 253.583 807.765 252.942 807.907L252.725 806.931C252.072 807.076 251.424 807.22 250.782 807.362L250.998 808.338C250.348 808.483 249.703 808.625 249.063 808.767L248.847 807.79C248.193 807.935 247.544 808.079 246.9 808.221L247.116 809.197C246.467 809.34 245.824 809.482 245.186 809.622L244.971 808.645C244.727 808.699 244.483 808.753 244.241 808.806C243.831 808.896 243.424 808.985 243.019 809.074L243.233 810.051C242.582 810.193 241.937 810.334 241.298 810.473L241.086 809.496C240.431 809.639 239.782 809.779 239.139 809.919L239.351 810.896C238.697 811.038 238.049 811.177 237.407 811.315L237.197 810.338C236.546 810.478 235.901 810.616 235.262 810.752L235.471 811.73C234.814 811.87 234.163 812.008 233.518 812.145L233.311 811.166C232.659 811.304 232.013 811.44 231.373 811.574L231.578 812.553C230.923 812.689 230.274 812.824 229.632 812.957L229.43 811.978C228.773 812.113 228.124 812.246 227.48 812.377L227.68 813.357C227.026 813.49 226.378 813.621 225.736 813.75L225.54 812.769C224.885 812.901 224.237 813.029 223.595 813.156L223.788 814.137C223.129 814.266 222.477 814.393 221.832 814.518L221.643 813.536C220.987 813.662 220.338 813.786 219.696 813.906L219.881 814.889C219.225 815.012 218.576 815.133 217.933 815.25L217.753 814.267C217.094 814.387 216.442 814.505 215.797 814.619L215.972 815.604C215.311 815.721 214.658 815.835 214.011 815.945L213.842 814.96C213.184 815.072 212.534 815.181 211.89 815.287L212.052 816.274C211.391 816.382 210.738 816.486 210.092 816.587L209.938 815.599C209.28 815.702 208.629 815.801 207.985 815.896L208.131 816.886C207.467 816.984 206.809 817.078 206.159 817.168L206.022 816.177C205.361 816.269 204.707 816.356 204.06 816.439L204.187 817.43C203.522 817.515 202.865 817.596 202.213 817.672L202.098 816.679C201.436 816.756 200.782 816.828 200.134 816.896L200.238 817.891C199.572 817.96 198.913 818.024 198.26 818.084L198.17 817.088C197.508 817.148 196.853 817.203 196.204 817.253L196.28 818.25C195.614 818.301 194.953 818.346 194.298 818.386L194.237 817.388C193.576 817.428 192.92 817.462 192.27 817.491L192.313 818.49C191.646 818.519 190.984 818.542 190.327 818.559L190.301 817.56C189.64 817.577 188.985 817.588 188.333 817.592L188.34 818.592C187.673 818.597 187.011 818.595 186.353 818.586L186.366 817.586C185.707 817.577 185.052 817.562 184.4 817.54L184.366 818.539C183.701 818.516 183.039 818.487 182.38 818.45L182.436 817.451C181.78 817.414 181.127 817.371 180.476 817.32L180.397 818.317C179.736 818.265 179.076 818.206 178.418 818.139L178.519 817.144C178.193 817.111 177.868 817.076 177.542 817.04C177.226 817.004 176.911 816.967 176.595 816.929L176.475 817.922C175.839 817.845 175.203 817.763 174.568 817.676L174.704 816.685C174.074 816.599 173.445 816.507 172.817 816.411L172.665 817.399C172.032 817.302 171.399 817.2 170.767 817.092L170.935 816.106C170.308 816 169.682 815.888 169.058 815.772L168.874 816.755C168.244 816.637 167.615 816.515 166.987 816.387L167.186 815.407C166.563 815.281 165.941 815.149 165.321 815.013L165.106 815.989C164.48 815.852 163.855 815.709 163.231 815.562L163.462 814.588C162.843 814.442 162.226 814.291 161.61 814.134L161.364 815.104C160.743 814.946 160.123 814.783 159.504 814.616L159.765 813.651C159.152 813.485 158.54 813.313 157.929 813.138L157.652 814.098C157.036 813.921 156.422 813.739 155.809 813.551L156.101 812.595C155.493 812.409 154.887 812.219 154.282 812.023L153.975 812.975C153.365 812.778 152.757 812.576 152.15 812.369L152.473 811.422C151.871 811.217 151.271 811.007 150.673 810.793L150.335 811.734C149.732 811.517 149.13 811.296 148.531 811.07L148.883 810.134C148.289 809.91 147.696 809.681 147.105 809.447L146.737 810.377C146.141 810.141 145.547 809.901 144.955 809.656L145.337 808.732C144.75 808.488 144.165 808.241 143.582 807.988L143.184 808.906C142.596 808.651 142.01 808.391 141.426 808.127L141.838 807.216C141.259 806.954 140.682 806.688 140.107 806.417L139.68 807.321C139.101 807.048 138.523 806.77 137.948 806.487L138.389 805.589C137.819 805.309 137.251 805.024 136.685 804.735L136.229 805.625C135.659 805.333 135.091 805.037 134.524 804.736L134.994 803.853C134.713 803.704 134.433 803.553 134.154 803.402C133.866 803.246 133.579 803.088 133.293 802.929L132.807 803.802C132.229 803.48 131.654 803.152 131.082 802.816L131.588 801.953C131.025 801.623 130.464 801.285 129.905 800.94L129.379 801.79C128.818 801.444 128.258 801.09 127.7 800.728L128.243 799.889C127.696 799.534 127.15 799.172 126.604 798.802L126.043 799.63C125.498 799.26 124.954 798.883 124.41 798.497L124.987 797.681C124.456 797.305 123.924 796.921 123.392 796.529L122.799 797.334C122.269 796.944 121.74 796.546 121.209 796.14L121.817 795.346C121.3 794.951 120.782 794.547 120.262 794.136L119.641 794.92C119.127 794.512 118.611 794.097 118.093 793.674L118.726 792.9C118.222 792.488 117.716 792.068 117.208 791.64L116.564 792.405C116.063 791.983 115.559 791.553 115.053 791.115L115.707 790.359C115.214 789.933 114.719 789.499 114.221 789.057L113.557 789.806C113.067 789.371 112.574 788.929 112.077 788.479L112.749 787.738C112.579 787.583 112.408 787.428 112.237 787.272C111.923 786.985 111.607 786.694 111.289 786.401L110.61 787.135C110.128 786.689 109.643 786.236 109.154 785.775L109.84 785.048C109.366 784.601 108.889 784.147 108.408 783.686L107.716 784.409C107.244 783.956 106.768 783.497 106.289 783.03L106.986 782.313C106.518 781.858 106.047 781.397 105.571 780.928L104.869 781.64C104.402 781.179 103.931 780.712 103.456 780.238L104.163 779.53C103.699 779.067 103.232 778.598 102.76 778.122L102.05 778.826C101.59 778.362 101.127 777.892 100.659 777.416L101.373 776.715C100.916 776.249 100.454 775.776 99.9887 775.298L99.2718 775.995C98.8136 775.524 98.3514 775.046 97.8851 774.563L98.6048 773.869C98.1508 773.398 97.6927 772.922 97.2306 772.439L96.5085 773.131C96.056 772.659 95.5996 772.181 95.1391 771.697L95.8634 771.008C95.4107 770.532 94.954 770.051 94.4932 769.564L93.767 770.252C93.3162 769.776 92.8615 769.294 92.4027 768.807L93.1305 768.121C92.6823 767.646 92.2301 767.165 91.7739 766.678L91.0445 767.363C90.5937 766.882 90.1389 766.396 89.6801 765.905L90.4107 765.222C89.9646 764.745 89.5147 764.263 89.0608 763.775L88.3291 764.457C87.8817 763.977 87.4304 763.492 86.9752 763.001L87.7079 762.321L87.3023 761.884C86.9879 761.545 86.6716 761.204 86.3533 760.861L85.6197 761.54C85.1753 761.06 84.727 760.576 84.2749 760.087L85.0092 759.408C84.561 758.923 84.1089 758.434 83.6529 757.94L82.918 758.618C82.4753 758.138 82.0288 757.654 81.5786 757.166L82.314 756.488L82.0665 756.22C81.7012 755.823 81.3334 755.424 80.963 755.021L80.2273 755.699C79.7837 755.217 79.3364 754.73 78.8855 754.24L79.6215 753.563C79.384 753.305 79.1455 753.045 78.9059 752.785L78.2745 752.098L77.5382 752.774C77.094 752.291 76.6462 751.803 76.1948 751.312L76.9313 750.636L75.5865 749.171L74.8499 749.847C74.4054 749.363 73.9574 748.875 73.5058 748.383L74.2425 747.707L73.5625 746.966L72.8825 746.226L72.1458 746.902C71.6942 746.41 71.2463 745.922 70.8018 745.438L71.5386 744.761L70.1942 743.297L69.4574 743.973C69.0063 743.481 68.5588 742.993 68.1151 742.509L68.8521 741.833C68.3999 741.34 67.9516 740.851 67.5071 740.366L66.7698 741.042C66.3197 740.551 65.8735 740.063 65.4312 739.58L66.1688 738.905C65.716 738.41 65.2673 737.92 64.8227 737.434L64.0847 738.109C63.6364 737.618 63.1921 737.132 62.7519 736.65L63.4904 735.976C63.0371 735.479 62.588 734.987 62.1433 734.499L61.4042 735.173C60.9556 734.68 60.5113 734.193 60.0712 733.709L60.811 733.036C60.6231 732.829 60.436 732.624 60.2497 732.418C59.9889 732.131 59.7295 731.846 59.4717 731.562L58.7311 732.234C58.2816 731.738 57.8367 731.247 57.3963 730.76L58.1379 730.089C57.6911 729.596 57.249 729.106 56.8116 728.621L56.0689 729.291C55.6189 728.791 55.1737 728.297 54.7334 727.807L55.4773 727.138C55.0317 726.642 54.591 726.151 54.1552 725.663L53.4099 726.33C52.9638 725.831 52.5229 725.337 52.087 724.847L52.834 724.183C52.3884 723.682 51.9481 723.186 51.513 722.694L50.7642 723.357C50.3216 722.857 49.8843 722.361 49.4524 721.87L50.2033 721.21C49.7621 720.708 49.3265 720.211 48.8964 719.719L48.1431 720.376C47.7014 719.87 47.2654 719.369 46.8351 718.872L47.5909 718.218C47.1536 717.713 46.7222 717.213 46.2966 716.717L45.5379 717.369C45.1031 716.862 44.6743 716.36 44.2513 715.863L45.0132 715.215C44.5793 714.705 44.1516 714.199 43.7301 713.697L42.9647 714.341C42.5329 713.827 42.1075 713.318 41.6884 712.813L42.4578 712.175C42.0313 711.661 41.6115 711.152 41.1981 710.647L40.4244 711.281C40.0006 710.763 39.5835 710.25 39.173 709.741L39.9515 709.113C39.5333 708.594 39.1221 708.08 38.7176 707.57L37.9339 708.191C37.5169 707.665 37.1069 707.143 36.7039 706.625L37.4932 706.011C37.0835 705.484 36.6811 704.961 36.2858 704.442L35.4902 705.048C35.0842 704.515 34.6856 703.986 34.2942 703.46L35.0965 702.863C34.699 702.329 34.3092 701.798 33.9268 701.271L33.1173 701.858C32.7243 701.316 32.339 700.778 31.9611 700.242L32.7783 699.666C32.3954 699.123 32.0203 698.583 31.6528 698.046L30.8274 698.61C30.4499 698.058 30.0803 697.509 29.7184 696.962L30.5525 696.41C30.1868 695.857 29.8292 695.306 29.4793 694.757L28.6361 695.295C28.277 694.732 27.926 694.17 27.5828 693.61L28.4355 693.087C28.0902 692.523 27.7529 691.961 27.4234 691.399L26.5608 691.905C26.2234 691.33 25.894 690.755 25.5723 690.181L26.4449 689.692C26.1228 689.117 25.8087 688.542 25.5021 687.967L24.6195 688.437C24.3068 687.849 24.0017 687.262 23.7042 686.673L24.5968 686.222C24.3006 685.635 24.0119 685.048 23.7305 684.458L22.828 684.889C22.5422 684.29 22.2637 683.689 21.9922 683.086L22.9042 682.676C22.7698 682.377 22.6372 682.078 22.5064 681.778C22.3792 681.486 22.2534 681.194 22.1286 680.902L21.2089 681.295C20.9572 680.705 20.7104 680.113 20.4685 679.52L21.3944 679.143C21.1542 678.554 20.9189 677.963 20.6884 677.371L19.7565 677.734C19.5239 677.137 19.2962 676.537 19.0733 675.937L20.0108 675.589C19.7897 674.993 19.5734 674.395 19.362 673.796L18.419 674.129C18.2056 673.524 17.9972 672.918 17.7937 672.31L18.7419 671.993C18.54 671.39 18.343 670.786 18.1508 670.18L17.1976 670.482C17.0038 669.871 16.8149 669.259 16.6309 668.645L17.5888 668.358C17.4064 667.749 17.2288 667.139 17.0561 666.527L16.0937 666.799C15.9196 666.182 15.7504 665.564 15.5862 664.944L16.5528 664.688C16.3899 664.074 16.232 663.458 16.079 662.841L15.1084 663.082C14.9542 662.46 14.8048 661.836 14.6606 661.212L15.6349 660.987C15.4918 660.368 15.3537 659.747 15.2206 659.126L14.2427 659.335C14.1085 658.708 13.9792 658.081 13.855 657.452L14.8361 657.258C14.7129 656.635 14.5947 656.01 14.4816 655.385L13.4975 655.563C13.3834 654.932 13.2744 654.3 13.1704 653.668L14.1571 653.506C14.054 652.879 13.9559 652.251 13.8628 651.622L12.8736 651.768C12.7798 651.134 12.691 650.499 12.6073 649.864L13.5987 649.733C13.5158 649.103 13.4378 648.473 13.365 647.841L12.3715 647.956C12.2981 647.319 12.2297 646.682 12.1664 646.044L13.1615 645.945C13.0988 645.313 13.0411 644.68 12.9885 644.046L11.9919 644.129C11.9389 643.49 11.891 642.851 11.8482 642.212L12.8459 642.145C12.8035 641.511 12.7661 640.876 12.7338 640.241L11.7351 640.292C11.7025 639.652 11.6752 639.012 11.6529 638.371L12.6522 638.336C12.6412 638.019 12.6314 637.701 12.6229 637.383C12.6141 637.056 12.6072 636.729 12.6022 636.401L11.6023 636.417C11.5921 635.755 11.5895 635.093 11.5943 634.43L12.5943 634.437C12.599 633.784 12.6111 633.129 12.6306 632.472L11.631 632.443C11.6505 631.783 11.6773 631.121 11.7115 630.457L12.7102 630.508C12.7436 629.857 12.7841 629.203 12.8318 628.545L11.8344 628.473C11.8819 627.816 11.9365 627.156 11.998 626.492L12.9937 626.585C13.0538 625.936 13.1206 625.284 13.1941 624.626L12.2003 624.515C12.2734 623.862 12.353 623.205 12.4391 622.542L13.4308 622.671C13.5148 622.026 13.605 621.375 13.7016 620.72L12.7122 620.574C12.8077 619.925 12.9094 619.27 13.0171 618.61L14.004 618.771C14.1088 618.129 14.2194 617.481 14.3359 616.827L13.3514 616.652C13.4663 616.006 13.5868 615.355 13.7128 614.698L14.6949 614.886C14.8176 614.246 14.9456 613.601 15.0789 612.948L14.0991 612.748C14.2304 612.106 14.3668 611.457 14.5083 610.803L15.4858 611.014C15.6236 610.376 15.7662 609.732 15.9138 609.081L14.9385 608.86C15.0837 608.22 15.2335 607.573 15.3879 606.92L16.3611 607.15C16.5109 606.516 16.6651 605.876 16.8238 605.229L15.8526 604.991C16.0083 604.356 16.1683 603.714 16.3325 603.066L17.3019 603.311C17.3463 603.136 17.391 602.96 17.436 602.784C17.5534 602.324 17.6729 601.86 17.7946 601.393L16.8268 601.141C16.9922 600.506 17.1615 599.865 17.3345 599.217L18.3007 599.475C18.4697 598.842 18.6424 598.202 18.8188 597.556L17.8541 597.293C18.026 596.663 18.2014 596.026 18.3803 595.383L19.3437 595.651C19.4058 595.428 19.4682 595.204 19.5311 594.98C19.6457 594.57 19.7617 594.158 19.8792 593.743L18.917 593.471C19.0959 592.839 19.2781 592.2 19.4635 591.554L20.4246 591.83C20.6052 591.202 20.7888 590.567 20.9755 589.926L20.0154 589.646C20.1981 589.018 20.3839 588.384 20.5725 587.743L21.5318 588.026C21.7172 587.396 21.9055 586.76 22.0966 586.117L21.1381 585.832C21.325 585.204 21.5147 584.569 21.707 583.928L22.6648 584.216C22.8527 583.59 23.0432 582.958 23.2363 582.319L22.2791 582.03C22.4699 581.399 22.6631 580.762 22.8589 580.12L23.8156 580.411C24.0059 579.786 24.1986 579.155 24.3937 578.518L23.4375 578.225C23.6298 577.598 23.8244 576.964 24.0212 576.325L24.977 576.619C25.1705 575.991 25.3663 575.356 25.5643 574.716L24.6089 574.421C24.8022 573.796 24.9975 573.166 25.1949 572.53L26.15 572.826C26.3457 572.195 26.5435 571.559 26.7434 570.917L25.7887 570.62C25.9828 569.997 26.1788 569.368 26.3768 568.734L27.3313 569.032L27.5594 568.301C27.681 567.912 27.8032 567.521 27.9262 567.128L26.9718 566.83C27.1674 566.205 27.3648 565.574 27.564 564.939L28.5182 565.238C28.715 564.61 28.9135 563.977 29.1138 563.338L28.1597 563.039C28.3562 562.413 28.5544 561.781 28.7544 561.144L29.7084 561.444L30.3043 559.547L29.3503 559.247C29.5473 558.62 29.7459 557.988 29.9462 557.351L30.9002 557.651L31.2017 556.692L31.5032 555.733L30.5492 555.433C30.7494 554.796 30.9481 554.164 31.1452 553.537L32.0992 553.837L32.6957 551.94L31.7418 551.64C31.942 551.003 32.1407 550.372 32.3379 549.746L33.2917 550.046C33.4927 549.408 33.692 548.775 33.8899 548.148L32.9362 547.847C33.1365 547.212 33.3353 546.582 33.5325 545.957L34.4861 546.258L34.7253 545.501C34.8465 545.118 34.9671 544.736 35.0872 544.357L34.1337 544.055C34.3342 543.422 34.5331 542.794 34.7305 542.172L35.6837 542.474C35.887 541.833 36.0887 541.198 36.289 540.569L35.3361 540.266C35.538 539.631 35.7384 539.002 35.9374 538.379L36.89 538.684C37.0939 538.045 37.2963 537.413 37.4972 536.787L36.5449 536.481C36.7492 535.844 36.952 535.213 37.1534 534.589L38.1052 534.895C38.3095 534.262 38.5124 533.634 38.7138 533.012L37.7625 532.704C37.9697 532.065 38.1755 531.432 38.3798 530.806L39.3306 531.116C39.5374 530.482 39.7428 529.854 39.9468 529.233L38.9968 528.921C39.2057 528.285 39.4132 527.657 39.6195 527.034L40.5687 527.349C40.7795 526.712 40.989 526.083 41.1972 525.46L40.2488 525.143C40.4606 524.51 40.6712 523.883 40.8805 523.264L41.8279 523.584C41.9421 523.246 42.0559 522.91 42.1694 522.576C42.2685 522.285 42.3673 521.995 42.4659 521.706L41.5197 521.383C41.7369 520.748 41.9529 520.119 42.1679 519.498L43.1129 519.825C43.3314 519.194 43.5488 518.571 43.7653 517.954L42.8218 517.623C43.043 516.993 43.2632 516.371 43.4826 515.756L44.4244 516.092C44.6495 515.461 44.8738 514.838 45.0973 514.222L44.1573 513.881C44.3862 513.25 44.6143 512.627 44.842 512.012L45.7799 512.359C46.0115 511.732 46.2424 511.114 46.473 510.504L45.5374 510.151C45.7737 509.525 46.0097 508.907 46.2453 508.297L47.1781 508.657C47.4182 508.036 47.6579 507.422 47.8976 506.817L46.9678 506.449C47.2149 505.825 47.462 505.209 47.7093 504.601L48.6356 504.977C48.887 504.359 49.1385 503.749 49.3903 503.147L48.4678 502.761C48.7265 502.143 48.9856 501.533 49.2453 500.931L50.1635 501.328C50.4273 500.716 50.6917 500.113 50.9571 499.519L50.0438 499.111C50.3165 498.5 50.5902 497.897 50.8653 497.302L51.773 497.721C52.0517 497.118 52.3317 496.524 52.6133 495.937L51.7117 495.504C52.0009 494.901 52.2919 494.306 52.585 493.719L53.4798 494.166C53.7758 493.573 54.0739 492.988 54.3743 492.41L53.4872 491.949C53.7955 491.356 54.1063 490.771 54.4201 490.194L55.2988 490.671C55.6144 490.09 55.9329 489.517 56.2547 488.951L55.3852 488.457C55.7147 487.877 56.0475 487.304 56.3843 486.738L57.2436 487.25C57.5807 486.683 57.9217 486.124 58.2668 485.57L57.4184 485.041C57.7705 484.477 58.1271 483.919 58.4884 483.366L59.3252 483.914C59.685 483.364 60.0496 482.82 60.4195 482.282L59.5951 481.716C59.9708 481.169 60.3518 480.627 60.7387 480.09L61.5499 480.675C61.7414 480.409 61.9343 480.145 62.1287 479.882C62.3175 479.626 62.5072 479.371 62.698 479.117L61.8982 478.516C62.2831 478.004 62.6719 477.494 63.0647 476.988L63.8547 477.601C64.2445 477.099 64.6382 476.6 65.0357 476.104L64.2556 475.478C64.6567 474.978 65.0617 474.481 65.4705 473.988L66.2405 474.626C66.6461 474.137 67.0555 473.65 67.4687 473.168L66.7091 472.517C67.126 472.03 67.5467 471.547 67.9711 471.067L68.7203 471.729C69.1414 471.253 69.5662 470.78 69.9947 470.311L69.2562 469.636C69.6884 469.163 70.1244 468.693 70.564 468.227L71.2916 468.913C71.7277 468.451 72.1675 467.992 72.6108 467.536L71.8943 466.839C72.3415 466.379 72.7923 465.924 73.2467 465.472L73.9519 466.181C74.4025 465.733 74.8568 465.288 75.3145 464.847L74.6207 464.127C75.0824 463.682 75.5475 463.241 76.0162 462.804L76.6983 463.535C77.1631 463.102 77.6313 462.672 78.1029 462.246L77.4326 461.504C77.9082 461.074 78.3873 460.648 78.8697 460.226L79.5281 460.979C80.0065 460.561 80.4882 460.146 80.9733 459.735L80.3271 458.972C80.8162 458.558 81.3087 458.148 81.8044 457.742L82.4383 458.515C82.9298 458.112 83.4246 457.713 83.9227 457.318L83.3013 456.535C83.8033 456.136 84.3087 455.742 84.8172 455.352L85.426 456.145C85.9301 455.758 86.4375 455.375 86.9479 454.997L86.3519 454.194C86.8665 453.812 87.3842 453.434 87.9051 453.06L88.4881 453.872C89.0043 453.502 89.5237 453.136 90.046 452.773L89.4761 451.952C90.0026 451.586 90.5321 451.225 91.0647 450.868L91.6214 451.699C92.1493 451.345 92.6801 450.996 93.2139 450.65L92.6705 449.811C93.2084 449.463 93.7492 449.119 94.293 448.779L94.8228 449.627C95.0923 449.459 95.3625 449.291 95.6334 449.125C95.9125 448.954 96.1925 448.784 96.4736 448.616L95.9603 447.758C96.5281 447.418 97.1002 447.085 97.6773 446.757L98.171 447.627C98.7391 447.305 99.3121 446.988 99.8906 446.676L99.4164 445.796C99.9975 445.483 100.584 445.175 101.176 444.873L101.631 445.763C102.212 445.466 102.799 445.175 103.392 444.887L102.956 443.987C103.548 443.7 104.147 443.417 104.753 443.138L105.171 444.047C105.763 443.775 106.361 443.506 106.967 443.241L106.566 442.325C107.168 442.062 107.778 441.802 108.394 441.545L108.778 442.469C109.379 442.219 109.988 441.972 110.604 441.727L110.236 440.798C110.846 440.556 111.463 440.317 112.088 440.08L112.442 441.015C113.051 440.785 113.668 440.557 114.292 440.33L113.952 439.39C114.568 439.167 115.192 438.946 115.825 438.726L116.153 439.671C116.768 439.457 117.391 439.245 118.023 439.035L117.706 438.086C118.328 437.879 118.958 437.673 119.596 437.468L119.902 438.42C120.523 438.22 121.152 438.022 121.789 437.824L121.493 436.869C122.12 436.674 122.755 436.481 123.398 436.288L123.686 437.246C124.309 437.059 124.941 436.872 125.58 436.686L125.301 435.726C125.929 435.543 126.565 435.361 127.208 435.179L127.481 436.141C128.108 435.964 128.744 435.786 129.388 435.609L129.122 434.645C129.755 434.471 130.395 434.296 131.043 434.122L131.302 435.088C131.935 434.918 132.575 434.748 133.223 434.577L132.969 433.61C133.6 433.444 134.239 433.278 134.885 433.111L135.135 434.079C135.768 433.916 136.408 433.753 137.055 433.589L136.81 432.62C137.447 432.459 138.091 432.297 138.743 432.135L138.984 433.105C139.619 432.947 140.261 432.789 140.909 432.63L140.671 431.659C141.307 431.503 141.949 431.347 142.598 431.19L142.833 432.162C143.471 432.007 144.116 431.852 144.768 431.697L144.536 430.724C145.173 430.572 145.818 430.419 146.469 430.265L146.699 431.238C147.335 431.088 147.978 430.937 148.627 430.785L148.399 429.811C149.041 429.661 149.689 429.51 150.343 429.358L150.569 430.332C151.206 430.184 151.848 430.036 152.497 429.886L152.273 428.912C152.913 428.765 153.559 428.616 154.211 428.467L154.434 429.442C155.075 429.295 155.722 429.148 156.376 428.999L156.154 428.024C156.791 427.879 157.435 427.733 158.085 427.586L158.305 428.561C158.949 428.415 159.599 428.269 160.255 428.121L160.035 427.145C160.672 427.002 161.315 426.857 161.963 426.712L162.182 427.687C162.825 427.543 163.473 427.397 164.128 427.251L163.909 426.275C164.548 426.132 165.193 425.987 165.843 425.842L166.061 426.818C166.703 426.674 167.351 426.53 168.004 426.384L167.786 425.408C168.427 425.265 169.073 425.121 169.724 424.976L169.942 425.952L171.882 425.52L171.665 424.543C172.307 424.401 172.953 424.257 173.605 424.112L173.822 425.088L174.804 424.869L175.785 424.651L175.568 423.674C176.22 423.529 176.866 423.385 177.508 423.243L177.725 424.219L179.666 423.787L179.449 422.811C180.1 422.666 180.747 422.522 181.387 422.38L181.604 423.356C182.257 423.211 182.905 423.067 183.547 422.925L183.331 421.949C183.981 421.805 184.626 421.662 185.266 421.52L185.482 422.497C186.137 422.352 186.786 422.208 187.429 422.066L187.214 421.09C187.862 420.947 188.506 420.805 189.143 420.665L189.358 421.642C190.015 421.497 190.665 421.355 191.31 421.213L191.096 420.236C191.747 420.094 192.392 419.953 193.031 419.814L193.244 420.791C193.898 420.649 194.547 420.508 195.19 420.369L194.978 419.391C195.632 419.25 196.28 419.11 196.922 418.972L197.132 419.949C197.783 419.809 198.428 419.671 199.067 419.535L198.858 418.557C199.515 418.417 200.166 418.279 200.811 418.142L201.018 419.121C201.67 418.983 202.316 418.847 202.956 418.713L202.752 417.735C203.406 417.598 204.055 417.463 204.697 417.33L204.899 418.31C205.556 418.174 206.205 418.041 206.849 417.91L206.649 416.93C207.304 416.797 207.951 416.666 208.593 416.537L208.789 417.518C209.444 417.386 210.093 417.258 210.734 417.132L210.541 416.15C211.2 416.021 211.852 415.894 212.497 415.769L212.687 416.751C213.342 416.625 213.991 416.502 214.633 416.381L214.448 415.398C215.104 415.275 215.753 415.154 216.396 415.037L216.576 416.02C217.235 415.9 217.887 415.782 218.532 415.668L218.357 414.683C219.018 414.566 219.671 414.452 220.318 414.342L220.487 415.328C221.145 415.215 221.796 415.106 222.439 415L222.278 414.014C222.938 413.905 223.591 413.801 224.237 413.7L224.391 414.688C225.049 414.585 225.7 414.486 226.345 414.391L226.198 413.402C226.863 413.303 227.52 413.209 228.17 413.119L228.307 414.11C228.968 414.019 229.622 413.931 230.269 413.849L230.142 412.857C230.807 412.772 231.465 412.691 232.116 412.615L232.232 413.608C232.893 413.531 233.547 413.459 234.195 413.391L234.091 412.397C234.757 412.327 235.416 412.263 236.069 412.203L236.159 413.199C236.821 413.139 237.476 413.084 238.125 413.035L238.049 412.037C238.716 411.987 239.376 411.941 240.031 411.901L240.092 412.9C240.754 412.859 241.409 412.825 242.06 412.796L242.016 411.797C242.683 411.768 243.345 411.745 244.002 411.728L244.028 412.727C244.689 412.71 245.345 412.7 245.996 412.695L245.989 411.695C246.656 411.69 247.318 411.692 247.977 411.701L247.963 412.701C248.622 412.71 249.278 412.725 249.929 412.747L249.963 411.748C250.628 411.771 251.29 411.801 251.949 411.837L251.893 412.836C252.549 412.873 253.202 412.916 253.854 412.967L253.932 411.971C254.593 412.022 255.253 412.082 255.911 412.148L255.81 413.143C256.136 413.176 256.462 413.211 256.787 413.248C257.103 413.283 257.419 413.32 257.734 413.358L257.854 412.365C258.49 412.442 259.126 412.524 259.761 412.611L259.625 413.602C260.255 413.688 260.884 413.78 261.512 413.876L261.664 412.888C262.297 412.985 262.93 413.087 263.562 413.195L263.394 414.181C264.021 414.287 264.647 414.399 265.271 414.515L265.455 413.532C266.085 413.65 266.714 413.772 267.342 413.9L267.143 414.88C267.766 415.006 268.388 415.138 269.009 415.274L269.223 414.298C269.849 414.435 270.474 414.578 271.098 414.726L270.867 415.699C271.486 415.845 272.103 415.996 272.719 416.153L272.965 415.183C273.587 415.341 274.207 415.504 274.825 415.671L274.564 416.636C275.177 416.803 275.789 416.974 276.4 417.15L276.677 416.189C277.293 416.366 277.907 416.548 278.52 416.736L278.228 417.692C278.836 417.878 279.442 418.068 280.047 418.264L280.355 417.312C280.964 417.509 281.573 417.711 282.179 417.918L281.857 418.865C282.458 419.07 283.058 419.28 283.656 419.494L283.994 418.553C284.597 418.77 285.199 418.991 285.799 419.217L285.446 420.153C286.04 420.377 286.633 420.606 287.224 420.84L287.592 419.91C288.188 420.146 288.782 420.386 289.375 420.632L288.992 421.555C289.579 421.799 290.164 422.047 290.748 422.299L291.145 421.382C291.733 421.636 292.319 421.896 292.903 422.16L292.491 423.071C293.07 423.333 293.647 423.599 294.222 423.871L294.649 422.966C295.228 423.239 295.806 423.517 296.381 423.8L295.94 424.698C296.51 424.978 297.079 425.263 297.645 425.552L298.1 424.662C298.67 424.954 299.239 425.25 299.805 425.551L299.335 426.434C299.616 426.583 299.896 426.734 300.175 426.885C300.463 427.041 300.75 427.199 301.036 427.358L301.523 426.485C302.101 426.807 302.675 427.136 303.248 427.471L302.741 428.334C303.305 428.665 303.866 429.002 304.425 429.348L304.95 428.497C305.512 428.843 306.071 429.198 306.63 429.559L306.086 430.399C306.633 430.753 307.179 431.115 307.725 431.485L308.286 430.658C308.831 431.027 309.375 431.404 309.92 431.79L309.342 432.606C309.873 432.982 310.405 433.366 310.937 433.758L311.531 432.953C312.06 433.343 312.589 433.741 313.12 434.147L312.512 434.941C313.029 435.336 313.547 435.74 314.067 436.151L314.688 435.367C315.202 435.775 315.718 436.19 316.236 436.613L315.603 437.387C316.107 437.799 316.613 438.219 317.121 438.647L317.765 437.882C318.267 438.304 318.77 438.734 319.277 439.172L318.622 439.928C319.115 440.354 319.61 440.788 320.108 441.23L320.772 440.481C321.262 440.916 321.756 441.359 322.252 441.809L321.581 442.55C322.064 442.988 322.55 443.433 323.04 443.886L323.719 443.152C324.201 443.598 324.686 444.051 325.175 444.512L324.489 445.24C324.963 445.686 325.44 446.14 325.921 446.601L326.613 445.879C327.085 446.331 327.561 446.79 328.041 447.257L327.343 447.974C327.811 448.429 328.282 448.89 328.758 449.359L329.46 448.647C329.927 449.108 330.398 449.575 330.873 450.049L330.166 450.757C330.63 451.22 331.097 451.689 331.569 452.165L332.279 451.461C332.739 451.925 333.202 452.395 333.67 452.872L332.956 453.572C333.413 454.038 333.875 454.511 334.341 454.99L335.057 454.292C335.516 454.764 335.978 455.241 336.444 455.724L335.724 456.418C336.178 456.889 336.636 457.365 337.099 457.848L337.821 457.156C338.273 457.628 338.73 458.106 339.19 458.59L338.466 459.28C338.919 459.755 339.375 460.236 339.836 460.723L340.562 460.035C341.013 460.511 341.468 460.993 341.927 461.48L341.199 462.166C341.647 462.641 342.099 463.122 342.555 463.609L343.285 462.925C343.735 463.405 344.19 463.891 344.649 464.382L343.918 465.065C344.365 465.542 344.814 466.024 345.268 466.512L346 465.83C346.448 466.31 346.899 466.796 347.354 467.286L346.621 467.966C347.069 468.448 347.52 468.935 347.976 469.427L348.709 468.747C349.154 469.227 349.602 469.711 350.054 470.2L349.32 470.879C349.768 471.364 350.22 471.853 350.676 472.347L351.411 471.669C351.854 472.149 352.3 472.633 352.751 473.121L352.015 473.799C352.462 474.284 352.912 474.772 353.366 475.266L354.102 474.589C354.546 475.071 354.993 475.557 355.444 476.047L354.708 476.724C355.153 477.208 355.602 477.697 356.055 478.189L356.791 477.513C357.235 477.996 357.683 478.484 358.134 478.975L357.398 479.652L358.743 481.116L359.479 480.44C359.924 480.924 360.372 481.412 360.823 481.904L360.087 482.58L360.767 483.321L361.447 484.062L362.183 483.385C362.635 483.877 363.083 484.365 363.527 484.849L362.791 485.526L364.135 486.991L364.872 486.315C365.323 486.806 365.77 487.294 366.214 487.778L365.477 488.454C365.929 488.947 366.378 489.436 366.822 489.921L367.559 489.245C368.009 489.737 368.456 490.224 368.898 490.707L368.16 491.382C368.613 491.877 369.062 492.367 369.507 492.853L370.245 492.178C370.693 492.669 371.137 493.155 371.577 493.637L370.839 494.311C371.292 494.808 371.741 495.3 372.186 495.788L372.925 495.114C373.374 495.607 373.818 496.095 374.258 496.578L373.518 497.251C373.969 497.747 374.415 498.238 374.857 498.726L375.598 498.054C376.048 498.549 376.492 499.04 376.933 499.527L376.191 500.198C376.638 500.692 377.08 501.181 377.518 501.666L378.26 500.997C378.71 501.496 379.155 501.99 379.596 502.48L378.852 503.149C379.298 503.645 379.738 504.136 380.174 504.624L380.919 503.957C381.365 504.456 381.806 504.95 382.242 505.44L381.495 506.105C381.941 506.605 382.381 507.101 382.816 507.593L383.565 506.93C384.008 507.43 384.445 507.926 384.877 508.417L384.126 509.077C384.567 509.579 385.003 510.076 385.433 510.569L386.186 509.911C386.628 510.417 387.064 510.918 387.494 511.415L386.738 512.069C387.176 512.574 387.607 513.074 388.033 513.57L388.791 512.919C389.226 513.425 389.655 513.927 390.078 514.424L389.316 515.072C389.75 515.583 390.178 516.088 390.599 516.59L391.365 515.946C391.796 516.46 392.222 516.969 392.641 517.474L391.871 518.113C392.298 518.626 392.718 519.135 393.131 519.64L393.905 519.007C394.329 519.524 394.746 520.037 395.156 520.546L394.378 521.174C394.796 521.693 395.207 522.207 395.612 522.717L396.395 522.096C396.812 522.622 397.222 523.144 397.625 523.662L396.836 524.276C397.246 524.803 397.648 525.326 398.043 525.845L398.839 525.239C399.245 525.772 399.644 526.301 400.035 526.827L399.233 527.424C399.63 527.958 400.02 528.489 400.402 529.016L401.212 528.429C401.605 528.971 401.99 529.509 402.368 530.045L401.551 530.621C401.934 531.164 402.309 531.704 402.676 532.241L403.502 531.677C403.879 532.229 404.249 532.778 404.611 533.326L403.777 533.877C404.142 534.43 404.5 534.981 404.85 535.53L405.693 534.992C406.052 535.555 406.403 536.117 406.746 536.677L405.894 537.2C406.239 537.764 406.576 538.326 406.906 538.888L407.768 538.382C408.106 538.957 408.435 539.532 408.757 540.106L407.884 540.595C408.206 541.17 408.521 541.745 408.827 542.321L409.71 541.85C410.022 542.438 410.327 543.025 410.625 543.615L409.732 544.065C410.029 544.652 410.317 545.24 410.599 545.829L411.501 545.398C411.787 545.997 412.066 546.598 412.337 547.201L411.425 547.612C411.559 547.91 411.692 548.209 411.823 548.51C411.95 548.801 412.076 549.093 412.201 549.385L413.12 548.992C413.372 549.582 413.619 550.174 413.861 550.767L412.935 551.145C413.175 551.733 413.41 552.324 413.641 552.916L414.573 552.553C414.805 553.151 415.033 553.75 415.256 554.35L414.318 554.698C414.539 555.294 414.756 555.892 414.967 556.491L415.91 556.158C416.124 556.763 416.332 557.369 416.536 557.977L415.587 558.294C415.789 558.897 415.986 559.501 416.178 560.107L417.132 559.805C417.325 560.416 417.514 561.028 417.698 561.642L416.74 561.929C416.923 562.538 417.1 563.148 417.273 563.76L418.235 563.488C418.41 564.105 418.579 564.723 418.743 565.343L417.776 565.599C417.939 566.213 418.097 566.829 418.25 567.446L419.221 567.205C419.375 567.827 419.524 568.451 419.669 569.075L418.694 569.3C418.837 569.92 418.975 570.54 419.109 571.161L420.086 570.952C420.221 571.579 420.35 572.206 420.474 572.835L419.493 573.029C419.616 573.653 419.734 574.277 419.848 574.903L420.832 574.724C420.946 575.355 421.055 575.987 421.159 576.619L420.172 576.781C420.275 577.409 420.373 578.037 420.466 578.665L421.456 578.519C421.549 579.153 421.638 579.788 421.722 580.423L420.73 580.554C420.813 581.184 420.891 581.815 420.964 582.446L421.958 582.331C422.031 582.968 422.099 583.605 422.163 584.243L421.168 584.342C421.23 584.974 421.288 585.607 421.341 586.241L422.337 586.158C422.39 586.797 422.438 587.436 422.481 588.075L421.483 588.142C421.526 588.776 421.563 589.411 421.595 590.046L422.594 589.995C422.627 590.635 422.654 591.275 422.676 591.916L421.677 591.951C421.688 592.268 421.698 592.586 421.706 592.904C421.715 593.231 421.722 593.558 421.727 593.886L422.727 593.87C422.737 594.532 422.74 595.194 422.735 595.858L421.735 595.85C421.73 596.504 421.718 597.158 421.699 597.815L422.698 597.845C422.679 598.504 422.652 599.166 422.618 599.83L421.619 599.779C421.586 600.43 421.545 601.084 421.497 601.742L422.495 601.814C422.447 602.471 422.393 603.131 422.331 603.795L421.335 603.702C421.275 604.351 421.209 605.004 421.135 605.661L422.129 605.772C422.056 606.425 421.976 607.082 421.89 607.745L420.898 607.616C420.814 608.261 420.724 608.912 420.628 609.568L421.617 609.713C421.521 610.362 421.42 611.017 421.312 611.677L420.325 611.516C420.22 612.158 420.11 612.806 419.993 613.46L420.978 613.635C420.863 614.281 420.742 614.932 420.616 615.589L419.634 615.401C419.512 616.041 419.384 616.686 419.25 617.339L420.23 617.539C420.099 618.181 419.962 618.83 419.821 619.485L418.843 619.273C418.706 619.911 418.563 620.555 418.415 621.206L419.391 621.427C419.246 622.067 419.096 622.714 418.941 623.367L417.968 623.137C417.818 623.771 417.664 624.411 417.505 625.058L418.477 625.296C418.321 625.931 418.161 626.573 417.997 627.222L417.027 626.976C416.867 627.609 416.703 628.248 416.535 628.894L417.502 629.146C417.337 629.781 417.168 630.422 416.995 631.071L416.029 630.813C415.86 631.445 415.687 632.085 415.51 632.731L416.475 632.995C416.303 633.625 416.128 634.261 415.949 634.904L414.985 634.636C414.81 635.265 414.632 635.901 414.45 636.544L415.412 636.816C415.233 637.449 415.051 638.087 414.866 638.733L413.905 638.457C413.724 639.085 413.54 639.72 413.354 640.362L414.314 640.641C414.131 641.269 413.945 641.903 413.757 642.544L412.797 642.261C412.612 642.891 412.424 643.527 412.233 644.17L413.191 644.455C413.004 645.083 412.815 645.718 412.622 646.359L411.664 646.071C411.476 646.697 411.286 647.329 411.093 647.968L412.05 648.257C411.859 648.888 411.666 649.525 411.47 650.168L410.514 649.876C410.323 650.501 410.131 651.132 409.936 651.769L410.892 652.062C410.699 652.689 410.505 653.323 410.308 653.962L409.352 653.668C409.159 654.296 408.963 654.931 408.765 655.571L409.72 655.866C409.527 656.491 409.332 657.122 409.134 657.758L408.179 657.461C407.983 658.092 407.786 658.728 407.586 659.37L408.541 659.667C408.346 660.29 408.15 660.919 407.952 661.553L406.998 661.255C406.801 661.884 406.603 662.519 406.403 663.159L407.357 663.457C407.162 664.082 406.964 664.713 406.765 665.349L405.811 665.05C405.614 665.677 405.416 666.31 405.215 666.949L406.17 667.248C405.973 667.875 405.775 668.506 405.575 669.143L404.621 668.843L404.025 670.74L404.979 671.04Z" stroke="url(#paint5_linear_282_4)" stroke-width="2" stroke-dasharray="2 2"/>
<path opacity="0.1" d="M1999.38 483.575C1999.52 484.223 1999.67 484.876 1999.81 485.532L1998.83 485.747L1999.05 486.735L1999.27 487.723L2000.24 487.509C2000.39 488.166 2000.53 488.818 2000.67 489.466L1999.69 489.68L2000.12 491.62L2001.1 491.406C2001.24 492.066 2001.39 492.721 2001.53 493.372L2000.55 493.586L2000.98 495.525L2001.95 495.312C2002.1 495.971 2002.24 496.626 2002.38 497.277L2001.4 497.49C2001.55 498.143 2001.69 498.791 2001.83 499.435L2002.81 499.222C2002.95 499.88 2003.09 500.533 2003.23 501.181L2002.25 501.393C2002.4 502.048 2002.54 502.698 2002.68 503.344L2003.65 503.132C2003.8 503.788 2003.94 504.439 2004.08 505.086L2003.1 505.297C2003.24 505.953 2003.38 506.604 2003.52 507.251L2004.5 507.041C2004.64 507.696 2004.78 508.347 2004.92 508.993L2003.94 509.202C2004.08 509.859 2004.22 510.511 2004.36 511.158L2005.33 510.95C2005.47 511.606 2005.61 512.257 2005.75 512.903L2004.77 513.11C2004.91 513.767 2005.05 514.419 2005.18 515.066L2006.16 514.861C2006.3 515.518 2006.44 516.17 2006.57 516.816L2005.59 517.02C2005.73 517.677 2005.86 518.329 2006 518.975L2006.98 518.773C2007.11 519.432 2007.25 520.085 2007.38 520.733L2006.4 520.933C2006.53 521.589 2006.66 522.24 2006.79 522.885L2007.77 522.687C2007.91 523.348 2008.04 524.003 2008.17 524.653L2007.19 524.848C2007.32 525.503 2007.45 526.152 2007.57 526.795L2008.55 526.602C2008.68 527.266 2008.81 527.924 2008.94 528.576L2007.96 528.766C2008.08 529.422 2008.21 530.073 2008.33 530.719L2009.31 530.533C2009.44 531.194 2009.56 531.85 2009.68 532.501L2008.7 532.683C2008.82 533.344 2008.94 533.998 2009.06 534.647L2010.04 534.468C2010.16 535.127 2010.28 535.779 2010.39 536.426L2009.41 536.6C2009.53 537.264 2009.64 537.922 2009.75 538.574L2010.74 538.405C2010.85 539.067 2010.96 539.723 2011.07 540.373L2010.08 540.537C2010.19 541.197 2010.3 541.852 2010.4 542.5L2011.39 542.342C2011.5 543.008 2011.6 543.668 2011.7 544.323L2010.71 544.475C2010.82 545.136 2010.91 545.792 2011.01 546.442L2012 546.297C2012.1 546.961 2012.19 547.619 2012.28 548.271L2011.29 548.408C2011.38 549.074 2011.47 549.733 2011.55 550.387L2012.55 550.258C2012.63 550.925 2012.72 551.586 2012.8 552.241L2011.8 552.361C2011.88 553.024 2011.96 553.681 2012.03 554.332L2013.02 554.222C2013.1 554.89 2013.17 555.553 2013.23 556.211L2012.24 556.31C2012.31 556.977 2012.37 557.637 2012.43 558.292L2013.42 558.204C2013.48 558.873 2013.54 559.537 2013.59 560.195L2012.59 560.272C2012.64 560.936 2012.69 561.596 2012.73 562.25L2013.73 562.187C2013.77 562.856 2013.81 563.52 2013.84 564.179L2012.84 564.228C2012.87 564.895 2012.9 565.557 2012.92 566.214L2013.92 566.18C2013.94 566.851 2013.96 567.517 2013.97 568.179L2012.97 568.197C2012.99 568.862 2012.99 569.523 2012.99 570.179L2013.99 570.177C2014 570.847 2013.99 571.513 2013.98 572.175L2012.98 572.159C2012.97 572.822 2012.95 573.482 2012.93 574.137L2013.93 574.172C2013.91 574.84 2013.88 575.505 2013.84 576.168L2012.84 576.114C2012.81 576.776 2012.77 577.434 2012.72 578.09L2013.71 578.163C2013.67 578.829 2013.61 579.493 2013.55 580.155L2012.55 580.062C2012.49 580.72 2012.42 581.376 2012.35 582.03L2013.34 582.143C2013.27 582.806 2013.18 583.467 2013.1 584.126L2012.1 583.992C2012.06 584.319 2012.01 584.645 2011.97 584.972C2011.92 585.292 2011.87 585.612 2011.82 585.931L2012.81 586.083C2012.71 586.727 2012.61 587.371 2012.5 588.013L2011.51 587.847C2011.41 588.485 2011.3 589.122 2011.18 589.758L2012.16 589.939C2012.04 590.58 2011.92 591.22 2011.79 591.859L2010.81 591.664C2010.69 592.298 2010.56 592.932 2010.42 593.564L2011.4 593.774C2011.26 594.411 2011.12 595.047 2010.97 595.682L2010 595.458C2009.85 596.089 2009.7 596.718 2009.55 597.346L2010.52 597.585C2010.37 598.218 2010.2 598.849 2010.04 599.48L2009.07 599.227C2008.91 599.852 2008.74 600.477 2008.57 601.1L2009.53 601.368C2009.36 601.996 2009.18 602.622 2008.99 603.248L2008.03 602.966C2007.85 603.587 2007.67 604.206 2007.47 604.824L2008.43 605.12C2008.24 605.742 2008.04 606.363 2007.84 606.983L2006.89 606.673C2006.69 607.288 2006.48 607.902 2006.27 608.514L2007.22 608.838C2007.01 609.454 2006.79 610.069 2006.57 610.683L2005.63 610.345C2005.41 610.953 2005.19 611.561 2004.96 612.166L2005.9 612.518C2005.67 613.128 2005.43 613.736 2005.2 614.343L2004.26 613.977C2004.03 614.579 2003.79 615.18 2003.54 615.778L2004.47 616.158C2004.22 616.76 2003.97 617.362 2003.71 617.961L2002.79 617.568C2002.54 618.163 2002.28 618.755 2002.02 619.346L2002.93 619.753C2002.66 620.348 2002.4 620.942 2002.12 621.533L2001.21 621.113C2000.94 621.7 2000.67 622.285 2000.39 622.868L2001.29 623.302C2001 623.889 2000.72 624.474 2000.43 625.057L1999.53 624.61C1999.39 624.9 1999.24 625.189 1999.09 625.477C1998.95 625.771 1998.79 626.064 1998.64 626.356L1999.53 626.819C1999.22 627.409 1998.91 627.996 1998.59 628.581L1997.71 628.1C1997.39 628.677 1997.07 629.252 1996.74 629.824L1997.61 630.323C1997.27 630.899 1996.94 631.473 1996.59 632.046L1995.74 631.53C1995.4 632.093 1995.05 632.655 1994.7 633.215L1995.54 633.748C1995.19 634.309 1994.83 634.869 1994.46 635.428L1993.63 634.879C1993.27 635.428 1992.9 635.976 1992.53 636.524L1993.35 637.088C1992.98 637.635 1992.6 638.181 1992.21 638.727L1991.39 638.149C1991.01 638.684 1990.63 639.22 1990.23 639.756L1991.04 640.348C1990.65 640.882 1990.25 641.415 1989.84 641.95L1989.05 641.346C1988.65 641.869 1988.24 642.393 1987.83 642.919L1988.62 643.536C1988.21 644.055 1987.8 644.576 1987.38 645.098L1986.6 644.47C1986.19 644.981 1985.77 645.492 1985.35 646.006L1986.12 646.644C1985.69 647.152 1985.27 647.663 1984.83 648.175L1984.07 647.528C1983.64 648.029 1983.21 648.532 1982.77 649.038L1983.53 649.694C1983.09 650.192 1982.65 650.693 1982.21 651.197L1981.46 650.533C1981.03 651.023 1980.58 651.515 1980.14 652.01L1980.88 652.681C1980.43 653.171 1979.98 653.662 1979.53 654.157L1978.79 653.479C1978.35 653.964 1977.89 654.451 1977.43 654.942L1978.16 655.626C1977.71 656.106 1977.26 656.589 1976.79 657.075L1976.07 656.386C1975.62 656.861 1975.16 657.34 1974.69 657.822L1975.41 658.516C1974.95 658.993 1974.49 659.472 1974.02 659.954L1973.3 659.255C1972.84 659.725 1972.38 660.197 1971.91 660.673L1972.62 661.377C1972.15 661.845 1971.68 662.317 1971.21 662.792L1970.5 662.085C1970.04 662.552 1969.56 663.023 1969.08 663.498L1969.79 664.208C1969.32 664.671 1968.85 665.136 1968.37 665.605L1967.67 664.891C1967.2 665.353 1966.72 665.818 1966.24 666.286L1966.94 667.003C1966.46 667.464 1965.99 667.929 1965.5 668.397L1964.81 667.677C1964.33 668.134 1963.86 668.594 1963.37 669.057L1964.07 669.778C1963.59 670.238 1963.1 670.701 1962.61 671.168L1961.92 670.444C1961.45 670.897 1960.97 671.352 1960.48 671.812L1961.17 672.537C1960.69 672.993 1960.21 673.452 1959.72 673.915L1959.03 673.188C1958.55 673.639 1958.07 674.094 1957.58 674.553L1958.26 675.282C1957.78 675.734 1957.3 676.19 1956.8 676.65L1956.12 675.92C1955.64 676.37 1955.15 676.825 1954.66 677.282L1955.34 678.014C1954.86 678.464 1954.37 678.918 1953.88 679.374L1953.2 678.642C1952.72 679.092 1952.23 679.545 1951.73 680.002L1952.41 680.735C1951.93 681.184 1951.44 681.636 1950.95 682.091L1950.27 681.356C1949.78 681.805 1949.29 682.257 1948.8 682.713L1949.48 683.448C1948.99 683.896 1948.5 684.346 1948.01 684.8L1947.33 684.064C1946.85 684.512 1946.36 684.963 1945.86 685.417L1946.54 686.154C1946.05 686.601 1945.56 687.051 1945.06 687.505L1944.39 686.768C1943.9 687.214 1943.41 687.664 1942.92 688.117L1943.59 688.854C1943.1 689.302 1942.61 689.753 1942.11 690.207L1941.44 689.469C1940.95 689.914 1940.46 690.362 1939.97 690.813L1940.64 691.551C1940.15 692 1939.66 692.452 1939.16 692.908L1938.48 692.169L1937.02 693.508L1937.69 694.246C1937.2 694.696 1936.71 695.148 1936.21 695.603L1935.53 694.865L1934.07 696.203L1934.74 696.942C1934.25 697.389 1933.76 697.839 1933.26 698.292L1932.59 697.553L1931.84 698.235L1931.09 698.917L1931.76 699.656C1931.27 700.109 1930.77 700.559 1930.28 701.006L1929.61 700.267L1928.14 701.606L1928.82 702.345C1928.32 702.8 1927.82 703.252 1927.33 703.701L1926.66 702.961L1925.19 704.298L1925.86 705.038C1925.36 705.492 1924.87 705.944 1924.37 706.392L1923.7 705.652C1923.21 706.102 1922.72 706.549 1922.23 706.993L1922.9 707.732C1922.4 708.185 1921.91 708.634 1921.42 709.08L1920.75 708.34C1920.25 708.791 1919.76 709.238 1919.27 709.682L1919.94 710.423C1919.44 710.874 1918.95 711.321 1918.46 711.765L1917.79 711.024C1917.29 711.475 1916.8 711.922 1916.31 712.366L1916.98 713.108C1916.48 713.557 1915.99 714.004 1915.5 714.446L1914.83 713.704C1914.33 714.154 1913.83 714.601 1913.34 715.043L1914.01 715.786C1913.51 716.235 1913.02 716.68 1912.53 717.121L1911.86 716.377C1911.36 716.826 1910.86 717.272 1910.37 717.713L1911.04 718.457C1910.54 718.905 1910.04 719.349 1909.55 719.789L1908.88 719.043C1908.38 719.49 1907.88 719.933 1907.39 720.371L1908.05 721.119C1907.55 721.566 1907.05 722.008 1906.56 722.447L1905.9 721.698C1905.39 722.142 1904.9 722.582 1904.4 723.017L1905.06 723.767C1904.56 724.213 1904.06 724.655 1903.56 725.092L1902.9 724.34C1902.4 724.78 1901.9 725.215 1901.41 725.646L1902.06 726.4C1901.55 726.845 1901.05 727.284 1900.55 727.72L1899.89 726.964C1899.39 727.402 1898.88 727.836 1898.39 728.264L1899.04 729.022C1898.53 729.462 1898.02 729.896 1897.52 730.326L1896.87 729.566C1896.36 730.002 1895.85 730.433 1895.35 730.86L1896 731.622C1895.49 732.055 1894.98 732.483 1894.48 732.905L1893.83 732.14C1893.32 732.573 1892.8 733.001 1892.3 733.424L1892.93 734.193C1892.42 734.623 1891.91 735.047 1891.4 735.465L1890.76 734.693C1890.24 735.118 1889.73 735.538 1889.22 735.952L1889.85 736.728C1889.33 737.154 1888.81 737.573 1888.29 737.987L1887.67 737.207C1887.14 737.626 1886.63 738.039 1886.11 738.446L1886.73 739.231C1886.2 739.647 1885.68 740.057 1885.16 740.461L1884.55 739.672C1884.02 740.085 1883.49 740.491 1882.97 740.892L1883.57 741.686C1883.04 742.095 1882.51 742.497 1881.98 742.893L1881.38 742.093C1880.85 742.494 1880.32 742.888 1879.79 743.276L1880.38 744.082C1879.84 744.481 1879.3 744.873 1878.76 745.258L1878.18 744.447C1877.64 744.838 1877.09 745.222 1876.56 745.6L1877.13 746.418C1876.58 746.804 1876.03 747.184 1875.49 747.556L1874.92 746.731C1874.37 747.107 1873.83 747.477 1873.28 747.84L1873.83 748.672C1873.28 749.044 1872.72 749.408 1872.16 749.766L1871.62 748.925C1871.06 749.287 1870.5 749.642 1869.94 749.989L1870.47 750.838C1869.9 751.193 1869.34 751.542 1868.77 751.883L1868.25 751.026C1867.68 751.369 1867.11 751.705 1866.55 752.034L1867.05 752.899C1866.47 753.235 1865.89 753.564 1865.31 753.886L1864.82 753.012C1864.24 753.334 1863.66 753.649 1863.09 753.958L1863.56 754.84C1862.96 755.155 1862.37 755.462 1861.78 755.762L1861.33 754.871C1860.74 755.171 1860.15 755.464 1859.56 755.75L1859.99 756.65C1859.39 756.941 1858.79 757.225 1858.18 757.503L1857.77 756.594C1857.17 756.87 1856.56 757.138 1855.96 757.401L1856.36 758.318C1855.75 758.584 1855.13 758.843 1854.52 759.095L1854.14 758.17C1853.83 758.295 1853.53 758.419 1853.22 758.541C1852.92 758.66 1852.62 758.779 1852.32 758.896L1852.68 759.828C1852.07 760.065 1851.46 760.297 1850.85 760.524L1850.51 759.587C1849.9 759.813 1849.29 760.034 1848.68 760.251L1849.02 761.193C1848.4 761.412 1847.79 761.626 1847.17 761.835L1846.85 760.888C1846.24 761.096 1845.62 761.299 1845.01 761.497L1845.31 762.449C1844.69 762.649 1844.07 762.845 1843.45 763.036L1843.16 762.08C1842.54 762.269 1841.92 762.454 1841.3 762.635L1841.58 763.595C1840.95 763.777 1840.32 763.954 1839.69 764.126L1839.43 763.162C1838.81 763.333 1838.18 763.499 1837.55 763.661L1837.8 764.629C1837.17 764.793 1836.54 764.951 1835.91 765.105L1835.67 764.133C1835.04 764.286 1834.41 764.433 1833.78 764.577L1834 765.552C1833.37 765.696 1832.73 765.836 1832.09 765.971L1831.89 764.992C1831.25 765.126 1830.62 765.255 1829.99 765.38L1830.18 766.361C1829.54 766.487 1828.9 766.607 1828.26 766.723L1828.08 765.739C1827.44 765.854 1826.81 765.965 1826.17 766.07L1826.33 767.057C1825.69 767.163 1825.04 767.265 1824.4 767.362L1824.25 766.373C1823.61 766.469 1822.97 766.561 1822.33 766.648L1822.46 767.639C1821.82 767.726 1821.17 767.808 1820.52 767.886L1820.4 766.893C1819.76 766.971 1819.12 767.043 1818.48 767.111L1818.58 768.105C1817.93 768.173 1817.28 768.237 1816.64 768.295L1816.55 767.299C1815.9 767.357 1815.26 767.411 1814.61 767.459L1814.69 768.457C1814.04 768.506 1813.39 768.55 1812.74 768.589L1812.68 767.591C1812.35 767.61 1812.03 767.629 1811.71 767.646C1811.38 767.663 1811.05 767.679 1810.72 767.693L1810.76 768.692C1810.1 768.721 1809.43 768.742 1808.76 768.757L1808.74 767.757C1808.08 767.771 1807.42 767.779 1806.76 767.78L1806.77 768.78C1806.1 768.781 1805.43 768.775 1804.77 768.763L1804.79 767.763C1804.13 767.751 1803.47 767.732 1802.81 767.707L1802.77 768.706C1802.11 768.68 1801.44 768.649 1800.77 768.61L1800.83 767.612C1800.17 767.574 1799.52 767.53 1798.86 767.48L1798.78 768.477C1798.12 768.427 1797.46 768.371 1796.79 768.309L1796.88 767.313C1796.23 767.252 1795.57 767.185 1794.91 767.112L1794.8 768.106C1794.14 768.033 1793.48 767.955 1792.81 767.871L1792.94 766.879C1792.29 766.796 1791.63 766.708 1790.97 766.614L1790.83 767.604C1790.18 767.512 1789.52 767.414 1788.86 767.31L1789.01 766.322C1788.36 766.221 1787.71 766.115 1787.05 766.003L1786.89 766.989C1786.24 766.879 1785.58 766.763 1784.92 766.643L1785.1 765.659C1784.45 765.541 1783.8 765.419 1783.14 765.291L1782.95 766.273C1782.3 766.147 1781.65 766.016 1780.99 765.881L1781.19 764.902C1780.55 764.77 1779.9 764.634 1779.25 764.493L1779.04 765.471C1778.39 765.332 1777.74 765.189 1777.09 765.042L1777.31 764.066C1776.66 763.921 1776.01 763.773 1775.36 763.62L1775.13 764.594C1774.49 764.444 1773.84 764.29 1773.19 764.133L1773.43 763.161C1772.79 763.007 1772.14 762.849 1771.49 762.687L1771.25 763.657C1770.61 763.497 1769.96 763.334 1769.31 763.166L1769.56 762.198C1769.37 762.151 1769.19 762.104 1769.01 762.056C1768.55 761.939 1768.09 761.82 1767.63 761.699L1767.38 762.666C1766.74 762.499 1766.1 762.328 1765.45 762.154L1765.71 761.189C1765.07 761.017 1764.42 760.843 1763.77 760.665L1763.51 761.63C1762.88 761.456 1762.24 761.28 1761.59 761.101L1761.86 760.137C1761.22 759.961 1760.58 759.781 1759.94 759.599L1759.67 760.561C1759.03 760.381 1758.39 760.198 1757.74 760.013L1758.02 759.051C1757.38 758.87 1756.75 758.687 1756.1 758.5L1755.83 759.461C1755.19 759.275 1754.54 759.088 1753.9 758.897L1754.18 757.938C1753.55 757.753 1752.91 757.566 1752.27 757.376L1751.99 758.335C1751.36 758.146 1750.71 757.955 1750.07 757.762L1750.36 756.804C1749.72 756.615 1749.09 756.424 1748.45 756.231L1748.16 757.188C1747.53 756.997 1746.89 756.804 1746.24 756.608L1746.54 755.651C1745.9 755.459 1745.27 755.265 1744.63 755.069L1744.33 756.025C1743.7 755.832 1743.06 755.636 1742.42 755.439L1742.72 754.483C1742.09 754.289 1741.45 754.092 1740.81 753.893L1740.51 754.849C1739.88 754.654 1739.25 754.456 1738.6 754.257L1738.9 753.302C1738.27 753.106 1737.63 752.908 1736.99 752.708L1736.69 753.662C1736.06 753.465 1735.43 753.267 1734.79 753.067L1735.09 752.112C1734.46 751.915 1733.82 751.715 1733.18 751.514L1732.88 752.468C1732.25 752.27 1731.61 752.07 1730.97 751.868L1731.27 750.914C1730.64 750.716 1730.01 750.516 1729.37 750.314L1729.07 751.268C1728.44 751.068 1727.8 750.867 1727.16 750.664L1727.46 749.711L1726.59 749.434L1725.56 749.11L1725.26 750.063C1724.62 749.862 1723.99 749.66 1723.34 749.456L1723.64 748.502L1721.75 747.902L1721.45 748.855C1720.81 748.654 1720.18 748.451 1719.53 748.246L1719.83 747.293L1717.94 746.692L1717.64 747.645C1717.01 747.444 1716.37 747.242 1715.73 747.038L1716.03 746.085L1715.07 745.779L1714.1 745.472L1713.8 746.425C1713.16 746.222 1712.52 746.02 1711.89 745.819L1712.19 744.866L1710.3 744.264L1710 745.217C1709.35 745.012 1708.71 744.809 1708.08 744.607L1708.38 743.654L1706.49 743.052L1706.19 744.005C1705.55 743.8 1704.91 743.596 1704.27 743.394L1704.58 742.441C1703.94 742.238 1703.31 742.036 1702.68 741.836L1702.37 742.788C1701.73 742.584 1701.1 742.38 1700.47 742.178L1700.77 741.226C1700.13 741.022 1699.5 740.819 1698.87 740.617L1698.56 741.569C1697.93 741.364 1697.29 741.161 1696.66 740.958L1696.97 740.006C1696.33 739.801 1695.69 739.596 1695.06 739.394L1694.76 740.345C1694.12 740.14 1693.49 739.935 1692.86 739.732L1693.17 738.78L1692.49 738.561C1692.08 738.428 1691.67 738.295 1691.26 738.164L1690.95 739.115C1690.32 738.907 1689.68 738.702 1689.06 738.497L1689.37 737.546C1688.73 737.338 1688.09 737.131 1687.47 736.925L1687.15 737.875C1686.52 737.666 1685.88 737.458 1685.26 737.251L1685.57 736.301C1685.14 736.161 1684.72 736.02 1684.29 735.881C1684.09 735.812 1683.88 735.743 1683.67 735.675L1683.36 736.624C1682.72 736.412 1682.09 736.202 1681.46 735.992L1681.78 735.044C1681.14 734.832 1680.51 734.621 1679.89 734.411L1679.57 735.359C1678.93 735.144 1678.3 734.93 1677.67 734.717L1677.99 733.77C1677.36 733.556 1676.73 733.342 1676.11 733.13L1675.79 734.076C1675.15 733.857 1674.52 733.639 1673.89 733.422L1674.21 732.477C1673.58 732.258 1672.96 732.041 1672.34 731.824L1672.01 732.768C1671.37 732.546 1670.74 732.324 1670.12 732.104L1670.45 731.161C1669.82 730.937 1669.19 730.714 1668.57 730.491L1668.23 731.433C1667.6 731.207 1666.98 730.982 1666.36 730.757L1666.7 729.818C1666.07 729.587 1665.44 729.358 1664.82 729.129L1664.48 730.067C1663.85 729.834 1663.22 729.602 1662.6 729.371L1662.96 728.434C1662.33 728.199 1661.71 727.965 1661.1 727.73L1660.74 728.665C1660.11 728.424 1659.49 728.183 1658.87 727.943L1659.23 727.011C1658.61 726.768 1657.99 726.526 1657.38 726.283L1657.01 727.212C1656.39 726.965 1655.77 726.717 1655.16 726.469L1655.54 725.543C1654.91 725.289 1654.3 725.036 1653.69 724.783L1653.31 725.706C1652.69 725.448 1652.07 725.189 1651.46 724.93L1651.86 724.011C1651.24 723.749 1650.64 723.486 1650.04 723.223L1649.63 724.139C1649.02 723.869 1648.41 723.598 1647.81 723.326L1648.22 722.415C1647.61 722.139 1647 721.863 1646.41 721.586L1645.99 722.493C1645.38 722.21 1644.77 721.925 1644.18 721.64L1644.61 720.738C1644.01 720.45 1643.42 720.16 1642.83 719.869L1642.39 720.764C1641.78 720.466 1641.19 720.167 1640.6 719.865L1641.06 718.976C1640.47 718.67 1639.88 718.363 1639.3 718.054L1638.83 718.937C1638.24 718.621 1637.65 718.303 1637.07 717.983L1637.56 717.108C1636.97 716.786 1636.4 716.461 1635.83 716.134L1635.33 717C1634.75 716.666 1634.18 716.329 1633.61 715.989L1634.12 715.131C1633.55 714.79 1632.99 714.446 1632.43 714.099L1631.9 714.947C1631.34 714.593 1630.78 714.235 1630.22 713.873L1630.77 713.035C1630.21 712.674 1629.66 712.308 1629.12 711.939L1628.56 712.766C1628 712.39 1627.46 712.011 1626.91 711.626L1627.49 710.81C1626.95 710.428 1626.42 710.041 1625.89 709.65L1625.29 710.453C1624.76 710.056 1624.23 709.655 1623.7 709.248L1624.31 708.456C1624.24 708.4 1624.17 708.344 1624.1 708.288C1623.91 708.142 1623.72 707.995 1623.53 707.848C1623.28 707.647 1623.03 707.446 1622.77 707.243L1622.15 708.024C1621.64 707.616 1621.13 707.204 1620.63 706.789L1621.27 706.019C1621.07 705.851 1620.86 705.682 1620.66 705.513C1620.37 705.267 1620.07 705.02 1619.78 704.771L1619.13 705.533C1618.64 705.11 1618.14 704.684 1617.65 704.254L1618.31 703.503C1617.83 703.076 1617.35 702.646 1616.87 702.212L1616.19 702.954C1615.71 702.517 1615.23 702.076 1614.75 701.632L1615.44 700.9C1614.96 700.459 1614.49 700.015 1614.03 699.567L1613.33 700.289C1612.86 699.838 1612.4 699.383 1611.93 698.925L1612.64 698.214C1612.17 697.759 1611.72 697.301 1611.26 696.84L1610.55 697.54C1610.09 697.075 1609.64 696.607 1609.19 696.135L1609.92 695.445C1609.47 694.977 1609.03 694.506 1608.59 694.031L1607.85 694.711C1607.41 694.232 1606.97 693.751 1606.54 693.266L1607.28 692.598C1606.85 692.117 1606.42 691.632 1605.99 691.145L1605.24 691.802C1604.81 691.311 1604.39 690.817 1603.96 690.319L1604.73 689.673C1604.31 689.18 1603.9 688.683 1603.49 688.183L1602.71 688.818C1602.3 688.314 1601.89 687.807 1601.48 687.298L1602.26 686.674C1601.86 686.169 1601.46 685.66 1601.07 685.148L1600.28 685.759C1599.88 685.244 1599.48 684.725 1599.09 684.204L1599.89 683.604C1599.5 683.086 1599.12 682.566 1598.74 682.043L1597.93 682.631C1597.55 682.103 1597.17 681.573 1596.79 681.04L1597.61 680.465C1597.43 680.215 1597.26 679.965 1597.09 679.715C1596.89 679.434 1596.7 679.152 1596.5 678.87L1595.68 679.433C1595.31 678.895 1594.95 678.354 1594.59 677.81L1595.42 677.259C1595.24 676.989 1595.07 676.719 1594.89 676.448C1594.71 676.171 1594.53 675.894 1594.36 675.616L1593.51 676.152C1593.15 675.59 1592.8 675.025 1592.46 674.455L1593.31 673.936C1592.97 673.373 1592.63 672.806 1592.3 672.234L1591.44 672.736C1591.1 672.16 1590.78 671.58 1590.45 670.996L1591.33 670.512C1591.01 669.936 1590.7 669.356 1590.39 668.77L1589.5 669.236C1589.19 668.65 1588.89 668.058 1588.59 667.461L1589.48 667.011C1589.19 666.425 1588.9 665.833 1588.61 665.235L1587.71 665.668C1587.42 665.071 1587.14 664.469 1586.86 663.86L1587.77 663.443C1587.49 662.846 1587.22 662.244 1586.95 661.635L1586.04 662.036C1585.77 661.43 1585.51 660.818 1585.25 660.199L1586.17 659.811C1585.92 659.206 1585.67 658.593 1585.42 657.974L1584.49 658.347C1584.24 657.735 1584 657.116 1583.76 656.491L1584.69 656.13C1584.45 655.519 1584.22 654.901 1583.99 654.276L1583.05 654.624C1582.82 654.005 1582.59 653.379 1582.36 652.746L1583.31 652.41C1583.09 651.791 1582.87 651.165 1582.65 650.532L1581.7 650.857C1581.49 650.233 1581.27 649.602 1581.06 648.963L1582.01 648.647C1581.8 648.026 1581.6 647.397 1581.39 646.762L1580.44 647.068C1580.24 646.44 1580.04 645.805 1579.84 645.163L1580.79 644.865C1580.59 644.236 1580.4 643.6 1580.2 642.956L1579.25 643.246C1579.06 642.616 1578.87 641.98 1578.68 641.336L1579.63 641.054C1579.57 640.837 1579.51 640.619 1579.44 640.4C1579.32 639.984 1579.2 639.565 1579.08 639.144L1578.12 639.419C1577.94 638.783 1577.75 638.14 1577.57 637.49L1578.53 637.221C1578.45 636.932 1578.37 636.642 1578.29 636.35C1578.2 636.003 1578.1 635.655 1578 635.304L1577.04 635.568C1576.86 634.932 1576.69 634.29 1576.52 633.641L1577.48 633.382C1577.31 632.743 1577.14 632.098 1576.97 631.446L1576 631.7C1575.84 631.064 1575.67 630.423 1575.5 629.775L1576.47 629.525C1576.31 628.886 1576.14 628.242 1575.98 627.591L1575.01 627.837C1574.84 627.195 1574.68 626.548 1574.52 625.895L1575.49 625.652C1575.33 625.015 1575.17 624.372 1575.01 623.722L1574.04 623.961C1573.88 623.316 1573.72 622.665 1573.56 622.008L1574.53 621.772C1574.38 621.135 1574.22 620.492 1574.07 619.843L1573.1 620.076C1572.94 619.432 1572.79 618.782 1572.63 618.125L1573.6 617.895C1573.54 617.627 1573.48 617.359 1573.41 617.089C1573.32 616.713 1573.24 616.336 1573.15 615.957L1572.17 616.185C1572.02 615.541 1571.87 614.892 1571.72 614.237L1572.69 614.01C1572.64 613.79 1572.59 613.569 1572.54 613.348C1572.44 612.923 1572.34 612.495 1572.24 612.065L1571.27 612.29C1571.12 611.646 1570.97 610.997 1570.82 610.343L1571.8 610.12C1571.65 609.475 1571.5 608.825 1571.35 608.17L1570.38 608.392C1570.23 607.748 1570.08 607.099 1569.93 606.445L1570.91 606.225C1570.76 605.58 1570.62 604.929 1570.47 604.273L1569.49 604.493C1569.35 603.848 1569.2 603.199 1569.06 602.545L1570.03 602.326C1569.97 602.054 1569.91 601.781 1569.85 601.507C1569.77 601.131 1569.68 600.754 1569.6 600.375L1568.62 600.593C1568.48 599.947 1568.33 599.297 1568.19 598.641L1569.16 598.425L1568.98 597.616C1568.9 597.238 1568.82 596.858 1568.73 596.476L1567.76 596.692C1567.61 596.045 1567.47 595.392 1567.32 594.735L1568.3 594.52C1568.16 593.876 1568.01 593.228 1567.87 592.575L1566.89 592.791C1566.75 592.14 1566.61 591.486 1566.46 590.826L1567.44 590.611L1567.01 588.673L1566.04 588.887C1565.89 588.237 1565.75 587.581 1565.6 586.922L1566.58 586.707L1566.15 584.767L1565.18 584.982C1565.04 584.334 1564.89 583.681 1564.75 583.025L1565.73 582.81L1565.51 581.822L1565.29 580.834L1564.31 581.048C1564.17 580.391 1564.03 579.739 1563.89 579.091L1564.86 578.877L1564.44 576.937L1563.46 577.151C1563.32 576.491 1563.17 575.836 1563.03 575.185L1564.01 574.971L1563.58 573.032L1562.61 573.245C1562.46 572.586 1562.32 571.931 1562.18 571.28L1563.15 571.067C1563.01 570.414 1562.87 569.766 1562.73 569.122L1561.75 569.334C1561.61 568.677 1561.47 568.024 1561.33 567.376L1562.3 567.164C1562.16 566.509 1562.02 565.859 1561.88 565.213L1560.9 565.425C1560.76 564.769 1560.62 564.118 1560.48 563.471L1561.46 563.26C1561.32 562.604 1561.18 561.953 1561.04 561.306L1560.06 561.516C1559.92 560.861 1559.78 560.21 1559.64 559.564L1560.62 559.355C1560.48 558.698 1560.34 558.046 1560.2 557.399L1559.22 557.607C1559.08 556.951 1558.95 556.3 1558.81 555.654L1559.79 555.447C1559.65 554.79 1559.51 554.138 1559.38 553.491L1558.4 553.696C1558.26 553.039 1558.12 552.387 1557.99 551.741L1558.97 551.537C1558.83 550.88 1558.7 550.228 1558.56 549.582L1557.58 549.784C1557.45 549.125 1557.31 548.472 1557.18 547.824L1558.16 547.624C1558.1 547.337 1558.04 547.052 1557.99 546.768C1557.91 546.401 1557.84 546.036 1557.76 545.672L1556.78 545.87C1556.65 545.209 1556.52 544.554 1556.39 543.904L1557.37 543.708C1557.24 543.054 1557.11 542.405 1556.99 541.762L1556 541.955C1555.87 541.291 1555.75 540.633 1555.62 539.981L1556.6 539.791C1556.47 539.135 1556.35 538.484 1556.23 537.838L1555.25 538.024C1555.12 537.363 1555 536.707 1554.88 536.056L1555.86 535.874C1555.74 535.213 1555.62 534.559 1555.5 533.91L1554.52 534.089C1554.4 533.43 1554.28 532.778 1554.16 532.131L1555.15 531.956C1555.03 531.293 1554.92 530.635 1554.8 529.983L1553.82 530.152C1553.71 529.49 1553.59 528.834 1553.49 528.184L1554.47 528.02C1554.36 527.36 1554.26 526.705 1554.15 526.057L1553.17 526.215C1553.06 525.549 1552.96 524.888 1552.85 524.234L1553.84 524.082C1553.74 523.421 1553.64 522.765 1553.55 522.115L1552.56 522.26C1552.46 521.596 1552.37 520.938 1552.28 520.286L1553.27 520.149C1553.18 519.483 1553.09 518.824 1553 518.17L1552.01 518.299C1551.92 517.632 1551.84 516.971 1551.76 516.316L1552.75 516.196C1552.67 515.533 1552.6 514.876 1552.53 514.225L1551.53 514.335C1551.46 513.667 1551.39 513.004 1551.32 512.346L1552.32 512.247C1552.25 511.58 1552.19 510.92 1552.13 510.265L1551.13 510.353C1551.07 509.684 1551.02 509.02 1550.97 508.362L1551.97 508.285C1551.92 507.621 1551.87 506.961 1551.83 506.307L1550.83 506.37C1550.79 505.701 1550.75 505.037 1550.72 504.378L1551.72 504.329C1551.68 503.662 1551.66 503 1551.63 502.343L1550.64 502.377C1550.61 501.706 1550.6 501.04 1550.58 500.378L1551.58 500.36C1551.57 499.695 1551.56 499.034 1551.56 498.378L1550.56 498.38C1550.56 497.71 1550.57 497.044 1550.58 496.382L1551.58 496.398C1551.59 495.735 1551.61 495.075 1551.63 494.42L1550.63 494.385C1550.65 493.717 1550.68 493.051 1550.72 492.389L1551.71 492.443C1551.75 491.781 1551.79 491.123 1551.84 490.467L1550.84 490.394C1550.89 489.728 1550.95 489.064 1551.01 488.402L1552 488.495C1552.07 487.837 1552.13 487.181 1552.21 486.527L1551.21 486.414C1551.29 485.751 1551.37 485.09 1551.46 484.431L1552.45 484.565C1552.5 484.238 1552.54 483.912 1552.59 483.585C1552.64 483.265 1552.69 482.945 1552.73 482.626L1551.75 482.474C1551.84 481.83 1551.95 481.186 1552.06 480.544L1553.04 480.71C1553.15 480.072 1553.26 479.435 1553.38 478.799L1552.4 478.618C1552.51 477.977 1552.64 477.337 1552.76 476.698L1553.74 476.893C1553.87 476.259 1554 475.625 1554.14 474.993L1553.16 474.783C1553.3 474.146 1553.44 473.51 1553.58 472.875L1554.56 473.099C1554.61 472.855 1554.67 472.612 1554.73 472.369C1554.82 471.982 1554.91 471.597 1555.01 471.211L1554.04 470.972C1554.19 470.339 1554.35 469.708 1554.52 469.077L1555.48 469.33C1555.65 468.704 1555.82 468.08 1555.99 467.457L1555.03 467.189C1555.2 466.561 1555.38 465.935 1555.56 465.309L1556.52 465.591C1556.7 464.97 1556.89 464.351 1557.08 463.733L1556.13 463.437C1556.32 462.815 1556.52 462.193 1556.72 461.574L1557.67 461.884C1557.87 461.269 1558.08 460.655 1558.29 460.043L1557.34 459.719C1557.55 459.103 1557.77 458.488 1557.99 457.874L1558.93 458.212C1559.15 457.604 1559.37 456.996 1559.6 456.391L1558.66 456.039C1558.89 455.429 1559.12 454.821 1559.36 454.214L1560.29 454.58C1560.53 453.978 1560.77 453.377 1561.02 452.779L1560.09 452.399C1560.34 451.797 1560.59 451.195 1560.85 450.596L1561.77 450.989C1562.02 450.394 1562.28 449.802 1562.54 449.21L1561.63 448.804C1561.89 448.209 1562.16 447.615 1562.44 447.023L1563.34 447.444C1563.62 446.857 1563.89 446.272 1564.17 445.689L1563.27 445.255C1563.55 444.668 1563.84 444.083 1564.13 443.5L1565.03 443.947C1565.17 443.657 1565.32 443.368 1565.46 443.08C1565.61 442.786 1565.76 442.493 1565.92 442.201L1565.03 441.738C1565.34 441.148 1565.65 440.561 1565.97 439.976L1566.85 440.457C1567.17 439.88 1567.49 439.305 1567.82 438.733L1566.95 438.234C1567.28 437.658 1567.62 437.084 1567.97 436.511L1568.82 437.027C1569.16 436.464 1569.51 435.902 1569.86 435.342L1569.01 434.809C1569.37 434.248 1569.73 433.688 1570.09 433.129L1570.93 433.678C1571.29 433.129 1571.66 432.581 1572.03 432.033L1571.21 431.469C1571.58 430.922 1571.96 430.376 1572.35 429.829L1573.16 430.408C1573.54 429.873 1573.93 429.337 1574.32 428.801L1573.52 428.209C1573.91 427.675 1574.31 427.141 1574.71 426.607L1575.51 427.211C1575.91 426.688 1576.31 426.164 1576.72 425.638L1575.94 425.021C1576.34 424.502 1576.76 423.981 1577.18 423.459L1577.96 424.087C1578.37 423.576 1578.79 423.065 1579.21 422.551L1578.44 421.913C1578.86 421.405 1579.29 420.894 1579.73 420.382L1580.49 421.029C1580.91 420.528 1581.35 420.025 1581.78 419.519L1581.03 418.863C1581.46 418.364 1581.9 417.864 1582.35 417.36L1583.1 418.024C1583.53 417.534 1583.97 417.042 1584.42 416.547L1583.68 415.876C1584.12 415.386 1584.57 414.895 1585.03 414.4L1585.76 415.078C1586.21 414.593 1586.66 414.106 1587.12 413.615L1586.39 412.931C1586.84 412.451 1587.3 411.968 1587.76 411.482L1588.49 412.171C1588.94 411.696 1589.4 411.217 1589.86 410.735L1589.14 410.041C1589.6 409.564 1590.07 409.085 1590.54 408.603L1591.26 409.302C1591.71 408.832 1592.18 408.36 1592.65 407.884L1591.94 407.18C1592.4 406.712 1592.87 406.24 1593.35 405.765L1594.05 406.472C1594.52 406.005 1595 405.534 1595.47 405.059L1594.77 404.349C1595.24 403.886 1595.71 403.421 1596.19 402.952L1596.89 403.666C1597.36 403.204 1597.83 402.739 1598.32 402.271L1597.62 401.554C1598.09 401.093 1598.57 400.628 1599.06 400.16L1599.75 400.88C1600.22 400.423 1600.7 399.963 1601.18 399.5L1600.49 398.779C1600.97 398.319 1601.46 397.856 1601.94 397.389L1602.63 398.113C1603.11 397.66 1603.59 397.205 1604.07 396.745L1603.38 396.02C1603.87 395.564 1604.35 395.105 1604.84 394.642L1605.53 395.369C1606.01 394.918 1606.49 394.463 1606.98 394.004L1606.29 393.275C1606.78 392.823 1607.26 392.367 1607.75 391.907L1608.44 392.637C1608.92 392.187 1609.4 391.732 1609.9 391.275L1609.21 390.543C1609.7 390.093 1610.18 389.639 1610.68 389.183L1611.36 389.915C1611.84 389.465 1612.33 389.012 1612.82 388.555L1612.14 387.822C1612.63 387.373 1613.12 386.921 1613.61 386.466L1614.29 387.201C1614.77 386.752 1615.26 386.3 1615.76 385.844L1615.08 385.109C1615.56 384.661 1616.05 384.211 1616.55 383.757L1617.22 384.493C1617.71 384.045 1618.2 383.594 1618.7 383.14L1618.02 382.403C1618.51 381.956 1619 381.505 1619.49 381.052L1620.17 381.789C1620.66 381.342 1621.15 380.893 1621.64 380.44L1620.97 379.703C1621.45 379.255 1621.95 378.804 1622.44 378.35L1623.12 379.088C1623.6 378.643 1624.09 378.195 1624.59 377.744L1623.91 377.006C1624.4 376.557 1624.9 376.104 1625.4 375.649L1626.07 376.387L1627.54 375.049L1626.86 374.311C1627.36 373.861 1627.85 373.409 1628.35 372.954L1629.02 373.692L1630.49 372.354L1629.82 371.615C1630.31 371.168 1630.8 370.718 1631.3 370.265L1631.97 371.004L1632.72 370.322L1633.47 369.64L1632.79 368.901C1633.29 368.448 1633.78 367.998 1634.27 367.551L1634.95 368.29L1636.41 366.951L1635.74 366.212C1636.24 365.757 1636.74 365.305 1637.23 364.856L1637.9 365.596L1639.37 364.259L1638.7 363.519C1639.19 363.065 1639.69 362.613 1640.18 362.165L1640.86 362.905C1641.35 362.455 1641.84 362.008 1642.33 361.564L1641.66 360.825C1642.15 360.372 1642.65 359.923 1643.14 359.477L1643.81 360.217C1644.31 359.766 1644.8 359.319 1645.29 358.875L1644.62 358.134C1645.11 357.683 1645.61 357.236 1646.1 356.792L1646.77 357.533C1647.03 357.297 1647.29 357.061 1647.55 356.827C1647.78 356.614 1648.02 356.402 1648.25 356.191L1647.58 355.449C1648.08 354.999 1648.57 354.553 1649.06 354.111L1649.73 354.853C1650.23 354.403 1650.73 353.956 1651.22 353.514L1650.55 352.771C1651.05 352.322 1651.54 351.877 1652.03 351.436L1652.7 352.18L1653.19 351.739C1653.52 351.439 1653.86 351.141 1654.19 350.844L1653.52 350.099C1654.02 349.652 1654.52 349.208 1655.01 348.768L1655.68 349.514C1656.18 349.067 1656.67 348.624 1657.17 348.186L1656.5 347.438C1657.01 346.991 1657.5 346.549 1658 346.11L1658.66 346.859C1659.16 346.415 1659.66 345.975 1660.15 345.54L1659.49 344.79C1660 344.344 1660.5 343.902 1661 343.465L1661.66 344.217C1662.16 343.777 1662.66 343.342 1663.15 342.911L1662.49 342.157C1663 341.712 1663.51 341.273 1664.01 340.837L1664.67 341.593C1665.17 341.155 1665.67 340.721 1666.17 340.293L1665.52 339.535C1666.03 339.095 1666.54 338.661 1667.04 338.231L1667.69 338.991C1668.2 338.555 1668.7 338.124 1669.21 337.697L1668.56 336.935C1669.07 336.502 1669.58 336.074 1670.08 335.652L1670.72 336.417C1671.24 335.984 1671.75 335.555 1672.26 335.133L1671.62 334.364C1672.14 333.934 1672.65 333.51 1673.16 333.092L1673.8 333.864C1674.31 333.439 1674.83 333.019 1675.34 332.605L1674.71 331.829C1675.23 331.403 1675.75 330.984 1676.27 330.569L1676.89 331.35C1677.41 330.931 1677.93 330.518 1678.45 330.111L1677.83 329.326C1678.35 328.91 1678.88 328.5 1679.4 328.096L1680.01 328.885C1680.54 328.472 1681.07 328.066 1681.59 327.665L1680.98 326.871C1681.52 326.462 1682.05 326.06 1682.58 325.664L1683.18 326.464C1683.71 326.063 1684.24 325.669 1684.77 325.281L1684.18 324.475C1684.72 324.076 1685.26 323.684 1685.79 323.298L1686.38 324.11C1686.92 323.719 1687.46 323.335 1688 322.957L1687.43 322.139C1687.98 321.753 1688.52 321.373 1689.07 321.001L1689.63 321.826C1690.18 321.45 1690.73 321.08 1691.28 320.717L1690.72 319.885C1691.28 319.513 1691.84 319.149 1692.39 318.791L1692.94 319.632C1693.5 319.27 1694.06 318.915 1694.61 318.568L1694.08 317.719C1694.65 317.364 1695.22 317.015 1695.79 316.674L1696.31 317.531C1696.88 317.188 1697.44 316.852 1698.01 316.523L1697.51 315.658C1698.09 315.322 1698.67 314.993 1699.25 314.671L1699.73 315.545C1700.31 315.223 1700.89 314.908 1701.47 314.599L1701 313.717C1701.59 313.402 1702.18 313.095 1702.77 312.795L1703.23 313.686C1703.82 313.386 1704.41 313.093 1705 312.807L1704.57 311.907C1705.17 311.616 1705.77 311.332 1706.37 311.054L1706.79 311.963C1707.39 311.687 1707.99 311.419 1708.6 311.156L1708.2 310.239C1708.81 309.973 1709.42 309.714 1710.04 309.462L1710.42 310.387C1710.72 310.262 1711.03 310.138 1711.34 310.016C1711.64 309.897 1711.94 309.778 1712.24 309.661L1711.88 308.729C1712.48 308.492 1713.09 308.26 1713.7 308.033L1714.05 308.97C1714.66 308.744 1715.27 308.523 1715.88 308.306L1715.54 307.364C1716.15 307.145 1716.77 306.931 1717.39 306.722L1717.71 307.669C1718.32 307.461 1718.94 307.258 1719.55 307.06L1719.24 306.108C1719.86 305.908 1720.49 305.712 1721.11 305.521L1721.4 306.477C1722.02 306.288 1722.64 306.103 1723.26 305.922L1722.98 304.962C1723.61 304.78 1724.24 304.603 1724.86 304.431L1725.13 305.395C1725.75 305.224 1726.38 305.058 1727 304.896L1726.75 303.928C1727.38 303.764 1728.02 303.606 1728.65 303.452L1728.89 304.424C1729.51 304.271 1730.14 304.124 1730.77 303.98L1730.55 303.005C1731.19 302.861 1731.83 302.721 1732.46 302.586L1732.67 303.565C1733.3 303.431 1733.94 303.301 1734.57 303.177L1734.38 302.196C1735.02 302.07 1735.66 301.95 1736.3 301.834L1736.48 302.818C1737.11 302.703 1737.75 302.592 1738.39 302.487L1738.23 301.5C1738.87 301.393 1739.51 301.292 1740.16 301.195L1740.31 302.184C1740.95 302.088 1741.59 301.996 1742.23 301.909L1742.09 300.918C1742.74 300.831 1743.39 300.749 1744.03 300.671L1744.15 301.664C1744.79 301.586 1745.44 301.514 1746.08 301.446L1745.98 300.452C1746.62 300.384 1747.27 300.32 1747.92 300.262L1748.01 301.258C1748.66 301.199 1749.3 301.146 1749.95 301.098L1749.87 300.1C1750.52 300.051 1751.17 300.007 1751.82 299.968L1751.88 300.966C1752.2 300.947 1752.53 300.928 1752.85 300.911C1753.18 300.894 1753.51 300.878 1753.84 300.864L1753.8 299.865C1754.46 299.836 1755.13 299.815 1755.79 299.8L1755.82 300.8C1756.47 300.786 1757.13 300.778 1757.79 300.777L1757.79 299.777C1758.46 299.776 1759.12 299.782 1759.79 299.794L1759.77 300.794C1760.43 300.806 1761.09 300.825 1761.75 300.85L1761.79 299.851C1762.45 299.877 1763.12 299.908 1763.78 299.947L1763.73 300.945C1764.38 300.983 1765.04 301.027 1765.7 301.077L1765.78 300.08C1766.44 300.13 1767.1 300.186 1767.77 300.248L1767.68 301.244C1768.33 301.305 1768.99 301.372 1769.65 301.445L1769.76 300.451C1770.41 300.524 1771.08 300.602 1771.74 300.686L1771.62 301.678C1772.27 301.761 1772.93 301.849 1773.59 301.943L1773.73 300.953C1774.38 301.045 1775.04 301.143 1775.7 301.247L1775.55 302.235C1776.19 302.336 1776.85 302.442 1777.5 302.554L1777.67 301.568C1778.32 301.678 1778.98 301.794 1779.64 301.914L1779.46 302.898C1780.11 303.016 1780.76 303.138 1781.42 303.266L1781.61 302.284C1782.26 302.41 1782.91 302.541 1783.57 302.676L1783.37 303.655C1784.01 303.787 1784.66 303.923 1785.31 304.063L1785.52 303.086C1786.16 303.225 1786.82 303.368 1787.47 303.515L1787.25 304.491C1787.9 304.636 1788.54 304.784 1789.2 304.937L1789.43 303.963C1790.07 304.113 1790.71 304.267 1791.37 304.424L1791.13 305.396C1791.77 305.55 1792.41 305.708 1793.06 305.87L1793.3 304.9C1793.95 305.06 1794.59 305.223 1795.25 305.391L1795 306.359C1795.64 306.522 1796.28 306.689 1796.93 306.858L1797.18 305.891C1797.82 306.058 1798.46 306.229 1799.11 306.403L1798.85 307.368C1799.49 307.54 1800.13 307.714 1800.78 307.892L1801.05 306.927C1801.68 307.1 1802.32 307.277 1802.97 307.456L1802.7 308.42C1803.33 308.596 1803.97 308.776 1804.62 308.958L1804.89 307.996C1805.53 308.176 1806.17 308.359 1806.82 308.544L1806.54 309.506C1807.17 309.687 1807.81 309.87 1808.45 310.057L1808.73 309.096C1809.37 309.281 1810.01 309.469 1810.66 309.66L1810.38 310.619C1811.01 310.804 1811.64 310.991 1812.28 311.181L1812.57 310.222C1813.2 310.411 1813.84 310.602 1814.49 310.795L1814.2 311.753C1814.83 311.942 1815.47 312.133 1816.11 312.326L1816.4 311.369C1817.03 311.56 1817.67 311.753 1818.31 311.949L1818.02 312.906C1818.65 313.098 1819.29 313.292 1819.93 313.488L1820.22 312.532C1820.86 312.725 1821.49 312.921 1822.13 313.118L1821.84 314.074C1822.47 314.268 1823.11 314.465 1823.75 314.664L1824.05 313.708C1824.68 313.903 1825.31 314.101 1825.95 314.3L1825.66 315.255C1826.29 315.451 1826.92 315.649 1827.57 315.849L1827.86 314.895C1828.49 315.092 1829.13 315.29 1829.77 315.49L1829.47 316.445C1830.1 316.642 1830.74 316.842 1831.38 317.043L1831.68 316.089C1832.31 316.287 1832.94 316.487 1833.58 316.689L1833.28 317.643C1833.91 317.841 1834.55 318.041 1835.19 318.243L1835.49 317.289C1836.12 317.489 1836.76 317.69 1837.4 317.893L1837.1 318.846C1837.43 318.95 1837.76 319.055 1838.09 319.16L1839 319.447L1839.3 318.494C1839.93 318.695 1840.57 318.897 1841.22 319.101L1840.91 320.055L1842.81 320.655L1843.11 319.702C1843.74 319.903 1844.38 320.106 1845.03 320.311L1844.72 321.264L1846.62 321.865L1846.92 320.912C1847.55 321.113 1848.19 321.315 1848.83 321.519L1848.53 322.472L1849.49 322.778L1850.45 323.085L1850.76 322.132C1851.4 322.335 1852.03 322.537 1852.67 322.738L1852.36 323.691L1854.26 324.293L1854.56 323.34C1855.2 323.545 1855.84 323.748 1856.48 323.95L1856.17 324.903L1858.07 325.505L1858.37 324.552C1859.01 324.757 1859.65 324.961 1860.29 325.163L1859.98 326.116C1860.62 326.319 1861.25 326.521 1861.88 326.721L1862.18 325.769C1862.82 325.973 1863.46 326.177 1864.09 326.379L1863.79 327.331C1864.06 327.42 1864.34 327.508 1864.62 327.597C1864.98 327.712 1865.33 327.826 1865.69 327.94L1865.99 326.988C1866.63 327.193 1867.27 327.396 1867.9 327.599L1867.59 328.551C1868.23 328.756 1868.86 328.961 1869.49 329.163L1869.8 328.212C1870.44 328.417 1871.07 328.622 1871.7 328.825L1871.39 329.777C1872.03 329.984 1872.67 330.189 1873.29 330.393L1873.6 329.442C1874.24 329.65 1874.87 329.855 1875.5 330.06L1875.19 331.011C1875.83 331.219 1876.46 331.426 1877.09 331.632L1877.4 330.682C1878.04 330.891 1878.67 331.099 1879.3 331.306L1878.99 332.255C1879.63 332.466 1880.26 332.674 1880.88 332.882L1881.2 331.933C1881.84 332.145 1882.47 332.355 1883.1 332.565L1882.78 333.513C1883.42 333.725 1884.05 333.936 1884.67 334.146L1884.99 333.198C1885.63 333.413 1886.26 333.627 1886.89 333.84L1886.57 334.787C1887.2 335.001 1887.82 335.215 1888.44 335.427L1888.77 334.481C1889.41 334.7 1890.04 334.918 1890.67 335.135L1890.34 336.08C1890.98 336.299 1891.6 336.516 1892.22 336.733L1892.55 335.789C1893.19 336.011 1893.82 336.233 1894.44 336.453L1894.11 337.396C1894.74 337.62 1895.37 337.843 1895.99 338.066L1896.32 337.124C1896.95 337.35 1897.58 337.575 1898.2 337.799L1897.85 338.739C1898.49 338.97 1899.12 339.199 1899.74 339.428L1900.08 338.49C1900.71 338.723 1901.34 338.955 1901.95 339.186L1901.6 340.122C1902.23 340.358 1902.85 340.592 1903.46 340.827L1903.82 339.892C1904.45 340.133 1905.07 340.374 1905.69 340.614L1905.33 341.546C1905.95 341.789 1906.57 342.031 1907.18 342.274L1907.55 341.345C1908.17 341.592 1908.79 341.84 1909.4 342.088L1909.02 343.014C1909.64 343.267 1910.26 343.521 1910.87 343.774L1911.25 342.851C1911.87 343.109 1912.49 343.368 1913.09 343.627L1912.7 344.546C1913.31 344.808 1913.92 345.071 1914.52 345.334L1914.92 344.418C1915.54 344.688 1916.15 344.959 1916.75 345.231L1916.34 346.142C1916.95 346.418 1917.55 346.694 1918.15 346.971L1918.57 346.064C1919.18 346.347 1919.78 346.632 1920.38 346.917L1919.95 347.819C1920.55 348.107 1921.14 348.397 1921.73 348.688L1922.17 347.793C1922.77 348.091 1923.37 348.39 1923.95 348.692L1923.5 349.581C1924.09 349.887 1924.68 350.194 1925.26 350.503L1925.73 349.62C1926.32 349.936 1926.91 350.254 1927.49 350.574L1927 351.449C1927.58 351.771 1928.16 352.096 1928.73 352.423L1929.23 351.557C1929.81 351.891 1930.38 352.228 1930.95 352.568L1930.43 353.426C1931 353.767 1931.57 354.111 1932.12 354.458L1932.65 353.61C1933.22 353.964 1933.78 354.322 1934.34 354.684L1933.79 355.522C1934.35 355.883 1934.9 356.249 1935.44 356.618L1936 355.791C1936.55 356.167 1937.1 356.546 1937.64 356.931L1937.07 357.747C1937.6 358.129 1938.14 358.516 1938.67 358.907L1939.26 358.104C1939.8 358.501 1940.33 358.902 1940.86 359.309L1940.24 360.101C1940.51 360.302 1940.77 360.505 1941.02 360.709C1941.28 360.91 1941.53 361.111 1941.78 361.314L1942.41 360.533C1942.92 360.941 1943.42 361.353 1943.93 361.768L1943.29 362.538C1943.79 362.951 1944.28 363.366 1944.78 363.785L1945.42 363.024C1945.92 363.447 1946.41 363.873 1946.9 364.303L1946.24 365.054C1946.73 365.481 1947.21 365.911 1947.69 366.345L1948.36 365.603C1948.85 366.04 1949.33 366.481 1949.8 366.925L1949.12 367.657C1949.6 368.098 1950.07 368.542 1950.53 368.99L1951.22 368.268C1951.69 368.719 1952.16 369.174 1952.63 369.632L1951.92 370.343C1952.38 370.798 1952.84 371.256 1953.29 371.717L1954.01 371.017C1954.46 371.482 1954.92 371.95 1955.37 372.422L1954.64 373.112C1955.09 373.58 1955.53 374.051 1955.97 374.526L1956.7 373.846C1957.15 374.325 1957.59 374.806 1958.02 375.291L1957.28 375.959C1957.71 376.44 1958.14 376.925 1958.56 377.412L1959.32 376.755C1959.75 377.246 1960.17 377.74 1960.59 378.238L1959.83 378.884C1960.25 379.377 1960.66 379.874 1961.07 380.374L1961.85 379.739C1962.26 380.243 1962.67 380.75 1963.07 381.259L1962.29 381.883C1962.7 382.388 1963.1 382.897 1963.49 383.409L1964.28 382.798C1964.68 383.313 1965.08 383.832 1965.47 384.353L1964.67 384.953C1965.05 385.471 1965.44 385.991 1965.82 386.514L1966.63 385.926C1967.01 386.454 1967.39 386.984 1967.77 387.517L1966.95 388.092C1967.32 388.621 1967.69 389.153 1968.05 389.687L1968.88 389.123C1969.25 389.662 1969.61 390.203 1969.97 390.747L1969.13 391.298C1969.31 391.568 1969.49 391.838 1969.67 392.109C1969.85 392.386 1970.02 392.663 1970.2 392.941L1971.05 392.405C1971.4 392.967 1971.75 393.532 1972.1 394.102L1971.25 394.621C1971.59 395.184 1971.92 395.751 1972.25 396.323L1973.12 395.821C1973.45 396.397 1973.78 396.977 1974.1 397.561L1973.23 398.045C1973.55 398.621 1973.86 399.201 1974.17 399.787L1975.05 399.321C1975.36 399.907 1975.67 400.499 1975.97 401.096L1975.08 401.546C1975.37 402.132 1975.66 402.724 1975.95 403.322L1976.85 402.889C1977.14 403.486 1977.42 404.088 1977.7 404.697L1976.79 405.114C1977.06 405.711 1977.34 406.313 1977.6 406.922L1978.52 406.52C1978.78 407.127 1979.05 407.739 1979.31 408.358L1978.39 408.746C1978.64 409.351 1978.89 409.964 1979.14 410.583L1980.07 410.21C1980.32 410.822 1980.56 411.441 1980.8 412.066L1979.87 412.427C1980.1 413.038 1980.34 413.656 1980.57 414.281L1981.51 413.933C1981.74 414.552 1981.97 415.178 1982.19 415.811L1981.25 416.147C1981.47 416.766 1981.69 417.392 1981.91 418.025L1982.86 417.7C1983.07 418.324 1983.28 418.955 1983.5 419.594L1982.55 419.91C1982.76 420.531 1982.96 421.16 1983.17 421.795L1984.12 421.489C1984.32 422.117 1984.52 422.752 1984.72 423.394L1983.77 423.692C1983.96 424.321 1984.16 424.957 1984.35 425.6L1985.31 425.31C1985.5 425.941 1985.69 426.577 1985.88 427.221L1984.92 427.503C1985.11 428.133 1985.29 428.77 1985.48 429.413L1986.44 429.137C1986.62 429.774 1986.8 430.417 1986.99 431.067L1986.02 431.336C1986.2 431.969 1986.38 432.608 1986.55 433.253L1987.52 432.989C1987.69 433.625 1987.87 434.267 1988.04 434.916L1987.07 435.175C1987.25 435.814 1987.42 436.459 1987.59 437.111L1988.55 436.857C1988.72 437.493 1988.89 438.134 1989.06 438.782L1988.09 439.032C1988.25 439.67 1988.42 440.315 1988.58 440.966L1989.55 440.72C1989.71 441.362 1989.88 442.009 1990.04 442.662L1989.07 442.905C1989.23 443.542 1989.39 444.185 1989.55 444.835L1990.52 444.596C1990.68 445.241 1990.84 445.892 1991 446.549L1990.02 446.785C1990.18 447.422 1990.33 448.065 1990.49 448.714L1991.46 448.481C1991.62 449.125 1991.77 449.775 1991.93 450.432L1990.95 450.662C1991.11 451.303 1991.26 451.949 1991.41 452.6L1992.38 452.372C1992.53 453.016 1992.69 453.665 1992.84 454.32L1991.86 454.547C1992.01 455.19 1992.16 455.838 1992.32 456.492L1993.29 456.267C1993.44 456.911 1993.59 457.56 1993.74 458.214L1992.76 458.437C1992.91 459.082 1993.06 459.732 1993.21 460.387L1994.18 460.165C1994.33 460.809 1994.48 461.458 1994.62 462.112L1993.65 462.332C1993.79 462.977 1993.94 463.628 1994.09 464.284L1995.06 464.064C1995.21 464.709 1995.35 465.358 1995.5 466.012L1994.52 466.231C1994.67 466.876 1994.81 467.526 1994.96 468.182L1995.94 467.964C1996.08 468.61 1996.22 469.26 1996.37 469.915L1995.39 470.132C1995.46 470.423 1995.52 470.715 1995.59 471.008C1995.67 471.364 1995.75 471.722 1995.83 472.081L1996.8 471.865C1996.95 472.512 1997.09 473.164 1997.23 473.821L1996.26 474.037C1996.4 474.681 1996.54 475.329 1996.69 475.982L1997.66 475.766C1997.81 476.417 1997.95 477.071 1998.1 477.731L1997.12 477.946L1997.55 479.884L1998.52 479.67C1998.67 480.32 1998.81 480.976 1998.95 481.635L1997.98 481.85L1998.4 483.79L1999.38 483.575Z" stroke="url(#paint6_linear_282_4)" stroke-width="2" stroke-dasharray="2 2"/>
<defs>
<linearGradient id="paint0_linear_282_4" x1="2106.37" y1="592.321" x2="1434" y2="737.5" gradientUnits="userSpaceOnUse">
<stop stop-color="#FFB69F"/>
<stop offset="1" stop-color="#FFB69F" stop-opacity="0"/>
</linearGradient>
<linearGradient id="paint1_linear_282_4" x1="315" y1="545" x2="117.131" y2="856.17" gradientUnits="userSpaceOnUse">
<stop stop-color="#B1FAFF"/>
<stop offset="1" stop-color="#B1FAFF" stop-opacity="0"/>
</linearGradient>
<linearGradient id="paint2_linear_282_4" x1="97.5727" y1="220.436" x2="-332.728" y2="522.504" gradientUnits="userSpaceOnUse">
<stop stop-color="#CDEDFF"/>
<stop offset="1" stop-color="white" stop-opacity="0"/>
</linearGradient>
<linearGradient id="paint3_linear_282_4" x1="1878.56" y1="112.163" x2="1553.57" y2="340.299" gradientUnits="userSpaceOnUse">
<stop stop-color="white" stop-opacity="0.72"/>
<stop offset="1" stop-color="white" stop-opacity="0"/>
</linearGradient>
<linearGradient id="paint4_linear_282_4" x1="209.253" y1="468.317" x2="-113.817" y2="750.683" gradientUnits="userSpaceOnUse">
<stop stop-color="#FFC7F9"/>
<stop offset="1" stop-color="#FEDDFF" stop-opacity="0"/>
</linearGradient>
<linearGradient id="paint5_linear_282_4" x1="180.567" y1="476.111" x2="142.663" y2="702.395" gradientUnits="userSpaceOnUse">
<stop/>
<stop offset="1" stop-opacity="0"/>
</linearGradient>
<linearGradient id="paint6_linear_282_4" x1="1667.49" y1="417.744" x2="1664.59" y2="678.099" gradientUnits="userSpaceOnUse">
<stop/>
<stop offset="1" stop-opacity="0"/>
</linearGradient>
</defs>
</svg>
