<svg width="148" height="148" viewBox="0 0 148 148" fill="none" xmlns="http://www.w3.org/2000/svg">
<g filter="url(#filter0_d_203_4)">
<path d="M37.227 37.2573C45.9482 28.5361 50.3088 24.1755 55.6655 21.8975C58.2519 20.7976 60.98 20.0666 63.7699 19.7259C69.5479 19.0204 75.5046 20.6165 87.418 23.8087V23.8087C99.3314 27.0008 105.288 28.5969 109.939 32.097C112.185 33.7869 114.182 35.784 115.872 38.0298C119.372 42.681 120.968 48.6376 124.16 60.551V60.551C127.353 72.4644 128.949 78.4211 128.243 84.1991C127.902 86.989 127.171 89.7171 126.072 92.3035C123.794 97.6602 119.433 102.021 110.712 110.742V110.742C101.991 119.463 97.6299 123.824 92.2732 126.102C89.6868 127.202 86.9587 127.933 84.1688 128.273C78.3908 128.979 72.4341 127.383 60.5207 124.191V124.191C48.6074 120.998 42.6507 119.402 37.9995 115.902C35.7538 114.212 33.7566 112.215 32.0667 109.97C28.5667 105.318 26.9706 99.3617 23.7784 87.4483V87.4483C20.5862 75.5349 18.9901 69.5782 19.6956 63.8002C20.0363 61.0103 20.7673 58.2822 21.8672 55.6958C24.1452 50.3391 28.5058 45.9785 37.227 37.2573V37.2573Z" fill="white"/>
<path d="M24.5028 87.2542C21.2945 75.2804 19.7564 69.4904 20.4401 63.8911C20.7722 61.171 21.485 58.511 22.5574 55.9893C24.7649 50.7983 28.9919 46.5531 37.7574 37.7876C46.5228 29.0222 50.768 24.7952 55.959 22.5877C58.4808 21.5152 61.1407 20.8025 63.8608 20.4704C69.4601 19.7867 75.2501 21.3247 87.2239 24.5331C99.1977 27.7415 104.981 29.3045 109.488 32.6962C111.678 34.3439 113.625 36.2911 115.273 38.4807C118.665 42.988 120.228 48.7713 123.436 60.7451C126.644 72.7189 128.182 78.5089 127.499 84.1082C127.166 86.8283 126.454 89.4883 125.381 92.01C123.174 97.201 118.947 101.446 110.181 110.212C101.416 118.977 97.1707 123.204 91.9797 125.412C89.458 126.484 86.798 127.197 84.0779 127.529C78.4786 128.213 72.6887 126.675 60.7149 123.466C48.7411 120.258 42.9578 118.695 38.4505 115.303C36.2609 113.655 34.3136 111.708 32.666 109.519C29.2742 105.011 27.7112 99.228 24.5028 87.2542Z" stroke="white" stroke-width="1.5"/>
</g>
<path d="M67.0944 91.9375H61.5631C58.1402 91.9375 54.8574 90.5777 52.437 88.1573C50.0166 85.737 48.6569 82.4542 48.6569 79.0313C48.6569 75.6083 50.0166 72.3255 52.437 69.9052C54.8574 67.4848 58.1402 66.125 61.5631 66.125C62.6429 66.1246 63.7187 66.2562 64.7666 66.5168" stroke="#316FD7" stroke-width="3" stroke-linecap="round" stroke-linejoin="round"/>
<path d="M63.4069 73.5C63.4069 70.5785 64.1011 67.6989 65.4323 65.0984C66.7636 62.4979 68.6938 60.2509 71.0638 58.5427C73.4338 56.8345 76.1758 55.714 79.0638 55.2734C81.9519 54.8328 84.9033 55.0848 87.6748 56.0087C90.4463 56.9325 92.9587 58.5017 95.0048 60.587C97.0509 62.6723 98.5721 65.214 99.4432 68.0025C100.314 70.7911 100.51 73.7468 100.015 76.6259C99.5196 79.5051 98.3472 82.2253 96.5944 84.5625" stroke="#316FD7" stroke-width="3" stroke-linecap="round" stroke-linejoin="round"/>
<path d="M72.1877 81.3129L80.0006 73.5L87.8135 81.3129" stroke="#316FD7" stroke-width="3" stroke-linecap="round" stroke-linejoin="round"/>
<path d="M80.0006 91.9375V73.5" stroke="#316FD7" stroke-width="3" stroke-linecap="round" stroke-linejoin="round"/>
<defs>
<filter id="filter0_d_203_4" x="12.5049" y="10.6862" width="134.022" height="134.022" filterUnits="userSpaceOnUse" color-interpolation-filters="sRGB">
<feFlood flood-opacity="0" result="BackgroundImageFix"/>
<feColorMatrix in="SourceAlpha" type="matrix" values="0 0 0 0 0 0 0 0 0 0 0 0 0 0 0 0 0 0 127 0" result="hardAlpha"/>
<feOffset dx="5.54676" dy="3.69784"/>
<feGaussianBlur stdDeviation="6.28632"/>
<feComposite in2="hardAlpha" operator="out"/>
<feColorMatrix type="matrix" values="0 0 0 0 0.295052 0 0 0 0 0.332604 0 0 0 0 0.429167 0 0 0 0.05 0"/>
<feBlend mode="normal" in2="BackgroundImageFix" result="effect1_dropShadow_203_4"/>
<feBlend mode="normal" in="SourceGraphic" in2="effect1_dropShadow_203_4" result="shape"/>
</filter>
</defs>
</svg>
