<svg width="147" height="148" viewBox="0 0 147 148" fill="none" xmlns="http://www.w3.org/2000/svg">
<g filter="url(#filter0_d_203_3)">
<path d="M60.0361 23.8089C71.9494 20.6167 77.9061 19.0206 83.6842 19.7261C86.474 20.0667 89.2021 20.7977 91.7886 21.8977C97.1452 24.1757 101.506 28.5363 110.227 37.2575C118.948 45.9787 123.309 50.3393 125.587 55.696C126.687 58.2824 127.418 61.0105 127.758 63.8004C128.464 69.5784 126.868 75.5351 123.676 87.4485C120.483 99.3618 118.887 105.319 115.387 109.97C113.697 112.215 111.7 114.213 109.455 115.903C104.803 119.403 98.8467 120.999 86.9333 124.191C75.0199 127.383 69.0633 128.979 63.2852 128.274C60.4954 127.933 57.7672 127.202 55.1808 126.102C49.8241 123.824 45.4635 119.463 36.7423 110.742C28.0211 102.021 23.6606 97.6604 21.3825 92.3037C20.2826 89.7173 19.5516 86.9892 19.211 84.1993C18.5054 78.4213 20.1015 72.4646 23.2937 60.5512C26.4859 48.6378 28.082 42.6811 31.582 38.03C33.2719 35.7842 35.2691 33.7871 37.5148 32.0971C42.166 28.5971 48.1227 27.001 60.0361 23.8089Z" fill="white"/>
<path d="M60.2302 24.5333C72.204 21.3249 77.994 19.7869 83.5933 20.4706C86.3134 20.8027 88.9733 21.5154 91.495 22.5878C96.686 24.7954 100.931 29.0224 109.697 37.7878C118.462 46.5532 122.689 50.7985 124.897 55.9895C125.969 58.5112 126.682 61.1712 127.014 63.8913C127.698 69.4906 126.16 75.2806 122.951 87.2543C119.743 99.2281 118.18 105.011 114.788 109.519C113.14 111.708 111.193 113.656 109.004 115.303C104.496 118.695 98.713 120.258 86.7392 123.466C74.7654 126.675 68.9754 128.213 63.3761 127.529C60.656 127.197 57.9961 126.484 55.4743 125.412C50.2834 123.204 46.0381 118.977 37.2727 110.212C28.5073 101.446 24.2803 97.2012 22.0727 92.0102C21.0003 89.4884 20.2876 86.8285 19.9554 84.1084C19.2717 78.5091 20.8098 72.7191 24.0182 60.7453C27.2265 48.7715 28.7895 42.9882 32.1813 38.4809C33.829 36.2913 35.7762 34.3441 37.9658 32.6964C42.4731 29.3047 48.2564 27.7417 60.2302 24.5333Z" stroke="white" stroke-width="1.5"/>
</g>
<path fill-rule="evenodd" clip-rule="evenodd" d="M64.2726 56.278L64.3378 55.9936C64.4622 55.465 64.666 54.6875 65.0868 53.9219C65.5158 53.1421 66.1807 52.3516 67.2236 51.8313C68.263 51.3134 69.5655 51.1202 71.1761 51.3335C72.9538 51.5706 76.5247 52.1584 79.6796 53.7631C82.8522 55.3773 85.8246 58.1541 85.8246 62.7786C85.8246 65.1678 84.9002 67.7313 84.0042 69.4024C83.574 70.2059 83.0632 70.9739 82.5512 71.3875C82.4338 71.4823 82.2667 71.6008 82.0593 71.6838C81.4904 73.5535 80.358 75.2018 78.8167 76.4034C77.2755 77.605 75.4008 78.3012 73.4488 78.3969C71.4969 78.4927 69.563 77.9832 67.9116 76.9381C66.2602 75.8931 64.9719 74.3635 64.2228 72.5584L64.1944 72.5632L63.7736 72.0524L64.6886 71.2986L63.7736 72.0524L63.7724 72.05L63.7701 72.0476L63.7641 72.0393L63.744 72.0156C63.6426 71.8894 63.545 71.7602 63.4513 71.6281C63.1953 71.2732 62.9542 70.9078 62.7283 70.533C62.1713 69.611 61.4993 68.2978 61.0691 66.7654C60.6401 65.233 60.4433 63.4363 60.8937 61.5827C61.3322 59.7789 62.3668 58.0036 64.2406 56.4179L64.2726 56.278ZM66.2636 71.256C66.7776 72.7341 67.7647 74.0016 69.0719 74.862C70.3792 75.7224 71.9336 76.1278 73.4946 76.0154C75.0555 75.9029 76.5358 75.2789 77.7063 74.24C78.8767 73.2011 79.6719 71.8053 79.9687 70.2687L80.1027 70.3138C80.0979 70.2467 80.0956 70.1795 80.0955 70.1123C80.0955 68.1509 79.823 66.782 79.5693 65.9287C79.5198 65.7626 79.4649 65.5982 79.4046 65.4357L79.356 65.438H79.3086C78.4224 65.4572 77.5364 65.3897 76.6633 65.2366C74.6284 64.8929 71.873 64.0348 68.628 62.0473C68.5569 62.2061 68.4858 62.3851 68.4147 62.5842C68.1824 63.242 67.9916 64.023 67.8268 64.8478C67.6811 65.5743 67.5614 66.3056 67.4476 66.9906L67.4037 67.2608C67.2817 67.9956 67.1596 68.7174 67.0174 69.24C66.7685 70.1478 66.5149 70.7926 66.2636 71.2548V71.256ZM64.6044 69.048C64.0691 68.1292 63.6488 67.148 63.3529 66.1266C62.9985 64.8632 62.8682 63.4956 63.1976 62.1433C63.5176 60.8278 64.2915 59.4447 65.8832 58.134C66.17 57.9396 66.3004 57.6789 66.3359 57.6089V57.6077C66.3982 57.4796 66.4482 57.3459 66.4853 57.2084C66.5232 57.0732 66.5647 56.8884 66.6038 56.7224L66.6452 56.5364C66.7578 56.0588 66.9036 55.5385 67.1643 55.0632C67.418 54.6034 67.7652 54.2099 68.2819 53.9527C68.801 53.6932 69.6046 53.5154 70.8632 53.6837C72.5852 53.9124 75.8243 54.4612 78.6046 55.8762C81.366 57.2806 83.4543 59.4068 83.4543 62.7786C83.4543 64.3311 82.9328 66.097 82.3047 67.4895C82.1862 66.5817 82.0155 65.8398 81.8401 65.252C81.7178 64.8318 81.5653 64.4211 81.3838 64.023C81.3154 63.8754 81.2402 63.7311 81.1586 63.5904L81.1385 63.5584L81.1314 63.5465L81.1278 63.5406L81.1254 63.5371L80.1299 64.177L81.1254 63.5371L80.6869 62.8568L79.9024 63.0144L79.8858 63.018L79.7708 63.0334C79.5944 63.053 79.4173 63.0649 79.2399 63.0689C78.5091 63.0831 77.7788 63.0259 77.0592 62.8983C75.1475 62.5759 72.3387 61.6977 68.9267 59.4258L68.0971 58.8723L67.4109 59.5952C66.8455 60.1902 66.4615 61.002 66.1807 61.7925C65.8939 62.6043 65.677 63.511 65.5028 64.3809C65.3583 65.1212 65.2271 65.864 65.1093 66.609L65.0643 66.8745C64.9374 67.646 64.8343 68.235 64.73 68.6166C64.6911 68.7613 64.6492 68.9051 64.6044 69.048ZM81.0555 69.5482L81.0603 69.5458L81.0555 69.5482ZM81.0603 69.5458L81.0555 69.5482L81.0591 69.5458H81.0603Z" fill="#316FD7"/>
<path fill-rule="evenodd" clip-rule="evenodd" d="M65.7718 79.4212C65.5206 78.921 65.2112 78.3036 64.6886 78.4233C58.284 79.881 51.6519 84.0895 51.6519 88.5646V95H94.3174V88.5646C94.3174 85.04 90.2026 81.6801 85.3257 79.6997L85.3197 79.6878C85.3143 79.6771 85.3088 79.6664 85.3031 79.6558L85.264 79.6748C83.9687 79.1533 82.62 78.7267 81.2807 78.4233C80.6846 78.287 80.0683 79.1071 79.7993 79.6203H65.8737C65.8406 79.5587 65.8074 79.4899 65.7718 79.4212ZM81.7583 80.9856C82.2763 81.129 82.7918 81.2902 83.3002 81.4679C83.3144 81.8733 83.2836 82.3521 83.2173 82.8403C83.1497 83.3459 83.0419 83.8452 82.8949 84.3336H81.2807C81.0607 84.3337 80.845 84.3951 80.6579 84.5109C80.4708 84.6266 80.3196 84.7922 80.2212 84.989L79.0361 87.3593C78.9536 87.5238 78.9106 87.7051 78.9104 87.8891V90.2594C78.9104 90.5737 79.0353 90.8752 79.2575 91.0974C79.4798 91.3197 79.7813 91.4445 80.0956 91.4445H82.4659V89.0742H81.2807V88.1688L82.0132 86.7039H85.2889L86.0213 88.1688V89.0742H84.8362V91.4445H87.2065C87.5208 91.4445 87.8223 91.3197 88.0445 91.0974C88.2668 90.8752 88.3916 90.5737 88.3916 90.2594V87.8891C88.3914 87.7051 88.3484 87.5238 88.266 87.3593L87.0809 84.989C86.9825 84.7922 86.8313 84.6266 86.6442 84.5109C86.457 84.3951 86.2414 84.3337 86.0213 84.3336H85.3505C85.497 83.7064 85.5952 83.0689 85.6445 82.4267C86.8 82.9731 87.8737 83.6 88.8041 84.2779C91.0819 85.9395 91.9471 87.4944 91.9471 88.5646V92.6297H54.0222V88.5646C54.0222 87.4944 54.8874 85.9395 57.1652 84.2779C58.3101 83.4424 59.6766 82.6863 61.1414 82.0605C61.1821 83.0049 61.3337 83.9413 61.593 84.8504L61.6025 84.8835C60.8939 85.3318 60.3666 86.016 60.1136 86.8153C59.8606 87.6146 59.8982 88.4776 60.2198 89.2519C60.5413 90.0262 61.1262 90.6619 61.871 91.0468C62.6158 91.4317 63.4727 91.5411 64.2903 91.3555C65.108 91.1699 65.8337 90.7013 66.3393 90.0326C66.845 89.3638 67.098 88.5379 67.0538 87.7006C67.0096 86.8634 66.6709 86.0687 66.0976 85.457C65.5243 84.8452 64.7532 84.4557 63.9206 84.3573C63.7692 83.8615 63.6582 83.3541 63.5888 82.8403C63.5228 82.3808 63.4954 81.9166 63.507 81.4525C63.5104 81.3639 63.5164 81.2754 63.5248 81.187C63.667 81.1432 63.8092 81.1005 63.9514 81.0602L64.4433 81.9918H81.2298L81.7583 80.9868V80.9856ZM63.5034 89.0932C64.1411 89.0932 64.6886 88.5717 64.6886 87.8903C64.6886 87.21 64.1411 86.6873 63.5034 86.6873C62.8658 86.6873 62.3183 87.2088 62.3183 87.8903C62.3183 88.5705 62.8658 89.0932 63.5034 89.0932Z" fill="#316FD7"/>
<defs>
<filter id="filter0_d_203_3" x="12.0202" y="10.6862" width="134.022" height="134.023" filterUnits="userSpaceOnUse" color-interpolation-filters="sRGB">
<feFlood flood-opacity="0" result="BackgroundImageFix"/>
<feColorMatrix in="SourceAlpha" type="matrix" values="0 0 0 0 0 0 0 0 0 0 0 0 0 0 0 0 0 0 127 0" result="hardAlpha"/>
<feOffset dx="5.54676" dy="3.69784"/>
<feGaussianBlur stdDeviation="6.28632"/>
<feComposite in2="hardAlpha" operator="out"/>
<feColorMatrix type="matrix" values="0 0 0 0 0.295052 0 0 0 0 0.332604 0 0 0 0 0.429167 0 0 0 0.05 0"/>
<feBlend mode="normal" in2="BackgroundImageFix" result="effect1_dropShadow_203_3"/>
<feBlend mode="normal" in="SourceGraphic" in2="effect1_dropShadow_203_3" result="shape"/>
</filter>
</defs>
</svg>
