<svg width="166" height="166" viewBox="0 0 166 166" fill="none" xmlns="http://www.w3.org/2000/svg">
<g filter="url(#filter0_d_203_6)">
<path d="M134.74 84.804C134.312 97.1302 134.098 103.293 131.735 108.613C130.594 111.182 129.097 113.577 127.29 115.729C123.546 120.186 118.101 123.083 107.213 128.875C96.3236 134.667 90.8791 137.563 85.0906 138.176C82.2956 138.472 79.473 138.374 76.7054 137.885C70.9733 136.871 65.743 133.604 55.2823 127.07C44.8217 120.536 39.5914 117.269 36.1659 112.563C34.512 110.291 33.1856 107.797 32.2256 105.156C30.2374 99.6846 30.4516 93.5215 30.8799 81.1953C31.3081 68.8691 31.5223 62.706 33.8854 57.3863C35.0264 54.8178 36.5226 52.4223 38.3303 50.2702C42.0741 45.8129 47.5186 42.9168 58.4076 37.1246C69.2965 31.3324 74.741 28.4363 80.5295 27.823C83.3244 27.5268 86.1471 27.6249 88.9147 28.1143C94.6468 29.128 99.8771 32.395 110.338 38.929C120.798 45.463 126.029 48.73 129.454 53.4363C131.108 55.7087 132.435 58.2023 133.394 60.8438C135.383 66.3147 135.169 72.4778 134.74 84.804Z" fill="white"/>
<path d="M133.991 84.778C133.56 97.1667 133.339 103.153 131.049 108.309C129.937 110.813 128.478 113.148 126.715 115.247C123.087 119.566 117.804 122.391 106.86 128.213C95.9161 134.034 90.621 136.836 85.0115 137.431C82.2865 137.719 79.5344 137.624 76.836 137.146C71.2812 136.164 66.1934 133.001 55.6797 126.434C45.166 119.867 40.0918 116.682 36.7723 112.122C35.1597 109.906 33.8665 107.475 32.9305 104.899C31.0038 99.5977 31.1989 93.6101 31.6294 81.2214C32.0599 68.8327 32.2808 62.8459 34.5708 57.6908C35.6833 55.1865 37.1421 52.8509 38.9046 50.7526C42.5326 46.4332 47.8156 43.6084 58.7598 37.7868C69.7039 31.9652 74.9991 29.1632 80.6085 28.5688C83.3336 28.2801 86.0857 28.3757 88.7841 28.8529C94.3388 29.8352 99.4267 32.9979 109.94 39.5651C120.454 46.1322 125.528 49.3169 128.848 53.8777C130.46 56.0933 131.754 58.5245 132.69 61.1C134.616 66.4016 134.421 72.3893 133.991 84.778Z" stroke="white" stroke-width="1.5"/>
</g>
<path d="M59.4847 87H69.4847L73.4847 81L81.4847 93L85.4847 87H91.4847" stroke="#316FD7" stroke-width="3" stroke-linecap="round" stroke-linejoin="round"/>
<path d="M58.5097 79C58.4847 78.675 58.4847 78.325 58.4847 78C58.4847 74.9947 59.526 72.0823 61.4313 69.7582C63.3366 67.4341 65.9883 65.8419 68.9352 65.2525C71.8822 64.6631 74.9423 65.1129 77.5949 66.5254C80.2475 67.938 82.3289 70.2259 83.4847 73C84.6406 70.2259 86.7219 67.938 89.3746 66.5254C92.0272 65.1129 95.0873 64.6631 98.0342 65.2525C100.981 65.8419 103.633 67.4341 105.538 69.7582C107.444 72.0823 108.485 74.9947 108.485 78C108.485 95 83.4847 109 83.4847 109C83.4847 109 73.5097 103.4 66.1597 95" stroke="#316FD7" stroke-width="3" stroke-linecap="round" stroke-linejoin="round"/>
<defs>
<filter id="filter0_d_203_6" x="23.5672" y="18.781" width="129.579" height="135.833" filterUnits="userSpaceOnUse" color-interpolation-filters="sRGB">
<feFlood flood-opacity="0" result="BackgroundImageFix"/>
<feColorMatrix in="SourceAlpha" type="matrix" values="0 0 0 0 0 0 0 0 0 0 0 0 0 0 0 0 0 0 127 0" result="hardAlpha"/>
<feOffset dx="5.54676" dy="3.69784"/>
<feGaussianBlur stdDeviation="6.28632"/>
<feComposite in2="hardAlpha" operator="out"/>
<feColorMatrix type="matrix" values="0 0 0 0 0.295052 0 0 0 0 0.332604 0 0 0 0 0.429167 0 0 0 0.05 0"/>
<feBlend mode="normal" in2="BackgroundImageFix" result="effect1_dropShadow_203_6"/>
<feBlend mode="normal" in="SourceGraphic" in2="effect1_dropShadow_203_6" result="shape"/>
</filter>
</defs>
</svg>
