<svg width="137" height="130" viewBox="0 0 137 130" fill="none" xmlns="http://www.w3.org/2000/svg">
<g filter="url(#filter0_d_203_5)">
<path d="M107.969 35.0192C114.136 45.7005 117.22 51.0411 118.034 56.8049C118.427 59.5878 118.427 62.4122 118.034 65.1951C117.22 70.9589 114.136 76.2995 107.969 86.9808C101.803 97.662 98.7191 103.003 94.1346 106.589C91.921 108.321 89.475 109.733 86.8684 110.785C81.4698 112.962 75.303 112.962 62.9694 112.962C50.6357 112.962 44.4689 112.962 39.0703 110.785C36.4637 109.733 34.0177 108.321 31.8041 106.589C27.2196 103.003 24.1362 97.662 17.9694 86.9808C11.8025 76.2995 8.71913 70.9589 7.90514 65.1951C7.51212 62.4122 7.51212 59.5878 7.90514 56.8049C8.71913 51.0411 11.8025 45.7005 17.9694 35.0192C24.1362 24.338 27.2196 18.9974 31.8042 15.4106C34.0178 13.6787 36.4637 12.2665 39.0703 11.2154C44.4689 9.03847 50.6357 9.03847 62.9694 9.03847C75.303 9.03847 81.4698 9.03847 86.8684 11.2154C89.475 12.2665 91.921 13.6787 94.1346 15.4106C98.7191 18.9974 101.803 24.338 107.969 35.0192Z" fill="white"/>
<path d="M107.32 35.3942C113.518 46.1296 116.502 51.3243 117.291 56.9097C117.674 59.6231 117.674 62.3769 117.291 65.0903C116.502 70.6757 113.518 75.8704 107.32 86.6058C101.122 97.3412 98.1152 102.523 93.6724 105.999C91.5142 107.687 89.1293 109.064 86.5879 110.089C81.3563 112.199 75.3655 112.212 62.9694 112.212C50.5732 112.212 44.5824 112.199 39.3508 110.089C36.8094 109.064 34.4246 107.687 32.2663 105.999C27.8235 102.523 24.817 97.3412 18.6189 86.6058C12.4208 75.8703 9.43658 70.6757 8.64777 65.0903C8.26458 62.3769 8.26458 59.6231 8.64777 56.9097C9.43658 51.3243 12.4208 46.1296 18.6189 35.3942C24.817 24.6588 27.8236 19.4771 32.2663 16.0013C34.4245 14.3127 36.8094 12.9358 39.3508 11.911C44.5824 9.80139 50.5732 9.78847 62.9694 9.78847C75.3655 9.78847 81.3563 9.80139 86.5879 11.911C89.1293 12.9358 91.5142 14.3127 93.6724 16.0013C98.1152 19.4771 101.122 24.6588 107.32 35.3942Z" stroke="white" stroke-width="1.5"/>
</g>
<path d="M38.3437 65.4269C36.2772 61.9453 35.5529 57.8291 36.3068 53.8513C37.0606 49.8735 39.2409 46.3077 42.4379 43.8237C45.635 41.3397 49.629 40.1084 53.6697 40.361C57.7105 40.6136 61.52 42.3328 64.3828 45.1956C67.2456 48.0584 68.9648 51.8679 69.2174 55.9087C69.47 59.9494 68.2387 63.9434 65.7547 67.1405C63.2707 70.3375 59.7049 72.5177 55.7271 73.2716C51.7493 74.0255 47.633 73.3012 44.1515 71.2347L38.4128 72.871C38.1764 72.9375 37.9265 72.9398 37.6889 72.8777C37.4512 72.8156 37.2344 72.6913 37.0608 72.5176C36.8871 72.3439 36.7628 72.1271 36.7007 71.8895C36.6386 71.6519 36.6409 71.402 36.7074 71.1656L38.3437 65.4269Z" stroke="#316FD7" stroke-width="3" stroke-linecap="round" stroke-linejoin="round"/>
<line x1="45.9847" y1="54.5" x2="53.9847" y2="54.5" stroke="#316FD7" stroke-width="3" stroke-linecap="round"/>
<line x1="51.9847" y1="60.5" x2="59.9847" y2="60.5" stroke="#316FD7" stroke-width="3" stroke-linecap="round"/>
<line x1="64.9847" y1="68.5" x2="72.9847" y2="68.5" stroke="#316FD7" stroke-width="3" stroke-linecap="round"/>
<path d="M51.7109 73.5394C52.5232 75.8552 53.8398 77.9618 55.5654 79.7068C57.2911 81.4518 59.3829 82.7917 61.6896 83.6297C63.9963 84.4676 66.4603 84.7828 68.9036 84.5524C71.347 84.3219 73.7086 83.5516 75.818 82.2972L81.5566 83.9335C81.7931 84 82.043 84.0023 82.2806 83.9402C82.5182 83.8781 82.735 83.7538 82.9087 83.5801C83.0824 83.4064 83.2067 83.1896 83.2688 82.952C83.3309 82.7144 83.3286 82.4645 83.2621 82.228L81.6258 76.4894C83.0866 74.0372 83.8893 71.2493 83.9561 68.3957C84.0228 65.5422 83.3513 62.7198 82.0066 60.202C80.662 57.6843 78.6897 55.5565 76.2811 54.025C73.8724 52.4935 71.109 51.6101 68.2586 51.4604" stroke="#316FD7" stroke-width="3" stroke-linecap="round" stroke-linejoin="round"/>
<defs>
<filter id="filter0_d_203_5" x="0.58446" y="0.163764" width="135.863" height="129.068" filterUnits="userSpaceOnUse" color-interpolation-filters="sRGB">
<feFlood flood-opacity="0" result="BackgroundImageFix"/>
<feColorMatrix in="SourceAlpha" type="matrix" values="0 0 0 0 0 0 0 0 0 0 0 0 0 0 0 0 0 0 127 0" result="hardAlpha"/>
<feOffset dx="5.54676" dy="3.69784"/>
<feGaussianBlur stdDeviation="6.28632"/>
<feComposite in2="hardAlpha" operator="out"/>
<feColorMatrix type="matrix" values="0 0 0 0 0.295052 0 0 0 0 0.332604 0 0 0 0 0.429167 0 0 0 0.05 0"/>
<feBlend mode="normal" in2="BackgroundImageFix" result="effect1_dropShadow_203_5"/>
<feBlend mode="normal" in="SourceGraphic" in2="effect1_dropShadow_203_5" result="shape"/>
</filter>
</defs>
</svg>
