<svg width="1222" height="1202" viewBox="0 0 1222 1202" fill="none" xmlns="http://www.w3.org/2000/svg">
<path d="M987.622 380.15C1051.77 450.737 1083.85 486.031 1093.49 530.348C1103.12 574.666 1088.59 620.092 1059.54 710.943L1031.55 798.463C1002.5 889.314 987.971 934.74 954.409 965.243C920.846 995.746 874.243 1005.88 781.036 1026.14L691.248 1045.66C598.041 1065.93 551.438 1076.06 508.24 1062.25C465.042 1048.43 432.966 1013.14 368.813 942.55L307.013 874.552C242.861 803.965 210.784 768.671 201.149 724.353C191.514 680.035 206.041 634.61 235.095 543.758L263.083 456.239C292.137 365.388 306.664 319.962 340.227 289.459C373.79 258.955 420.393 248.823 513.599 228.559L603.388 209.038C696.594 188.774 743.197 178.642 786.395 192.456C829.594 206.271 861.67 241.565 925.822 312.152L987.622 380.15Z" fill="url(#paint0_linear_70_8)"/>
<g style="mix-blend-mode:darken">
<path d="M370.309 702.533C411.768 716.684 432.497 723.76 448.366 736.988C457.397 744.516 465.183 753.424 471.434 763.382C482.419 780.879 486.656 802.368 495.131 845.348V845.348C503.605 888.327 507.842 909.817 504.32 930.174C502.316 941.76 498.495 952.956 492.997 963.349C483.337 981.611 466.845 996.025 433.86 1024.85V1024.85C400.876 1053.68 384.384 1068.1 364.994 1075.23C353.958 1079.28 342.351 1081.57 330.602 1082.01C309.956 1082.77 289.227 1075.7 247.769 1061.54V1061.54C206.31 1047.39 185.581 1040.32 169.712 1027.09C160.681 1019.56 152.895 1010.65 146.644 1000.7C135.659 983.2 131.422 961.71 122.948 918.73V918.73C114.473 875.751 110.236 854.261 113.758 833.904C115.762 822.319 119.583 811.122 125.081 800.729C134.741 782.468 151.233 768.053 184.218 739.225V739.225C217.202 710.396 233.694 695.982 253.085 688.853C264.12 684.796 275.727 682.507 287.476 682.072C308.122 681.307 328.851 688.383 370.309 702.533V702.533Z" fill="url(#paint1_linear_70_8)"/>
</g>
<g style="mix-blend-mode:darken">
<path d="M1004.27 757.384C1038 768.896 1054.86 774.653 1067.77 785.415C1075.12 791.54 1081.46 798.787 1086.54 806.888C1095.48 821.123 1098.93 838.606 1105.82 873.572C1112.71 908.539 1116.16 926.022 1113.3 942.584C1111.67 952.01 1108.56 961.118 1104.08 969.574C1096.23 984.431 1082.81 996.158 1055.97 1019.61C1029.14 1043.07 1015.72 1054.79 999.946 1060.59C990.968 1063.89 981.525 1065.76 971.966 1066.11C955.169 1066.73 938.305 1060.98 904.576 1049.46C870.847 1037.95 853.982 1032.19 841.072 1021.43C833.724 1015.31 827.39 1008.06 822.304 999.959C813.367 985.724 809.92 968.24 803.026 933.274C796.131 898.307 792.684 880.824 795.549 864.262C797.18 854.837 800.289 845.728 804.761 837.272C812.621 822.415 826.038 810.688 852.873 787.235C879.708 763.781 893.125 752.054 908.901 746.254C917.878 742.953 927.322 741.091 936.88 740.737C953.677 740.115 970.541 745.871 1004.27 757.384Z" fill="url(#paint2_linear_70_8)"/>
</g>
<path opacity="0.2" d="M534.563 640.826C535.555 642.326 536.57 643.863 537.611 645.44L536.777 645.991L538.306 648.306L539.835 650.622L540.669 650.071C541.71 651.647 542.725 653.185 543.715 654.687L542.88 655.237C543.918 656.812 544.929 658.347 545.913 659.845L546.749 659.296C547.79 660.881 548.802 662.424 549.784 663.927L548.946 664.474C549.983 666.061 550.987 667.604 551.959 669.106L552.799 668.563C553.831 670.157 554.827 671.705 555.789 673.212L554.946 673.75C555.968 675.351 556.95 676.904 557.896 678.414L558.743 677.884C559.753 679.497 560.72 681.062 561.647 682.584L560.792 683.104C561.78 684.727 562.721 686.302 563.618 687.834L564.481 687.329C565.444 688.974 566.356 690.573 567.221 692.133L566.346 692.617C567.265 694.274 568.128 695.886 568.941 697.464L569.83 697.006C570.698 698.693 571.509 700.342 572.266 701.967L571.359 702.389C572.15 704.085 572.881 705.753 573.558 707.408L574.483 707.029C575.191 708.76 575.841 710.478 576.437 712.2L575.492 712.527C575.791 713.391 576.077 714.256 576.349 715.123C576.669 716.143 576.977 717.165 577.272 718.19L578.233 717.914C578.828 719.984 579.372 722.066 579.864 724.157L578.891 724.386C579.38 726.467 579.818 728.557 580.205 730.655L581.188 730.473C581.578 732.59 581.916 734.715 582.202 736.846L581.211 736.979C581.495 739.096 581.727 741.219 581.907 743.346L582.904 743.262C583.085 745.405 583.214 747.553 583.29 749.703L582.291 749.739C582.367 751.872 582.391 754.007 582.362 756.143L583.362 756.156C583.333 758.306 583.252 760.456 583.118 762.605L582.12 762.543C581.987 764.672 581.802 766.799 581.565 768.923L582.559 769.034C582.321 771.169 582.03 773.301 581.687 775.428L580.7 775.268C580.53 776.321 580.347 777.373 580.151 778.424C579.984 779.318 579.804 780.21 579.61 781.104L580.588 781.316C580.202 783.096 579.763 784.879 579.267 786.683L578.303 786.417C577.829 788.141 577.303 789.885 576.721 791.663L577.671 791.974C577.114 793.678 576.506 795.412 575.846 797.191L574.909 796.843C574.291 798.506 573.627 800.21 572.913 801.965L573.84 802.341C573.168 803.994 572.454 805.69 571.695 807.438L570.777 807.04C570.07 808.669 569.324 810.345 568.538 812.075L569.448 812.488C568.71 814.111 567.938 815.78 567.128 817.503L566.223 817.077C565.466 818.69 564.676 820.349 563.853 822.061L564.754 822.494C563.979 824.105 563.176 825.762 562.342 827.468L561.443 827.029C560.658 828.637 559.846 830.289 559.007 831.988L559.903 832.431C559.108 834.041 558.289 835.694 557.444 837.393L556.549 836.947C555.752 838.552 554.932 840.197 554.089 841.885L554.984 842.332C554.181 843.941 553.357 845.589 552.513 847.279L551.618 846.832L550.377 849.313L549.137 851.795L550.031 852.242C549.186 853.932 548.362 855.58 547.556 857.188L546.662 856.74C545.817 858.427 544.993 860.07 544.188 861.671L545.082 862.12C544.23 863.815 543.399 865.462 542.588 867.064L541.696 866.612C540.84 868.304 540.006 869.945 539.191 871.538L540.081 871.993C539.217 873.684 538.374 875.321 537.55 876.907L536.662 876.446C535.787 878.132 534.933 879.759 534.098 881.333L534.981 881.802C534.089 883.482 533.218 885.102 532.362 886.666L531.485 886.186C530.573 887.853 529.68 889.456 528.801 890.999L529.67 891.494C528.727 893.15 527.799 894.739 526.88 896.268L526.023 895.753C525.048 897.377 524.083 898.93 523.123 900.423L523.964 900.964C522.937 902.559 521.915 904.086 520.886 905.554L520.067 904.98C518.993 906.513 517.914 907.98 516.82 909.394L517.61 910.006C516.465 911.484 515.302 912.906 514.11 914.283L513.354 913.628C512.755 914.319 512.149 914.999 511.534 915.669C510.811 916.456 510.08 917.233 509.339 918.001L510.059 918.695C508.564 920.246 507.033 921.758 505.468 923.23L504.782 922.501C503.226 923.965 501.635 925.39 500.011 926.773L500.66 927.534C499.022 928.931 497.35 930.286 495.648 931.599L495.037 930.807C493.346 932.111 491.623 933.374 489.871 934.593L490.443 935.414C488.677 936.643 486.881 937.829 485.057 938.97L484.527 938.122C482.718 939.254 480.88 940.342 479.016 941.386L479.505 942.258C477.629 943.308 475.726 944.313 473.798 945.271L473.353 944.376C471.443 945.325 469.508 946.229 467.55 947.086L467.951 948.002C465.983 948.863 463.991 949.677 461.978 950.443L461.622 949.509C460.625 949.888 459.623 950.256 458.615 950.611C457.757 950.914 456.894 951.204 456.024 951.483L456.329 952.435C454.594 952.991 452.83 953.503 451.021 953.975L450.768 953.008C449.038 953.459 447.265 953.875 445.434 954.26L445.64 955.239C443.886 955.608 442.08 955.949 440.21 956.267L440.043 955.281C438.293 955.578 436.485 955.854 434.609 956.114L434.746 957.104C432.979 957.349 431.153 957.578 429.259 957.795L429.146 956.802C427.381 957.004 425.557 957.196 423.666 957.379L423.763 958.375C421.989 958.547 420.156 958.712 418.26 958.873L418.176 957.876C416.401 958.026 414.569 958.172 412.675 958.315L412.75 959.312C410.968 959.447 409.131 959.579 407.237 959.71L407.168 958.713C405.383 958.836 403.546 958.959 401.654 959.082L401.719 960.08C399.927 960.197 398.086 960.313 396.193 960.431L396.131 959.433C394.343 959.545 392.508 959.657 390.625 959.772L390.686 960.77C388.891 960.879 387.051 960.99 385.166 961.103L385.106 960.105L382.336 960.271L379.566 960.438L379.626 961.436C377.74 961.549 375.901 961.659 374.106 961.766L374.047 960.767C372.163 960.879 370.328 960.987 368.54 961.09L368.597 962.089C366.704 962.198 364.862 962.302 363.069 962.401L363.014 961.403C361.121 961.507 359.283 961.605 357.496 961.696L357.547 962.695C355.65 962.791 353.811 962.88 352.025 962.959L351.981 961.96C350.084 962.045 348.247 962.119 346.467 962.183L346.502 963.182C344.601 963.25 342.762 963.305 340.98 963.346L340.957 962.347C339.057 962.39 337.223 962.418 335.447 962.429L335.453 963.429C333.547 963.44 331.707 963.431 329.923 963.4L329.941 962.4C328.047 962.367 326.219 962.309 324.446 962.223L324.398 963.222C322.504 963.131 320.67 963.008 318.884 962.851L318.972 961.855C317.108 961.692 315.298 961.491 313.526 961.25L313.391 962.241C311.538 961.988 309.726 961.692 307.937 961.347L308.126 960.365C307.228 960.192 306.337 960.007 305.449 959.809C304.406 959.577 303.367 959.332 302.332 959.075L302.09 960.046C300 959.526 297.925 958.956 295.868 958.337L296.156 957.379C294.11 956.763 292.081 956.097 290.071 955.383L289.736 956.325C287.707 955.605 285.698 954.835 283.71 954.017L284.09 953.092C282.115 952.279 280.16 951.419 278.228 950.511L277.803 951.417C275.856 950.502 273.931 949.54 272.031 948.531L272.5 947.648C270.615 946.647 268.754 945.6 266.919 944.507L266.407 945.366C264.56 944.267 262.738 943.121 260.944 941.931L261.497 941.098C259.72 939.918 257.97 938.694 256.249 937.427L255.656 938.232C253.926 936.958 252.225 935.64 250.555 934.28L251.186 933.505C250.359 932.831 249.54 932.146 248.728 931.452C248.038 930.86 247.354 930.258 246.677 929.643L246.005 930.384C244.657 929.16 243.332 927.888 242.018 926.557L242.729 925.854C241.474 924.582 240.227 923.255 238.977 921.861L238.233 922.529C237.036 921.194 235.838 919.801 234.628 918.34L235.398 917.703C234.266 916.336 233.123 914.908 231.96 913.413L231.17 914.027C230.075 912.619 228.964 911.153 227.829 909.621L228.633 909.026C227.575 907.599 226.497 906.115 225.392 904.569L224.579 905.15C223.542 903.7 222.483 902.196 221.396 900.634L222.217 900.063C221.199 898.601 220.157 897.087 219.087 895.519L218.261 896.082C217.253 894.606 216.22 893.082 215.159 891.507L215.988 890.948C214.989 889.464 213.964 887.935 212.912 886.358L212.08 886.913C211.083 885.419 210.062 883.883 209.013 882.303L209.846 881.75C208.856 880.257 207.841 878.725 206.8 877.151L205.966 877.702C204.974 876.202 203.958 874.665 202.917 873.089L203.752 872.538L202.223 870.222L200.694 867.907L199.859 868.458C198.818 866.881 197.804 865.343 196.814 863.842L197.649 863.291C196.61 861.716 195.599 860.181 194.615 858.684L193.78 859.233C192.738 857.648 191.727 856.105 190.745 854.601L191.582 854.055C190.545 852.467 189.541 850.924 188.569 849.422L187.73 849.966C186.698 848.372 185.702 846.823 184.74 845.316L185.583 844.778C184.561 843.178 183.578 841.625 182.633 840.114L181.785 840.645C180.776 839.032 179.808 837.467 178.882 835.944L179.736 835.424C178.748 833.801 177.807 832.227 176.91 830.694L176.047 831.199C175.084 829.554 174.172 827.956 173.307 826.396L174.182 825.911C173.264 824.254 172.4 822.642 171.588 821.064L170.699 821.522C169.831 819.836 169.02 818.186 168.263 816.562L169.169 816.139C168.379 814.443 167.647 812.775 166.971 811.12L166.045 811.499C165.337 809.768 164.688 808.05 164.092 806.329L165.037 806.002C164.737 805.138 164.452 804.273 164.179 803.405C163.859 802.386 163.551 801.364 163.257 800.338L162.295 800.615C161.7 798.544 161.156 796.463 160.664 794.371L161.638 794.142C161.148 792.062 160.71 789.972 160.323 787.874L159.34 788.055C158.95 785.938 158.612 783.813 158.326 781.682L159.317 781.549C159.033 779.432 158.801 777.309 158.621 775.183L157.625 775.267C157.443 773.123 157.314 770.975 157.238 768.825L158.237 768.79C158.162 766.657 158.138 764.521 158.166 762.386L157.166 762.372C157.195 760.222 157.276 758.072 157.41 755.924L158.408 755.986C158.541 753.857 158.726 751.729 158.963 749.606L157.969 749.495C158.207 747.359 158.498 745.227 158.841 743.101L159.829 743.26C159.999 742.207 160.182 741.155 160.378 740.105C160.544 739.211 160.725 738.318 160.918 737.425L159.941 737.213C160.327 735.432 160.766 733.649 161.261 731.846L162.226 732.111C162.699 730.387 163.226 728.644 163.808 726.865L162.857 726.554C163.415 724.85 164.022 723.116 164.682 721.338L165.62 721.686C166.237 720.022 166.902 718.318 167.615 716.564L166.689 716.187C167.36 714.535 168.075 712.839 168.834 711.09L169.751 711.488C170.458 709.859 171.204 708.184 171.991 706.454L171.08 706.04C171.818 704.417 172.591 702.748 173.4 701.026L174.305 701.451C175.063 699.839 175.853 698.179 176.676 696.468L175.774 696.034C176.549 694.423 177.353 692.767 178.186 691.06L179.085 691.499C179.87 689.892 180.682 688.24 181.522 686.54L180.625 686.097C181.42 684.487 182.24 682.834 183.084 681.136L183.979 681.581C184.777 679.977 185.597 678.332 186.439 676.643L185.545 676.197C186.348 674.588 187.171 672.939 188.016 671.25L188.91 671.697L190.151 669.215L191.392 666.733L190.497 666.286C191.342 664.596 192.167 662.948 192.972 661.341L193.866 661.788C194.711 660.101 195.535 658.458 196.34 656.858L195.447 656.408C196.299 654.714 197.129 653.067 197.94 651.464L198.832 651.916C199.688 650.225 200.523 648.584 201.337 646.991L200.447 646.535C201.312 644.845 202.155 643.208 202.979 641.621L203.866 642.082C204.741 640.397 205.595 638.769 206.43 637.196L205.547 636.727C206.439 635.046 207.311 633.426 208.166 631.862L209.044 632.342C209.955 630.675 210.848 629.073 211.727 627.53L210.858 627.035C211.802 625.378 212.73 623.789 213.648 622.26L214.505 622.775C215.481 621.152 216.445 619.598 217.406 618.105L216.565 617.564C217.591 615.969 218.614 614.443 219.642 612.974L220.461 613.548C221.535 612.016 222.614 610.548 223.709 609.135L222.918 608.523C224.063 607.044 225.226 605.623 226.419 604.246L227.175 604.901C227.773 604.209 228.379 603.53 228.995 602.86C229.717 602.073 230.449 601.295 231.189 600.527L230.469 599.833C231.964 598.283 233.495 596.771 235.061 595.299L235.746 596.027C237.303 594.563 238.894 593.139 240.517 591.755L239.868 590.994C241.507 589.598 243.178 588.242 244.881 586.929L245.492 587.721C247.183 586.417 248.905 585.155 250.657 583.935L250.086 583.115C251.852 581.886 253.647 580.7 255.471 579.559L256.001 580.406C257.811 579.274 259.648 578.186 261.512 577.143L261.024 576.27C262.9 575.22 264.803 574.215 266.73 573.257L267.175 574.153C269.086 573.203 271.02 572.299 272.978 571.443L272.577 570.527C274.546 569.665 276.538 568.851 278.551 568.085L278.906 569.02C279.903 568.64 280.906 568.273 281.913 567.917C282.771 567.615 283.634 567.324 284.505 567.045L284.2 566.093C285.934 565.537 287.698 565.026 289.508 564.553L289.76 565.521C291.49 565.069 293.263 564.653 295.094 564.268L294.888 563.289C296.643 562.92 298.448 562.579 300.318 562.262L300.486 563.248C302.236 562.95 304.043 562.674 305.919 562.415L305.782 561.424C307.549 561.18 309.375 560.95 311.269 560.733L311.383 561.727C313.147 561.525 314.971 561.333 316.862 561.149L316.766 560.154C318.54 559.981 320.372 559.816 322.268 559.656L322.352 560.652C324.128 560.502 325.96 560.356 327.853 560.213L327.778 559.216C329.561 559.081 331.397 558.949 333.292 558.818L333.361 559.816C335.146 559.692 336.982 559.569 338.874 559.446L338.809 558.448C340.601 558.332 342.442 558.215 344.335 558.097L344.397 559.095C346.186 558.984 348.02 558.871 349.904 558.757L349.843 557.759C351.638 557.649 353.477 557.539 355.363 557.425L355.423 558.423L358.193 558.257L360.962 558.091L360.902 557.092C362.788 556.979 364.627 556.869 366.423 556.763L366.482 557.761C368.365 557.649 370.2 557.542 371.989 557.438L371.931 556.44C373.825 556.33 375.667 556.226 377.46 556.127L377.515 557.126C379.407 557.021 381.246 556.923 383.032 556.833L382.982 555.834C384.878 555.737 386.717 555.649 388.503 555.569L388.548 556.568C390.445 556.484 392.281 556.409 394.062 556.346L394.026 555.346C395.928 555.278 397.767 555.223 399.549 555.182L399.572 556.182C401.471 556.138 403.305 556.11 405.081 556.1L405.075 555.1C406.981 555.089 408.822 555.098 410.605 555.129L410.588 556.129C412.481 556.162 414.309 556.22 416.082 556.305L416.13 555.306C418.025 555.398 419.858 555.52 421.644 555.677L421.557 556.673C423.421 556.837 425.231 557.037 427.002 557.279L427.137 556.288C428.99 556.54 430.803 556.837 432.591 557.181L432.402 558.163C433.3 558.336 434.192 558.521 435.08 558.719C436.122 558.951 437.162 559.196 438.197 559.453L438.438 558.483C440.528 559.002 442.603 559.572 444.661 560.192L444.373 561.149C446.419 561.766 448.448 562.431 450.458 563.145L450.793 562.203C452.821 562.924 454.83 563.694 456.819 564.512L456.438 565.436C458.414 566.249 460.368 567.109 462.3 568.017L462.725 567.112C464.672 568.027 466.597 568.989 468.497 569.998L468.028 570.881C469.914 571.882 471.775 572.929 473.61 574.021L474.121 573.162C475.969 574.262 477.79 575.407 479.584 576.598L479.031 577.431C480.809 578.61 482.559 579.834 484.279 581.101L484.872 580.296C486.603 581.57 488.304 582.888 489.974 584.248L489.342 585.024C490.169 585.698 490.988 586.382 491.8 587.077C492.491 587.668 493.174 588.271 493.851 588.885L494.523 588.145C495.872 589.369 497.197 590.641 498.511 591.972L497.799 592.674C499.055 593.946 500.302 595.274 501.551 596.667L502.295 595.999C503.492 597.334 504.691 598.727 505.9 600.188L505.13 600.826C506.263 602.193 507.406 603.62 508.569 605.115L509.358 604.501C510.453 605.909 511.564 607.376 512.699 608.907L511.896 609.503C512.953 610.93 514.031 612.413 515.136 613.959L515.95 613.378C516.986 614.828 518.045 616.332 519.132 617.894L518.311 618.465C519.329 619.928 520.371 621.441 521.442 623.01L522.268 622.446C523.276 623.922 524.309 625.447 525.369 627.022L524.54 627.581C525.539 629.065 526.564 630.594 527.617 632.171L528.448 631.615C529.445 633.109 530.467 634.645 531.516 636.226L530.682 636.778C531.673 638.271 532.688 639.804 533.728 641.378L534.563 640.826Z" stroke="url(#paint3_linear_70_8)" stroke-width="2" stroke-dasharray="5.88 5.88"/>
<path opacity="0.2" d="M1076.79 350.769L1077.86 355.62L1076.88 355.834L1077.41 358.259L1078.06 361.233L1079.04 361.019C1079.48 363.011 1079.91 364.975 1080.33 366.912L1079.36 367.126C1079.79 369.118 1080.22 371.082 1080.64 373.018L1081.62 372.805C1082.05 374.799 1082.48 376.764 1082.9 378.7L1081.92 378.911C1082.36 380.907 1082.78 382.872 1083.2 384.808L1084.17 384.598C1084.6 386.597 1085.02 388.564 1085.43 390.501L1084.45 390.709C1084.88 392.709 1085.29 394.677 1085.69 396.614L1086.67 396.411C1087.09 398.415 1087.49 400.387 1087.89 402.326L1086.91 402.525C1087.32 404.531 1087.71 406.502 1088.09 408.441L1089.07 408.247C1089.47 410.258 1089.85 412.233 1090.22 414.174L1089.24 414.36C1089.62 416.37 1089.99 418.344 1090.34 420.282L1091.32 420.105C1091.68 422.119 1092.03 424.096 1092.36 426.038L1091.37 426.205C1091.71 428.228 1092.04 430.212 1092.34 432.16L1093.33 432.006C1093.64 434.036 1093.93 436.027 1094.2 437.981L1093.21 438.118C1093.49 440.142 1093.75 442.125 1093.98 444.07L1094.97 443.953C1095.21 445.997 1095.43 448.001 1095.61 449.968L1094.62 450.062C1094.81 452.094 1094.97 454.084 1095.1 456.038L1096.1 455.972C1096.23 458.024 1096.33 460.035 1096.4 462.01L1095.4 462.042C1095.46 464.077 1095.49 466.073 1095.47 468.033L1096.47 468.04C1096.46 470.086 1096.4 472.094 1096.3 474.071L1095.3 474.019C1095.2 476.041 1095.04 478.029 1094.84 479.989L1095.84 480.091C1095.63 482.113 1095.37 484.105 1095.05 486.074L1094.07 485.916C1093.75 487.895 1093.38 489.849 1092.95 491.786L1093.93 492.001C1093.5 493.967 1093 495.916 1092.45 497.852L1091.49 497.578C1091.22 498.534 1090.93 499.488 1090.63 500.439C1090.33 501.391 1090.01 502.335 1089.68 503.274L1090.62 503.605C1089.96 505.505 1089.23 507.379 1088.45 509.235L1087.53 508.848C1086.76 510.675 1085.94 512.485 1085.05 514.283L1085.95 514.724C1085.07 516.513 1084.13 518.29 1083.13 520.061L1082.26 519.571C1081.3 521.287 1080.27 522.999 1079.19 524.711L1080.04 525.245C1078.98 526.918 1077.87 528.592 1076.7 530.27L1075.88 529.698C1074.76 531.307 1073.58 532.921 1072.36 534.545L1073.15 535.148C1071.96 536.725 1070.72 538.309 1069.42 539.906L1068.65 539.277C1067.41 540.798 1066.13 542.331 1064.81 543.879L1065.56 544.53C1064.28 546.029 1062.95 547.542 1061.57 549.072L1060.82 548.402C1059.51 549.858 1058.16 551.33 1056.76 552.82L1057.49 553.504C1056.14 554.943 1054.76 556.4 1053.33 557.876L1052.61 557.18C1051.24 558.596 1049.83 560.03 1048.38 561.485L1049.09 562.19C1047.7 563.586 1046.28 565.001 1044.82 566.436L1044.12 565.723C1042.71 567.104 1041.27 568.504 1039.8 569.926L1040.5 570.645C1039.08 572.018 1037.62 573.41 1036.14 574.823L1035.45 574.098C1034.02 575.46 1032.56 576.842 1031.07 578.245L1031.75 578.973C1030.31 580.329 1028.84 581.704 1027.35 583.101L1026.66 582.369C1025.22 583.718 1023.74 585.087 1022.24 586.476L1022.92 587.21C1021.47 588.555 1019.99 589.919 1018.49 591.304L1017.81 590.568C1016.35 591.909 1014.87 593.269 1013.37 594.649L1014.04 595.386C1012.58 596.725 1011.1 598.082 1009.59 599.46L1008.92 598.722C1007.46 600.059 1005.97 601.414 1004.47 602.79L1005.14 603.528C1003.68 604.865 1002.19 606.22 1000.68 607.595L1000.01 606.856L997.76 608.908L995.926 610.581L996.6 611.32L992.931 614.667L992.257 613.928L988.588 617.275L989.262 618.014L985.593 621.36L984.919 620.622L983.084 622.295L980.835 624.347L981.509 625.086C980.002 626.46 978.517 627.815 977.051 629.15L976.378 628.411C974.87 629.785 973.384 631.139 971.918 632.472L972.591 633.212C971.082 634.585 969.594 635.938 968.127 637.269L967.455 636.528C965.943 637.9 964.453 639.25 962.984 640.578L963.655 641.319C962.138 642.69 960.644 644.037 959.172 645.361L958.503 644.617C956.982 645.984 955.485 647.327 954.009 648.644L954.675 649.39C953.147 650.753 951.642 652.09 950.16 653.401L949.498 652.652C947.964 654.008 946.454 655.336 944.967 656.636L945.625 657.389C944.082 658.737 942.563 660.056 941.066 661.345L940.413 660.588C938.863 661.923 937.337 663.226 935.833 664.498L936.479 665.262C934.916 666.584 933.376 667.872 931.859 669.127L931.221 668.356C929.64 669.664 928.083 670.935 926.548 672.171L927.174 672.95C925.574 674.238 923.996 675.487 922.439 676.698L921.825 675.909C920.213 677.163 918.623 678.376 917.054 679.548L917.652 680.349C916.002 681.581 914.374 682.769 912.764 683.913L912.185 683.097C910.521 684.279 908.877 685.414 907.249 686.502L907.805 687.333C906.096 688.476 904.404 689.568 902.725 690.611L902.198 689.761C900.468 690.835 898.753 691.856 897.049 692.825L897.543 693.694C895.764 694.704 893.996 695.659 892.233 696.558L891.778 695.667C889.974 696.587 888.176 697.449 886.379 698.254L886.787 699.167C884.932 699.997 883.077 700.768 881.215 701.48L880.857 700.546C878.986 701.262 877.108 701.919 875.218 702.517L875.519 703.47C873.6 704.078 871.667 704.626 869.714 705.116L869.47 704.146C868.506 704.389 867.536 704.616 866.561 704.83C865.586 705.044 864.61 705.243 863.633 705.427L863.817 706.409C861.838 706.781 859.853 707.093 857.856 707.344L857.731 706.352C855.763 706.6 853.783 706.79 851.784 706.923L851.85 707.921C849.861 708.053 847.853 708.129 845.821 708.152L845.81 707.152C843.84 707.173 841.847 707.143 839.824 707.062L839.784 708.061C837.806 707.983 835.8 707.856 833.763 707.683L833.847 706.686C831.894 706.52 829.909 706.311 827.889 706.059L827.765 707.052C825.804 706.807 823.81 706.523 821.78 706.201L821.937 705.213C820.003 704.906 818.035 704.564 816.03 704.187L815.845 705.169C813.904 704.805 811.928 704.408 809.914 703.979L810.122 703.001C808.206 702.593 806.254 702.157 804.265 701.693L804.038 702.667C802.117 702.218 800.161 701.744 798.169 701.244L798.412 700.274C796.5 699.795 794.554 699.292 792.571 698.766L792.314 699.733C790.411 699.228 788.474 698.702 786.501 698.156L786.768 697.192C784.87 696.666 782.938 696.121 780.971 695.558L780.696 696.519C778.797 695.974 776.865 695.413 774.899 694.834L775.182 693.874C773.287 693.316 771.36 692.742 769.4 692.152L769.111 693.11C767.217 692.54 765.291 691.955 763.333 691.356L763.625 690.4C761.733 689.821 759.811 689.229 757.858 688.624L757.562 689.579C755.671 688.993 753.75 688.395 751.799 687.785L752.097 686.831C750.208 686.24 748.29 685.637 746.342 685.024L746.042 685.978C744.152 685.383 742.235 684.777 740.289 684.162L740.591 683.208C738.702 682.611 736.786 682.003 734.842 681.386L734.539 682.34C732.649 681.74 730.733 681.131 728.79 680.514L729.092 679.561L726.191 678.639L723.824 677.887L723.521 678.84L718.789 677.336L719.091 676.383L714.359 674.879L714.056 675.832L709.323 674.328L709.626 673.375L707.259 672.622L704.358 671.7L704.055 672.653C702.111 672.036 700.195 671.426 698.306 670.825L698.609 669.872C696.665 669.254 694.75 668.644 692.863 668.041L692.558 668.994C690.614 668.373 688.699 667.761 686.813 667.156L687.118 666.204C685.174 665.58 683.26 664.965 681.376 664.357L681.069 665.308C679.123 664.68 677.21 664.06 675.327 663.446L675.637 662.496C673.692 661.862 671.781 661.236 669.902 660.617L669.589 661.566C667.645 660.925 665.735 660.291 663.858 659.662L664.176 658.714C662.235 658.064 660.33 657.42 658.46 656.782L658.137 657.729C656.198 657.067 654.296 656.41 652.431 655.759L652.761 654.815C650.83 654.14 648.938 653.469 647.084 652.803L646.746 653.744C644.82 653.051 642.934 652.362 641.089 651.676L641.437 650.738C639.514 650.023 637.635 649.31 635.797 648.598L635.436 649.53C633.52 648.788 631.65 648.046 629.822 647.304L630.199 646.377C628.306 645.608 626.461 644.838 624.661 644.065L624.266 644.983C622.375 644.171 620.532 643.354 618.736 642.532L619.153 641.623C617.297 640.772 615.493 639.916 613.737 639.051L613.295 639.948C611.451 639.039 609.659 638.12 607.916 637.187L608.388 636.306C606.593 635.345 604.852 634.37 603.161 633.378L602.655 634.241C600.891 633.206 599.18 632.151 597.519 631.074L598.064 630.235C596.365 629.133 594.72 628.007 593.124 626.852L592.538 627.662C590.891 626.471 589.296 625.25 587.748 623.993L588.378 623.217C586.822 621.954 585.315 620.656 583.851 619.318L583.177 620.056C581.691 618.697 580.249 617.297 578.848 615.851L579.567 615.155C578.875 614.441 578.192 613.716 577.52 612.978C576.847 612.24 576.187 611.494 575.539 610.74L574.78 611.391C573.469 609.864 572.207 608.3 570.99 606.696L571.787 606.092C570.588 604.512 569.434 602.892 568.319 601.227L567.488 601.783C566.379 600.126 565.309 598.426 564.273 596.677L565.134 596.168C564.131 594.473 563.16 592.731 562.218 590.939L561.333 591.404C560.412 589.651 559.519 587.851 558.65 586L559.555 585.575C558.722 583.8 557.911 581.977 557.119 580.101L556.198 580.49C555.429 578.67 554.678 576.801 553.942 574.881L554.876 574.524C554.175 572.695 553.488 570.82 552.811 568.895L551.868 569.226C551.213 567.362 550.569 565.453 549.933 563.494L550.884 563.186C550.279 561.322 549.681 559.414 549.089 557.459L548.132 557.749C547.56 555.862 546.993 553.931 546.429 551.955L547.391 551.681C546.85 549.786 546.313 547.849 545.776 545.868L544.811 546.13C544.296 544.229 543.783 542.288 543.27 540.307L544.238 540.056C543.744 538.149 543.25 536.204 542.755 534.219L541.785 534.461C541.307 532.544 540.828 530.59 540.346 528.598L541.318 528.363C540.854 526.443 540.388 524.487 539.918 522.495L538.945 522.724C538.491 520.798 538.035 518.838 537.574 516.842L538.549 516.618C538.104 514.69 537.656 512.73 537.203 510.735L536.228 510.957C535.79 509.026 535.347 507.063 534.9 505.068L535.876 504.85C535.443 502.918 535.006 500.956 534.563 498.962L533.587 499.179C533.157 497.245 532.723 495.282 532.283 493.289L533.26 493.074C533.115 492.418 532.97 491.758 532.824 491.096C532.539 489.804 532.252 488.5 531.963 487.184L530.986 487.398C530.561 485.462 530.13 483.498 529.693 481.506L530.669 481.292L530.017 478.318L529.485 475.892L528.508 476.107L527.445 471.256L528.421 471.042L527.357 466.191L526.381 466.405L525.317 461.554L526.293 461.34L525.762 458.915L525.109 455.941L524.133 456.155C523.696 454.163 523.265 452.199 522.841 450.262L523.818 450.048C523.382 448.056 522.953 446.092 522.531 444.156L521.554 444.369C521.119 442.375 520.692 440.41 520.272 438.474L521.25 438.262C520.818 436.267 520.394 434.302 519.978 432.366L519.001 432.576C518.572 430.577 518.152 428.61 517.742 426.672L518.72 426.465C518.297 424.465 517.883 422.496 517.481 420.56L516.502 420.763C516.085 418.759 515.679 416.787 515.285 414.848L516.265 414.649C515.857 412.643 515.462 410.671 515.08 408.733L514.099 408.927C513.703 406.916 513.32 404.941 512.952 403L513.935 402.814C513.553 400.804 513.188 398.83 512.838 396.892L511.854 397.069C511.491 395.055 511.145 393.077 510.817 391.136L511.803 390.969C511.461 388.946 511.138 386.962 510.836 385.014L509.848 385.168C509.533 383.137 509.24 381.147 508.97 379.193L509.96 379.056C509.68 377.032 509.425 375.049 509.194 373.104L508.201 373.221C507.959 371.177 507.745 369.173 507.559 367.206L508.555 367.112C508.363 365.08 508.203 363.089 508.074 361.136L507.076 361.202C506.941 359.15 506.841 357.139 506.778 355.164L507.777 355.131C507.712 353.097 507.685 351.101 507.699 349.14L506.699 349.133C506.713 347.088 506.771 345.08 506.874 343.103L507.872 343.155C507.978 341.133 508.13 339.145 508.332 337.185L507.337 337.083C507.546 335.061 507.806 333.069 508.12 331.1L509.107 331.257C509.423 329.279 509.793 327.324 510.221 325.388L509.244 325.173C509.678 323.206 510.17 321.258 510.722 319.322L511.683 319.596C511.956 318.64 512.243 317.686 512.545 316.734C512.848 315.783 513.164 314.838 513.493 313.9L512.55 313.569C513.217 311.669 513.94 309.794 514.721 307.939L515.643 308.326C516.412 306.499 517.237 304.689 518.122 302.891L517.225 302.45C518.105 300.661 519.042 298.883 520.039 297.113L520.911 297.603C521.877 295.887 522.9 294.175 523.981 292.463L523.136 291.929C524.193 290.256 525.305 288.582 526.474 286.904L527.295 287.476C528.416 285.867 529.589 284.253 530.817 282.629L530.02 282.026C531.212 280.449 532.455 278.865 533.749 277.268L534.526 277.897C535.759 276.376 537.039 274.843 538.369 273.295L537.61 272.644C538.897 271.145 540.228 269.632 541.606 268.102L542.349 268.772C543.66 267.316 545.014 265.844 546.411 264.354L545.681 263.67C547.03 262.23 548.418 260.774 549.847 259.298L550.566 259.994C551.937 258.578 553.345 257.144 554.792 255.689L554.083 254.984C555.472 253.588 556.896 252.173 558.356 250.738L559.057 251.451C560.461 250.07 561.899 248.669 563.371 247.248L562.676 246.529C564.097 245.156 565.549 243.764 567.034 242.351L567.723 243.076C569.154 241.714 570.615 240.332 572.106 238.929L571.42 238.201C572.862 236.845 574.331 235.469 575.829 234.073L576.51 234.805C577.957 233.456 579.431 232.087 580.932 230.698L580.253 229.964C581.706 228.619 583.184 227.255 584.688 225.87L585.365 226.606C586.822 225.265 588.303 223.905 589.807 222.525L589.132 221.788C590.592 220.449 592.075 219.092 593.581 217.714L594.256 218.452C595.718 217.115 597.202 215.759 598.708 214.384L598.034 213.646C599.498 212.309 600.984 210.954 602.49 209.579L603.164 210.318L605.413 208.266L607.248 206.593L606.574 205.854L610.243 202.507L610.917 203.246L614.586 199.899L613.912 199.16L617.581 195.814L618.255 196.552L620.089 194.879L622.339 192.827L621.665 192.088C623.171 190.714 624.657 189.359 626.123 188.024L626.796 188.763C628.304 187.389 629.79 186.035 631.255 184.702L630.582 183.962C632.092 182.589 633.58 181.236 635.047 179.905L635.719 180.646C637.231 179.274 638.721 177.924 640.189 176.596L639.519 175.855C641.035 174.484 642.529 173.137 644.002 171.813L644.67 172.557C646.191 171.189 647.689 169.847 649.165 168.53L648.499 167.784C650.027 166.421 651.531 165.084 653.014 163.773L653.676 164.522C655.21 163.166 656.719 161.838 658.207 160.538L657.549 159.785C659.092 158.436 660.611 157.118 662.108 155.828L662.76 156.586C664.311 155.251 665.837 153.948 667.341 152.676L666.695 151.912C668.258 150.59 669.797 149.302 671.315 148.047L671.952 148.818C673.533 147.51 675.091 146.239 676.626 145.003L675.999 144.224C677.6 142.936 679.177 141.687 680.734 140.476L681.348 141.265C682.961 140.011 684.55 138.798 686.12 137.626L685.522 136.825C687.171 135.593 688.8 134.405 690.41 133.261L690.989 134.077C692.653 132.895 694.297 131.76 695.924 130.672L695.369 129.841C697.078 128.698 698.769 127.606 700.448 126.563L700.976 127.413C702.705 126.339 704.42 125.318 706.125 124.349L705.631 123.48C707.409 122.47 709.178 121.515 710.941 120.616L711.396 121.507C713.199 120.587 714.997 119.725 716.795 118.92L716.387 118.007C718.241 117.177 720.097 116.406 721.959 115.694L722.316 116.628C724.188 115.912 726.066 115.255 727.956 114.657L727.654 113.704C729.574 113.096 731.507 112.548 733.46 112.058L733.704 113.028C734.668 112.785 735.638 112.557 736.613 112.344C737.588 112.13 738.564 111.931 739.541 111.747L739.356 110.764C741.335 110.392 743.32 110.081 745.318 109.83L745.443 110.822C747.41 110.574 749.39 110.384 751.39 110.251L751.323 109.253C753.313 109.121 755.321 109.044 757.353 109.022L757.364 110.022C759.333 110.001 761.327 110.031 763.35 110.112L763.39 109.112C765.368 109.191 767.373 109.318 769.411 109.491L769.326 110.488C771.28 110.654 773.265 110.863 775.285 111.115L775.409 110.122C777.37 110.367 779.364 110.651 781.394 110.973L781.237 111.961C783.171 112.268 785.138 112.61 787.144 112.987L787.329 112.004C789.27 112.369 791.246 112.766 793.26 113.195L793.052 114.173C794.968 114.581 796.919 115.017 798.909 115.481L799.136 114.507C801.057 114.956 803.012 115.43 805.005 115.93L804.762 116.9C806.673 117.379 808.62 117.882 810.603 118.408L810.859 117.441C812.763 117.946 814.7 118.472 816.673 119.018L816.406 119.982C818.304 120.508 820.236 121.052 822.202 121.616L822.478 120.655C824.377 121.199 826.309 121.761 828.275 122.34L827.992 123.3C829.887 123.858 831.814 124.432 833.774 125.022L834.062 124.064C835.957 124.634 837.883 125.219 839.841 125.818L839.549 126.774C841.44 127.353 843.362 127.945 845.316 128.55L845.612 127.595C847.503 128.18 849.424 128.779 851.375 129.389L851.076 130.343C852.966 130.934 854.884 131.536 856.831 132.15L857.132 131.196C859.021 131.791 860.938 132.396 862.884 133.012L862.583 133.965C864.472 134.563 866.388 135.171 868.332 135.787L868.634 134.834C870.524 135.434 872.441 136.043 874.384 136.66L874.081 137.613L876.983 138.535L879.349 139.287L879.652 138.334L884.385 139.838L884.082 140.791L888.815 142.295L889.118 141.342L893.851 142.846L893.548 143.799L895.915 144.551L898.816 145.474L899.119 144.52C901.062 145.138 902.979 145.747 904.868 146.349L904.565 147.302C906.508 147.92 908.424 148.53 910.311 149.133L910.615 148.18C912.56 148.801 914.475 149.413 916.361 150.018L916.056 150.97C918 151.594 919.914 152.209 921.798 152.817L922.105 151.866C924.05 152.494 925.964 153.114 927.847 153.727L927.537 154.678C929.481 155.312 931.393 155.938 933.271 156.557L933.584 155.608C935.529 156.249 937.439 156.883 939.316 157.512L938.998 158.46C940.939 159.11 942.844 159.753 944.713 160.392L945.037 159.445C946.976 160.107 948.878 160.764 950.743 161.415L950.413 162.359C952.344 163.034 954.236 163.704 956.09 164.371L956.428 163.43C958.354 164.123 960.239 164.812 962.085 165.498L961.736 166.435C963.659 167.151 965.539 167.864 967.377 168.576L967.738 167.644C969.654 168.386 971.524 169.127 973.351 169.87L972.975 170.797C974.867 171.566 976.713 172.336 978.513 173.109L978.907 172.19C980.799 173.003 982.642 173.82 984.437 174.642L984.021 175.551C985.876 176.401 987.681 177.258 989.437 178.123L989.879 177.226C991.723 178.135 993.515 179.054 995.257 179.987L994.785 180.868C996.58 181.829 998.322 182.804 1000.01 183.796L1000.52 182.933C1002.28 183.968 1003.99 185.022 1005.65 186.1L1005.11 186.939C1006.81 188.041 1008.45 189.167 1010.05 190.322L1010.64 189.512C1012.28 190.703 1013.88 191.924 1015.43 193.181L1014.8 193.957C1016.35 195.22 1017.86 196.518 1019.32 197.856L1020 197.118C1021.48 198.477 1022.92 199.877 1024.33 201.323L1023.61 202.019C1024.3 202.733 1024.98 203.458 1025.65 204.196C1026.33 204.934 1026.99 205.679 1027.63 206.434L1028.39 205.783C1029.71 207.31 1030.97 208.874 1032.18 210.478L1031.39 211.082C1032.59 212.662 1033.74 214.282 1034.85 215.947L1035.69 215.391C1036.79 217.047 1037.87 218.748 1038.9 220.497L1038.04 221.006C1039.04 222.701 1040.01 224.443 1040.96 226.235L1041.84 225.77C1042.76 227.523 1043.65 229.323 1044.52 231.174L1043.62 231.599C1044.45 233.374 1045.26 235.197 1046.05 237.073L1046.98 236.684C1047.74 238.504 1048.5 240.373 1049.23 242.292L1048.3 242.65C1049 244.478 1049.69 246.354 1050.36 248.279L1051.31 247.948C1051.96 249.812 1052.6 251.721 1053.24 253.679L1052.29 253.988C1052.89 255.852 1053.49 257.76 1054.08 259.715L1055.04 259.425C1055.61 261.312 1056.18 263.243 1056.74 265.219L1055.78 265.493C1056.32 267.388 1056.86 269.325 1057.4 271.306L1058.36 271.044C1058.88 272.945 1059.39 274.885 1059.9 276.867L1058.94 277.118C1059.43 279.025 1059.92 280.97 1060.42 282.955L1061.39 282.713C1061.87 284.63 1062.35 286.584 1062.83 288.576L1061.86 288.811C1062.32 290.731 1062.79 292.687 1063.26 294.679L1064.23 294.45C1064.68 296.376 1065.14 298.336 1065.6 300.331L1064.62 300.556C1065.07 302.484 1065.52 304.444 1065.97 306.439L1066.95 306.217C1067.38 308.148 1067.83 310.111 1068.27 312.105L1067.3 312.324C1067.73 314.256 1068.17 316.218 1068.61 318.212L1069.59 317.995C1070.02 319.929 1070.45 321.892 1070.89 323.885L1069.91 324.1C1070.34 326.035 1070.77 327.998 1071.21 329.99L1072.19 329.775C1072.61 331.712 1073.04 333.676 1073.48 335.668L1072.5 335.882L1073.16 338.856L1073.69 341.281L1074.67 341.067L1075.73 345.918L1074.75 346.132L1075.82 350.983L1076.79 350.769Z" stroke="url(#paint4_linear_70_8)" stroke-width="2" stroke-dasharray="5.88 5.88"/>
<defs>
<linearGradient id="paint0_linear_70_8" x1="1119.07" y1="524.786" x2="175.562" y2="729.916" gradientUnits="userSpaceOnUse">
<stop stop-color="#FFE49F"/>
<stop offset="1" stop-color="#FFE49F" stop-opacity="0"/>
</linearGradient>
<linearGradient id="paint1_linear_70_8" x1="342" y1="715" x2="144.131" y2="1026.17" gradientUnits="userSpaceOnUse">
<stop stop-color="#B1FAFF"/>
<stop offset="1" stop-color="#B1FAFF" stop-opacity="0"/>
</linearGradient>
<linearGradient id="paint2_linear_70_8" x1="1088.59" y1="786.163" x2="820.26" y2="1020.68" gradientUnits="userSpaceOnUse">
<stop stop-color="#F7D097"/>
<stop offset="1" stop-color="#F597F7" stop-opacity="0"/>
</linearGradient>
<linearGradient id="paint3_linear_70_8" x1="235" y1="698" x2="317.5" y2="919.5" gradientUnits="userSpaceOnUse">
<stop/>
<stop offset="1" stop-opacity="0"/>
</linearGradient>
<linearGradient id="paint4_linear_70_8" x1="656.791" y1="261.586" x2="653.135" y2="590.008" gradientUnits="userSpaceOnUse">
<stop/>
<stop offset="1" stop-opacity="0"/>
</linearGradient>
</defs>
</svg>
