<svg width="636" height="706" viewBox="0 0 636 706" fill="none" xmlns="http://www.w3.org/2000/svg">
<g style="mix-blend-mode:darken" opacity="0.2">
<path d="M397.089 36.4491C470.206 61.406 506.764 73.8845 534.752 97.214C550.679 110.491 564.41 126.201 575.436 143.763C594.809 174.621 602.282 212.521 617.227 288.321V288.321C632.172 364.121 639.645 402.021 633.435 437.923C629.9 458.355 623.16 478.102 613.464 496.431C596.427 528.638 567.341 554.059 509.169 604.902V604.902C450.997 655.745 421.911 681.167 387.714 693.739C368.251 700.895 347.781 704.931 327.059 705.699C290.648 707.047 254.09 694.569 180.973 669.612V669.612C107.855 644.655 71.2968 632.177 43.3096 608.847C27.3817 595.57 13.651 579.86 2.62533 562.298C-16.7481 531.44 -24.2207 493.54 -39.166 417.74V417.74C-54.1113 341.941 -61.584 304.041 -55.3736 268.138C-51.8391 247.706 -45.0993 227.96 -35.4032 209.63C-18.366 177.423 10.72 152.002 68.8919 101.159V101.159C127.064 50.316 156.15 24.8945 190.347 12.3217C209.81 5.16628 230.28 1.13015 251.002 0.362518C287.413 -0.986305 323.971 11.4922 397.089 36.4491V36.4491Z" fill="url(#paint0_linear_1_7)"/>
</g>
<defs>
<linearGradient id="paint0_linear_1_7" x1="281" y1="37" x2="-1.80575" y2="607.225" gradientUnits="userSpaceOnUse">
<stop stop-color="#CDEDFF"/>
<stop offset="1" stop-color="white" stop-opacity="0"/>
</linearGradient>
</defs>
</svg>
