<svg width="29" height="26" viewBox="0 0 29 26" fill="none" xmlns="http://www.w3.org/2000/svg">
<path d="M28.7086 6.01904L25.2648 3.37571C25.0308 3.22605 24.7764 3.11076 24.5093 3.03337C24.2434 2.94764 23.9666 2.89997 23.6872 2.89182H13.775L14.9365 10.114H23.6872C23.925 10.114 24.2223 10.0606 24.5079 9.97248C24.7936 9.88437 25.0691 9.76304 25.2634 9.6316L28.7071 6.98537C28.9029 6.85393 29 6.67915 29 6.50293C29 6.32671 28.9029 6.15193 28.7086 6.01904ZM12.325 0.00292969H10.875C10.6827 0.00292969 10.4983 0.0790207 10.3623 0.214464C10.2264 0.349907 10.15 0.533607 10.15 0.725152V5.78071H5.3128C5.0721 5.78071 4.7763 5.83415 4.49065 5.92371C4.20355 6.01037 3.9295 6.13026 3.7352 6.2646L0.29145 8.90793C0.0957 9.03937 0 9.2156 0 9.39182C0 9.5666 0.0957 9.74137 0.29145 9.87571L3.7352 12.5219C3.9295 12.6534 4.20355 12.7747 4.49065 12.8614C4.7763 12.9495 5.0721 13.0029 5.3128 13.0029H10.15V25.2807C10.15 25.4723 10.2264 25.656 10.3623 25.7914C10.4983 25.9268 10.6827 26.0029 10.875 26.0029H12.325C12.5173 26.0029 12.7017 25.9268 12.8377 25.7914C12.9736 25.656 13.05 25.4723 13.05 25.2807V0.725152C13.05 0.533607 12.9736 0.349907 12.8377 0.214464C12.7017 0.0790207 12.5173 0.00292969 12.325 0.00292969Z" fill="#5C6A80"/>
</svg>
