<svg width="11" height="16" viewBox="0 0 11 16" fill="none" xmlns="http://www.w3.org/2000/svg">
<path d="M10.1667 0.90371C10.1667 0.797891 10.122 0.696406 10.0424 0.62158C9.96284 0.546755 9.85493 0.504718 9.74242 0.504718H7.62121C6.55307 0.454677 5.50729 0.804275 4.71236 1.47712C3.91744 2.14998 3.43799 3.09138 3.37878 4.09564V7.04845H1.25757C1.14505 7.04845 1.03715 7.09048 0.957586 7.16531C0.878025 7.24013 0.833328 7.34162 0.833328 7.44744V9.52219C0.833328 9.62801 0.878025 9.7295 0.957586 9.80432C1.03715 9.87915 1.14505 9.92119 1.25757 9.92119H3.37878V15.2677C3.37878 15.3735 3.42348 15.475 3.50304 15.5498C3.5826 15.6246 3.69051 15.6667 3.80303 15.6667H6.34848C6.461 15.6667 6.5689 15.6246 6.64846 15.5498C6.72803 15.475 6.77272 15.3735 6.77272 15.2677V9.92119H8.99575C9.0901 9.92246 9.1822 9.89412 9.2575 9.84065C9.33279 9.78717 9.38699 9.71162 9.41151 9.62593L10.0224 7.55117C10.0393 7.49222 10.0416 7.43041 10.0291 7.3705C10.0165 7.3106 9.98957 7.25419 9.95022 7.20562C9.91088 7.15706 9.86021 7.11764 9.80212 7.09039C9.74403 7.06314 9.68006 7.04879 9.61515 7.04845H6.77272V4.09564C6.79383 3.89812 6.89246 3.71509 7.04935 3.5823C7.20624 3.4495 7.41013 3.37646 7.62121 3.37746H9.74242C9.85493 3.37746 9.96284 3.33542 10.0424 3.2606C10.122 3.18577 10.1667 3.08429 10.1667 2.97847V0.90371Z" fill="#336CFF"/>
</svg>
