<svg width="159" height="45" viewBox="0 0 159 45" fill="none" xmlns="http://www.w3.org/2000/svg">
<path d="M13.6961 36C16.444 36 18.3196 34.1244 18.3196 31.3765V10.0472C18.3196 7.29924 16.444 5.46728 13.6961 5.46728H1.96279V36H13.6961ZM12.8673 30.8094C12.8673 30.9403 12.8237 30.9839 12.6929 30.9839H7.41506V10.4834H12.6929C12.8237 10.4834 12.8673 10.527 12.8673 10.6578V30.8094Z" fill="#020B1B"/>
<path d="M47.4927 36L43.8287 23.9178C45.8788 23.3943 47.0565 21.7369 47.0565 19.5123V10.0472C47.0565 7.29924 45.1809 5.46728 42.433 5.46728H30.6997V36H36.1519V24.0922H38.6818L41.7787 36H47.4927ZM36.1519 10.4834H41.4297C41.5606 10.4834 41.6042 10.527 41.6042 10.6578V18.9017C41.6042 19.0325 41.5606 19.0761 41.4297 19.0761H36.1519V10.4834ZM63.1022 36.0872C65.8501 36.0872 67.7257 34.2117 67.7257 31.4637V9.95995C67.7257 7.21201 65.8501 5.38004 63.1022 5.38004H55.9488C53.2881 5.38004 51.3689 7.21201 51.3689 9.95995V31.4637C51.3689 34.2117 53.2008 36.0872 55.9488 36.0872H63.1022ZM62.099 10.4834C62.2298 10.4834 62.2734 10.527 62.2734 10.6578V30.8094C62.2734 30.9403 62.2298 30.9839 62.099 30.9839H56.9956C56.8648 30.9839 56.8212 30.9403 56.8212 30.8094V10.6578C56.8212 10.527 56.8648 10.4834 56.9956 10.4834H62.099ZM93.5419 36V5.46728H87.13L82.7682 22.4347L78.45 5.46728H72.0381V36H77.3159V18.3783L77.4468 19.1634L81.8086 36H83.7278L88.1332 19.1634L88.2641 18.3783V36H93.5419ZM112.037 36V30.9839H103.314V22.522H109.856V17.724H103.314V10.4834H112.037V5.46728H97.8614V36H112.037ZM132.299 36L128.635 23.9178C130.685 23.3943 131.863 21.7369 131.863 19.5123V10.0472C131.863 7.29924 129.988 5.46728 127.24 5.46728H115.506V36H120.959V24.0922H123.488L126.585 36H132.299ZM120.959 10.4834H126.236C126.367 10.4834 126.411 10.527 126.411 10.6578V18.9017C126.411 19.0325 126.367 19.0761 126.236 19.0761H120.959V10.4834ZM147.909 36.0872C150.657 36.0872 152.532 34.2117 152.532 31.4637V9.95995C152.532 7.21201 150.657 5.38004 147.909 5.38004H140.755C138.095 5.38004 136.176 7.21201 136.176 9.95995V31.4637C136.176 34.2117 138.008 36.0872 140.755 36.0872H147.909ZM146.906 10.4834C147.036 10.4834 147.08 10.527 147.08 10.6578V30.8094C147.08 30.9403 147.036 30.9839 146.906 30.9839H141.802C141.671 30.9839 141.628 30.9403 141.628 30.8094V10.6578C141.628 10.527 141.671 10.4834 141.802 10.4834H146.906Z" fill="#020B1B"/>
<rect x="21.3584" y="33.0085" width="4.66003" height="4.66003" rx="1.51351" fill="#316FD7"/>
</svg>
