<svg width="15" height="13" viewBox="0 0 15 13" fill="none" xmlns="http://www.w3.org/2000/svg">
<path d="M5.07029 12.4995C6.1452 12.5064 7.21075 12.2944 8.20515 11.8758C9.19954 11.4571 10.103 10.8402 10.8631 10.0607C11.6232 9.2812 12.2248 8.3547 12.633 7.33493C13.0412 6.31516 13.248 5.22241 13.2412 4.12007V3.73503C13.7984 3.31638 14.2807 2.80192 14.6667 2.21446C14.142 2.44979 13.5868 2.60586 13.0185 2.67781C13.6211 2.3096 14.0732 1.73001 14.2912 1.0463C13.7296 1.39182 13.1138 1.63471 12.4712 1.76417C12.0384 1.29127 11.4657 0.977814 10.8418 0.872307C10.2178 0.766801 9.5773 0.875122 9.0194 1.18051C8.4615 1.4859 8.01729 1.97133 7.7555 2.5617C7.49371 3.15206 7.42894 3.81445 7.5712 4.44637C6.42958 4.3889 5.31256 4.08549 4.29288 3.5559C3.2732 3.0263 2.37373 2.28239 1.65302 1.3726C1.28961 2.01945 1.17946 2.78375 1.34487 3.51075C1.51028 4.23775 1.93889 4.87312 2.54393 5.28823C2.09759 5.27058 1.66158 5.14538 1.2712 4.92277V4.9554C1.26724 5.63139 1.4893 6.28836 1.90038 6.8168C2.31146 7.34525 2.88672 7.71326 3.53029 7.85949C3.11515 7.974 2.6803 7.99184 2.25757 7.9117C2.44388 8.4882 2.79955 8.99148 3.27578 9.35251C3.75201 9.71354 4.32549 9.91465 4.91757 9.92825C3.90525 10.7639 2.64708 11.2239 1.34757 11.2335C1.11972 11.2267 0.892405 11.2071 0.666656 11.1747C1.98199 12.0341 3.5107 12.4872 5.07029 12.4799" fill="#316FD7"/>
</svg>
