<svg width="18" height="13" viewBox="0 0 18 13" fill="none" xmlns="http://www.w3.org/2000/svg">
<path fill-rule="evenodd" clip-rule="evenodd" d="M16.8792 1.60533C17.1509 1.87707 17.3467 2.21526 17.4471 2.58621V2.58628C18.0251 4.91286 17.8916 8.58738 17.4583 11.0038C17.3579 11.3747 17.1621 11.7129 16.8904 11.9847C16.6186 12.2564 16.2804 12.4522 15.9095 12.5526C14.5515 12.923 9.08573 12.923 9.08573 12.923C9.08573 12.923 3.61989 12.923 2.26184 12.5526C1.89089 12.4522 1.55272 12.2564 1.28098 11.9847C1.00925 11.7129 0.813448 11.3747 0.713069 11.0038C0.131663 8.68732 0.291011 5.01048 0.701789 2.59749C0.802158 2.22653 0.997957 1.88832 1.26969 1.61657C1.54142 1.34481 1.87961 1.14898 2.25057 1.04858C3.60862 0.678203 9.07459 0.666992 9.07459 0.666992C9.07459 0.666992 14.5403 0.666992 15.8983 1.03737C16.2693 1.13776 16.6075 1.33358 16.8792 1.60533ZM11.869 7.36057L7.33476 9.98684L7.33483 4.73429L11.869 7.36057Z" fill="#316FD7"/>
</svg>
