<svg width="348" height="330" viewBox="0 0 348 330" fill="none" xmlns="http://www.w3.org/2000/svg">
<g opacity="0.5">
<path opacity="0.8" d="M342.745 1.75815C366.804 28.2303 378.833 41.4664 383.936 57.5999C385.369 62.1317 386.381 66.7861 386.959 71.504C389.015 88.2998 383.567 105.336 372.671 139.407C361.775 173.479 356.327 190.515 344.906 203.001C341.698 206.508 338.174 209.712 334.377 212.571C320.859 222.75 303.382 226.55 268.427 234.149C233.472 241.749 215.994 245.549 199.471 241.901C194.829 240.876 190.293 239.426 185.918 237.567C170.344 230.95 158.315 217.714 134.256 191.242C110.197 164.77 98.167 151.534 93.0643 135.4C91.631 130.868 90.6191 126.214 90.0414 121.496C87.9849 104.7 93.4329 87.6644 104.329 53.5926C115.225 19.5208 120.673 2.48488 132.094 -10.0009C135.302 -13.5081 138.827 -16.7117 142.624 -19.5709C156.141 -29.7498 173.618 -33.5496 208.573 -41.1493C243.529 -48.7489 261.006 -52.5488 277.529 -48.9011C282.171 -47.8765 286.708 -46.4256 291.082 -44.567C306.656 -37.9501 318.686 -24.714 342.745 1.75815Z" fill="url(#paint0_linear_1_480)"/>
<g style="mix-blend-mode:overlay">
<path d="M252.386 175.838C268.651 193.525 276.784 202.369 280.326 213.167C281.386 216.396 282.129 219.721 282.546 223.094C283.938 234.372 280.346 245.837 273.161 268.767C265.976 291.697 262.383 303.162 254.803 311.629C252.536 314.161 250.029 316.467 247.316 318.515C238.245 325.36 226.52 327.981 203.069 333.224C179.619 338.466 167.893 341.087 156.771 338.756C153.445 338.059 150.194 337.041 147.064 335.715C136.601 331.282 128.468 322.438 112.203 304.751C95.9372 287.063 87.8045 278.219 84.262 267.422C83.2025 264.192 82.4593 260.868 82.0427 257.495C80.65 246.216 84.2426 234.751 91.4277 211.821C98.6128 188.891 102.205 177.426 109.785 168.96C112.052 166.427 114.56 164.121 117.273 162.074C126.344 155.229 138.069 152.608 161.519 147.365C184.97 142.123 196.695 139.501 207.817 141.832C211.144 142.529 214.395 143.548 217.524 144.874C227.988 149.307 236.12 158.151 252.386 175.838Z" fill="url(#paint1_linear_1_480)"/>
</g>
<path opacity="0.3" d="M258.964 223.631C258.848 223.91 258.73 224.191 258.611 224.474L258.19 224.298L258.012 224.724L257.834 225.149L258.255 225.326C258.136 225.609 258.018 225.89 257.901 226.169L257.481 225.993L257.13 226.829L257.551 227.005C257.432 227.289 257.314 227.571 257.196 227.852L256.775 227.675L256.425 228.511L256.846 228.687C256.727 228.971 256.608 229.253 256.491 229.534L256.07 229.357L255.718 230.195L256.139 230.371C256.02 230.654 255.901 230.935 255.784 231.214L255.363 231.037L255.01 231.876L255.43 232.054C255.311 232.336 255.193 232.616 255.075 232.894L254.655 232.716C254.536 232.999 254.417 233.279 254.299 233.557L254.72 233.735C254.6 234.016 254.482 234.296 254.364 234.573L253.944 234.395C253.824 234.677 253.705 234.957 253.586 235.235L254.006 235.414C253.886 235.695 253.767 235.974 253.649 236.251L253.229 236.072C253.108 236.354 252.989 236.633 252.87 236.91L253.289 237.09C253.168 237.372 253.048 237.651 252.928 237.928L252.509 237.747C252.388 238.028 252.268 238.307 252.148 238.583L252.566 238.765C252.444 239.046 252.323 239.325 252.202 239.602L251.784 239.42C251.662 239.7 251.541 239.977 251.42 240.252L251.838 240.436C251.714 240.717 251.591 240.996 251.469 241.273L251.052 241.089C250.929 241.367 250.807 241.643 250.685 241.916L251.102 242.102C250.976 242.384 250.852 242.663 250.727 242.939L250.311 242.753C250.186 243.031 250.062 243.307 249.938 243.58L250.354 243.768C250.227 244.048 250.101 244.325 249.975 244.6L249.56 244.41C249.433 244.689 249.306 244.965 249.18 245.238L249.594 245.429C249.466 245.706 249.338 245.981 249.211 246.252L248.798 246.059C248.668 246.338 248.538 246.613 248.409 246.886L248.821 247.082C248.69 247.359 248.559 247.633 248.429 247.904L248.018 247.706C247.885 247.981 247.754 248.254 247.622 248.523L248.032 248.723C247.897 249 247.763 249.273 247.629 249.544L247.22 249.341C247.084 249.615 246.949 249.886 246.814 250.153L247.221 250.359C247.083 250.632 246.946 250.902 246.808 251.17L246.403 250.961C246.262 251.234 246.122 251.503 245.983 251.769L246.387 251.982C246.244 252.253 246.102 252.522 245.959 252.787L245.557 252.572C245.413 252.84 245.269 253.105 245.126 253.367L245.526 253.587C245.378 253.856 245.23 254.122 245.082 254.385L244.685 254.161C244.535 254.427 244.385 254.69 244.235 254.95L244.63 255.178C244.476 255.444 244.323 255.706 244.169 255.965L243.776 255.732C243.621 255.993 243.465 256.252 243.309 256.507L243.698 256.745C243.538 257.006 243.378 257.264 243.217 257.518L242.831 257.274C242.669 257.532 242.505 257.786 242.341 258.037L242.723 258.287C242.556 258.543 242.388 258.797 242.219 259.047L241.84 258.792C241.67 259.043 241.5 259.291 241.328 259.537L241.702 259.798C241.526 260.049 241.35 260.296 241.172 260.54L240.803 260.272C240.625 260.517 240.446 260.759 240.265 260.998L240.629 261.273C240.445 261.516 240.26 261.757 240.073 261.995L239.714 261.713C239.528 261.951 239.339 262.185 239.149 262.418L239.502 262.707C239.309 262.943 239.115 263.176 238.918 263.407L238.57 263.111C238.375 263.34 238.177 263.567 237.978 263.792L238.319 264.095C238.117 264.323 237.913 264.548 237.707 264.771L237.372 264.461C237.27 264.571 237.167 264.681 237.063 264.79C236.962 264.897 236.86 265.004 236.758 265.111L237.087 265.427C236.881 265.641 236.674 265.854 236.465 266.066L236.14 265.745C235.933 265.955 235.724 266.164 235.513 266.37L235.833 266.696C235.621 266.904 235.407 267.111 235.192 267.316L234.877 266.986C234.664 267.19 234.448 267.392 234.232 267.592L234.542 267.927C234.324 268.129 234.104 268.33 233.883 268.529L233.578 268.189C233.358 268.386 233.137 268.582 232.915 268.776L233.215 269.12C232.991 269.316 232.765 269.509 232.538 269.701L232.243 269.353C232.018 269.544 231.791 269.733 231.563 269.92L231.853 270.273C231.623 270.462 231.392 270.649 231.159 270.834L230.875 270.477C230.644 270.661 230.412 270.843 230.178 271.024L230.457 271.385C230.222 271.567 229.985 271.747 229.747 271.925L229.474 271.56C229.238 271.737 229 271.912 228.761 272.086L229.029 272.455C228.789 272.63 228.547 272.803 228.304 272.974L228.041 272.601C227.8 272.771 227.557 272.939 227.313 273.106L227.571 273.482C227.325 273.65 227.078 273.816 226.83 273.98L226.578 273.599C226.332 273.762 226.085 273.923 225.836 274.082L226.082 274.466C225.831 274.626 225.58 274.785 225.327 274.941L225.087 274.553C224.836 274.709 224.584 274.862 224.33 275.014L224.565 275.405C224.31 275.558 224.053 275.709 223.796 275.858L223.567 275.463C223.312 275.611 223.055 275.757 222.798 275.901L223.02 276.299C222.761 276.444 222.5 276.588 222.239 276.729L222.022 276.327C221.892 276.398 221.762 276.467 221.631 276.536C221.498 276.607 221.365 276.677 221.232 276.746L221.441 277.151C221.171 277.291 220.9 277.427 220.627 277.562L220.426 277.152C220.156 277.285 219.885 277.414 219.612 277.542L219.804 277.955C219.529 278.083 219.253 278.209 218.974 278.332L218.789 277.915C218.515 278.036 218.238 278.155 217.959 278.272L218.135 278.693C217.856 278.81 217.575 278.924 217.291 279.037L217.123 278.613C216.845 278.723 216.564 278.831 216.281 278.938L216.441 279.365C216.158 279.471 215.873 279.575 215.585 279.678L215.432 279.248C215.15 279.348 214.865 279.446 214.577 279.543L214.723 279.976C214.436 280.072 214.147 280.167 213.856 280.26L213.717 279.825C213.431 279.916 213.143 280.006 212.851 280.094L212.983 280.531C212.695 280.618 212.404 280.704 212.11 280.789L211.984 280.35C211.696 280.433 211.406 280.514 211.112 280.594L211.233 281.034C210.942 281.114 210.648 281.192 210.351 281.269L210.237 280.828C209.946 280.903 209.653 280.978 209.356 281.051L209.466 281.494C209.173 281.567 208.878 281.638 208.579 281.709L208.474 281.265C208.183 281.334 207.889 281.402 207.592 281.469L207.693 281.914C207.399 281.981 207.102 282.046 206.802 282.112L206.706 281.666C206.412 281.729 206.115 281.793 205.814 281.855L205.907 282.302C205.613 282.363 205.316 282.424 205.016 282.484L204.926 282.036C204.633 282.095 204.336 282.154 204.036 282.211L204.122 282.66C203.826 282.717 203.526 282.774 203.223 282.83L203.14 282.381C202.845 282.436 202.548 282.491 202.247 282.545L202.328 282.994C202.032 283.047 201.733 283.1 201.431 283.153L201.353 282.703C201.055 282.755 200.755 282.807 200.452 282.858L200.528 283.308C200.232 283.358 199.934 283.408 199.632 283.458L199.558 283.008C199.261 283.057 198.962 283.106 198.659 283.154L198.732 283.605C198.434 283.653 198.133 283.7 197.829 283.748L197.758 283.297C197.462 283.344 197.163 283.39 196.862 283.436L196.931 283.887C196.631 283.933 196.329 283.979 196.024 284.025L195.956 283.574C195.66 283.618 195.362 283.663 195.06 283.707L195.127 284.158C194.828 284.203 194.526 284.247 194.222 284.291L194.156 283.839C193.859 283.882 193.559 283.925 193.257 283.968L193.321 284.42C193.022 284.463 192.721 284.505 192.417 284.548L192.354 284.096C192.055 284.138 191.755 284.18 191.451 284.222L191.514 284.674C191.215 284.715 190.914 284.757 190.611 284.798L190.549 284.346C190.25 284.387 189.949 284.428 189.645 284.469L189.706 284.922C189.408 284.962 189.107 285.003 188.803 285.043L188.743 284.591C188.444 284.631 188.142 284.671 187.838 284.712L187.898 285.164C187.6 285.204 187.298 285.244 186.995 285.284L186.935 284.831C186.636 284.871 186.335 284.91 186.031 284.95L186.09 285.403C185.791 285.442 185.49 285.481 185.186 285.521L185.127 285.068L184.224 285.186L184.282 285.638C183.982 285.677 183.68 285.716 183.375 285.756L183.317 285.303L182.416 285.419L182.474 285.872C182.173 285.911 181.869 285.95 181.564 285.989L181.506 285.536L180.607 285.652L180.665 286.104C180.364 286.143 180.06 286.182 179.754 286.221L179.696 285.768L178.798 285.883L178.855 286.336C178.555 286.374 178.253 286.413 177.948 286.451L177.891 285.999L177.433 286.057L176.975 286.116L177.032 286.568C176.728 286.607 176.426 286.646 176.126 286.684L176.068 286.232L175.169 286.346L175.227 286.799C174.921 286.838 174.617 286.877 174.315 286.915L174.258 286.462L173.359 286.577L173.417 287.029C173.111 287.068 172.808 287.107 172.506 287.145L172.449 286.692L171.548 286.806L171.605 287.259C171.3 287.297 170.998 287.335 170.697 287.373L170.641 286.92L169.737 287.034L169.793 287.486C169.489 287.524 169.188 287.562 168.888 287.599L168.832 287.146C168.528 287.184 168.226 287.222 167.927 287.259L167.983 287.711C167.679 287.749 167.378 287.786 167.078 287.823L167.023 287.37C166.719 287.407 166.417 287.444 166.117 287.48L166.172 287.933C165.868 287.97 165.567 288.006 165.268 288.042L165.213 287.589C164.909 287.626 164.607 287.662 164.307 287.697L164.361 288.15C164.057 288.186 163.755 288.222 163.456 288.257L163.403 287.804C163.099 287.839 162.797 287.874 162.498 287.908L162.55 288.362C162.245 288.397 161.943 288.431 161.643 288.465L161.591 288.012C161.288 288.046 160.987 288.08 160.688 288.113L160.739 288.566C160.433 288.6 160.13 288.633 159.829 288.666L159.78 288.212C159.477 288.245 159.177 288.277 158.88 288.308L158.927 288.762C158.621 288.794 158.316 288.826 158.015 288.857L157.968 288.403C157.665 288.434 157.364 288.464 157.066 288.493L157.11 288.947C156.804 288.978 156.501 289.007 156.201 289.036L156.158 288.581C155.853 288.61 155.55 288.638 155.251 288.666L155.292 289.12C154.988 289.148 154.686 289.174 154.388 289.2L154.349 288.746C154.042 288.772 153.738 288.797 153.437 288.822L153.474 289.277C153.169 289.302 152.866 289.325 152.566 289.348L152.532 288.893C152.227 288.916 151.926 288.938 151.627 288.959L151.659 289.414C151.351 289.436 151.047 289.456 150.746 289.475L150.717 289.02C150.412 289.039 150.11 289.057 149.811 289.074L149.836 289.53C149.531 289.547 149.228 289.563 148.928 289.578L148.906 289.122C148.599 289.137 148.296 289.15 147.995 289.162L148.014 289.618C147.707 289.631 147.403 289.642 147.102 289.651L147.088 289.195C146.784 289.205 146.482 289.213 146.183 289.219L146.193 289.675C145.886 289.682 145.582 289.687 145.28 289.69L145.275 289.234C144.97 289.237 144.667 289.239 144.367 289.239L144.367 289.695C144.06 289.695 143.756 289.693 143.455 289.689L143.461 289.233C143.157 289.229 142.855 289.223 142.556 289.215L142.544 289.672C142.238 289.664 141.935 289.654 141.634 289.642L141.652 289.186C141.348 289.174 141.046 289.159 140.747 289.143L140.722 289.599C140.416 289.582 140.112 289.563 139.811 289.541L139.843 289.086C139.54 289.065 139.24 289.041 138.942 289.015L138.902 289.469C138.597 289.443 138.295 289.414 137.994 289.382L138.042 288.928C137.741 288.896 137.442 288.862 137.145 288.825L137.089 289.278C136.786 289.24 136.485 289.2 136.185 289.157L136.25 288.706C135.951 288.663 135.653 288.617 135.357 288.569L135.283 289.019C134.982 288.97 134.683 288.918 134.385 288.863L134.467 288.414C134.171 288.359 133.876 288.302 133.581 288.241L133.489 288.688C133.191 288.627 132.894 288.563 132.598 288.496L132.699 288.051C132.553 288.017 132.406 287.983 132.26 287.949C132.116 287.914 131.973 287.88 131.829 287.844L131.72 288.288C131.432 288.217 131.143 288.143 130.856 288.068L130.971 287.627C130.685 287.552 130.4 287.475 130.116 287.396L129.994 287.836C129.708 287.756 129.422 287.675 129.136 287.591L129.265 287.153C128.981 287.07 128.699 286.985 128.417 286.898L128.282 287.333C127.998 287.245 127.714 287.155 127.432 287.063L127.573 286.629C127.292 286.538 127.013 286.444 126.733 286.349L126.586 286.78C126.304 286.684 126.023 286.586 125.744 286.485L125.898 286.056C125.62 285.956 125.343 285.854 125.067 285.75L124.906 286.177C124.628 286.073 124.35 285.966 124.073 285.857L124.24 285.432C123.966 285.325 123.692 285.215 123.419 285.103L123.245 285.525C122.97 285.412 122.696 285.297 122.422 285.18L122.602 284.761C122.33 284.645 122.06 284.527 121.79 284.406L121.605 284.823C121.333 284.702 121.062 284.579 120.792 284.454L120.984 284.04C120.716 283.916 120.449 283.79 120.183 283.662L119.985 284.074C119.717 283.945 119.45 283.814 119.184 283.681L119.388 283.273C119.124 283.141 118.861 283.007 118.599 282.871L118.389 283.276C118.125 283.139 117.862 283.001 117.6 282.86L117.816 282.458C117.556 282.318 117.297 282.177 117.039 282.033L116.817 282.432C116.557 282.287 116.299 282.141 116.041 281.992L116.268 281.597C116.013 281.45 115.758 281.301 115.504 281.149L115.271 281.542C115.015 281.389 114.761 281.235 114.508 281.079L114.747 280.691C114.693 280.657 114.639 280.624 114.585 280.591C114.514 280.546 114.442 280.502 114.371 280.457C114.244 280.377 114.117 280.297 113.99 280.216L113.744 280.6C113.488 280.436 113.234 280.269 112.981 280.1L113.235 279.721C112.986 279.554 112.737 279.383 112.49 279.21L112.229 279.584C111.98 279.41 111.733 279.233 111.487 279.053L111.756 278.685C111.514 278.508 111.273 278.328 111.032 278.145L110.756 278.508C110.515 278.324 110.275 278.138 110.036 277.949L110.319 277.591C110.084 277.405 109.85 277.216 109.616 277.024L109.326 277.376C109.093 277.184 108.86 276.989 108.627 276.791L108.923 276.444C108.695 276.249 108.468 276.052 108.24 275.851L107.938 276.194C107.712 275.994 107.485 275.791 107.259 275.585L107.566 275.247C107.344 275.045 107.122 274.84 106.9 274.632L106.587 274.965C106.368 274.759 106.148 274.55 105.928 274.337L106.244 274.009C106.029 273.801 105.814 273.59 105.597 273.376L105.276 273.7C105.062 273.488 104.848 273.273 104.632 273.055L104.957 272.735C104.747 272.521 104.536 272.304 104.324 272.084L103.995 272.4C103.786 272.183 103.576 271.963 103.365 271.74L103.697 271.427C103.492 271.209 103.286 270.989 103.079 270.765L102.744 271.075C102.54 270.854 102.335 270.63 102.128 270.402L102.466 270.096C102.264 269.873 102.061 269.647 101.856 269.418L101.516 269.722C101.316 269.498 101.115 269.271 100.913 269.041L101.255 268.74C101.058 268.515 100.859 268.287 100.659 268.056L100.314 268.355C100.116 268.127 99.9168 267.896 99.7167 267.662L100.063 267.365C99.8686 267.138 99.6726 266.907 99.4754 266.674L99.1269 266.968C98.9327 266.739 98.7374 266.506 98.5408 266.271L98.8908 265.979C98.6972 265.747 98.5023 265.513 98.3061 265.276L97.9546 265.567C97.7634 265.336 97.571 265.102 97.3773 264.866L97.7301 264.577C97.5393 264.344 97.3472 264.109 97.1538 263.871L96.7998 264.159C96.6094 263.925 96.4176 263.689 96.2245 263.449L96.5796 263.163C96.3913 262.93 96.2017 262.694 96.0108 262.456L95.6547 262.741C95.4651 262.505 95.2742 262.266 95.0819 262.024L95.4388 261.74C95.2524 261.506 95.0647 261.27 94.8757 261.031L94.518 261.315C94.3303 261.078 94.1412 260.838 93.9507 260.597L94.3091 260.314C94.2151 260.195 94.1207 260.075 94.026 259.954C93.9335 259.837 93.8406 259.719 93.7475 259.6L93.3884 259.881C93.2022 259.644 93.0146 259.404 92.8257 259.162L93.1853 258.882C92.9999 258.644 92.8132 258.405 92.6251 258.163L92.265 258.443C92.0799 258.205 91.8935 257.966 91.7058 257.723L92.0664 257.444C91.8815 257.205 91.6953 256.965 91.5077 256.722L91.1467 257.002C90.9625 256.763 90.7769 256.523 90.5901 256.281L90.9514 256.002C90.767 255.763 90.5814 255.522 90.3944 255.279L90.0327 255.557C89.849 255.318 89.6639 255.078 89.4776 254.835L89.8395 254.557C89.6557 254.318 89.4707 254.076 89.2843 253.833L88.9221 254.111C88.7385 253.871 88.5537 253.63 88.3675 253.387L88.7299 253.109L88.1766 252.386L87.814 252.663C87.6303 252.422 87.4453 252.18 87.259 251.936L87.6217 251.659L87.0705 250.937L86.7077 251.214C86.5234 250.972 86.3379 250.729 86.1512 250.484L86.5141 250.207L85.9651 249.487L85.6021 249.763C85.4179 249.521 85.2324 249.278 85.0457 249.033L85.4088 248.756L84.8598 248.035L84.4967 248.312C84.3134 248.071 84.1287 247.828 83.9429 247.584L84.306 247.308L84.0264 246.94L83.7467 246.573L83.3836 246.849C83.1978 246.605 83.0133 246.363 82.8299 246.122L83.193 245.845L82.6442 245.124L82.2811 245.4C82.0945 245.155 81.9091 244.912 81.7251 244.67L82.0883 244.393L81.5401 243.672L81.1768 243.948C80.9903 243.703 80.8053 243.46 80.6215 243.218L80.9849 242.942L80.4354 242.218L80.0719 242.494C79.8863 242.249 79.7021 242.006 79.5193 241.765L79.883 241.49L79.333 240.764L78.9691 241.039C78.7842 240.795 78.6008 240.552 78.4188 240.312L78.7829 240.036C78.5981 239.792 78.4149 239.549 78.2331 239.309L77.8688 239.583C77.6845 239.339 77.5017 239.097 77.3205 238.856L77.685 238.581C77.5005 238.336 77.3177 238.093 77.1364 237.852L76.7715 238.126C76.5877 237.881 76.4055 237.638 76.2249 237.397L76.5901 237.124C76.4063 236.878 76.2241 236.635 76.0436 236.393L75.678 236.666C75.4947 236.421 75.313 236.177 75.1331 235.936L75.4991 235.663C75.4081 235.541 75.3175 235.419 75.2274 235.298C75.1364 235.175 75.0459 235.053 74.9558 234.932L74.5892 235.204C74.4064 234.957 74.2254 234.712 74.0461 234.47L74.4132 234.199C74.2317 233.953 74.0521 233.709 73.8742 233.467L73.5065 233.737C73.3243 233.489 73.144 233.243 72.9656 232.999L73.334 232.73C73.2518 232.617 73.17 232.505 73.0886 232.394C72.9921 232.261 72.8961 232.13 72.8007 231.998L72.4315 232.267C72.2501 232.017 72.0707 231.769 71.8932 231.524L72.2632 231.256C72.0845 231.009 71.9078 230.763 71.7332 230.52L71.3623 230.786C71.1832 230.536 71.0062 230.288 70.8312 230.042L71.2031 229.778C71.1523 229.706 71.1016 229.635 71.0512 229.564C70.9252 229.386 70.8004 229.21 70.6766 229.034L70.3037 229.297C70.1277 229.048 69.9538 228.8 69.7822 228.554L70.1563 228.293C69.9801 228.041 69.8062 227.79 69.6346 227.542L69.2592 227.802C69.085 227.549 68.913 227.299 68.7434 227.051L69.1202 226.794C69.0486 226.689 68.9774 226.584 68.9066 226.48C68.8071 226.334 68.7083 226.188 68.6104 226.043L68.2321 226.298C68.0599 226.043 67.8901 225.789 67.7228 225.538L68.1028 225.285C67.9336 225.031 67.7669 224.778 67.6027 224.527L67.221 224.777C67.0532 224.521 66.888 224.267 66.7253 224.015L67.1089 223.767C66.9428 223.51 66.7794 223.254 66.6186 222.999L66.233 223.243C66.0689 222.984 65.9076 222.726 65.7489 222.47L66.1368 222.23C65.9762 221.971 65.8185 221.714 65.6635 221.458L65.2733 221.695C65.1141 221.432 64.9577 221.171 64.8041 220.912L65.1968 220.68C65.1446 220.591 65.0927 220.503 65.0412 220.416C64.939 220.242 64.8381 220.068 64.7384 219.895L64.3432 220.123C64.1899 219.858 64.0397 219.594 63.8924 219.331L64.2904 219.108C64.1416 218.842 63.9959 218.578 63.8531 218.315L63.4522 218.533C63.306 218.264 63.163 217.997 63.0229 217.73L63.4269 217.518C63.3725 217.414 63.3185 217.311 63.265 217.208C63.1792 217.042 63.0946 216.877 63.0112 216.712L62.6041 216.918C62.4656 216.645 62.3304 216.372 62.1982 216.101L62.6085 215.901C62.4757 215.628 62.3461 215.356 62.2196 215.085L61.806 215.277C61.6768 215 61.5509 214.724 61.4281 214.448L61.845 214.262C61.722 213.986 61.6021 213.71 61.4855 213.434L61.0652 213.612C60.9463 213.331 60.8306 213.05 60.718 212.769L61.1416 212.599C61.0291 212.319 60.9198 212.038 60.8137 211.757L60.3869 211.919C60.279 211.634 60.1743 211.348 60.0728 211.062L60.5027 210.91C60.4018 210.625 60.304 210.341 60.2092 210.056L59.7762 210.2C59.6802 209.911 59.5873 209.622 59.4974 209.332L59.9333 209.197C59.8888 209.053 59.8451 208.909 59.8021 208.765C59.7599 208.623 59.7182 208.482 59.6771 208.34L59.2389 208.467C59.1559 208.182 59.0751 207.895 58.9965 207.609L59.4365 207.488C59.3584 207.203 59.2824 206.918 59.2086 206.632L58.7668 206.747C58.6924 206.459 58.6201 206.17 58.55 205.881L58.9934 205.774C58.9238 205.487 58.8563 205.199 58.791 204.912L58.346 205.013C58.2801 204.722 58.2164 204.432 58.1549 204.141L58.6013 204.047C58.5402 203.758 58.4812 203.469 58.4244 203.179L57.9767 203.267C57.9194 202.975 57.8643 202.683 57.8114 202.39L58.2605 202.309C58.208 202.018 58.1576 201.728 58.1094 201.436L57.6592 201.511C57.6106 201.217 57.5643 200.924 57.52 200.63L57.9713 200.562C57.9274 200.27 57.8857 199.978 57.8461 199.685L57.394 199.746C57.3541 199.452 57.3164 199.157 57.2809 198.861L57.734 198.807C57.6988 198.514 57.6657 198.221 57.6349 197.927L57.1811 197.975C57.1499 197.679 57.121 197.383 57.0943 197.087L57.5488 197.046C57.5222 196.752 57.4979 196.458 57.4757 196.163L57.0207 196.198C56.9984 195.901 56.9783 195.604 56.9603 195.307L57.4158 195.28C57.398 194.985 57.3824 194.691 57.3689 194.396L56.9131 194.417C56.8996 194.119 56.8882 193.822 56.8791 193.525L57.3352 193.511C57.3261 193.216 57.3192 192.921 57.3145 192.626L56.8583 192.633C56.8536 192.336 56.851 192.038 56.8507 191.741L57.307 191.74C57.3069 191.602 57.3072 191.465 57.308 191.327C57.3089 191.169 57.3105 191.012 57.3126 190.855L56.8563 190.849C56.8604 190.551 56.8667 190.254 56.8752 189.957L57.3313 189.97C57.3355 189.822 57.3403 189.675 57.3456 189.527C57.3471 189.484 57.3487 189.441 57.3504 189.398C57.3546 189.29 57.3592 189.183 57.3641 189.076L56.9083 189.055C56.9224 188.752 56.9396 188.448 56.9599 188.145L57.4152 188.175C57.4353 187.875 57.4585 187.576 57.4848 187.275L57.0303 187.235C57.0567 186.933 57.0863 186.631 57.1191 186.327L57.5727 186.376C57.605 186.078 57.6402 185.779 57.6786 185.479L57.226 185.421C57.2643 185.121 57.3057 184.82 57.3502 184.518L57.8017 184.585C57.8453 184.289 57.8919 183.991 57.9415 183.693L57.4913 183.618C57.5408 183.32 57.5933 183.021 57.6486 182.72L58.0974 182.803C58.1516 182.508 58.2087 182.212 58.2687 181.915L57.8214 181.824C57.881 181.528 57.9435 181.231 58.0088 180.931L58.4546 181.029C58.5185 180.736 58.5852 180.441 58.6546 180.144L58.2102 180.04C58.2788 179.747 58.35 179.452 58.4239 179.155L58.8667 179.265C58.9389 178.975 59.0136 178.683 59.0909 178.388L58.6495 178.273C58.7261 177.981 58.8052 177.688 58.8867 177.392L59.3266 177.513C59.4064 177.224 59.4885 176.933 59.5732 176.639L59.1347 176.513C59.2182 176.223 59.304 175.931 59.3921 175.637L59.8292 175.768C59.915 175.482 60.0031 175.193 60.0934 174.902L59.6576 174.767C59.7468 174.479 59.8383 174.189 59.9319 173.897L60.3664 174.036C60.4156 173.883 60.4654 173.728 60.5158 173.573C60.5594 173.439 60.6035 173.305 60.648 173.17L60.2146 173.027C60.3086 172.742 60.4046 172.454 60.5027 172.164L60.935 172.31C61.0309 172.026 61.1288 171.74 61.2286 171.451L60.7974 171.302C60.8961 171.017 60.9968 170.729 61.0993 170.438L61.5296 170.59C61.6293 170.308 61.7309 170.023 61.8343 169.735L61.4049 169.581C61.5067 169.298 61.6103 169.013 61.7156 168.725L62.1441 168.882C62.2478 168.598 62.3532 168.312 62.4604 168.024L62.0326 167.865C62.137 167.584 62.2431 167.3 62.3507 167.015L62.7777 167.175C62.8837 166.894 62.9913 166.61 63.1005 166.324L62.6742 166.161C62.7817 165.879 62.8907 165.595 63.0013 165.308L63.4271 165.472C63.5349 165.192 63.6442 164.91 63.755 164.626L63.3298 164.46C63.4398 164.178 63.5512 163.893 63.6641 163.606L64.0888 163.773C64.1982 163.494 64.309 163.214 64.4211 162.931L63.9969 162.763C64.1083 162.481 64.221 162.198 64.3351 161.912L64.7589 162.081C64.8702 161.803 64.9828 161.521 65.0967 161.238L64.6733 161.068C64.7858 160.788 64.8995 160.506 65.0145 160.221L65.4376 160.392C65.5505 160.113 65.6645 159.831 65.7798 159.548L65.357 159.376C65.4704 159.097 65.585 158.815 65.7008 158.532L66.1233 158.704C66.2373 158.425 66.3524 158.143 66.4687 157.86L66.0465 157.686C66.1607 157.408 66.276 157.127 66.3924 156.844L66.8144 157.018C66.9293 156.738 67.0452 156.457 67.1622 156.174L66.7404 156C66.8553 155.721 66.9713 155.44 67.0883 155.158L67.51 155.332C67.6253 155.053 67.7418 154.772 67.8592 154.489L67.4377 154.314C67.5533 154.036 67.67 153.755 67.7875 153.472L68.2089 153.647L68.5588 152.806L68.1376 152.631C68.2539 152.352 68.3712 152.07 68.4894 151.787L68.9105 151.963L69.2605 151.124L68.8394 150.948C68.9565 150.668 69.0744 150.386 69.1932 150.101L69.6143 150.277L69.9637 149.442L69.5427 149.266C69.6601 148.985 69.7783 148.703 69.8973 148.418L70.3182 148.595L70.6681 147.759L70.2472 147.582C70.3642 147.303 70.4819 147.022 70.6004 146.739L71.0213 146.915L71.1996 146.489L71.378 146.064L70.9571 145.887C71.0756 145.604 71.1933 145.323 71.3103 145.044L71.7311 145.22L72.0813 144.384L71.6605 144.208C71.7796 143.924 71.8979 143.641 72.0154 143.361L72.4363 143.537L72.7866 142.702L72.3658 142.526C72.485 142.242 72.6034 141.959 72.721 141.679L73.1417 141.856L73.4937 141.018L73.0731 140.842C73.1921 140.559 73.3103 140.278 73.4277 139.999L73.8482 140.176L74.202 139.336L73.7816 139.159C73.9006 138.877 74.0189 138.597 74.1364 138.319L74.5567 138.496C74.676 138.214 74.7945 137.934 74.9122 137.656L74.4921 137.478C74.6115 137.197 74.7301 136.917 74.8479 136.64L75.2679 136.818C75.3878 136.536 75.5069 136.256 75.6253 135.978L75.2055 135.799C75.3255 135.518 75.4447 135.239 75.5632 134.962L75.9828 135.141C76.1033 134.859 76.2231 134.58 76.3422 134.303L75.9229 134.122C76.0438 133.841 76.1639 133.562 76.2833 133.285L76.7023 133.466C76.8236 133.185 76.9441 132.906 77.0639 132.63L76.6453 132.448C76.7674 132.167 76.8887 131.888 77.0093 131.611L77.4276 131.793C77.5497 131.513 77.6711 131.236 77.7917 130.961L77.3739 130.777C77.4975 130.496 77.6203 130.217 77.7425 129.94L78.1599 130.124C78.2829 129.846 78.4052 129.57 78.5268 129.297L78.1099 129.111C78.2354 128.829 78.3602 128.55 78.4843 128.273L78.9006 128.46C79.0255 128.182 79.1498 127.906 79.2735 127.633L78.8578 127.445C78.9846 127.165 79.1107 126.887 79.2362 126.613L79.6512 126.803C79.7014 126.693 79.7516 126.584 79.8016 126.475C79.8785 126.307 79.9552 126.141 80.0317 125.975L79.6175 125.784C79.7457 125.506 79.8732 125.232 80.0003 124.961L80.4136 125.154C80.544 124.875 80.6737 124.599 80.803 124.327L80.3906 124.131C80.5218 123.854 80.6525 123.58 80.7828 123.309L81.1941 123.507C81.3263 123.232 81.4581 122.959 81.5895 122.69L81.1793 122.49C81.3143 122.213 81.4488 121.939 81.583 121.669L81.9919 121.871C82.1275 121.598 82.2628 121.327 82.3978 121.06L81.9904 120.854C82.1283 120.581 82.2659 120.311 82.4032 120.043L82.8091 120.252C82.9493 119.979 83.0893 119.71 83.229 119.443L82.825 119.231C82.9676 118.96 83.11 118.691 83.2523 118.426L83.6545 118.641C83.7985 118.373 83.9423 118.108 84.0862 117.846L83.6862 117.626C83.8339 117.357 83.9817 117.091 84.1295 116.828L84.5272 117.052C84.6771 116.786 84.827 116.523 84.9771 116.263L84.5821 116.035C84.7355 115.769 84.8892 115.507 85.0432 115.248L85.4354 115.481C85.5909 115.22 85.7466 114.961 85.9028 114.706L85.5136 114.468C85.6735 114.207 85.8337 113.949 85.9946 113.695L86.3803 113.939C86.5431 113.681 86.7064 113.427 86.8703 113.176L86.4883 112.926C86.6558 112.669 86.824 112.416 86.9932 112.166L87.3713 112.421C87.5412 112.17 87.7121 111.922 87.8839 111.676L87.5101 111.415C87.6855 111.164 87.862 110.917 88.0397 110.672L88.4087 110.941C88.5867 110.696 88.7659 110.454 88.9464 110.215L88.5823 109.94C88.7663 109.697 88.9517 109.456 89.1386 109.218L89.4974 109.5C89.6842 109.262 89.8725 109.027 90.0625 108.795L89.7093 108.506C89.9024 108.27 90.0972 108.037 90.294 107.806L90.6413 108.102C90.8368 107.872 91.0343 107.645 91.2338 107.421L90.8926 107.118C91.0946 106.89 91.2987 106.665 91.5051 106.442L91.84 106.752C91.9422 106.642 92.0449 106.532 92.1482 106.423C92.1938 106.375 92.2394 106.327 92.285 106.279C92.3411 106.22 92.3973 106.161 92.4536 106.102L92.1243 105.786C92.3302 105.572 92.5377 105.359 92.7467 105.147L93.0713 105.468C93.2788 105.258 93.4878 105.049 93.6983 104.843L93.3785 104.517C93.5907 104.309 93.8044 104.102 94.0196 103.897L94.3345 104.227C94.5482 104.023 94.7633 103.821 94.9798 103.62L94.6698 103.286C94.8881 103.084 95.1078 102.883 95.329 102.684L95.634 103.024C95.8535 102.826 96.0745 102.631 96.2969 102.437L95.997 102.093C96.2211 101.897 96.4467 101.704 96.6737 101.511L96.9685 101.86C97.1938 101.669 97.4205 101.48 97.6486 101.293L97.3589 100.94C97.5888 100.751 97.82 100.564 98.0526 100.379L98.3369 100.736C98.5678 100.552 98.8 100.37 99.0335 100.189L98.7544 99.8281C98.9897 99.6462 99.2264 99.4661 99.4644 99.2877L99.738 99.6528C99.9742 99.4758 100.212 99.3005 100.45 99.127L100.182 98.7579C100.423 98.5831 100.665 98.41 100.908 98.2388L101.171 98.6118C101.412 98.4419 101.654 98.2737 101.898 98.1074L101.641 97.7304C101.887 97.5628 102.134 97.397 102.382 97.2331L102.633 97.6138C102.88 97.4511 103.127 97.2902 103.376 97.1311L103.13 96.7467C103.38 96.5864 103.632 96.428 103.885 96.2715L104.125 96.6594C104.376 96.5041 104.628 96.3506 104.881 96.199L104.647 95.8075C104.902 95.6547 105.158 95.5038 105.416 95.3548L105.644 95.7497C105.9 95.6019 106.156 95.4559 106.414 95.3119L106.191 94.9136C106.451 94.7685 106.711 94.6252 106.973 94.4839L107.19 94.8854C107.32 94.8153 107.45 94.7457 107.58 94.6765C107.713 94.606 107.847 94.5363 107.98 94.4671L107.771 94.0618C108.04 93.9223 108.312 93.7855 108.585 93.6513L108.786 94.0609C109.056 93.9284 109.327 93.7985 109.6 93.6712L109.407 93.2576C109.682 93.1294 109.959 93.0038 110.238 92.8805L110.423 93.2979C110.697 93.1766 110.974 93.0577 111.252 92.941L111.076 92.5201C111.355 92.4032 111.637 92.2886 111.92 92.1762L112.089 92.6004C112.367 92.49 112.648 92.3817 112.931 92.2754L112.771 91.8481C113.054 91.742 113.339 91.6378 113.627 91.5354L113.78 91.9654C114.062 91.8651 114.347 91.7666 114.635 91.6697L114.489 91.2372C114.775 91.1409 115.064 91.0461 115.356 90.953L115.495 91.3877C115.781 91.2966 116.069 91.2069 116.361 91.1186L116.229 90.6819C116.517 90.5946 116.808 90.5088 117.102 90.4243L117.228 90.8628C117.516 90.7802 117.806 90.6989 118.099 90.6187L117.979 90.1785C118.27 90.0991 118.563 90.0208 118.86 89.9436L118.975 90.3852C119.265 90.3097 119.559 90.2352 119.855 90.1617L119.746 89.7188C120.038 89.6462 120.334 89.5746 120.633 89.5039L120.738 89.9479C121.029 89.8791 121.323 89.811 121.62 89.7438L121.519 89.2987C121.813 89.2322 122.109 89.1664 122.409 89.1014L122.506 89.5473C122.8 89.4835 123.097 89.4204 123.397 89.3579L123.304 88.9111C123.598 88.8499 123.896 88.7892 124.196 88.7291L124.285 89.1765C124.579 89.1177 124.876 89.0593 125.176 89.0015L125.09 88.5534C125.386 88.4962 125.686 88.4394 125.988 88.383L126.072 88.8316C126.221 88.8038 126.371 88.7761 126.522 88.7486C126.669 88.7216 126.816 88.6948 126.965 88.6681L126.884 88.219C127.18 88.1656 127.479 88.1126 127.781 88.0599L127.859 88.5094C128.157 88.4575 128.457 88.4059 128.76 88.3544L128.684 87.9045C128.979 87.8544 129.278 87.8045 129.579 87.7548L129.654 88.2051C129.95 88.1561 130.25 88.1074 130.553 88.0588L130.48 87.6082C130.778 87.5603 131.079 87.5126 131.383 87.4649L131.453 87.9158C131.749 87.8693 132.048 87.823 132.35 87.7767L132.281 87.3256C132.581 87.2797 132.883 87.2338 133.188 87.1879L133.256 87.6392C133.552 87.5947 133.85 87.5503 134.151 87.5059L134.085 87.0545C134.384 87.0104 134.686 86.9663 134.99 86.9222L135.056 87.3738C135.353 87.3308 135.653 87.2877 135.955 87.2446L135.891 86.7928C136.189 86.7503 136.491 86.7076 136.795 86.665L136.858 87.1168C137.088 87.0845 137.32 87.0522 137.553 87.0198L137.761 86.991L137.698 86.539C137.996 86.4976 138.297 86.4561 138.601 86.4146L138.663 86.8667C138.8 86.8479 138.937 86.8292 139.075 86.8104C139.095 86.8077 139.115 86.805 139.134 86.8023C139.278 86.7828 139.422 86.7632 139.567 86.7436L139.506 86.2914C139.804 86.251 140.105 86.2104 140.408 86.1697L140.469 86.622C140.768 86.5819 141.07 86.5416 141.374 86.5012L141.314 86.0489C141.612 86.0091 141.913 85.9693 142.217 85.9292L142.276 86.3816C142.575 86.3421 142.877 86.3025 143.181 86.2627L143.121 85.8102C143.421 85.771 143.722 85.7316 144.026 85.692L144.085 86.1445L144.988 86.0271L144.929 85.5746C145.229 85.5356 145.532 85.4965 145.836 85.4572L145.895 85.9097L146.796 85.7936L146.738 85.341C147.039 85.3022 147.342 85.2632 147.648 85.224L147.706 85.6766L148.604 85.5614L148.546 85.1088C148.848 85.0702 149.152 85.0313 149.457 84.9922L149.515 85.4448L150.414 85.3299L150.356 84.8773C150.657 84.8389 150.959 84.8003 151.263 84.7615L151.321 85.2141L151.779 85.1556L152.237 85.0971L152.179 84.6445C152.484 84.6056 152.786 84.5671 153.086 84.5287L153.144 84.9814L154.043 84.8667L153.985 84.414C154.291 84.3751 154.595 84.3364 154.896 84.298L154.954 84.7506L155.852 84.6364L155.795 84.1837C156.1 84.1449 156.404 84.1064 156.705 84.0682L156.763 84.5209L157.664 84.4069L157.607 83.9542C157.912 83.9157 158.214 83.8776 158.514 83.8399L158.571 84.2926L159.475 84.1793L159.418 83.7265C159.722 83.6885 160.024 83.6509 160.323 83.6137L160.38 84.0665C160.507 84.0507 160.634 84.0349 160.76 84.0192C160.936 83.9975 161.111 83.9758 161.285 83.9543L161.229 83.5015C161.533 83.464 161.834 83.4269 162.133 83.3903L162.189 83.8432C162.493 83.806 162.795 83.7692 163.095 83.7328L163.04 83.2798C163.344 83.243 163.645 83.2066 163.944 83.1708L163.998 83.6238C164.303 83.5873 164.605 83.5513 164.904 83.5158L164.851 83.0627C165.155 83.0266 165.457 82.9911 165.756 82.9561L165.809 83.4094C166.113 83.3738 166.415 83.3389 166.714 83.3045L166.662 82.8511C166.967 82.8161 167.269 82.7816 167.569 82.7477L167.62 83.2012C167.924 83.1669 168.225 83.1332 168.523 83.1002L168.473 82.6467C168.779 82.6129 169.082 82.5797 169.383 82.5472L169.432 83.0009C169.734 82.9682 170.035 82.9361 170.332 82.9048L170.284 82.451C170.591 82.4187 170.895 82.3871 171.197 82.3563L171.243 82.8103C171.547 82.7793 171.848 82.749 172.146 82.7196L172.101 82.2655C172.407 82.2353 172.71 82.2059 173.011 82.1774L173.054 82.6316C173.359 82.6026 173.661 82.5746 173.961 82.5473L173.92 82.0929C174.224 82.0653 174.525 82.0386 174.824 82.0128L174.863 82.4674C175.17 82.4409 175.473 82.4155 175.774 82.391L175.737 81.9362C176.043 81.9114 176.345 81.8876 176.645 81.8648L176.68 82.3198C176.984 82.2967 177.286 82.2747 177.585 82.2538L177.553 81.7986C177.86 81.7771 178.165 81.7567 178.466 81.7376L178.495 82.193C178.8 82.1737 179.102 82.1555 179.401 82.1387L179.375 81.6831C179.681 81.6658 179.984 81.6499 180.284 81.6353L180.306 82.091C180.612 82.0761 180.916 82.0626 181.216 82.0504L181.198 81.5945C181.505 81.5821 181.808 81.5712 182.109 81.5618L182.124 82.0178C182.428 82.0083 182.73 82.0003 183.029 81.9939L183.019 81.5376C183.326 81.531 183.63 81.526 183.931 81.5227L183.936 81.979C184.242 81.9757 184.545 81.974 184.845 81.9742L184.845 81.5179C185.151 81.518 185.455 81.52 185.757 81.5238L185.751 81.9801C186.055 81.9839 186.357 81.9897 186.656 81.9974L186.667 81.5413C186.973 81.5492 187.277 81.5591 187.578 81.5711L187.559 82.0271C187.864 82.0392 188.166 82.0535 188.465 82.07L188.49 81.6143C188.796 81.6311 189.1 81.6502 189.401 81.6715L189.369 82.1267C189.671 82.1482 189.972 82.1719 190.27 82.1981L190.31 81.7435C190.615 81.7702 190.917 81.7994 191.217 81.8311L191.17 82.2849C191.471 82.3166 191.77 82.3509 192.067 82.3877L192.123 81.9349C192.426 81.9724 192.727 82.0127 193.026 82.0556L192.962 82.5073C193.261 82.5502 193.559 82.5958 193.855 82.6442L193.928 82.1939C194.229 82.2431 194.529 82.2951 194.827 82.3501L194.744 82.7989C195.041 82.8535 195.336 82.911 195.63 82.9715L195.722 82.5245C196.02 82.5857 196.317 82.6499 196.614 82.7172L196.513 83.1622C196.659 83.1955 196.806 83.2296 196.952 83.2644C197.096 83.2986 197.239 83.3333 197.382 83.3685L197.491 82.9254C197.78 82.9964 198.068 83.0695 198.356 83.1448L198.241 83.5862C198.526 83.661 198.811 83.7378 199.096 83.8167L199.218 83.377C199.504 83.4565 199.79 83.5382 200.075 83.6219L199.947 84.0598C200.23 84.1429 200.513 84.2281 200.795 84.3154L200.93 83.8795C201.214 83.9675 201.497 84.0576 201.78 84.1498L201.639 84.5836C201.919 84.6751 202.199 84.7687 202.478 84.8643L202.626 84.4326C202.908 84.5289 203.188 84.6274 203.468 84.7279L203.314 85.1573C203.592 85.2571 203.869 85.3589 204.145 85.4627L204.306 85.0356C204.584 85.1403 204.862 85.247 205.138 85.3557L204.972 85.7804C205.246 85.8884 205.52 85.9983 205.793 86.1103L205.966 85.6881C206.242 85.801 206.516 85.9159 206.789 86.0328L206.61 86.4524C206.881 86.5684 207.152 86.6864 207.421 86.8064L207.607 86.3896C207.879 86.5105 208.15 86.6335 208.419 86.7584L208.228 87.1725C208.496 87.2965 208.762 87.4225 209.028 87.5505L209.226 87.1393C209.494 87.2682 209.761 87.3991 210.027 87.5321L209.823 87.9403C210.087 88.0721 210.351 88.206 210.613 88.3418L210.823 87.9366C211.087 88.0735 211.35 88.2122 211.612 88.353L211.396 88.755C211.656 88.8946 211.915 89.0362 212.173 89.1797L212.395 88.7809C212.654 88.9255 212.913 89.072 213.171 89.2204L212.943 89.6159C213.199 89.7631 213.454 89.9123 213.707 90.0634L213.941 89.6714C214.196 89.8236 214.451 89.9777 214.704 90.1337L214.465 90.5222C214.59 90.5996 214.716 90.6775 214.841 90.7559C214.968 90.8357 215.095 90.9162 215.222 90.9974L215.468 90.6132C215.724 90.7771 215.978 90.9437 216.231 91.1131L215.977 91.4921C216.226 91.6594 216.474 91.8294 216.721 92.0024L216.983 91.6287C217.231 91.8027 217.479 91.9796 217.725 92.1596L217.456 92.528C217.698 92.705 217.939 92.8851 218.18 93.0682L218.456 92.7051C218.697 92.8884 218.937 93.0748 219.176 93.2643L218.893 93.622C219.127 93.8079 219.362 93.9969 219.595 94.1892L219.885 93.8367C220.119 94.0286 220.352 94.2236 220.584 94.4219L220.288 94.7692C220.516 94.9634 220.744 95.1608 220.972 95.3616L221.273 95.0192C221.5 95.219 221.727 95.4219 221.953 95.6281L221.646 95.9656C221.868 96.1675 222.09 96.3726 222.312 96.581L222.624 96.2481C222.844 96.4541 223.064 96.6633 223.284 96.8758L222.967 97.2042C223.183 97.4118 223.398 97.6226 223.614 97.8367L223.935 97.5124C224.15 97.7245 224.364 97.9397 224.579 98.1581L224.254 98.4784C224.465 98.6921 224.676 98.9089 224.888 99.129L225.217 98.8125C225.426 99.0296 225.636 99.2498 225.846 99.4732L225.514 99.7862C225.719 100.004 225.925 100.224 226.132 100.448L226.467 100.138C226.672 100.359 226.877 100.583 227.083 100.811L226.746 101.117C226.948 101.34 227.151 101.566 227.355 101.795L227.696 101.491C227.896 101.715 228.097 101.942 228.299 102.172L227.956 102.473C228.154 102.698 228.353 102.926 228.553 103.157L228.898 102.858C229.096 103.086 229.295 103.317 229.495 103.551L229.148 103.848C229.343 104.075 229.539 104.306 229.736 104.539L230.085 104.244C230.279 104.474 230.474 104.706 230.671 104.942L230.321 105.234C230.515 105.466 230.709 105.7 230.906 105.937L231.257 105.646C231.448 105.877 231.641 106.111 231.834 106.347L231.482 106.636C231.672 106.869 231.865 107.104 232.058 107.342L232.412 107.054C232.602 107.288 232.794 107.524 232.987 107.763L232.632 108.05C232.82 108.283 233.01 108.519 233.201 108.757L233.557 108.472C233.747 108.708 233.937 108.947 234.13 109.188L233.773 109.473C233.959 109.707 234.147 109.943 234.336 110.182L234.694 109.898C234.881 110.135 235.071 110.375 235.261 110.616L234.903 110.899C235.088 111.135 235.276 111.373 235.464 111.613L235.823 111.332C236.01 111.569 236.197 111.809 236.386 112.05L236.026 112.331C236.212 112.569 236.399 112.808 236.587 113.05L236.947 112.77C237.132 113.007 237.318 113.247 237.506 113.489L237.145 113.769C237.33 114.008 237.516 114.248 237.704 114.491L238.065 114.211C238.249 114.45 238.435 114.69 238.622 114.932L238.26 115.211C238.445 115.45 238.63 115.691 238.817 115.934L239.179 115.656C239.363 115.895 239.548 116.135 239.734 116.378L239.372 116.656C239.556 116.895 239.741 117.137 239.927 117.38L240.29 117.102C240.473 117.342 240.658 117.583 240.844 117.826L240.482 118.104L241.035 118.827L241.398 118.55C241.581 118.791 241.766 119.033 241.953 119.277L241.59 119.554L242.141 120.276L242.504 119.999C242.688 120.241 242.874 120.484 243.061 120.729L242.698 121.006L243.247 121.726L243.61 121.45C243.794 121.692 243.979 121.935 244.166 122.18L243.803 122.457L244.352 123.178L244.715 122.901C244.898 123.142 245.083 123.385 245.269 123.629L244.906 123.905L245.185 124.273L245.465 124.64L245.828 124.364C246.014 124.608 246.198 124.85 246.382 125.091L246.019 125.368L246.567 126.089L246.931 125.812C247.117 126.058 247.303 126.301 247.487 126.543L247.123 126.82L247.672 127.541L248.035 127.264C248.221 127.51 248.406 127.753 248.59 127.995L248.227 128.271L248.776 128.995L249.14 128.719C249.325 128.964 249.51 129.206 249.692 129.448L249.329 129.723L249.879 130.449L250.243 130.174C250.427 130.418 250.611 130.661 250.793 130.901L250.429 131.176C250.614 131.421 250.797 131.664 250.979 131.904L251.343 131.63C251.527 131.874 251.71 132.116 251.891 132.357L251.527 132.632C251.711 132.876 251.894 133.12 252.075 133.361L252.44 133.087C252.624 133.332 252.806 133.574 252.987 133.816L252.622 134.089C252.805 134.334 252.988 134.578 253.168 134.82L253.534 134.547C253.717 134.792 253.899 135.036 254.079 135.277L253.713 135.55C253.895 135.795 254.077 136.039 254.256 136.281L254.622 136.009C254.805 136.256 254.986 136.5 255.166 136.743L254.798 137.014C254.98 137.26 255.16 137.504 255.337 137.746L255.705 137.476C255.887 137.724 256.068 137.97 256.246 138.214L255.878 138.483C256.057 138.729 256.235 138.973 256.411 139.215L256.78 138.946C256.962 139.196 257.141 139.444 257.318 139.689L256.949 139.957C257.127 140.204 257.304 140.449 257.479 140.693L257.849 140.427C258.029 140.677 258.206 140.925 258.38 141.171L258.009 141.435C258.186 141.685 258.362 141.933 258.535 142.179L258.908 141.916C259.084 142.165 259.258 142.413 259.43 142.659L259.055 142.92C259.232 143.172 259.406 143.422 259.577 143.671L259.953 143.411C260.127 143.663 260.299 143.914 260.468 144.162L260.092 144.419C260.264 144.672 260.434 144.922 260.601 145.17L260.98 144.915C261.152 145.17 261.322 145.424 261.489 145.675L261.109 145.928C261.278 146.182 261.445 146.435 261.609 146.685L261.991 146.435C262.158 146.692 262.324 146.946 262.486 147.198L262.103 147.445C262.269 147.703 262.432 147.959 262.593 148.213L262.979 147.97C263.143 148.229 263.304 148.487 263.463 148.742L263.075 148.983C263.235 149.242 263.393 149.499 263.548 149.755L263.938 149.518C264.098 149.781 264.254 150.041 264.408 150.301L264.015 150.533C264.171 150.796 264.323 151.058 264.473 151.318L264.869 151.09C265.022 151.355 265.172 151.619 265.319 151.882L264.921 152.105C265.07 152.371 265.216 152.635 265.359 152.898L265.76 152.68C265.906 152.949 266.049 153.216 266.189 153.483L265.785 153.695C265.927 153.965 266.065 154.233 266.201 154.501L266.608 154.295C266.746 154.568 266.881 154.84 267.014 155.112L266.603 155.312C266.736 155.585 266.866 155.857 266.992 156.128L267.406 155.935C267.535 156.213 267.661 156.489 267.784 156.765L267.367 156.951C267.49 157.227 267.61 157.503 267.726 157.779L268.147 157.601C268.265 157.882 268.381 158.163 268.494 158.444L268.07 158.614C268.183 158.894 268.292 159.175 268.398 159.456L268.825 159.294C268.933 159.579 269.037 159.865 269.139 160.151L268.709 160.303C268.81 160.587 268.908 160.872 269.003 161.157L269.436 161.013C269.532 161.302 269.624 161.591 269.714 161.881L269.278 162.016C269.323 162.16 269.367 162.304 269.41 162.448C269.452 162.589 269.494 162.731 269.535 162.873L269.973 162.746C270.056 163.031 270.137 163.317 270.215 163.604L269.775 163.725C269.853 164.01 269.929 164.295 270.003 164.581L270.445 164.466C270.519 164.754 270.592 165.043 270.662 165.332L270.218 165.439C270.288 165.726 270.355 166.014 270.421 166.301L270.866 166.2C270.932 166.49 270.995 166.781 271.057 167.072L270.61 167.166C270.672 167.455 270.73 167.744 270.787 168.034L271.235 167.946C271.292 168.238 271.347 168.53 271.4 168.823L270.951 168.904C271.004 169.195 271.054 169.485 271.102 169.777L271.552 169.702C271.601 169.995 271.647 170.289 271.692 170.583L271.24 170.651C271.284 170.943 271.326 171.235 271.366 171.528L271.818 171.467C271.858 171.761 271.895 172.056 271.931 172.352L271.478 172.406C271.513 172.699 271.546 172.992 271.577 173.286L272.031 173.238C272.062 173.534 272.091 173.83 272.117 174.126L271.663 174.167C271.689 174.461 271.714 174.755 271.736 175.05L272.191 175.015C272.213 175.312 272.233 175.609 272.251 175.905L271.796 175.933C271.814 176.228 271.829 176.522 271.843 176.817L272.299 176.796C272.312 177.093 272.323 177.391 272.333 177.688L271.877 177.702C271.886 177.997 271.892 178.292 271.897 178.587L272.353 178.58C272.358 178.877 272.361 179.175 272.361 179.472L271.905 179.473C271.905 179.768 271.903 180.063 271.899 180.358L272.355 180.364C272.351 180.662 272.345 180.959 272.337 181.256L271.88 181.243C271.876 181.391 271.871 181.538 271.866 181.686C271.861 181.836 271.855 181.986 271.848 182.137L272.303 182.158C272.289 182.461 272.272 182.765 272.252 183.068L271.797 183.038C271.776 183.337 271.753 183.637 271.727 183.938L272.181 183.978C272.155 184.28 272.125 184.582 272.093 184.885L271.639 184.837C271.607 185.135 271.571 185.434 271.533 185.734L271.986 185.792C271.947 186.092 271.906 186.393 271.862 186.695L271.41 186.628C271.366 186.924 271.32 187.222 271.27 187.52L271.72 187.595C271.671 187.893 271.618 188.192 271.563 188.493L271.114 188.41C271.06 188.705 271.003 189.001 270.943 189.298L271.39 189.388C271.331 189.685 271.268 189.982 271.203 190.282L270.757 190.184C270.693 190.477 270.627 190.772 270.557 191.069L271.001 191.173C270.933 191.466 270.862 191.761 270.788 192.058L270.345 191.948C270.273 192.238 270.198 192.53 270.121 192.824L270.562 192.94C270.486 193.232 270.407 193.525 270.325 193.821L269.885 193.7C269.805 193.989 269.723 194.28 269.639 194.574L270.077 194.7C269.994 194.99 269.908 195.282 269.82 195.576L269.383 195.445C269.297 195.731 269.209 196.02 269.118 196.311L269.554 196.446C269.465 196.734 269.373 197.023 269.28 197.316L268.845 197.177C268.754 197.463 268.66 197.752 268.564 198.043L268.997 198.186C268.903 198.471 268.807 198.759 268.709 199.049L268.277 198.903C268.181 199.187 268.083 199.473 267.983 199.762L268.414 199.911C268.316 200.196 268.215 200.484 268.112 200.774L267.682 200.623C267.582 200.905 267.481 201.19 267.377 201.477L267.807 201.632C267.705 201.915 267.601 202.2 267.496 202.488L267.068 202.331C266.964 202.615 266.858 202.901 266.751 203.189L267.179 203.348C267.075 203.629 266.969 203.912 266.861 204.198L266.434 204.037C266.328 204.319 266.22 204.603 266.111 204.889L266.538 205.052C266.43 205.334 266.321 205.618 266.21 205.905L265.785 205.741C265.677 206.021 265.567 206.303 265.457 206.587L265.882 206.753C265.772 207.035 265.66 207.32 265.548 207.607L265.123 207.44C265.013 207.719 264.903 207.999 264.791 208.282L265.215 208.45C265.103 208.731 264.991 209.015 264.877 209.301L264.453 209.131C264.342 209.41 264.229 209.692 264.115 209.975L264.538 210.145C264.426 210.425 264.312 210.707 264.197 210.992L263.774 210.821C263.661 211.1 263.547 211.382 263.432 211.665L263.855 211.837C263.741 212.116 263.627 212.398 263.511 212.681L263.088 212.509C262.974 212.788 262.859 213.07 262.743 213.353L263.165 213.526C263.051 213.805 262.936 214.086 262.819 214.369L262.397 214.195C262.282 214.475 262.167 214.756 262.05 215.039L262.471 215.213C262.356 215.492 262.24 215.773 262.123 216.055L261.702 215.881C261.586 216.16 261.47 216.441 261.353 216.724L261.774 216.898C261.658 217.177 261.542 217.458 261.424 217.741L261.003 217.566L260.653 218.407L261.074 218.582C260.958 218.861 260.841 219.143 260.722 219.426L260.301 219.25L259.951 220.089L260.372 220.265C260.255 220.545 260.137 220.827 260.018 221.112L259.597 220.936L259.248 221.771L259.669 221.947C259.552 222.228 259.433 222.51 259.314 222.795L258.894 222.618L258.544 223.454L258.964 223.631Z" stroke="url(#paint2_linear_1_480)" stroke-width="0.912627" stroke-dasharray="0.91 0.91"/>
</g>
<defs>
<linearGradient id="paint0_linear_1_480" x1="397.444" y1="61.9437" x2="90.6314" y2="128.191" gradientUnits="userSpaceOnUse">
<stop stop-color="#FFB69F"/>
<stop offset="1" stop-color="#FFB69F" stop-opacity="0"/>
</linearGradient>
<linearGradient id="paint1_linear_1_480" x1="223.284" y1="160.181" x2="74.9887" y2="264.283" gradientUnits="userSpaceOnUse">
<stop stop-color="white" stop-opacity="0.72"/>
<stop offset="1" stop-color="white" stop-opacity="0"/>
</linearGradient>
<linearGradient id="paint2_linear_1_480" x1="152.321" y1="111.984" x2="82.9367" y2="208.43" gradientUnits="userSpaceOnUse">
<stop/>
<stop offset="1" stop-opacity="0"/>
</linearGradient>
</defs>
</svg>
