<svg width="243" height="208" viewBox="0 0 243 208" fill="none" xmlns="http://www.w3.org/2000/svg">
<path d="M63.9096 171.106L81.129 126.07C81.3325 125.541 83.447 124.746 85.1028 124.084L129.145 107.858C134.973 104.944 137.754 109.182 139.079 111.5L161.928 153.224C163.517 156.403 163.473 157.86 163.252 158.191L146.695 201.24C144.311 208.658 138.196 207.863 135.436 206.538L66.2276 180.047C60.6644 178.987 62.3643 173.645 63.9096 171.106Z" fill="#233289"/>
<mask id="mask0_1_486" style="mask-type:alpha" maskUnits="userSpaceOnUse" x="62" y="106" width="102" height="102">
<path d="M63.9096 171.106L81.129 126.07C81.3325 125.541 83.447 124.746 85.1028 124.084L129.145 107.858C134.973 104.944 137.754 109.182 139.079 111.5L161.928 153.224C163.517 156.403 163.473 157.86 163.252 158.191L146.695 201.24C144.311 208.658 138.196 207.863 135.436 206.538L66.2276 180.047C60.6644 178.987 62.3643 173.645 63.9096 171.106Z" fill="#233289"/>
</mask>
<g mask="url(#mask0_1_486)">
<path d="M159.016 139.068L160.661 134.518C158.011 133.56 156.627 130.608 157.585 127.958L98.91 106.748L98.8538 106.904C97.8354 109.453 94.952 110.766 92.3555 109.827L90.7106 114.377C92.357 115.717 93.0705 117.997 92.31 120.101C91.5495 122.205 89.538 123.499 87.4209 123.478L85.6773 128.302C87.3237 129.642 88.0372 131.921 87.2767 134.025C86.5181 136.124 84.5047 137.424 82.3875 137.403L80.7446 141.948C83.3518 142.891 84.7229 145.729 83.8666 148.349L83.8104 148.504L142.485 169.713L142.487 169.708C143.449 167.047 146.384 165.675 149.045 166.637L150.69 162.086C149.043 160.747 148.33 158.467 149.091 156.363C149.849 154.265 151.863 152.965 153.98 152.985L155.721 148.167C154.075 146.827 153.361 144.548 154.122 142.444C154.882 140.34 156.894 139.045 159.016 139.068Z" fill="#F0D162"/>
<path d="M137.556 126.365L125.945 158.487M138.188 162.912L91.4734 146.026C90.6276 145.72 90.1866 144.78 90.4923 143.934L100.993 114.886C101.298 114.04 102.239 113.599 103.084 113.905L149.794 130.789C150.64 131.095 151.081 132.035 150.775 132.881L140.277 161.924C140.205 162.126 140.093 162.312 139.949 162.471C139.805 162.63 139.631 162.759 139.437 162.851C139.243 162.942 139.033 162.995 138.819 163.006C138.605 163.016 138.39 162.984 138.188 162.912V162.912ZM115.024 118.451L103.413 150.572L115.024 118.451Z" stroke="white" stroke-width="3" stroke-miterlimit="10"/>
<path d="M98.0173 135.342C94.0436 127.395 83.5574 125.85 78.811 126.07L60.267 169.119L57.949 181.04L127.158 208.525L145.702 211.174L165.902 158.191C158.484 150.774 146.695 152.893 141.728 154.88L112.919 167.463L98.0173 135.342Z" fill="#2A3DA9"/>
<g opacity="0.3">
<path d="M151.331 194.285L122.522 163.489L148.351 199.583L151.331 194.285Z" fill="black"/>
<path d="M108.614 157.859L64.5719 166.469L65.5653 161.833L108.614 157.859Z" fill="black"/>
</g>
<path d="M111.925 156.867L63.9096 165.807L57.949 178.722L145.04 212.83L150.007 198.591L120.204 160.178C116.892 155.873 115.899 156.204 111.925 156.867Z" fill="#3F55D7"/>
</g>
<path d="M112.591 41.6343C100.816 43.7626 38.5479 42.847 48.6006 67.1022C50.3877 71.4142 57.9028 80.3397 64.1524 71.7918C66.3908 66.9588 64.1858 63.8881 57.534 60.1104C48.2278 55.9413 23.9533 47.721 12.4524 79.5694C12.0362 85.2786 8.49995 98.0003 23.9533 109.648C57.0295 134.58 70.1021 139.48 70.9999 151" stroke="url(#paint0_linear_1_486)" stroke-linejoin="round" stroke-dasharray="3 3"/>
<path d="M91.6034 121.694C93.9313 118.245 92.0884 115.466 90.8759 114.508L92.331 109.836C96.6959 110.986 98.7571 108.399 99.2421 106.962L157.805 127.802C156.35 131.827 159.381 134.031 161.078 134.63L159.259 138.941C156.932 138.367 155.622 139.9 155.258 140.738L91.6034 121.694Z" fill="#F0D162"/>
<path d="M115.024 118.45L110.241 131.696M137.556 126.364L132.773 139.611M145.016 144.036L98.301 127.15C97.4552 126.845 97.0142 125.904 97.32 125.059L100.992 114.885C101.298 114.039 102.238 113.598 103.084 113.904L149.794 130.788C150.64 131.094 151.081 132.034 150.775 132.88L147.105 143.048C147.032 143.25 146.921 143.436 146.777 143.595C146.633 143.754 146.459 143.883 146.265 143.975C146.071 144.066 145.861 144.119 145.647 144.13C145.432 144.14 145.218 144.109 145.016 144.036Z" stroke="white" stroke-width="3" stroke-miterlimit="10"/>
<g filter="url(#filter0_di_1_486)">
<path d="M108.944 46.1915L114.899 17.168L179.87 68.4625L108.944 46.1915Z" fill="url(#paint1_linear_1_486)"/>
<path d="M178.089 67.3049L114.865 17.2955L130.735 11.0693L180.385 69.0087L84.9356 27.5112L106.725 20.1493L178.089 67.3049Z" fill="url(#paint2_linear_1_486)"/>
</g>
<defs>
<filter id="filter0_di_1_486" x="76.9356" y="6.06934" width="165.449" height="117.939" filterUnits="userSpaceOnUse" color-interpolation-filters="sRGB">
<feFlood flood-opacity="0" result="BackgroundImageFix"/>
<feColorMatrix in="SourceAlpha" type="matrix" values="0 0 0 0 0 0 0 0 0 0 0 0 0 0 0 0 0 0 127 0" result="hardAlpha"/>
<feOffset dx="32" dy="25"/>
<feGaussianBlur stdDeviation="15"/>
<feColorMatrix type="matrix" values="0 0 0 0 0.937255 0 0 0 0 0.403922 0 0 0 0 0.607843 0 0 0 0.1 0"/>
<feBlend mode="normal" in2="BackgroundImageFix" result="effect1_dropShadow_1_486"/>
<feBlend mode="normal" in="SourceGraphic" in2="effect1_dropShadow_1_486" result="shape"/>
<feColorMatrix in="SourceAlpha" type="matrix" values="0 0 0 0 0 0 0 0 0 0 0 0 0 0 0 0 0 0 127 0" result="hardAlpha"/>
<feOffset dx="-10" dy="1"/>
<feGaussianBlur stdDeviation="4"/>
<feComposite in2="hardAlpha" operator="arithmetic" k2="-1" k3="1"/>
<feColorMatrix type="matrix" values="0 0 0 0 0.745833 0 0 0 0 0.180243 0 0 0 0 0.383856 0 0 0 0.15 0"/>
<feBlend mode="normal" in2="shape" result="effect2_innerShadow_1_486"/>
</filter>
<linearGradient id="paint0_linear_1_486" x1="63.8887" y1="41.2549" x2="98.7188" y2="147.264" gradientUnits="userSpaceOnUse">
<stop stop-color="#957580"/>
<stop offset="0.49817" stop-color="#8C6E79" stop-opacity="0.55"/>
<stop offset="1" stop-color="#745862" stop-opacity="0"/>
</linearGradient>
<linearGradient id="paint1_linear_1_486" x1="149.344" y1="44.6329" x2="143.094" y2="54.917" gradientUnits="userSpaceOnUse">
<stop stop-color="#B13964"/>
<stop offset="1" stop-color="#972951"/>
</linearGradient>
<linearGradient id="paint2_linear_1_486" x1="137.434" y1="19.3962" x2="121.693" y2="42.8609" gradientUnits="userSpaceOnUse">
<stop stop-color="#FF8181"/>
<stop offset="1" stop-color="#F2558E"/>
</linearGradient>
</defs>
</svg>
