<svg width="24" height="25" viewBox="0 0 24 25" fill="none" xmlns="http://www.w3.org/2000/svg">
<path d="M6.9937 2.90006C4.67168 3.79401 3.51067 4.24098 2.76704 5.16113C2.02341 6.08128 1.83 7.31023 1.44317 9.76813L1.07054 12.1359C0.683709 14.5938 0.490296 15.8227 0.915353 16.9268C1.34041 18.0309 2.308 18.8129 4.2432 20.3768L6.10741 21.8834C8.04261 23.4474 9.0102 24.2293 10.1789 24.4133C11.3476 24.5972 12.5086 24.1502 14.8306 23.2563L17.0675 22.3951C19.3895 21.5012 20.5505 21.0542 21.2941 20.134C22.0377 19.2139 22.2312 17.9849 22.618 15.527L22.9906 13.1593C23.3774 10.7014 23.5709 9.47243 23.1458 8.36835C22.7207 7.26427 21.7532 6.4823 19.818 4.91835L17.9537 3.41176C16.0186 1.8478 15.051 1.06583 13.8823 0.881898C12.7136 0.69797 11.5526 1.14495 9.23056 2.0389L6.9937 2.90006Z" fill="url(#paint0_linear_1_401)"/>
<defs>
<linearGradient id="paint0_linear_1_401" x1="2.23579" y1="4.7318" x2="21.8254" y2="20.5634" gradientUnits="userSpaceOnUse">
<stop stop-color="#FFE49F"/>
<stop offset="1" stop-color="#FFE49F" stop-opacity="0"/>
</linearGradient>
</defs>
</svg>
