<svg width="83" height="78" viewBox="0 0 83 78" fill="none" xmlns="http://www.w3.org/2000/svg">
<g style="mix-blend-mode:darken" opacity="0.3">
<path d="M8.03554 20.9101C12.5268 12.4291 14.7725 8.18855 18.3565 5.40519C19.4705 4.54003 20.6684 3.7887 21.9323 3.16246C25.9984 1.14773 30.7936 0.972253 40.3841 0.621309V0.621309C49.9745 0.270365 54.7697 0.0948927 58.9722 1.80705C60.2785 2.33924 61.5281 3.00101 62.7024 3.78244C66.4802 6.2964 69.0298 10.3615 74.129 18.4915V18.4915C79.2281 26.6216 81.7777 30.6867 82.3962 35.1822C82.5884 36.5796 82.6401 37.9927 82.5505 39.4003C82.2623 43.929 80.0166 48.1695 75.5253 56.6506V56.6506C71.034 65.1316 68.7884 69.3721 65.2044 72.1555C64.0904 73.0206 62.8924 73.772 61.6286 74.3982C57.5625 76.413 52.7673 76.5884 43.1768 76.9394V76.9394C33.5864 77.2903 28.7911 77.4658 24.5887 75.7536C23.2824 75.2214 22.0328 74.5597 20.8585 73.7782C17.0806 71.2643 14.5311 67.1992 9.43191 59.0691V59.0691C4.33276 50.939 1.78318 46.874 1.16472 42.3785C0.972483 40.9811 0.920773 39.568 1.01036 38.1604C1.2986 33.6317 3.54425 29.3911 8.03554 20.9101V20.9101Z" fill="url(#paint0_linear_1_400)"/>
</g>
<defs>
<linearGradient id="paint0_linear_1_400" x1="18.3529" y1="1.4275" x2="65.2079" y2="76.1332" gradientUnits="userSpaceOnUse">
<stop stop-color="#AAD6FF"/>
<stop offset="1" stop-color="#BEE0FF" stop-opacity="0"/>
</linearGradient>
</defs>
</svg>
