<svg width="478" height="488" viewBox="0 0 478 488" fill="none" xmlns="http://www.w3.org/2000/svg">
<path fill-rule="evenodd" clip-rule="evenodd" d="M164.004 379.34C241.534 422.686 339.524 394.974 382.871 317.444C426.217 239.913 398.505 141.923 320.974 98.5769C243.443 55.2308 145.453 82.9428 102.107 160.473C58.7611 238.004 86.4731 335.994 164.004 379.34ZM163.028 381.086C241.523 424.971 340.731 396.914 384.616 318.42C428.501 239.925 400.445 140.716 321.95 96.8312C243.455 52.9461 144.247 81.0027 100.362 159.497C56.4764 237.992 84.533 337.201 163.028 381.086Z" fill="url(#paint0_linear_321_2)"/>
<path fill-rule="evenodd" clip-rule="evenodd" d="M259.63 418.261C230.471 420.764 200.287 416.149 171.65 403.426C81.158 363.219 40.3932 257.267 80.5998 166.774C120.807 76.2817 226.759 35.5169 317.252 75.7236C359.566 94.5242 391.007 127.7 408.381 166.949L409.629 164.84C391.946 125.721 360.383 92.6985 318.064 73.8959C226.562 33.2407 119.427 74.4602 78.7721 165.962C38.117 257.464 79.3365 364.599 170.838 405.254C199.33 417.913 229.337 422.634 258.381 420.37L259.63 418.261Z" fill="url(#paint1_linear_321_2)"/>
<g filter="url(#filter0_d_321_2)">
<ellipse cx="26.8168" cy="26.8168" rx="26.8168" ry="26.8168" transform="matrix(-0.406035 0.913857 0.913857 0.406035 227.692 385.284)" fill="#155ACA"/>
</g>
<path d="M244.692 431L252.192 431C252.854 430.997 253.488 430.732 253.956 430.264C254.424 429.796 254.689 429.162 254.692 428.5L254.692 420.5C254.689 419.838 254.424 419.204 253.956 418.736C253.488 418.268 252.854 418.003 252.192 418L245.192 418L245.192 417.5C245.195 416.573 245.565 415.684 246.221 415.029C246.876 414.373 247.765 414.003 248.692 414C249.09 414 249.471 413.842 249.753 413.561C250.034 413.279 250.192 412.898 250.192 412.5C250.192 412.102 250.034 411.721 249.753 411.439C249.471 411.158 249.09 411 248.692 411C247.838 411 246.993 411.168 246.205 411.495C245.416 411.821 244.699 412.3 244.096 412.904C243.492 413.507 243.013 414.224 242.687 415.013C242.36 415.801 242.192 416.646 242.192 417.5L242.192 428.5C242.195 429.162 242.46 429.796 242.928 430.264C243.396 430.732 244.03 430.997 244.692 431ZM245.192 421L251.692 421L251.692 428L245.192 428L245.192 421ZM230.192 431L237.692 431C238.354 430.997 238.988 430.732 239.456 430.264C239.924 429.796 240.189 429.162 240.192 428.5L240.192 420.5C240.189 419.838 239.924 419.204 239.456 418.736C238.988 418.268 238.354 418.003 237.692 418L230.692 418L230.692 417.5C230.695 416.573 231.065 415.684 231.721 415.029C232.376 414.373 233.265 414.003 234.192 414C234.59 414 234.971 413.842 235.253 413.561C235.534 413.279 235.692 412.898 235.692 412.5C235.692 412.102 235.534 411.721 235.253 411.439C234.971 411.158 234.59 411 234.192 411C232.468 411 230.815 411.685 229.596 412.904C228.377 414.123 227.692 415.776 227.692 417.5L227.692 428.5C227.695 429.162 227.96 429.796 228.428 430.264C228.896 430.732 229.53 430.997 230.192 431ZM230.692 421L237.192 421L237.192 428L230.692 428L230.692 421Z" fill="white"/>
<defs>
<filter id="filter0_d_321_2" x="198.487" y="380.855" width="93.6469" height="93.647" filterUnits="userSpaceOnUse" color-interpolation-filters="sRGB">
<feFlood flood-opacity="0" result="BackgroundImageFix"/>
<feColorMatrix in="SourceAlpha" type="matrix" values="0 0 0 0 0 0 0 0 0 0 0 0 0 0 0 0 0 0 127 0" result="hardAlpha"/>
<feOffset dx="4" dy="7"/>
<feGaussianBlur stdDeviation="10"/>
<feComposite in2="hardAlpha" operator="out"/>
<feColorMatrix type="matrix" values="0 0 0 0 0.0823529 0 0 0 0 0.352941 0 0 0 0 0.792157 0 0 0 0.26 0"/>
<feBlend mode="normal" in2="BackgroundImageFix" result="effect1_dropShadow_321_2"/>
<feBlend mode="normal" in="SourceGraphic" in2="effect1_dropShadow_321_2" result="shape"/>
</filter>
<linearGradient id="paint0_linear_321_2" x1="351.487" y1="206.251" x2="168.053" y2="436.603" gradientUnits="userSpaceOnUse">
<stop stop-color="#F472E7"/>
<stop offset="0.727924" stop-color="#FFC4AB" stop-opacity="0"/>
<stop offset="0.975994" stop-color="white" stop-opacity="0"/>
</linearGradient>
<linearGradient id="paint1_linear_321_2" x1="130.08" y1="367.333" x2="417.963" y2="146.685" gradientUnits="userSpaceOnUse">
<stop stop-color="#7A31D7"/>
<stop offset="0.65625" stop-color="#5CBDF3" stop-opacity="0.92"/>
<stop offset="1" stop-color="white" stop-opacity="0"/>
</linearGradient>
</defs>
</svg>
