<svg width="36" height="37" viewBox="0 0 36 37" fill="none" xmlns="http://www.w3.org/2000/svg">
<g style="mix-blend-mode:darken">
<path d="M28.7951 6.00201C31.7001 8.59218 33.1527 9.88726 33.9949 11.5182C34.4742 12.4463 34.8039 13.4444 34.9717 14.4754C35.2667 16.2871 34.8714 18.1925 34.0808 22.0035V22.0035C33.2901 25.8144 32.8948 27.7199 31.9035 29.2647C31.3394 30.1439 30.6399 30.9284 29.8309 31.5893C28.4094 32.7506 26.5616 33.361 22.8659 34.5817V34.5817C19.1702 35.8025 17.3224 36.4129 15.4889 36.3268C14.4454 36.2778 13.4163 36.0643 12.4394 35.6942C10.723 35.0438 9.27046 33.7487 6.3654 31.1585V31.1585C3.46034 28.5684 2.00781 27.2733 1.16562 25.6424C0.686309 24.7142 0.356628 23.7162 0.188761 22.6851C-0.106201 20.8735 0.289109 18.968 1.07973 15.1571V15.1571C1.87035 11.3461 2.26566 9.44066 3.25696 7.89585C3.82112 7.01667 4.52062 6.23213 5.32959 5.57124C6.75105 4.40996 8.59889 3.79958 12.2946 2.5788V2.5788C15.9903 1.35803 17.8381 0.747646 19.6716 0.83373C20.7151 0.882722 21.7442 1.09624 22.7211 1.46638C24.4375 2.11676 25.89 3.41185 28.7951 6.00201V6.00201Z" fill="url(#paint0_linear_1_402)"/>
</g>
<defs>
<linearGradient id="paint0_linear_1_402" x1="26.0472" y1="6.04485" x2="-0.896661" y2="24.6836" gradientUnits="userSpaceOnUse">
<stop stop-color="#B1FAFF"/>
<stop offset="1" stop-color="#B1FAFF" stop-opacity="0"/>
</linearGradient>
</defs>
</svg>
