<svg width="31" height="31" viewBox="0 0 31 31" fill="none" xmlns="http://www.w3.org/2000/svg">
<path opacity="0.8" d="M25.9478 5.93328C28.3677 8.5959 29.5777 9.92721 30.0909 11.55C30.2351 12.0058 30.3368 12.4739 30.3949 12.9485C30.6018 14.6378 30.0538 16.3513 28.9579 19.7783C27.8619 23.2053 27.314 24.9188 26.1652 26.1747C25.8426 26.5274 25.488 26.8497 25.1061 27.1372C23.7465 28.1611 21.9886 28.5432 18.4728 29.3076C14.9569 30.072 13.199 30.4542 11.537 30.0873C11.0702 29.9843 10.6139 29.8383 10.1739 29.6514C8.60743 28.9858 7.39748 27.6545 4.97758 24.9919C2.55768 22.3293 1.34772 20.998 0.834485 19.3753C0.690318 18.9194 0.588537 18.4513 0.530434 17.9768C0.323585 16.2874 0.871558 14.5739 1.9675 11.1469C3.06345 7.71988 3.61142 6.00638 4.76013 4.75053C5.0828 4.39777 5.43734 4.07555 5.81924 3.78797C7.17884 2.76415 8.93677 2.38196 12.4526 1.61757C15.9685 0.853184 17.7264 0.47099 19.3883 0.837881C19.8552 0.940939 20.3115 1.08687 20.7515 1.27382C22.3179 1.93936 23.5279 3.27066 25.9478 5.93328Z" fill="url(#paint0_linear_1_399)"/>
<defs>
<linearGradient id="paint0_linear_1_399" x1="31.4496" y1="11.9869" x2="0.589777" y2="18.6501" gradientUnits="userSpaceOnUse">
<stop stop-color="#FFB69F"/>
<stop offset="1" stop-color="#FFB69F" stop-opacity="0"/>
</linearGradient>
</defs>
</svg>
