<svg width="71" height="43" viewBox="0 0 71 43" fill="none" xmlns="http://www.w3.org/2000/svg">
<path d="M69 22.5C69.8284 22.5 70.5 21.8284 70.5 21C70.5 20.1716 69.8284 19.5 69 19.5L69 22.5ZM69 19.5L21 19.5L21 22.5L69 22.5L69 19.5Z" fill="#08337B"/>
<circle cx="21.5" cy="21.5" r="21.5" transform="rotate(-180 21.5 21.5)" fill="url(#paint0_linear_361_4)"/>
<mask id="mask0_361_4" style="mask-type:alpha" maskUnits="userSpaceOnUse" x="0" y="0" width="43" height="43">
<circle cx="21.5" cy="21.5" r="21.5" transform="rotate(-180 21.5 21.5)" fill="#08337B"/>
</mask>
<g mask="url(#mask0_361_4)">
<path d="M43 22.5C43.8284 22.5 44.5 21.8284 44.5 21C44.5 20.1716 43.8284 19.5 43 19.5L43 22.5ZM19.9393 19.9393C19.3536 20.5251 19.3536 21.4749 19.9393 22.0607L29.4853 31.6066C30.0711 32.1924 31.0208 32.1924 31.6066 31.6066C32.1924 31.0208 32.1924 30.0711 31.6066 29.4853L23.1213 21L31.6066 12.5147C32.1924 11.9289 32.1924 10.9792 31.6066 10.3934C31.0208 9.80761 30.0711 9.80761 29.4853 10.3934L19.9393 19.9393ZM43 19.5L21 19.5L21 22.5L43 22.5L43 19.5Z" fill="white"/>
</g>
<defs>
<linearGradient id="paint0_linear_361_4" x1="4.5" y1="11" x2="36" y2="36" gradientUnits="userSpaceOnUse">
<stop stop-color="#08337B"/>
<stop offset="1" stop-color="#155ACA"/>
</linearGradient>
</defs>
</svg>
