<svg width="71" height="43" viewBox="0 0 71 43" fill="none" xmlns="http://www.w3.org/2000/svg">
<path d="M2 20.5C1.17157 20.5 0.5 21.1716 0.5 22C0.5 22.8284 1.17157 23.5 2 23.5L2 20.5ZM2 23.5L50 23.5L50 20.5L2 20.5L2 23.5Z" fill="#08337B"/>
<circle cx="49.5" cy="21.5" r="21.5" fill="url(#paint0_linear_355_3)"/>
<mask id="mask0_355_3" style="mask-type:alpha" maskUnits="userSpaceOnUse" x="28" y="0" width="43" height="43">
<circle cx="49.5" cy="21.5" r="21.5" fill="#08337B"/>
</mask>
<g mask="url(#mask0_355_3)">
<path d="M28 20.5C27.1716 20.5 26.5 21.1716 26.5 22C26.5 22.8284 27.1716 23.5 28 23.5L28 20.5ZM51.0607 23.0607C51.6464 22.4749 51.6464 21.5251 51.0607 20.9393L41.5147 11.3934C40.9289 10.8076 39.9792 10.8076 39.3934 11.3934C38.8076 11.9792 38.8076 12.9289 39.3934 13.5147L47.8787 22L39.3934 30.4853C38.8076 31.0711 38.8076 32.0208 39.3934 32.6066C39.9792 33.1924 40.9289 33.1924 41.5147 32.6066L51.0607 23.0607ZM28 23.5L50 23.5L50 20.5L28 20.5L28 23.5Z" fill="white"/>
</g>
<defs>
<linearGradient id="paint0_linear_355_3" x1="32.5" y1="11" x2="64" y2="36" gradientUnits="userSpaceOnUse">
<stop stop-color="#08337B"/>
<stop offset="1" stop-color="#155ACA"/>
</linearGradient>
</defs>
</svg>
